<?xml version="1.0" encoding="utf-8"?>
<svg width="64" height="64" viewBox="0 0 64 64" fill="none" xmlns="http://www.w3.org/2000/svg">
  <defs>
    <linearGradient id="gradient_1" gradientUnits="userSpaceOnUse" x1="0" y1="0" x2="53" y2="7">
      <stop offset="0" stop-color="#FFFFFF" />
      <stop offset="0.995" stop-color="#A9DCDF" />
    </linearGradient>
    <filter color-interpolation-filters="sRGB" x="-51" y="-5" width="53" height="7" id="filter_2">
      <feFlood flood-opacity="0" result="BackgroundImageFix_1" />
      <feColorMatrix type="matrix" values="0 0 0 0 0 0 0 0 0 0 0 0 0 0 0 0 0 0 1 0" in="SourceAlpha" />
      <feOffset dx="2" dy="2" />
      <feGaussianBlur stdDeviation="1" />
      <feColorMatrix type="matrix" values="0 0 0 0 0 0 0 0 0 0 0 0 0 0 0 0 0 0 0.498 0" />
      <feBlend mode="normal" in2="BackgroundImageFix_1" result="Shadow_2" />
      <feBlend mode="normal" in="SourceGraphic" in2="Shadow_2" result="Shape_3" />
    </filter>
    <linearGradient id="gradient_3" gradientUnits="userSpaceOnUse" x1="0" y1="0" x2="49.553" y2="28.668">
      <stop offset="0.03" stop-color="#FFFFFF" />
      <stop offset="1" stop-color="#E5E5E5" />
    </linearGradient>
    <filter color-interpolation-filters="sRGB" x="-51" y="-28" width="53" height="30" id="filter_4">
      <feFlood flood-opacity="0" result="BackgroundImageFix_1" />
      <feColorMatrix type="matrix" values="0 0 0 0 0 0 0 0 0 0 0 0 0 0 0 0 0 0 1 0" in="SourceAlpha" />
      <feOffset dx="2" dy="2" />
      <feGaussianBlur stdDeviation="1" />
      <feColorMatrix type="matrix" values="0 0 0 0 0 0 0 0 0 0 0 0 0 0 0 0 0 0 0.498 0" />
      <feBlend mode="normal" in2="BackgroundImageFix_1" result="Shadow_2" />
      <feBlend mode="normal" in="SourceGraphic" in2="Shadow_2" result="Shape_3" />
    </filter>
    <linearGradient id="gradient_5" gradientUnits="userSpaceOnUse" x1="0" y1="0" x2="5" y2="5">
      <stop offset="0.163" stop-color="#FFFFFF" />
      <stop offset="1" stop-color="#7B3A7F" />
    </linearGradient>
    <linearGradient id="gradient_6" gradientUnits="userSpaceOnUse" x1="0" y1="0" x2="5" y2="5">
      <stop offset="0" stop-color="#FFFFFF" />
      <stop offset="0.995" stop-color="#A9DCDF" />
    </linearGradient>
    <linearGradient id="gradient_7" gradientUnits="userSpaceOnUse" x1="0" y1="0" x2="5" y2="5">
      <stop offset="0.169" stop-color="#FFFFFF" />
      <stop offset="0.985" stop-color="#5C6ACC" />
    </linearGradient>
  </defs>
  <g>
    <rect width="64" height="64" fill="#FEFEFE" fill-rule="evenodd" />
    <g transform="translate(4.5 16.5)">
      <g>
        <path d="M3.4332 0C1.5373 0 0 1.04101 0 2.32516L0 7L53 7L53 2.32516C53 1.04101 51.4627 0 49.5667 0L3.4332 0Z" fill="url(#gradient_1)" fill-rule="evenodd" stroke-width="1" stroke="#113D7E" stroke-linecap="round" stroke-linejoin="round" filter="url(#filter_2)" />
        <path d="M0 0L0 28.434C0 29.2989 1.5373 30 3.4332 30L49.5667 30C51.4627 30 53 29.2989 53 28.434L53 0L0 0Z" fill="url(#gradient_3)" fill-rule="evenodd" stroke-width="1" stroke="#113D7E" stroke-linecap="round" stroke-linejoin="round" filter="url(#filter_4)" transform="translate(0 7)" />
        <path d="M21.1211 0C21.1211 0 1.48516 0 1.48516 0C1.05391 0 0.71875 0.14375 0.43125 0.43125C0.14375 0.71875 0 1.05391 0 1.48516C0 1.48516 0 1.48516 0 1.48516C0 1.48516 0 22.0789 0 22.0789C0 22.5102 0.14375 22.8453 0.43125 23.1328C0.71875 23.4203 1.05391 23.5641 1.48516 23.5641C1.48516 23.5641 1.48516 23.5641 1.48516 23.5641C1.48516 23.5641 21.1211 23.5641 21.1211 23.5641C21.5523 23.5641 21.8875 23.4203 22.175 23.1328C22.4625 22.8453 22.6063 22.5102 22.6063 22.0789C22.6063 22.0789 22.6063 22.0789 22.6063 22.0789C22.6063 22.0789 22.6063 1.48516 22.6063 1.48516C22.6063 1.05391 22.4625 0.71875 22.175 0.43125C21.8875 0.14375 21.5523 0 21.1211 0C21.1211 0 21.1211 0 21.1211 0ZM21.6 22.0781C21.6 22.4133 21.4562 22.557 21.1211 22.557C21.1211 22.557 21.1211 22.557 21.1211 22.557C21.1211 22.557 1.48513 22.557 1.48513 22.557C1.14998 22.557 1.00623 22.4133 1.00623 22.0781C1.00623 22.0781 1.00623 22.0781 1.00623 22.0781C1.00623 22.0781 1.00623 1.48437 1.00623 1.48437C1.00623 1.14921 1.14998 1.00546 1.48513 1.00546C1.48513 1.00546 1.48513 1.00546 1.48513 1.00546C1.48513 1.00546 21.1211 1.00546 21.1211 1.00546C21.4562 1.00546 21.6 1.14921 21.6 1.48437C21.6 1.48437 21.6 1.48437 21.6 1.48437C21.6 1.48437 21.6 22.0781 21.6 22.0781ZM3.92729 10.8242C3.92729 10.8242 9.81792 10.8242 9.81792 10.8242C10.1054 10.8242 10.3445 10.7281 10.5367 10.5367C10.7289 10.3453 10.8242 10.1055 10.8242 9.81798C10.8242 9.81798 10.8242 9.81798 10.8242 9.81798C10.8242 9.81798 10.8242 4.93283 10.8242 4.93283C10.8242 4.69376 10.7281 4.45392 10.5367 4.21408C10.3453 4.02267 10.1054 3.92657 9.81792 3.92657C9.81792 3.92657 9.81792 3.92657 9.81792 3.92657C9.81792 3.92657 3.92729 3.92657 3.92729 3.92657C3.68823 3.92657 3.44839 4.02267 3.25698 4.21408C3.06558 4.45314 2.96948 4.69298 2.96948 4.93283C2.96948 4.93283 2.96948 4.93283 2.96948 4.93283C2.96948 4.93283 2.96948 9.81798 2.96948 9.81798C2.96948 10.1055 3.06558 10.3445 3.25698 10.5367C3.44839 10.7289 3.68823 10.8242 3.92729 10.8242C3.92729 10.8242 3.92729 10.8242 3.92729 10.8242ZM3.92737 4.9328C3.92737 4.9328 9.81799 4.9328 9.81799 4.9328C9.81799 4.9328 9.81799 9.81796 9.81799 9.81796C9.81799 9.81796 3.92737 9.81796 3.92737 9.81796C3.92737 9.81796 3.92737 4.9328 3.92737 4.9328ZM19.6359 4.4539C19.6359 4.78906 19.4922 4.93281 19.157 4.93281C19.157 4.93281 19.157 4.93281 19.157 4.93281C19.157 4.93281 13.2664 4.93281 13.2664 4.93281C12.9312 4.93281 12.7875 4.78906 12.7875 4.4539C12.7875 4.4539 12.7875 4.4539 12.7875 4.4539C12.7875 4.11874 12.9312 3.92734 13.2664 3.92734C13.2664 3.92734 13.2664 3.92734 13.2664 3.92734C13.2664 3.92734 19.157 3.92734 19.157 3.92734C19.4922 3.92734 19.6359 4.11874 19.6359 4.4539C19.6359 4.4539 19.6359 4.4539 19.6359 4.4539ZM19.157 6.89688C19.4922 6.89688 19.6359 7.04063 19.6359 7.37579C19.6359 7.71094 19.4922 7.85469 19.157 7.85469C19.157 7.85469 19.157 7.85469 19.157 7.85469C19.157 7.85469 13.2664 7.85469 13.2664 7.85469C12.9312 7.85469 12.7875 7.71094 12.7875 7.37579C12.7875 7.04063 12.9312 6.89688 13.2664 6.89688C13.2664 6.89688 13.2664 6.89688 13.2664 6.89688C13.2664 6.89688 19.157 6.89688 19.157 6.89688ZM19.6359 10.2969C19.6359 10.632 19.4922 10.8234 19.157 10.8234C19.157 10.8234 19.157 10.8234 19.157 10.8234C19.157 10.8234 13.2664 10.8234 13.2664 10.8234C12.9312 10.8234 12.7875 10.632 12.7875 10.2969C12.7875 10.2969 12.7875 10.2969 12.7875 10.2969C12.7875 9.96171 12.9312 9.81796 13.2664 9.81796C13.2664 9.81796 13.2664 9.81796 13.2664 9.81796C13.2664 9.81796 19.157 9.81796 19.157 9.81796C19.4922 9.81796 19.6359 9.96171 19.6359 10.2969C19.6359 10.2969 19.6359 10.2969 19.6359 10.2969ZM19.157 12.7875C19.4921 12.7875 19.6359 12.9313 19.6359 13.2664C19.6359 13.6016 19.4921 13.7453 19.157 13.7453C19.157 13.7453 19.157 13.7453 19.157 13.7453C19.157 13.7453 3.44839 13.7453 3.44839 13.7453C3.11323 13.7453 2.96948 13.6016 2.96948 13.2664C2.96948 12.9313 3.11323 12.7875 3.44839 12.7875C3.44839 12.7875 3.44839 12.7875 3.44839 12.7875C3.44839 12.7875 19.157 12.7875 19.157 12.7875ZM19.6359 16.1875C19.6359 16.5226 19.4921 16.7141 19.157 16.7141C19.157 16.7141 19.157 16.7141 19.157 16.7141C19.157 16.7141 3.44839 16.7141 3.44839 16.7141C3.11323 16.7141 2.96948 16.5226 2.96948 16.1875C2.96948 16.1875 2.96948 16.1875 2.96948 16.1875C2.96948 15.8523 3.11323 15.7086 3.44839 15.7086C3.44839 15.7086 3.44839 15.7086 3.44839 15.7086C3.44839 15.7086 19.157 15.7086 19.157 15.7086C19.4921 15.7086 19.6359 15.8523 19.6359 16.1875C19.6359 16.1875 19.6359 16.1875 19.6359 16.1875ZM19.157 18.6781C19.4921 18.6781 19.6359 18.8219 19.6359 19.157C19.6359 19.4922 19.4921 19.6359 19.157 19.6359C19.157 19.6359 19.157 19.6359 19.157 19.6359C19.157 19.6359 3.44839 19.6359 3.44839 19.6359C3.11323 19.6359 2.96948 19.4922 2.96948 19.157C2.96948 18.8219 3.11323 18.6781 3.44839 18.6781C3.44839 18.6781 3.44839 18.6781 3.44839 18.6781C3.44839 18.6781 19.157 18.6781 19.157 18.6781Z" fill="#113D7E" transform="translate(3 10)" />
        <path d="M22.6055 6.84921C22.6055 6.84921 0 6.84921 0 6.84921C0 6.84921 0 24.5219 0 24.5219C0 24.5219 22.6055 24.5219 22.6055 24.5219C22.6055 24.5219 22.6055 6.84921 22.6055 6.84921ZM21.5996 23.5641C21.5996 23.5641 1.00586 23.5641 1.00586 23.5641C1.00586 23.5641 1.00586 7.85547 1.00586 7.85547C1.00586 7.85547 21.5996 7.85547 21.5996 7.85547C21.5996 7.85547 21.5996 23.5641 21.5996 23.5641ZM2.96973 9.81952C2.96973 9.81952 19.6361 9.81952 19.6361 9.81952C19.6361 9.81952 19.6361 11.7828 19.6361 11.7828C19.6361 11.7828 2.96973 11.7828 2.96973 11.7828C2.96973 11.7828 2.96973 9.81952 2.96973 9.81952ZM2.96973 15.7102C2.96973 15.7102 2.96973 13.7469 2.96973 13.7469C2.96973 13.7469 12.7877 13.7469 12.7877 13.7469C12.7877 13.7469 12.7877 15.7102 12.7877 15.7102C12.7877 15.7102 2.96973 15.7102 2.96973 15.7102C2.96973 15.7102 2.96973 15.7102 2.96973 15.7102ZM14.751 15.7102C14.751 15.7102 14.751 13.7469 14.751 13.7469C14.751 13.7469 19.6361 13.7469 19.6361 13.7469C19.6361 13.7469 19.6361 15.7102 19.6361 15.7102C19.6361 15.7102 14.751 15.7102 14.751 15.7102C14.751 15.7102 14.751 15.7102 14.751 15.7102ZM17.8166 18.1523C17.8166 18.1523 17.8166 19.1102 17.8166 19.1102C17.8166 19.1102 14.8955 19.1102 14.8955 19.1102C14.8955 19.1102 14.8955 21.0734 14.8955 21.0734C14.8955 21.0734 17.8166 21.0734 17.8166 21.0734C17.8166 21.0734 17.8166 22.0789 17.8166 22.0789C17.8166 22.0789 19.7799 20.1156 19.7799 20.1156C19.7799 20.1156 17.8166 18.1523 17.8166 18.1523C17.8166 18.1523 17.8166 18.1523 17.8166 18.1523ZM4.21484 0.719543C4.69375 1.19845 4.93359 1.77345 4.93359 2.44376C4.93359 3.11407 4.69453 3.68907 4.21484 4.16798C3.73594 4.64689 3.16094 4.88673 2.49063 4.88673C2.49063 4.88673 2.49063 4.88673 2.49063 4.88673C1.77188 4.88673 1.19766 4.64767 0.71875 4.16798C0.239843 3.68829 0 3.11407 0 2.44376C0 1.77345 0.239843 1.19845 0.71875 0.719543C1.19766 0.240637 1.77266 0.000793457 2.49063 0.000793457C2.49063 0.000793457 2.49063 0.000793457 2.49063 0.000793457C3.16094 0.000793457 3.73594 0.239856 4.21484 0.719543C4.21484 0.719543 4.21484 0.719543 4.21484 0.719543ZM19.109 3.49689C19.348 3.78439 19.684 3.92814 20.1145 3.92814C20.5449 3.92814 20.8809 3.78439 21.1684 3.49689C21.4559 3.20939 21.5996 2.87423 21.5996 2.44298C21.5996 2.01173 21.4559 1.67657 21.1684 1.38907C20.8809 1.10157 20.5457 0.957825 20.1145 0.957825C19.6832 0.957825 19.348 1.10157 19.109 1.38907C18.8215 1.67657 18.6777 2.01173 18.6777 2.44298C18.6777 2.87423 18.8215 3.20939 19.109 3.49689ZM20.1148 4.88594C19.4445 4.88594 18.8695 4.64688 18.3906 4.16719C17.9117 3.6875 17.6719 3.11328 17.6719 2.44297C17.6719 1.77266 17.9109 1.19766 18.3906 0.71875C18.8703 0.239843 19.4445 0 20.1148 0C20.1148 0 20.1148 0 20.1148 0C20.8336 0 21.4078 0.239062 21.8867 0.71875C22.3656 1.19844 22.6055 1.77266 22.6055 2.44297C22.6055 3.11328 22.3664 3.68828 21.8867 4.16719C21.407 4.64609 20.8328 4.88594 20.1148 4.88594C20.1148 4.88594 20.1148 4.88594 20.1148 4.88594ZM10.2496 3.49689C10.5371 3.78439 10.8723 3.92814 11.3035 3.92814C11.7348 3.92814 12.0699 3.78439 12.3574 3.49689C12.6449 3.20939 12.7887 2.87423 12.7887 2.44298C12.7887 2.01173 12.6449 1.67657 12.3574 1.38907C12.0699 1.10157 11.7348 0.957825 11.3035 0.957825C10.8723 0.957825 10.5371 1.10157 10.2496 1.38907C9.96211 1.67657 9.81836 2.01173 9.81836 2.44298C9.81836 2.87423 9.96211 3.20939 10.2496 3.49689C10.2496 3.49689 10.2496 3.49689 10.2496 3.49689ZM13.0266 4.16798C12.5477 4.64689 11.9727 4.88673 11.3023 4.88673C10.632 4.88673 10.057 4.64767 9.57813 4.16798C9.09922 3.68907 8.85938 3.11407 8.85938 2.44376C8.85938 1.77345 9.09844 1.19845 9.57813 0.719543C10.057 0.240637 10.632 0.000793457 11.3023 0.000793457C11.9727 0.000793457 12.5477 0.239856 13.0266 0.719543C13.5055 1.19845 13.7453 1.77345 13.7453 2.44376C13.7453 3.11407 13.5062 3.68907 13.0266 4.16798ZM13.2666 1.96484C13.2666 1.96484 18.1518 1.96484 18.1518 1.96484C18.1518 1.96484 18.1518 2.92266 18.1518 2.92266C18.1518 2.92266 13.2666 2.92266 13.2666 2.92266C13.2666 2.92266 13.2666 1.96484 13.2666 1.96484ZM1.96387 1.96484C1.96387 1.96484 9.33965 1.96484 9.33965 1.96484C9.33965 1.96484 9.33965 2.92266 9.33965 2.92266C9.33965 2.92266 1.96387 2.92266 1.96387 2.92266C1.96387 2.92266 1.96387 1.96484 1.96387 1.96484Z" fill="#113D7E" transform="translate(27 9)" />
        <g transform="translate(45 9)">
          <path d="M3.8647 0.39889C4.43787 0.763092 4.77493 1.25554 4.92803 1.94127C5.08108 2.62698 4.99379 3.25282 4.62987 3.82675C4.26615 4.40069 3.74588 4.78228 3.06112 4.93553C2.37635 5.08883 1.74337 4.96534 1.17015 4.60119C0.596975 4.23691 0.215861 3.71595 0.0628662 3.03027C-0.0902812 2.34456 0.0411479 1.74718 0.404917 1.17325C0.768687 0.599314 1.28896 0.217743 1.97367 0.064443C2.65849 -0.0888062 3.29147 0.0346629 3.86464 0.39889L3.8647 0.39889Z" fill="url(#gradient_5)" fill-rule="evenodd" stroke-width="0.5" stroke="#113D7E" stroke-linecap="round" stroke-linejoin="round" />
        </g>
        <g transform="translate(36 9)">
          <path d="M3.8647 0.39889C4.43787 0.763092 4.77493 1.25554 4.92803 1.94127C5.08108 2.62698 4.99379 3.25282 4.62987 3.82675C4.26615 4.40069 3.74588 4.78228 3.06112 4.93553C2.37635 5.08883 1.74337 4.96534 1.17015 4.60119C0.596975 4.23691 0.215861 3.71595 0.0628662 3.03027C-0.0902812 2.34456 0.0411479 1.74718 0.404917 1.17325C0.768687 0.599314 1.28896 0.217743 1.97367 0.064443C2.65849 -0.0888062 3.29147 0.0346629 3.86464 0.39889L3.8647 0.39889Z" fill="url(#gradient_6)" fill-rule="evenodd" stroke-width="0.5" stroke="#113D7E" stroke-linecap="round" stroke-linejoin="round" />
        </g>
        <g transform="translate(27 9)">
          <path d="M3.8647 0.39889C4.43787 0.763092 4.77493 1.25554 4.92803 1.94127C5.08108 2.62698 4.99379 3.25282 4.62987 3.82675C4.26615 4.40069 3.74588 4.78228 3.06112 4.93553C2.37635 5.08883 1.74337 4.96534 1.17015 4.60119C0.596975 4.23691 0.215861 3.71595 0.0628662 3.03027C-0.0902812 2.34456 0.0411479 1.74718 0.404917 1.17325C0.768687 0.599314 1.28896 0.217743 1.97367 0.064443C2.65849 -0.0888062 3.29147 0.0346629 3.86464 0.39889L3.8647 0.39889Z" fill="url(#gradient_7)" fill-rule="evenodd" stroke-width="0.5" stroke="#113D7E" />
        </g>
        <path d="M0 1.5C0 0.671573 0.671573 0 1.5 0C2.32843 0 3 0.671573 3 1.5C3 2.32843 2.32843 3 1.5 3C0.671573 3 0 2.32843 0 1.5Z" fill="#113D7E" fill-rule="evenodd" transform="translate(2 2)" />
        <path d="M0 1.5C0 0.671573 0.671573 0 1.5 0C2.32843 0 3 0.671573 3 1.5C3 2.32843 2.32843 3 1.5 3C0.671573 3 0 2.32843 0 1.5Z" fill="#113D7E" fill-rule="evenodd" transform="translate(6 2)" />
        <path d="M0 1.5C0 0.671573 0.671573 0 1.5 0C2.32843 0 3 0.671573 3 1.5C3 2.32843 2.32843 3 1.5 3C0.671573 3 0 2.32843 0 1.5Z" fill="#113D7E" fill-rule="evenodd" transform="translate(10 2)" />
      </g>
    </g>
  </g>
</svg>