<?xml version="1.0" encoding="utf-8"?>
<svg width="64" height="64" viewBox="0 0 64 64" fill="none" xmlns="http://www.w3.org/2000/svg">
  <defs>
    <linearGradient id="gradient_1" gradientUnits="userSpaceOnUse" x1="48.181" y1="33.944" x2="0.144" y2="1.815">
      <stop offset="0" stop-color="#A9DCDF" />
      <stop offset="1" stop-color="#FFFFFF" />
    </linearGradient>
    <filter color-interpolation-filters="sRGB" x="-46.181" y="-31.944" width="48.181" height="33.944" id="filter_2">
      <feFlood flood-opacity="0" result="BackgroundImageFix_1" />
      <feColorMatrix type="matrix" values="0 0 0 0 0 0 0 0 0 0 0 0 0 0 0 0 0 0 1 0" in="SourceAlpha" />
      <feOffset dx="0" dy="4" />
      <feGaussianBlur stdDeviation="2" />
      <feColorMatrix type="matrix" values="0 0 0 0 0 0 0 0 0 0 0 0 0 0 0 0 0 0 0.251 0" />
      <feBlend mode="normal" in2="BackgroundImageFix_1" result="Shadow_2" />
      <feBlend mode="normal" in="SourceGraphic" in2="Shadow_2" result="Shape_3" />
    </filter>
  </defs>
  <g>
    <rect width="64" height="64" fill="#FEFEFE" fill-rule="evenodd" />
    <g transform="translate(7 9)">
      <g>
        <rect width="48.181" height="33.944" fill="url(#gradient_1)" fill-rule="evenodd" filter="url(#filter_2)" transform="translate(1.142 11)" />
        <path d="M47.4101 8.08229C47.4101 8.08229 47.4101 8.08229 47.4101 8.08229C47.4101 8.08229 36.3711 8.08229 36.3711 8.08229C36.3711 8.08229 36.3711 5.02752 36.3711 5.02752C36.3711 3.648 35.8795 2.46471 34.892 1.47915C33.9048 0.493601 32.7231 0 31.2455 0C31.2455 0 31.2455 0 31.2455 0C31.2455 0 19.221 0 19.221 0C17.7418 0 16.5601 0.492358 15.5745 1.47915C14.589 2.46636 14.0954 3.648 14.0954 5.02752C14.0954 5.02752 14.0954 5.02752 14.0954 5.02752C14.0954 5.02752 14.0954 8.08229 14.0954 8.08229C14.0954 8.08229 3.05639 8.08229 3.05639 8.08229C2.16892 8.08229 1.47915 8.37785 0.887547 8.96976C0.295639 9.56167 0 10.2511 0 11.1387C0 11.1387 0 11.1387 0 11.1387C0 11.1387 0 43.3681 0 43.3681C0 44.2556 0.29556 44.9454 0.887547 45.5371C1.47946 46.129 2.16892 46.4245 3.05639 46.4245C3.05639 46.4245 3.05639 46.4245 3.05639 46.4245C3.05639 46.4245 47.4085 46.4245 47.4085 46.4245C48.296 46.4245 48.9857 46.129 49.5774 45.5371C50.1693 44.9452 50.4649 44.2556 50.4649 43.3681C50.4649 43.3681 50.4649 43.3681 50.4649 43.3681C50.4649 43.3681 50.4649 11.1387 50.4649 11.1387C50.4649 10.2511 50.1693 9.56145 49.5774 8.96976C48.9855 8.37785 48.296 8.08229 47.4085 8.08229C47.4085 8.08229 47.4101 8.08229 47.4101 8.08229ZM16.1662 8.08229C16.1662 8.08229 16.1662 5.02752 16.1662 5.02752C16.1662 4.14005 16.4618 3.45029 17.0537 2.85861C17.6456 2.2667 18.3351 1.97114 19.2226 1.97114C19.2226 1.97114 19.2226 1.97114 19.2226 1.97114C19.2226 1.97114 31.2472 1.97114 31.2472 1.97114C32.1347 1.97114 32.8244 2.2667 33.4161 2.85861C34.008 3.45052 34.3036 4.14006 34.3036 5.02753C34.3036 5.02753 34.3036 5.02753 34.3036 5.02753C34.3036 5.02753 34.3036 8.08229 34.3036 8.08229C34.3036 8.08229 16.1678 8.08229 16.1678 8.08229C16.1678 8.08229 16.1662 8.08229 16.1662 8.08229ZM48.8877 21.0924C48.8877 21.0924 48.4942 43.3665 48.4942 43.3665C48.4942 44.0564 48.1006 44.4501 47.4105 44.4501C47.4105 44.4501 47.4105 44.4501 47.4105 44.4501C47.4105 44.4501 3.05837 44.4501 3.05837 44.4501C2.36846 44.4501 1.9747 44.0566 1.9747 43.3665C1.9747 43.3665 1.9747 43.3665 1.9747 43.3665C1.9747 43.3665 1.9747 21.2886 1.9747 21.2886C7.19838 24.2452 13.1118 26.6103 19.6168 28.4833C19.6168 28.4833 19.6168 28.4833 19.6168 28.4833C19.6168 28.4833 20.2087 32.3275 20.2087 32.3275C20.2087 32.8199 20.4064 33.3131 20.8006 33.707C21.1942 34.1006 21.6882 34.2989 22.1802 34.2989C22.1802 34.2989 22.1802 34.2989 22.1802 34.2989C22.1802 34.2989 28.2913 34.2989 28.2913 34.2989C28.7829 34.2989 29.2769 34.1012 29.6708 33.707C30.0643 33.3134 30.2627 32.8195 30.2627 32.3275C30.2627 32.3275 30.2627 32.3275 30.2627 32.3275C30.2627 32.3275 30.2627 28.583 30.2627 28.583C37.0635 26.71 43.2728 24.2469 48.8904 21.0924C48.8904 21.0924 48.8904 21.0924 48.8904 21.0924C48.8904 21.0924 48.8877 21.0924 48.8877 21.0924ZM22.1777 32.3275C22.1777 32.3275 22.1777 28.977 22.1777 28.977C23.0652 29.1746 24.0507 29.2725 25.2325 29.2725C25.2325 29.2725 25.2325 29.2725 25.2325 29.2725C26.3161 29.2725 27.4014 29.1746 28.3869 28.977C28.3869 28.977 28.3869 28.977 28.3869 28.977C28.3869 28.977 28.289 32.3275 28.289 32.3275C28.289 32.3275 22.1779 32.3275 22.1779 32.3275C22.1779 32.3275 22.1777 32.3275 22.1777 32.3275ZM48.4938 11.1371C48.4938 11.1371 48.4938 19.0216 48.4938 19.0216C48.4938 19.0216 48.0022 19.3171 48.0022 19.3171C37.4568 24.5408 29.8665 27.2016 25.2345 27.2016C20.6025 27.2016 13.0122 24.5408 2.46676 19.3171C2.46676 19.3171 2.46676 19.3171 2.46676 19.3171C2.46676 19.3171 1.97519 19.0216 1.97519 19.0216C1.97519 19.0216 1.97519 11.1371 1.97519 11.1371C1.97519 10.4471 2.36876 10.0534 3.05882 10.0534C3.05882 10.0534 3.05882 10.0534 3.05882 10.0534C3.05882 10.0534 47.411 10.0534 47.411 10.0534C48.1009 10.0534 48.4946 10.447 48.4946 11.1371C48.4946 11.1371 48.4946 11.1371 48.4946 11.1371C48.4946 11.1371 48.4938 11.1371 48.4938 11.1371Z" fill="#113D7E" />
      </g>
    </g>
  </g>
</svg>