<?xml version="1.0" encoding="utf-8"?>
<svg width="66.5" height="64" viewBox="0 0 66.5 64" fill="none" xmlns="http://www.w3.org/2000/svg">
  <defs>
    <filter color-interpolation-filters="sRGB" x="-4" y="-4.6" width="6" height="6.6" id="filter_1">
      <feFlood flood-opacity="0" result="BackgroundImageFix_1" />
      <feColorMatrix type="matrix" values="0 0 0 0 0 0 0 0 0 0 0 0 0 0 0 0 0 0 1 0" in="SourceAlpha" />
      <feOffset dx="0" dy="4" />
      <feGaussianBlur stdDeviation="2" />
      <feColorMatrix type="matrix" values="0 0 0 0 0 0 0 0 0 0 0 0 0 0 0 0 0 0 0.251 0" />
      <feBlend mode="normal" in2="BackgroundImageFix_1" result="Shadow_2" />
      <feBlend mode="normal" in="SourceGraphic" in2="Shadow_2" result="Shape_3" />
    </filter>
    <linearGradient id="gradient_2" gradientUnits="userSpaceOnUse" x1="0" y1="0" x2="6" y2="6.6">
      <stop offset="0" stop-color="#FFFFFF" />
      <stop offset="0.995" stop-color="#A9DCDF" />
    </linearGradient>
    <filter color-interpolation-filters="sRGB" x="-4" y="-4.6" width="6" height="6.6" id="filter_3">
      <feFlood flood-opacity="0" result="BackgroundImageFix_1" />
      <feColorMatrix type="matrix" values="0 0 0 0 0 0 0 0 0 0 0 0 0 0 0 0 0 0 1 0" in="SourceAlpha" />
      <feOffset dx="2" dy="2" />
      <feGaussianBlur stdDeviation="1" />
      <feColorMatrix type="matrix" values="0 0 0 0 0 0 0 0 0 0 0 0 0 0 0 0 0 0 0.498 0" />
      <feBlend mode="normal" in2="BackgroundImageFix_1" result="Shadow_2" />
      <feBlend mode="normal" in="SourceGraphic" in2="Shadow_2" result="Shape_3" />
    </filter>
    <linearGradient id="gradient_4" gradientUnits="userSpaceOnUse" x1="0" y1="0" x2="6" y2="6.6">
      <stop offset="0.163" stop-color="#FFFFFF" />
      <stop offset="1" stop-color="#7B3A7F" />
    </linearGradient>
    <filter color-interpolation-filters="sRGB" x="-4" y="-4.6" width="6" height="6.6" id="filter_5">
      <feFlood flood-opacity="0" result="BackgroundImageFix_1" />
      <feColorMatrix type="matrix" values="0 0 0 0 0 0 0 0 0 0 0 0 0 0 0 0 0 0 1 0" in="SourceAlpha" />
      <feOffset dx="2" dy="2" />
      <feGaussianBlur stdDeviation="1" />
      <feColorMatrix type="matrix" values="0 0 0 0 0 0 0 0 0 0 0 0 0 0 0 0 0 0 0.498 0" />
      <feBlend mode="normal" in2="BackgroundImageFix_1" result="Shadow_2" />
      <feBlend mode="normal" in="SourceGraphic" in2="Shadow_2" result="Shape_3" />
    </filter>
    <linearGradient id="gradient_6" gradientUnits="userSpaceOnUse" x1="0" y1="0" x2="6" y2="6.6">
      <stop offset="0.169" stop-color="#FFFFFF" />
      <stop offset="0.985" stop-color="#BAC0E9" />
    </linearGradient>
    <filter color-interpolation-filters="sRGB" x="-4" y="-4.6" width="6" height="6.6" id="filter_7">
      <feFlood flood-opacity="0" result="BackgroundImageFix_1" />
      <feColorMatrix type="matrix" values="0 0 0 0 0 0 0 0 0 0 0 0 0 0 0 0 0 0 1 0" in="SourceAlpha" />
      <feOffset dx="2" dy="2" />
      <feGaussianBlur stdDeviation="1" />
      <feColorMatrix type="matrix" values="0 0 0 0 0 0 0 0 0 0 0 0 0 0 0 0 0 0 0.498 0" />
      <feBlend mode="normal" in2="BackgroundImageFix_1" result="Shadow_2" />
      <feBlend mode="normal" in="SourceGraphic" in2="Shadow_2" result="Shape_3" />
    </filter>
    <filter color-interpolation-filters="sRGB" x="-29" y="-29" width="31" height="31" id="filter_8">
      <feFlood flood-opacity="0" result="BackgroundImageFix_1" />
      <feColorMatrix type="matrix" values="0 0 0 0 0 0 0 0 0 0 0 0 0 0 0 0 0 0 1 0" in="SourceAlpha" />
      <feOffset dx="2" dy="2" />
      <feGaussianBlur stdDeviation="1" />
      <feColorMatrix type="matrix" values="0 0 0 0 0 0 0 0 0 0 0 0 0 0 0 0 0 0 0.498 0" />
      <feBlend mode="normal" in2="BackgroundImageFix_1" result="Shadow_2" />
      <feBlend mode="normal" in="SourceGraphic" in2="Shadow_2" result="Shape_3" />
    </filter>
  </defs>
  <g>
    <rect width="64" height="64" />
    <g transform="translate(7.5 16.5)">
      <g>
        <g transform="matrix(-0 1 1 0 27 4)">
          <g>
            <g transform="translate(3 4.4)">
              <path d="M8.5 12.1L8.5 5.61786L9.53674e-07 5.61786L0 0L9.53674e-07 12.1" fill="none" stroke-width="2" stroke="#1F2555" stroke-linejoin="round" transform="translate(8.5 0)" />
              <path d="M0 12.1L0 5.61786L8.5 5.61786L8.5 0L8.5 12.1" fill="none" stroke-width="2" stroke="#1F2555" stroke-linejoin="round" />
            </g>
            <g transform="translate(8.5 15.4)">
              <rect width="6" height="6.6" filter="url(#filter_1)" />
              <path d="M1.36238 6.07348C0.674562 5.59271 0.270102 4.94267 0.0863583 4.03753C-0.097308 3.1324 0.0074656 2.30629 0.444155 1.54869C0.880593 0.791082 1.50495 0.287383 2.32668 0.0850873C3.14838 -0.117255 3.90798 0.0457658 4.59581 0.526439C5.28364 1.00727 5.74095 1.69495 5.92457 2.60006C6.10832 3.50518 5.95061 4.29372 5.51412 5.05131C5.07758 5.80891 4.45328 6.31259 3.63158 6.51494C2.8098 6.71723 2.05021 6.55425 1.36245 6.07348L1.36238 6.07348Z" fill="url(#gradient_2)" fill-rule="evenodd" stroke-width="0.5" stroke="#113D7E" stroke-linecap="round" stroke-linejoin="round" filter="url(#filter_3)" />
            </g>
            <g transform="translate(17 15.4)">
              <path d="M1.36238 6.07348C0.674562 5.59271 0.270102 4.94267 0.0863583 4.03753C-0.097308 3.1324 0.0074656 2.30629 0.444155 1.54869C0.880593 0.791082 1.50495 0.287383 2.32668 0.0850873C3.14838 -0.117255 3.90798 0.0457658 4.59581 0.526439C5.28364 1.00727 5.74095 1.69495 5.92457 2.60006C6.10832 3.50518 5.95061 4.29372 5.51412 5.05131C5.07758 5.80891 4.45328 6.31259 3.63158 6.51494C2.8098 6.71723 2.05021 6.55425 1.36245 6.07348L1.36238 6.07348Z" fill="url(#gradient_4)" fill-rule="evenodd" stroke-width="0.5" stroke="#113D7E" stroke-linecap="round" stroke-linejoin="round" filter="url(#filter_5)" />
            </g>
            <g transform="translate(0 15.4)">
              <g fill="url(#gradient_6)" fill-rule="evenodd" filter="url(#filter_7)">
                <path d="M1.36238 6.07348C0.674562 5.59271 0.270102 4.94267 0.0863583 4.03753C-0.097308 3.1324 0.0074656 2.30629 0.444155 1.54869C0.880593 0.791082 1.50495 0.287383 2.32668 0.0850873C3.14838 -0.117255 3.90798 0.0457658 4.59581 0.526439C5.28364 1.00727 5.74095 1.69495 5.92457 2.60006C6.10832 3.50518 5.95061 4.29372 5.51412 5.05131C5.07758 5.80891 4.45328 6.31259 3.63158 6.51494C2.8098 6.71723 2.05021 6.55425 1.36245 6.07348L1.36238 6.07348Z" />
                <path d="M1.36238 6.07348C0.674562 5.59271 0.270102 4.94267 0.0863583 4.03753C-0.097308 3.1324 0.0074656 2.30629 0.444155 1.54869C0.880593 0.791082 1.50495 0.287383 2.32668 0.0850873C3.14838 -0.117255 3.90798 0.0457658 4.59581 0.526439C5.28364 1.00727 5.74095 1.69495 5.92457 2.60006C6.10832 3.50518 5.95061 4.29372 5.51412 5.05131C5.07758 5.80891 4.45328 6.31259 3.63158 6.51494C2.8098 6.71723 2.05021 6.55425 1.36245 6.07348L1.36238 6.07348Z" fill="none" stroke-width="0.5" stroke="#113D7E" />
                <path d="M1.36238 6.07348C0.674562 5.59271 0.270102 4.94267 0.0863583 4.03753C-0.097308 3.1324 0.0074656 2.30629 0.444155 1.54869C0.880593 0.791082 1.50495 0.287383 2.32668 0.0850873C3.14838 -0.117255 3.90798 0.0457658 4.59581 0.526439C5.28364 1.00727 5.74095 1.69495 5.92457 2.60006C6.10832 3.50518 5.95061 4.29372 5.51412 5.05131C5.07758 5.80891 4.45328 6.31259 3.63158 6.51494C2.8098 6.71723 2.05021 6.55425 1.36245 6.07348L1.36238 6.07348Z" fill="none" stroke-width="1" stroke="#5C6ACC" />
              </g>
            </g>
            <rect width="5" height="5.5" transform="translate(9 0)" />
          </g>
        </g>
        <path d="M0 15.5C0 6.93959 6.93959 0 15.5 0C24.0604 0 31 6.93959 31 15.5C31 24.0604 24.0604 31 15.5 31C6.93959 31 0 24.0604 0 15.5Z" fill="url(#gradient_2)" fill-rule="evenodd" stroke-width="2" stroke="#113D7E" stroke-linecap="round" stroke-linejoin="round" filter="url(#filter_8)" />
      </g>
    </g>
  </g>
</svg>