<?xml version="1.0" encoding="utf-8"?>
<svg width="64" height="64" viewBox="0 0 64 64" fill="none" xmlns="http://www.w3.org/2000/svg">
  <defs>
    <linearGradient id="gradient_1" gradientUnits="userSpaceOnUse" x1="25.511" y1="26.093" x2="25.511" y2="7.831">
      <stop offset="0" stop-color="#A9DCDF" />
      <stop offset="0.5" stop-color="#FFFFFF" />
      <stop offset="1" stop-color="#A9DCDF" />
    </linearGradient>
    <linearGradient id="gradient_2" gradientUnits="userSpaceOnUse" x1="1.554" y1="32.165" x2="5.494" y2="-5.07">
      <stop offset="0.423" stop-color="#A9DCDF" />
      <stop offset="0.909" stop-color="#FFFFFF" />
    </linearGradient>
    <linearGradient id="gradient_3" gradientUnits="userSpaceOnUse" x1="17.507" y1="20.42" x2="17.507" y2="6.129">
      <stop offset="0" stop-color="#A9DCDF" />
      <stop offset="0.4" stop-color="#FFFFFF" />
      <stop offset="1" stop-color="#A9DCDF" />
    </linearGradient>
    <linearGradient id="gradient_4" gradientUnits="userSpaceOnUse" x1="0" y1="0" x2="8.556" y2="25.2">
      <stop offset="0" stop-color="#FFFFFF" />
      <stop offset="0.791" stop-color="#A9DCDF" />
    </linearGradient>
    <linearGradient id="gradient_5" gradientUnits="userSpaceOnUse" x1="21.698" y1="23.028" x2="0.221" y2="0.882">
      <stop offset="0" stop-color="#A9DCDF" />
      <stop offset="1" stop-color="#FFFFFF" />
    </linearGradient>
    <linearGradient id="gradient_6" gradientUnits="userSpaceOnUse" x1="9.365" y1="10.297" x2="0.216" y2="0.915">
      <stop offset="0" stop-color="#A9DCDF" />
      <stop offset="1" stop-color="#FFFFFF" />
    </linearGradient>
  </defs>
  <g>
    <rect width="64" height="64" fill="#FFFFFF" fill-rule="evenodd" />
    <g transform="translate(6.5 6)">
      <g transform="translate(0 21)">
        <g fill="url(#gradient_1)">
          <path d="M4.00699 26.998C4.00077 27.005 3.99137 26.9938 3.97891 26.9651C1.75625 26.4904 0 20.6453 0 13.5044C0 7.37502 1.29391 2.20034 3.06604 0.557025C3.4378 0.149188 3.89569 -0.0491761 4.45346 0.0103942L10.6867 0.011737C10.7512 0.00392452 10.6515 1.85974 10.9604 3.36206L38.0074 2.93483C38.3163 1.43251 38.8022 0.424579 39.5658 0.107196C39.5608 0.0732605 39.5559 0.0415222 39.551 0.0118591L39.9272 0.011737C39.9895 0.00392452 40.0533 1.82684e-05 40.1187 1.82684e-05C40.1839 1.82684e-05 40.2488 0.00392452 40.3134 0.011737L46.5466 0.0103942C47.1043 -0.0491761 47.5622 0.149188 47.934 0.557025C49.7061 2.20034 51 7.37502 51 13.5044C51 20.6453 49.2438 26.4904 47.0211 26.9651C47.0087 26.9938 46.9993 27.005 46.993 26.998L40.1986 26.9981C40.1721 26.9994 40.1454 27 40.1187 27C40.092 27 40.0657 26.9994 40.0396 26.9981L39.551 26.9981C39.57 26.9702 39.5884 26.9406 39.6067 26.9091C38.8 26.6037 38.2974 25.5435 37.9844 23.9511L25.6797 24.0619L25.6797 24.0652L25.5 24.0636L25.3204 24.0652L25.3204 24.0619L11.5 24.3783C11.1869 25.9707 10.9605 26.9981 10.9605 26.9981C10.9343 26.9994 4.00699 26.998 4.00699 26.998L4.00699 26.998Z" />
          <path d="M9.72967 1.01153L4.45324 1.01039Q4.4001 1.01038 4.34726 1.00474Q4.04087 0.972016 3.80508 1.23069Q3.77679 1.26172 3.74599 1.29028Q1 3.83665 1 13.5044Q1 18.698 2.11455 22.4498Q3.09614 25.754 4.18779 25.9872Q4.21062 25.9921 4.23319 25.998L7.48364 25.9985L10.1522 25.9982Q10.3172 25.2105 10.5188 24.1854Q10.5351 24.1022 10.5653 24.0229Q10.5954 23.9436 10.6385 23.8706Q10.6815 23.7975 10.7363 23.7327Q10.7911 23.6679 10.8559 23.6133Q10.9208 23.5587 10.994 23.5158Q11.0671 23.4729 11.1465 23.4429Q11.2258 23.4129 11.3091 23.3967Q11.3923 23.3805 11.4771 23.3786L25.2975 23.0622Q25.3089 23.0619 25.3204 23.0619Q25.357 23.0619 25.3934 23.0646L25.5088 23.0637L25.6074 23.0645Q25.639 23.0622 25.6707 23.062L37.9754 22.9511Q38.0622 22.9503 38.1478 22.9645Q38.2335 22.9787 38.3154 23.0075Q38.3973 23.0362 38.4731 23.0786Q38.5488 23.1211 38.6161 23.1759Q38.6834 23.2308 38.7403 23.2964Q38.7971 23.362 38.8418 23.4365Q38.8865 23.5109 38.9177 23.592Q38.9488 23.673 38.9656 23.7582Q39.3562 25.745 39.9608 25.9739Q39.9903 25.9851 40.0191 25.9981L40.0396 25.9981Q40.0651 25.9981 40.0907 25.9994Q40.1033 26 40.1187 26Q40.1347 26 40.1483 25.9993Q40.1734 25.9981 40.1986 25.9981L46.767 25.998Q46.7895 25.992 46.8122 25.9872Q47.9039 25.754 48.8855 22.4498Q50 18.698 50 13.5044Q50 3.83666 47.254 1.29028Q47.2233 1.26172 47.195 1.23069Q46.9592 0.972016 46.6528 1.00474Q46.5999 1.01038 46.5468 1.01039L40.3136 1.01174Q40.2532 1.01175 40.1932 1.00449Q40.1562 1.00002 40.1187 1.00002Q40.0831 1.00002 40.0518 1.00395Q40.0246 1.00736 39.9973 1.00928Q39.9738 1.02057 39.9496 1.03061Q39.3704 1.27134 38.9869 3.13629Q38.9698 3.21926 38.939 3.29818Q38.9082 3.37711 38.8646 3.44973Q38.821 3.52235 38.7658 3.58659Q38.7106 3.65084 38.6453 3.70489Q38.5801 3.75893 38.5067 3.80123Q38.4333 3.84353 38.3539 3.87288Q38.2744 3.90224 38.1911 3.9178Q38.1079 3.93337 38.0232 3.93471L10.9762 4.36194Q10.8896 4.36331 10.8039 4.34973Q10.7183 4.33616 10.6363 4.30806Q10.5543 4.27995 10.4783 4.23815Q10.4023 4.19635 10.3347 4.14209Q10.2671 4.08784 10.2098 4.02276Q10.1525 3.95768 10.1073 3.88371Q10.0621 3.80974 10.0302 3.72909Q9.99842 3.64844 9.98095 3.56352Q9.78253 2.59877 9.72967 1.01153ZM46.9366 25.998L46.993 25.998Q47.0996 25.998 47.2039 26.0204Q47.3081 26.0429 47.4052 26.0868Q47.5023 26.1308 47.588 26.1942Q47.6737 26.2576 47.7441 26.3377Q47.4064 25.9536 46.9366 25.998ZM4.06347 25.998Q3.59367 25.9535 3.25594 26.3377Q3.32634 26.2576 3.41204 26.1942Q3.49775 26.1308 3.5949 26.0868Q3.69206 26.0429 3.79629 26.0204Q3.90053 25.9979 4.00716 25.998L4.06347 25.998ZM4.00699 26.998C4.00699 26.998 10.9343 26.9994 10.9605 26.9981C10.9605 26.9981 11.1869 25.9707 11.5 24.3783L24.3206 24.0848L25.1765 24.0652L25.3204 24.0619L25.3204 24.0652L25.5 24.0636L25.6797 24.0652L25.6797 24.0619L26.3203 24.0561L37.9844 23.9511C38.2415 25.259 38.6265 26.2079 39.2028 26.6744C39.3119 26.7627 39.4278 26.8337 39.551 26.8866C39.5694 26.8945 39.588 26.902 39.6067 26.9091C39.5884 26.9406 39.57 26.9702 39.551 26.9981L40.0396 26.9981C40.0657 26.9994 40.092 27 40.1187 27C40.1454 27 40.1721 26.9994 40.1986 26.9981L40.6027 26.9981L46.993 26.998C46.9993 27.005 47.0087 26.9938 47.0211 26.9651C49.2438 26.4904 51 20.6453 51 13.5044C51 7.37502 49.7061 2.20034 47.934 0.557025C47.5622 0.149188 47.1043 -0.0491761 46.5466 0.0103942L40.5612 0.0116836L40.3134 0.011737C40.2488 0.00392452 40.1839 1.8267e-05 40.1187 1.8267e-05C40.0533 1.8267e-05 39.9895 0.00392452 39.9272 0.011737L39.551 0.0118591C39.5559 0.0415222 39.5608 0.0732605 39.5658 0.107196C39.5609 0.109238 39.556 0.11131 39.5511 0.113409C38.796 0.437572 38.3144 1.44218 38.0074 2.93483L10.9604 3.36206C10.7972 2.56853 10.7481 1.67638 10.7285 1.01234Q10.596 1.02274 10.4804 1.01169L10.6865 1.01174Q10.7075 1.01174 10.7284 1.01086C10.723 0.826098 10.7199 0.659029 10.7172 0.516705C10.7113 0.202747 10.7076 0.00920291 10.6867 0.011737L4.45346 0.0103942C3.89569 -0.0491761 3.4378 0.149188 3.06604 0.557025C1.29391 2.20034 0 7.37502 0 13.5044C0 20.6453 1.75625 26.4904 3.97891 26.9651C3.99137 26.9938 4.00077 27.005 4.00699 26.998Z" fill="#113D7E" fill-rule="evenodd" />
        </g>
        <g fill="url(#gradient_2)" transform="translate(6 0)">
          <path d="M7 13.5C7 6.04419 6.91467 0 4.45459 0C1.99438 0 0 6.04419 0 13.5C0 20.9558 1.99438 27 4.45459 27C6.91467 27 7 20.9558 7 13.5L7 13.5Z" />
          <path d="M4.45459 0C6.91467 0 7 6.04419 7 13.5C7 20.9558 6.91467 27 4.45459 27C1.99438 27 0 20.9558 0 13.5C0 6.04419 1.99438 0 4.45459 0ZM4.45459 0.5Q6.5 0.5 6.5 13.5Q6.5 26.5 4.45459 26.5Q2.97097 26.5 1.77954 22.8893Q0.5 19.0115 0.5 13.5Q0.5 7.9885 1.77954 4.11075Q2.97097 0.5 4.45459 0.5Z" fill="#113D7E" fill-rule="evenodd" />
        </g>
        <g fill="url(#gradient_2)" transform="matrix(-1 0 0 1 45 0)">
          <path d="M8 -13.5C8 -6.04419 7.90248 0 5.09096 0C2.2793 0 0 -6.04419 0 -13.5C0 -20.9558 2.2793 -27 5.09096 -27C7.90248 -27 8 -20.9558 8 -13.5L8 -13.5Z" />
          <path d="M5.09096 27C7.90248 27 8 20.9558 8 13.5C8 6.04419 7.90248 0 5.09096 0C2.2793 0 0 6.04419 0 13.5C0 20.9558 2.2793 27 5.09096 27ZM5.09096 0.5Q7.5 0.5 7.5 13.5Q7.5 26.5 5.09096 26.5Q3.32803 26.5 1.95895 22.8695Q0.5 19.0007 0.5 13.5Q0.5 7.99928 1.95895 4.1305Q3.32803 0.5 5.09096 0.5Z" fill="#113D7E" fill-rule="evenodd" />
        </g>
        <g fill="url(#gradient_3)" transform="matrix(-1 0 0 -1 43 24.065)">
          <path d="M32.4957 21.1304L2.50427 21.1304L2.50427 21.0981C1.11682 21.0311 0.000366211 16.3621 0 10.6243C0 4.83789 1.1344 0.146973 2.53381 0.146729C2.55969 0.146729 2.58569 0.142578 2.61169 0.138306C2.65796 0.130859 2.70435 0.123413 2.75049 0.139893L17.3274 0.00317383L17.3274 0L17.5 0.00158691L17.6726 0L17.6726 0.00317383L32.2495 0.139893C32.2957 0.123413 32.342 0.130859 32.3883 0.138306C32.4143 0.142578 32.4403 0.146729 32.4663 0.146729C33.8656 0.146973 35 4.83789 35 10.6243C34.9996 16.3621 33.8832 21.0311 32.4957 21.0981L32.4957 21.1304L32.4957 21.1304Z" />
          <path d="M2.50427 21.0981L2.50427 21.1304L32.4957 21.1304L32.4957 21.0981C33.8832 21.0311 34.9996 16.3621 35 10.6243C35 4.83789 33.8656 0.146973 32.4663 0.146729C32.4403 0.146729 32.4143 0.142578 32.3883 0.138306C32.342 0.130859 32.2957 0.123413 32.2495 0.139893L18.3274 0.00931549L17.6726 0.00317383L17.6726 0.00160217L17.6726 0L17.5 0.00158691L17.3274 0L17.3274 0.00317383L16.6726 0.00931549L2.75049 0.139893C2.70435 0.123413 2.65796 0.130859 2.61169 0.138306C2.58569 0.142578 2.55969 0.146729 2.53381 0.146729C1.1344 0.146973 0 4.83789 0 10.6243C0.000366211 16.3621 1.11682 21.0311 2.50427 21.0981ZM17.3978 1.00069Q17.3673 1.00284 17.3368 1.00313L2.75987 1.13985Q2.72177 1.14021 2.68375 1.13766Q2.6039 1.14673 2.53399 1.14673Q2.27129 1.14677 1.71411 3.45075Q1 6.40364 1 10.6242Q1.00027 14.8096 1.70456 17.7552Q2.26169 20.0853 2.55252 20.0993Q2.65591 20.1043 2.7561 20.1304L32.2439 20.1304Q32.3441 20.1043 32.4475 20.0993Q32.7383 20.0853 33.2954 17.7552Q33.9997 14.8096 34 10.6243Q34 6.40371 33.2859 3.45075Q32.7288 1.14677 32.4663 1.14673Q32.3954 1.14673 32.3159 1.13769Q32.2781 1.1402 32.2401 1.13985L17.6632 1.00313Q17.6322 1.00284 17.6013 1.00063L17.4908 1.00154L17.3978 1.00069ZM32.4684 1.11565Q32.5254 1.10321 32.5858 1.08163Q32.5281 1.10224 32.4684 1.11565Z" fill="#113D7E" fill-rule="evenodd" />
        </g>
      </g>
      <path d="M0 0L6.99948 0L7 15.5385L6.97863 15.5385C6.99277 15.6193 7 15.7015 7 15.7847C7 17.0082 5.43306 18 3.50024 18C1.56742 18 0.000492096 17.0082 0.000492096 15.7847C0.000492096 15.7015 0.0077076 15.6193 0.0218525 15.5385L0.000492096 15.5385L0.000492096 10.6155L0 0Z" fill="url(#gradient_4)" fill-rule="evenodd" stroke-width="0.5" stroke="#1F2555" stroke-linecap="round" stroke-linejoin="round" transform="translate(22 9)" />
      <path d="M10.9832 23.9933C10.3922 23.9933 9.91765 23.4539 9.91765 22.7843C9.91765 22.7843 9.91765 22.0264 9.91765 22.0264C9.9036 22.0253 9.88956 22.0242 9.87556 22.0231C9.02867 21.9359 8.19476 21.7502 7.39061 21.4698C5.83331 20.9231 4.41888 20.0315 3.25242 18.8613C3.06191 18.6696 2.87852 18.4709 2.70262 18.2657C2.70009 18.2632 2.69756 18.2607 2.69506 18.2581C2.51651 18.05 2.34581 17.8353 2.18327 17.6145C2.02092 17.3931 1.86687 17.1657 1.72147 16.9328C1.69178 16.8822 1.66249 16.8314 1.63361 16.7804C1.6291 16.7747 1.62458 16.769 1.62004 16.7633C1.57446 16.687 1.52985 16.6102 1.48615 16.5328C1.42582 16.4308 1.36711 16.3278 1.31007 16.2239C1.2933 16.1907 1.2767 16.1573 1.26028 16.124C1.17768 15.9636 1.09901 15.8011 1.02437 15.6368C1.0006 15.5863 0.977226 15.5355 0.954245 15.4846C0.952035 15.4778 0.9498 15.4711 0.947591 15.4644C0.326413 14.0637 0.00365829 12.5483 0 11.0153C0.00216103 8.46852 0.882843 6.00321 2.49235 4.03622C2.49235 4.03622 1.96258 3.50485 1.96258 3.50485C1.4902 3.0314 1.44666 2.31396 1.86474 1.89484C2.28268 1.47561 3.00001 1.51964 3.47208 1.99294C3.47208 1.99294 3.99784 2.52229 3.99784 2.52229C5.96359 0.89366 8.43315 0.00192079 10.9829 0C13.5491 0.000985021 16.0339 0.903363 18.0057 2.55042C18.0057 2.55042 18.5615 1.99304 18.5615 1.99304C19.0336 1.51964 19.7508 1.47556 20.1688 1.89493C20.5868 2.31411 20.5413 3.0315 20.069 3.50495C20.069 3.50495 19.5052 4.07035 19.5052 4.07035C19.8711 4.52267 20.2007 5.00341 20.4908 5.50799C20.4929 5.51326 20.495 5.51853 20.4971 5.5238C20.5427 5.60211 20.5873 5.68101 20.631 5.76045C20.6332 5.76483 20.6354 5.76922 20.6376 5.7736C20.8458 6.15525 21.0314 6.54891 21.1933 6.95257C21.3216 7.27059 21.4351 7.59441 21.5333 7.92302C21.6065 8.16991 21.6711 8.41937 21.727 8.67084C21.746 8.75477 21.764 8.83889 21.781 8.92326C21.7832 8.93616 21.7854 8.94911 21.7875 8.96206C21.801 9.03343 21.8139 9.10494 21.8261 9.17655C21.8402 9.25531 21.8535 9.33416 21.866 9.41316C21.8666 9.41946 21.8673 9.42576 21.8679 9.43207C21.8685 9.4366 21.8693 9.44113 21.87 9.44561C21.878 9.50378 21.8855 9.56199 21.8926 9.62026C21.8969 9.6437 21.9012 9.66709 21.9054 9.69054C21.911 9.7294 21.9164 9.7683 21.9215 9.80721C21.9222 9.81559 21.9228 9.82396 21.9234 9.83233C21.9304 9.89114 21.9368 9.94994 21.9428 10.0088C21.9487 10.0729 21.9541 10.1369 21.9589 10.2011C21.9663 10.2865 21.9727 10.3721 21.9782 10.4577C21.9831 10.5231 21.9873 10.5885 21.9911 10.6539C21.9918 10.6746 21.9924 10.6953 21.993 10.7159C21.9959 10.7894 21.9981 10.8629 21.9995 10.9364C21.9995 10.9481 21.9995 10.9597 21.9995 10.9713C22.0004 11.0543 22.0004 11.1373 21.9995 11.2202C21.9995 11.2218 21.9995 11.224 21.9995 11.2262C21.9985 11.3178 21.9964 11.4093 21.9931 11.5009C21.9896 11.5811 21.9854 11.6613 21.9802 11.7414C21.9795 11.7557 21.9788 11.7701 21.9781 11.7844C21.9734 11.856 21.968 11.9276 21.962 11.999C21.9599 12.0219 21.9578 12.0447 21.9555 12.0676C21.9497 12.1305 21.9432 12.1933 21.9363 12.256C21.9321 12.2875 21.9278 12.3189 21.9234 12.3503C21.9213 12.371 21.9191 12.3917 21.9169 12.4124C21.9069 12.4854 21.8961 12.5582 21.8847 12.631C21.8786 12.6764 21.8721 12.7219 21.8654 12.7673C21.8643 12.7747 21.8633 12.7821 21.8622 12.7895C21.8514 12.8625 21.8398 12.9353 21.8274 13.008C21.8268 13.0125 21.826 13.017 21.8253 13.0215C21.8151 13.0784 21.8044 13.1353 21.7932 13.192C21.7879 13.2195 21.7826 13.247 21.7771 13.2744C21.7635 13.34 21.7495 13.4054 21.7348 13.4707C21.7306 13.4894 21.7263 13.5082 21.722 13.5269C21.7054 13.5998 21.6882 13.6727 21.6702 13.7453C21.668 13.7562 21.6658 13.7671 21.6636 13.778C21.6433 13.8591 21.6221 13.9399 21.5999 14.0205C21.5989 14.0235 21.5981 14.0265 21.5971 14.0294C21.5951 14.0367 21.593 14.044 21.5909 14.0513C21.5432 14.2237 21.4912 14.3948 21.4352 14.5646C21.4057 14.6539 21.375 14.7428 21.3431 14.8312C21.311 14.9198 21.2778 15.008 21.2434 15.0958C21.2111 15.1783 21.1779 15.2605 21.1436 15.3423C21.1415 15.3476 21.1394 15.3529 21.1372 15.3582C21.1331 15.3645 21.1288 15.3708 21.1246 15.3771C21.0909 15.4577 21.0563 15.5378 21.0207 15.6176C20.9818 15.7038 20.9417 15.7894 20.9006 15.8746C20.8597 15.9599 20.8176 16.0447 20.7745 16.1289C20.767 16.145 20.7595 16.1611 20.7519 16.1771C20.7166 16.2449 20.6807 16.3123 20.6441 16.3794C20.5985 16.4622 20.5518 16.5444 20.5042 16.626C20.5042 16.6249 20.5042 16.6268 20.5042 16.6285C20.4566 16.7093 20.408 16.7894 20.3583 16.869C20.2095 17.1102 20.0514 17.3456 19.8845 17.5746C19.7737 17.7273 19.6591 17.877 19.5406 18.0238C19.4809 18.0974 19.4203 18.1702 19.3588 18.2423C19.2977 18.314 19.2359 18.3849 19.1731 18.455C19.1101 18.5254 19.0461 18.595 18.9813 18.6638C18.9759 18.6704 18.9704 18.6769 18.965 18.6834C18.9063 18.7455 18.847 18.807 18.787 18.8677C18.0108 19.6458 17.1226 20.3027 16.1521 20.8166C16.1503 20.8166 16.1485 20.8166 16.1467 20.8166C15.6621 21.0739 15.1589 21.2944 14.6413 21.4763C14.3839 21.5668 14.1232 21.6477 13.8597 21.7187C13.8579 21.7187 13.8561 21.7187 13.8543 21.7187C13.5908 21.7895 13.3247 21.8503 13.0567 21.9012C13.0567 21.9012 13.0567 21.9012 13.0567 21.9012C12.7891 21.952 12.5197 21.9928 12.2491 22.0235C12.2491 22.0235 12.2491 22.0235 12.2491 22.0235C12.1838 22.0295 12.1186 22.0348 12.0533 22.0396C12.0533 22.0396 12.0533 22.7916 12.0533 22.7916C12.0533 23.4611 11.5768 24.0006 10.9858 24.0006C10.9858 24.0006 10.9832 23.9933 10.9832 23.9933ZM9.91765 18.7041L9.91765 11.4841C9.91765 11.4841 4.84388 6.39545 4.84388 6.39545C4.83634 6.40618 4.82887 6.41687 4.82141 6.42761C4.70783 6.57994 4.59982 6.73646 4.49765 6.89682C4.47194 6.93671 4.44665 6.9768 4.42171 7.01719C4.3215 7.18203 4.22746 7.35057 4.13978 7.52246C4.12562 7.54915 4.11157 7.57594 4.09767 7.60283C4.01427 7.77108 3.937 7.94227 3.86596 8.11613C3.84549 8.16533 3.82552 8.21468 3.80608 8.26428C3.73924 8.43715 3.6786 8.61233 3.62426 8.78959C3.61245 8.82485 3.60086 8.86021 3.58954 8.89563C3.53582 9.08229 3.48912 9.27087 3.44954 9.46108C3.44067 9.49984 3.4321 9.5387 3.42383 9.57756C3.39157 9.74506 3.36485 9.91355 3.34366 10.0828C3.33418 10.1502 3.32561 10.2176 3.31791 10.2852C3.30177 10.4525 3.29102 10.6203 3.28574 10.7884C3.28294 10.8466 3.28081 10.9048 3.27931 10.963C3.27909 11.1162 3.28338 11.2693 3.29217 11.4222C3.295 11.5085 3.29929 11.5949 3.30502 11.6811C3.31751 11.8151 3.3335 11.9488 3.35294 12.082C3.36284 12.1751 3.37443 12.2679 3.38769 12.3605C3.41006 12.4834 3.43537 12.6058 3.46363 12.7275C3.48421 12.8335 3.50697 12.9391 3.53191 13.0442C3.56334 13.1558 3.59725 13.2669 3.63361 13.377C3.66453 13.4846 3.6978 13.5916 3.73335 13.6978C3.77782 13.8159 3.82516 13.9328 3.87529 14.0485C3.91281 14.1435 3.95217 14.2378 3.99339 14.3313C4.05149 14.4538 4.11277 14.5748 4.17718 14.694C4.19169 14.7222 4.2064 14.7503 4.22128 14.7783C4.2544 14.8416 4.2884 14.9045 4.3233 14.9669C4.32558 14.9726 4.32786 14.9784 4.33017 14.9841C4.33444 14.9905 4.33869 14.9969 4.34296 15.0033C5.54807 17.0211 7.59968 18.3828 9.92256 18.7065C9.92256 18.7065 9.91765 18.7041 9.91765 18.7041ZM12.0507 18.7041C15.8774 18.1709 18.7275 14.8916 18.7318 11.0169C18.7324 9.97659 18.5244 8.94635 18.1203 7.98773C18.1065 7.95498 18.0925 7.92228 18.0782 7.88972C18.0605 7.84943 18.0424 7.80934 18.0241 7.7694C18.0156 7.75074 18.0071 7.73207 17.9984 7.7134C17.9899 7.69602 17.9814 7.67873 17.9727 7.66144C17.7545 7.21508 17.4942 6.79073 17.1951 6.39431C17.1951 6.39431 12.0513 11.5552 12.0513 11.5552C12.0513 11.5552 12.0507 18.7041 12.0507 18.7041ZM11.0192 9.56332C11.0192 9.56332 15.6852 4.88364 15.6852 4.88364C15.6736 4.87502 15.662 4.8664 15.6504 4.85783C15.4991 4.7446 15.3438 4.63694 15.1846 4.53504C15.1396 4.50652 15.0943 4.47845 15.0488 4.45087C14.905 4.3631 14.7583 4.28011 14.609 4.202C14.5474 4.16974 14.4854 4.13832 14.423 4.10773C14.2791 4.03706 14.1331 3.97087 13.9852 3.9093C13.9195 3.88221 13.8534 3.85606 13.787 3.83084C13.6452 3.77647 13.5019 3.72633 13.3572 3.68043C13.2743 3.65359 13.1909 3.62818 13.1071 3.60419C12.9741 3.56725 12.84 3.53386 12.7052 3.50411C12.6097 3.48225 12.5138 3.46225 12.4175 3.44403C12.2948 3.42167 12.1715 3.40226 12.0477 3.38591C11.9361 3.37054 11.8241 3.35764 11.712 3.3472C11.5942 3.33691 11.4762 3.32937 11.358 3.32454C11.2454 3.31991 11.1328 3.31775 11.0202 3.31804C10.9062 3.3177 10.7922 3.31982 10.6783 3.32449C10.5615 3.32937 10.445 3.33691 10.3285 3.3471C10.2157 3.35749 10.1031 3.3704 9.99077 3.38581C9.86574 3.4028 9.74111 3.4228 9.61707 3.44585C9.52357 3.46284 9.43031 3.48156 9.33745 3.50195C9.20197 3.53238 9.06731 3.56651 8.93364 3.60424C8.84869 3.62818 8.76413 3.65359 8.68006 3.68043C8.53878 3.72515 8.39877 3.77391 8.26027 3.82666C8.18916 3.85434 8.11847 3.88305 8.0482 3.91285C7.9023 3.97323 7.7583 4.03799 7.61635 4.10714C7.55391 4.13773 7.49189 4.16915 7.43029 4.20141C7.28311 4.27814 7.13842 4.3596 6.99648 4.44569C6.94624 4.47653 6.89635 4.50795 6.84685 4.53991C6.69194 4.63935 6.54057 4.74435 6.39308 4.85463C6.38016 4.86531 6.36727 4.8761 6.3544 4.88689C6.3544 4.88689 11.0192 9.56332 11.0192 9.56332Z" fill="url(#gradient_5)" stroke-width="1" stroke="#1F2555" stroke-linecap="round" stroke-linejoin="round" transform="translate(14 0)" />
      <g transform="translate(21 7)">
        <path d="M4.69967 9.42604C2.10435 9.42623 0.000294685 7.31642 0 4.71351C0 3.46296 0.495188 2.26407 1.37667 1.38013C2.25811 0.496242 3.4536 -0.000196934 4.70012 0C7.29543 0.000295639 9.39915 2.1106 9.39891 4.71351C9.39891 7.31548 7.29563 9.42545 4.7007 9.42604C4.7007 9.42604 4.69967 9.42604 4.69967 9.42604Z" fill="url(#gradient_6)" fill-rule="evenodd" stroke-width="0.5" stroke="#1F2555" stroke-linecap="round" stroke-linejoin="round" />
      </g>
    </g>
  </g>
</svg>