<?xml version="1.0" encoding="utf-8"?>
<svg width="64" height="64" viewBox="0 0 64 64" fill="none" xmlns="http://www.w3.org/2000/svg">
  <defs>
    <linearGradient id="gradient_1" gradientUnits="userSpaceOnUse" x1="25.511" y1="26.093" x2="25.511" y2="7.831">
      <stop offset="0" stop-color="#A9DCDF" />
      <stop offset="0.5" stop-color="#FFFFFF" />
      <stop offset="1" stop-color="#A9DCDF" />
    </linearGradient>
    <linearGradient id="gradient_2" gradientUnits="userSpaceOnUse" x1="1.554" y1="32.165" x2="5.494" y2="-5.07">
      <stop offset="0.423" stop-color="#A9DCDF" />
      <stop offset="0.909" stop-color="#FFFFFF" />
    </linearGradient>
    <linearGradient id="gradient_3" gradientUnits="userSpaceOnUse" x1="17.507" y1="20.42" x2="17.507" y2="6.129">
      <stop offset="0" stop-color="#A9DCDF" />
      <stop offset="0.4" stop-color="#FFFFFF" />
      <stop offset="1" stop-color="#A9DCDF" />
    </linearGradient>
  </defs>
  <g>
    <rect width="64" height="64" fill="#FFFFFF" fill-rule="evenodd" />
    <g transform="translate(6.5 27)">
      <g>
        <g fill="url(#gradient_1)">
          <path d="M4.00699 26.998C4.00077 27.005 3.99137 26.9938 3.97891 26.9651C1.75625 26.4904 0 20.6453 0 13.5044C0 7.37502 1.29391 2.20034 3.06604 0.557025C3.4378 0.149188 3.89569 -0.0491761 4.45346 0.0103942L10.6867 0.011737C10.7512 0.00392452 10.6515 1.85974 10.9604 3.36206L38.0074 2.93483C38.3163 1.43251 38.8022 0.424579 39.5658 0.107196C39.5608 0.0732605 39.5559 0.0415222 39.551 0.0118591L39.9272 0.011737C39.9895 0.00392452 40.0533 1.82684e-05 40.1187 1.82684e-05C40.1839 1.82684e-05 40.2488 0.00392452 40.3134 0.011737L46.5466 0.0103942C47.1043 -0.0491761 47.5622 0.149188 47.934 0.557025C49.7061 2.20034 51 7.37502 51 13.5044C51 20.6453 49.2438 26.4904 47.0211 26.9651C47.0087 26.9938 46.9993 27.005 46.993 26.998L40.1986 26.9981C40.1721 26.9994 40.1454 27 40.1187 27C40.092 27 40.0657 26.9994 40.0396 26.9981L39.551 26.9981C39.57 26.9702 39.5884 26.9406 39.6067 26.9091C38.8 26.6037 38.2974 25.5435 37.9844 23.9511L25.6797 24.0619L25.6797 24.0652L25.5 24.0636L25.3204 24.0652L25.3204 24.0619L11.5 24.3783C11.1869 25.9707 10.9605 26.9981 10.9605 26.9981C10.9343 26.9994 4.00699 26.998 4.00699 26.998L4.00699 26.998Z" />
          <path d="M9.72967 1.01153L4.45324 1.01039Q4.4001 1.01038 4.34726 1.00474Q4.04087 0.972016 3.80508 1.23069Q3.77679 1.26172 3.74599 1.29028Q1 3.83665 1 13.5044Q1 18.698 2.11455 22.4498Q3.09614 25.754 4.18779 25.9872Q4.21062 25.9921 4.23319 25.998L7.48364 25.9985L10.1522 25.9982Q10.3172 25.2105 10.5188 24.1854Q10.5351 24.1022 10.5653 24.0229Q10.5954 23.9436 10.6385 23.8706Q10.6815 23.7975 10.7363 23.7327Q10.7911 23.6679 10.8559 23.6133Q10.9208 23.5587 10.994 23.5158Q11.0671 23.4729 11.1465 23.4429Q11.2258 23.4129 11.3091 23.3967Q11.3923 23.3805 11.4771 23.3786L25.2975 23.0622Q25.3089 23.0619 25.3204 23.0619Q25.357 23.0619 25.3934 23.0646L25.5088 23.0637L25.6074 23.0645Q25.639 23.0622 25.6707 23.062L37.9754 22.9511Q38.0622 22.9503 38.1478 22.9645Q38.2335 22.9787 38.3154 23.0075Q38.3973 23.0362 38.4731 23.0786Q38.5488 23.1211 38.6161 23.1759Q38.6834 23.2308 38.7403 23.2964Q38.7971 23.362 38.8418 23.4365Q38.8865 23.5109 38.9177 23.592Q38.9488 23.673 38.9656 23.7582Q39.3562 25.745 39.9608 25.9739Q39.9903 25.9851 40.0191 25.9981L40.0396 25.9981Q40.0651 25.9981 40.0907 25.9994Q40.1033 26 40.1187 26Q40.1347 26 40.1483 25.9993Q40.1734 25.9981 40.1986 25.9981L46.767 25.998Q46.7895 25.992 46.8122 25.9872Q47.9039 25.754 48.8855 22.4498Q50 18.698 50 13.5044Q50 3.83666 47.254 1.29028Q47.2233 1.26172 47.195 1.23069Q46.9592 0.972016 46.6528 1.00474Q46.5999 1.01038 46.5468 1.01039L40.3136 1.01174Q40.2532 1.01175 40.1932 1.00449Q40.1562 1.00002 40.1187 1.00002Q40.0831 1.00002 40.0518 1.00395Q40.0246 1.00736 39.9973 1.00928Q39.9738 1.02057 39.9496 1.03061Q39.3704 1.27134 38.9869 3.13629Q38.9698 3.21926 38.939 3.29818Q38.9082 3.37711 38.8646 3.44973Q38.821 3.52235 38.7658 3.58659Q38.7106 3.65084 38.6453 3.70489Q38.5801 3.75893 38.5067 3.80123Q38.4333 3.84353 38.3539 3.87288Q38.2744 3.90224 38.1911 3.9178Q38.1079 3.93337 38.0232 3.93471L10.9762 4.36194Q10.8896 4.36331 10.8039 4.34973Q10.7183 4.33616 10.6363 4.30806Q10.5543 4.27995 10.4783 4.23815Q10.4023 4.19635 10.3347 4.14209Q10.2671 4.08784 10.2098 4.02276Q10.1525 3.95768 10.1073 3.88371Q10.0621 3.80974 10.0302 3.72909Q9.99842 3.64844 9.98095 3.56352Q9.78253 2.59877 9.72967 1.01153ZM46.9366 25.998L46.993 25.998Q47.0996 25.998 47.2039 26.0204Q47.3081 26.0429 47.4052 26.0868Q47.5023 26.1308 47.588 26.1942Q47.6737 26.2576 47.7441 26.3377Q47.4064 25.9536 46.9366 25.998ZM4.06347 25.998Q3.59367 25.9535 3.25594 26.3377Q3.32634 26.2576 3.41204 26.1942Q3.49775 26.1308 3.5949 26.0868Q3.69206 26.0429 3.79629 26.0204Q3.90053 25.9979 4.00716 25.998L4.06347 25.998ZM4.00699 26.998C4.00699 26.998 10.9343 26.9994 10.9605 26.9981C10.9605 26.9981 11.1869 25.9707 11.5 24.3783L24.3206 24.0848L25.1765 24.0652L25.3204 24.0619L25.3204 24.0652L25.5 24.0636L25.6797 24.0652L25.6797 24.0619L26.3203 24.0561L37.9844 23.9511C38.2415 25.259 38.6265 26.2079 39.2028 26.6744C39.3119 26.7627 39.4278 26.8337 39.551 26.8866C39.5694 26.8945 39.588 26.902 39.6067 26.9091C39.5884 26.9406 39.57 26.9702 39.551 26.9981L40.0396 26.9981C40.0657 26.9994 40.092 27 40.1187 27C40.1454 27 40.1721 26.9994 40.1986 26.9981L40.6027 26.9981L46.993 26.998C46.9993 27.005 47.0087 26.9938 47.0211 26.9651C49.2438 26.4904 51 20.6453 51 13.5044C51 7.37502 49.7061 2.20034 47.934 0.557025C47.5622 0.149188 47.1043 -0.0491761 46.5466 0.0103942L40.5612 0.0116836L40.3134 0.011737C40.2488 0.00392452 40.1839 1.8267e-05 40.1187 1.8267e-05C40.0533 1.8267e-05 39.9895 0.00392452 39.9272 0.011737L39.551 0.0118591C39.5559 0.0415222 39.5608 0.0732605 39.5658 0.107196C39.5609 0.109238 39.556 0.11131 39.5511 0.113409C38.796 0.437572 38.3144 1.44218 38.0074 2.93483L10.9604 3.36206C10.7972 2.56853 10.7481 1.67638 10.7285 1.01234Q10.596 1.02274 10.4804 1.01169L10.6865 1.01174Q10.7075 1.01174 10.7284 1.01086C10.723 0.826098 10.7199 0.659029 10.7172 0.516705C10.7113 0.202747 10.7076 0.00920291 10.6867 0.011737L4.45346 0.0103942C3.89569 -0.0491761 3.4378 0.149188 3.06604 0.557025C1.29391 2.20034 0 7.37502 0 13.5044C0 20.6453 1.75625 26.4904 3.97891 26.9651C3.99137 26.9938 4.00077 27.005 4.00699 26.998Z" fill="#113D7E" fill-rule="evenodd" />
        </g>
        <g fill="url(#gradient_2)" transform="translate(6 0)">
          <path d="M7 13.5C7 6.04419 6.91467 0 4.45459 0C1.99438 0 0 6.04419 0 13.5C0 20.9558 1.99438 27 4.45459 27C6.91467 27 7 20.9558 7 13.5L7 13.5Z" />
          <path d="M4.45459 0C6.91467 0 7 6.04419 7 13.5C7 20.9558 6.91467 27 4.45459 27C1.99438 27 0 20.9558 0 13.5C0 6.04419 1.99438 0 4.45459 0ZM4.45459 0.5Q6.5 0.5 6.5 13.5Q6.5 26.5 4.45459 26.5Q2.97097 26.5 1.77954 22.8893Q0.5 19.0115 0.5 13.5Q0.5 7.9885 1.77954 4.11075Q2.97097 0.5 4.45459 0.5Z" fill="#113D7E" fill-rule="evenodd" />
        </g>
        <g fill="url(#gradient_2)" transform="matrix(-1 0 0 1 45 0)">
          <path d="M8 -13.5C8 -6.04419 7.90248 0 5.09096 0C2.2793 0 0 -6.04419 0 -13.5C0 -20.9558 2.2793 -27 5.09096 -27C7.90248 -27 8 -20.9558 8 -13.5L8 -13.5Z" />
          <path d="M5.09096 27C7.90248 27 8 20.9558 8 13.5C8 6.04419 7.90248 0 5.09096 0C2.2793 0 0 6.04419 0 13.5C0 20.9558 2.2793 27 5.09096 27ZM5.09096 0.5Q7.5 0.5 7.5 13.5Q7.5 26.5 5.09096 26.5Q3.32803 26.5 1.95895 22.8695Q0.5 19.0007 0.5 13.5Q0.5 7.99928 1.95895 4.1305Q3.32803 0.5 5.09096 0.5Z" fill="#113D7E" fill-rule="evenodd" />
        </g>
        <g fill="url(#gradient_3)" transform="matrix(-1 0 0 -1 43 24.065)">
          <path d="M32.4957 21.1304L2.50427 21.1304L2.50427 21.0981C1.11682 21.0311 0.000366211 16.3621 0 10.6243C0 4.83789 1.1344 0.146973 2.53381 0.146729C2.55969 0.146729 2.58569 0.142578 2.61169 0.138306C2.65796 0.130859 2.70435 0.123413 2.75049 0.139893L17.3274 0.00317383L17.3274 0L17.5 0.00158691L17.6726 0L17.6726 0.00317383L32.2495 0.139893C32.2957 0.123413 32.342 0.130859 32.3883 0.138306C32.4143 0.142578 32.4403 0.146729 32.4663 0.146729C33.8656 0.146973 35 4.83789 35 10.6243C34.9996 16.3621 33.8832 21.0311 32.4957 21.0981L32.4957 21.1304L32.4957 21.1304Z" />
          <path d="M2.50427 21.0981L2.50427 21.1304L32.4957 21.1304L32.4957 21.0981C33.8832 21.0311 34.9996 16.3621 35 10.6243C35 4.83789 33.8656 0.146973 32.4663 0.146729C32.4403 0.146729 32.4143 0.142578 32.3883 0.138306C32.342 0.130859 32.2957 0.123413 32.2495 0.139893L18.3274 0.00931549L17.6726 0.00317383L17.6726 0.00160217L17.6726 0L17.5 0.00158691L17.3274 0L17.3274 0.00317383L16.6726 0.00931549L2.75049 0.139893C2.70435 0.123413 2.65796 0.130859 2.61169 0.138306C2.58569 0.142578 2.55969 0.146729 2.53381 0.146729C1.1344 0.146973 0 4.83789 0 10.6243C0.000366211 16.3621 1.11682 21.0311 2.50427 21.0981ZM17.3978 1.00069Q17.3673 1.00284 17.3368 1.00313L2.75987 1.13985Q2.72177 1.14021 2.68375 1.13766Q2.6039 1.14673 2.53399 1.14673Q2.27129 1.14677 1.71411 3.45075Q1 6.40364 1 10.6242Q1.00027 14.8096 1.70456 17.7552Q2.26169 20.0853 2.55252 20.0993Q2.65591 20.1043 2.7561 20.1304L32.2439 20.1304Q32.3441 20.1043 32.4475 20.0993Q32.7383 20.0853 33.2954 17.7552Q33.9997 14.8096 34 10.6243Q34 6.40371 33.2859 3.45075Q32.7288 1.14677 32.4663 1.14673Q32.3954 1.14673 32.3159 1.13769Q32.2781 1.1402 32.2401 1.13985L17.6632 1.00313Q17.6322 1.00284 17.6013 1.00063L17.4908 1.00154L17.3978 1.00069ZM32.4684 1.11565Q32.5254 1.10321 32.5858 1.08163Q32.5281 1.10224 32.4684 1.11565Z" fill="#113D7E" fill-rule="evenodd" />
        </g>
      </g>
    </g>
  </g>
</svg>