<?xml version="1.0" encoding="utf-8"?>
<svg width="74.637" height="64" viewBox="0 0 74.637 64" fill="none" xmlns="http://www.w3.org/2000/svg">
  <defs>
    <linearGradient id="gradient_1" gradientUnits="userSpaceOnUse" x1="17.938" y1="0" x2="17.938" y2="24.942">
      <stop offset="0" stop-color="#ECEEF9" />
      <stop offset="0.244" stop-color="#8A93D6" />
    </linearGradient>
    <path id="path_2" d="M5.34876 0.0020611C3.93041 0.00176666 2.57011 0.393906 1.56708 1.09209C0.563936 1.79027 0.000236451 2.73732 0 3.72488C0.00212806 5.72592 2.27478 7.36809 5.14636 7.44335C5.14636 7.44335 5.14636 7.45106 5.14636 7.45106L43.6535 7.45106L44.131 7.45106C44.131 7.45106 44.131 7.43174 44.131 7.43174C46.8875 7.25932 48.9996 5.65078 49 3.72359C49 1.79687 46.8882 0.18809 44.1317 0.0154288C44.1279 0.0154288 44.1241 0.0154288 44.1203 0.0154288C43.9651 0.00553553 43.8093 0.00041222 43.6535 0C43.5004 0.000588886 43.3475 0.0057122 43.1952 0.0154288C43.1952 0.0154288 5.81599 0.0154288 5.81599 0.0154288C5.66076 0.00553553 5.50505 0.00041222 5.34923 0C5.34923 0 5.34876 0.0020611 5.34876 0.0020611Z" />
    <linearGradient id="gradient_3" gradientUnits="userSpaceOnUse" x1="24.5" y1="0" x2="24.5" y2="7">
      <stop offset="0.248" stop-color="#ECEEF9" />
      <stop offset="0.689" stop-color="#8A93D6" />
    </linearGradient>
    <linearGradient id="gradient_4" gradientUnits="userSpaceOnUse" x1="24.5" y1="0" x2="24.5" y2="7">
      <stop offset="0.406" stop-color="#D6DEEF" />
      <stop offset="0.702" stop-color="#8A93D6" />
    </linearGradient>
    <linearGradient id="gradient_5" gradientUnits="userSpaceOnUse" x1="46.221" y1="20.787" x2="7.133" y2="-2.246">
      <stop offset="0" stop-color="#A9DCDF" />
      <stop offset="1" stop-color="#FFFFFF" />
    </linearGradient>
    <filter color-interpolation-filters="sRGB" x="-51.016" y="-16.606" width="53.016" height="18.606" id="filter_6">
      <feFlood flood-opacity="0" result="BackgroundImageFix_1" />
      <feColorMatrix type="matrix" values="0 0 0 0 0 0 0 0 0 0 0 0 0 0 0 0 0 0 1 0" in="SourceAlpha" />
      <feOffset dx="2" dy="2" />
      <feGaussianBlur stdDeviation="1" />
      <feColorMatrix type="matrix" values="0 0 0 0 0 0 0 0 0 0 0 0 0 0 0 0 0 0 0.498 0" />
      <feBlend mode="normal" in2="BackgroundImageFix_1" result="Shadow_2" />
      <feBlend mode="normal" in="SourceGraphic" in2="Shadow_2" result="Shape_3" />
    </filter>
    <clipPath id="clip_path_7">
      <rect width="8.271" height="18" />
    </clipPath>
  </defs>
  <g>
    <rect width="64" height="64" fill="#FEFEFE" fill-rule="evenodd" />
    <g transform="translate(7 16)">
      <g>
        <g>
          <g>
            <g fill="url(#gradient_1)" fill-rule="evenodd" transform="translate(6.563 5.106)">
              <path d="M0 0L35.875 0L35.875 26.5489L0 26.5489L0 0Z" />
              <path d="M35.875 0L0 0L0 26.5489L35.875 26.5489L35.875 0ZM1.5 25.0489L1.5 1.5L34.375 1.5L34.375 25.0489L1.5 25.0489Z" fill="#113D7E" fill-rule="evenodd" />
            </g>
            <g>
              <use p8:href="#path_2" fill="#D3D3D3" fill-rule="evenodd" xmlns:p8="http://www.w3.org/1999/xlink" />
              <use p8:href="#path_2" fill="url(#gradient_3)" fill-rule="evenodd" xmlns:p8="http://www.w3.org/1999/xlink" />
              <path d="M5.34876 0.0020611C3.93041 0.00176666 2.57011 0.393906 1.56708 1.09209C0.563936 1.79027 0.000236451 2.73732 0 3.72488C0.00212806 5.72592 2.27478 7.36809 5.14636 7.44335L5.14636 7.45106L44.131 7.45106L44.131 7.43174C46.8875 7.25932 48.9996 5.65078 49 3.72359C49 1.79687 46.8882 0.18809 44.1317 0.0154288L44.1203 0.0154288C43.9651 0.00553553 43.8093 0.00041222 43.6535 0C43.5004 0.000588886 43.3475 0.0057122 43.1952 0.0154288L5.81599 0.0154288C5.66076 0.00553553 5.50505 0.00041222 5.34923 0L5.34876 0.0020611ZM5.41548 1.50058Q5.38198 1.50207 5.34845 1.50206Q3.60422 1.5017 2.42403 2.3232Q1.50018 2.9662 1.5 3.72524Q1.50226 5.84732 5.18566 5.94386Q5.24211 5.94534 5.29829 5.95106L43.891 5.95106Q43.9638 5.93927 44.0373 5.93467Q47.4996 5.7181 47.5 3.72331Q47.5 1.73893 44.0711 1.51462Q44.048 1.51386 44.0249 1.51239Q43.8383 1.50049 43.6495 1.49999Q43.4738 1.5007 43.2908 1.51238Q43.243 1.51543 43.1952 1.51543L5.81599 1.51543Q5.76824 1.51543 5.72058 1.51239Q5.56868 1.50271 5.41548 1.50058Z" fill="#113D7E" fill-rule="evenodd" />
            </g>
            <g fill="url(#gradient_4)" fill-rule="evenodd" transform="translate(0 13.274)">
              <path d="M5.34876 0.00200176C3.93041 0.00170803 2.57011 0.393847 1.56708 1.09203C0.563936 1.79021 0.000236451 2.73726 0 3.72482C0.00212806 5.72586 2.27478 7.36803 5.14636 7.44329C5.14636 7.44329 5.14636 7.451 5.14636 7.451L43.6535 7.451L44.131 7.451C44.131 7.451 44.131 7.43169 44.131 7.43169C46.8875 7.25926 48.9996 5.65078 49 3.72359C49 1.79687 46.8882 0.18809 44.1317 0.0154285C44.1279 0.0154285 44.1241 0.0154285 44.1203 0.0154285C43.9651 0.00553513 43.8093 0.000411987 43.6535 0C43.5004 0.000588417 43.3475 0.00571251 43.1952 0.0154285C43.1952 0.0154285 5.81599 0.0154285 5.81599 0.0154285C5.66076 0.00553513 5.50505 0.000411987 5.34923 0C5.34923 0 5.34876 0.00200176 5.34876 0.00200176Z" />
              <path d="M5.34876 0.00200176C3.93041 0.00170803 2.57011 0.393847 1.56708 1.09203C0.563936 1.79021 0.000236451 2.73726 0 3.72482C0.00212806 5.72586 2.27478 7.36803 5.14636 7.44329L5.14636 7.451L44.131 7.451L44.131 7.43169C46.8875 7.25926 48.9996 5.65078 49 3.72359C49 1.79687 46.8882 0.18809 44.1317 0.0154285L44.1203 0.0154285C43.9651 0.00553513 43.8093 0.000411987 43.6535 0C43.5004 0.000588417 43.3475 0.00571251 43.1952 0.0154285L5.81599 0.0154285C5.66076 0.00553513 5.50505 0.000411987 5.34923 0L5.34876 0.00200176ZM5.41447 1.50056Q5.38148 1.50201 5.34845 1.502Q3.60422 1.50164 2.42403 2.32314Q1.50018 2.96614 1.5 3.72518Q1.50226 5.84727 5.18566 5.9438Q5.24211 5.94528 5.29828 5.951L43.8911 5.951Q43.9638 5.93921 44.0373 5.93461Q47.4996 5.71804 47.5 3.72331Q47.5 1.73897 44.0712 1.51462Q44.0481 1.51387 44.0249 1.51239Q43.8383 1.50049 43.6495 1.49999Q43.4739 1.5007 43.2908 1.51238Q43.243 1.51543 43.1952 1.51543L5.81599 1.51543Q5.76824 1.51543 5.72058 1.51239Q5.56817 1.50268 5.41447 1.50056Z" fill="#113D7E" fill-rule="evenodd" />
            </g>
            <g fill="url(#gradient_4)" fill-rule="evenodd" transform="translate(0 26.549)">
              <path d="M5.34876 0.00200272C3.93041 0.0017662 2.57011 0.393906 1.56708 1.09209C0.563936 1.79027 0.000236451 2.73732 0 3.72488C0.00212806 5.72592 2.27478 7.36809 5.14636 7.44335C5.14636 7.44335 5.14636 7.45106 5.14636 7.45106L43.6535 7.45106L44.131 7.45106C44.131 7.45106 44.131 7.43175 44.131 7.43175C46.8875 7.25932 48.9996 5.65078 49 3.72359C49 1.79687 46.8882 0.188089 44.1317 0.0154285C44.1279 0.0154285 44.1241 0.0154285 44.1203 0.0154285C43.9651 0.00553513 43.8093 0.000411987 43.6535 0C43.5004 0.000589371 43.3475 0.00571251 43.1952 0.0154285C43.1952 0.0154285 5.81599 0.0154285 5.81599 0.0154285C5.66076 0.00553513 5.50505 0.000411987 5.34923 0C5.34923 0 5.34876 0.00200272 5.34876 0.00200272Z" />
              <path d="M5.34876 0.00200272C3.93041 0.0017662 2.57011 0.393906 1.56708 1.09209C0.563936 1.79027 0.000236451 2.73732 0 3.72488C0.00212806 5.72592 2.27478 7.36809 5.14636 7.44335L5.14636 7.45106L44.131 7.45106L44.131 7.43175C46.8875 7.25932 48.9996 5.65078 49 3.72359C49 1.79687 46.8882 0.188089 44.1317 0.0154285L44.1203 0.0154285C43.9651 0.00553513 43.8093 0.000411987 43.6535 0C43.5004 0.000589371 43.3475 0.00571251 43.1952 0.0154285L5.81599 0.0154285C5.66076 0.00553513 5.50505 0.000411987 5.34923 0L5.34876 0.00200272ZM5.41449 1.50056Q5.38152 1.50201 5.34851 1.502Q3.6042 1.50171 2.42403 2.3232Q1.50018 2.9662 1.5 3.72524Q1.50226 5.84733 5.18566 5.94386Q5.24209 5.94534 5.29824 5.95106L43.8911 5.95106Q43.9638 5.93927 44.0373 5.93467Q47.4996 5.7181 47.5 3.72331Q47.5 1.73894 44.0711 1.51462Q44.048 1.51386 44.0249 1.51239Q43.8382 1.50049 43.6495 1.49999Q43.4738 1.5007 43.2908 1.51238Q43.243 1.51543 43.1952 1.51543L5.81599 1.51543Q5.76824 1.51543 5.72058 1.51239Q5.56819 1.50268 5.41449 1.50056Z" fill="#113D7E" fill-rule="evenodd" />
            </g>
          </g>
        </g>
        <g transform="translate(20 21)">
          <g transform="translate(-11.029 -0.332)">
            <g>
              <path d="M40.1697 6.3929L28.5841 0.971503Q28.3411 0.857806 28.0872 0.771323Q27.8332 0.684839 27.5714 0.626602Q27.3095 0.568365 27.0429 0.539071Q26.7762 0.509777 26.508 0.509777Q26.2397 0.509777 25.9731 0.539071Q25.7064 0.568365 25.4445 0.626602Q25.1827 0.684839 24.9287 0.771323Q24.6748 0.857807 24.4318 0.971503L12.8462 6.3929Q12.6405 6.48916 12.4507 6.61389Q12.2609 6.73863 12.0909 6.88926Q11.921 7.0399 11.7743 7.21333Q11.6277 7.38676 11.5074 7.57941Q11.3872 7.77206 11.2957 7.97995Q11.2043 8.18785 11.1436 8.40669Q11.0829 8.62554 11.0541 8.85083Q11.0254 9.07611 11.0293 9.30319Q11.0254 9.53026 11.0542 9.75554Q11.0829 9.98082 11.1436 10.1997Q11.2043 10.4185 11.2958 10.6264Q11.3872 10.8343 11.5075 11.0269Q11.6278 11.2195 11.7744 11.393Q11.921 11.5664 12.091 11.717Q12.2609 11.8676 12.4507 11.9924Q12.6405 12.1171 12.8462 12.2133L24.4318 17.6347Q24.6748 17.7484 24.9287 17.8349Q25.1827 17.9214 25.4445 17.9796Q25.7064 18.0379 25.9731 18.0672Q26.2397 18.0965 26.508 18.0965Q26.7762 18.0965 27.0429 18.0672Q27.3095 18.0379 27.5714 17.9796Q27.8332 17.9214 28.0872 17.8349Q28.3411 17.7484 28.5841 17.6347L40.1697 12.2133Q40.3754 12.1171 40.5652 11.9924Q40.755 11.8676 40.9249 11.717Q41.0949 11.5664 41.2415 11.393Q41.3881 11.2196 41.5084 11.0269Q41.6287 10.8343 41.7201 10.6264Q41.8116 10.4186 41.8723 10.1997Q41.933 9.9809 41.9618 9.75563Q41.9905 9.53036 41.9867 9.30329Q41.9905 9.07621 41.9618 8.85091Q41.9331 8.62562 41.8724 8.40677Q41.8117 8.18791 41.7202 7.98001Q41.6288 7.77211 41.5085 7.57946Q41.3882 7.3868 41.2416 7.21336Q41.095 7.03992 40.925 6.88928Q40.755 6.73864 40.5652 6.6139Q40.3754 6.48916 40.1697 6.3929Z" fill="url(#gradient_5)" fill-rule="evenodd" stroke-width="1.3" stroke="#113D7E" filter="url(#filter_6)" />
              <path d="M1.90341 7.5071L1.90341 7.38636Q1.90696 6.76491 2.01527 6.3956Q2.12358 6.02628 2.33132 5.80078Q2.53906 5.57528 2.83736 5.38707Q3.16406 5.17756 3.38778 4.93075Q3.61151 4.68395 3.61151 4.33594Q3.61151 3.96662 3.3576 3.74467Q3.10369 3.52273 2.74503 3.52273Q2.39702 3.52273 2.1218 3.75Q1.84659 3.97727 1.82884 4.41051L0.379972 4.41051Q0.397727 3.70028 0.720881 3.23509Q1.04403 2.76989 1.5767 2.54261Q2.10938 2.31534 2.75213 2.31534Q3.45881 2.31534 4.00213 2.54794Q4.54545 2.78054 4.8544 3.22088Q5.16335 3.66122 5.16335 4.28267Q5.16335 4.90767 4.86328 5.32315Q4.56321 5.73864 4.06605 6.03338Q3.64702 6.28551 3.4517 6.5767Q3.25639 6.8679 3.24929 7.38636L3.24929 7.5071L1.90341 7.5071ZM2.60298 9.77983Q2.25142 9.77983 1.99929 9.53125Q1.74716 9.28267 1.75071 8.92756Q1.74716 8.57955 1.99929 8.33097Q2.25142 8.08239 2.60298 8.08239Q2.94389 8.08239 3.1978 8.33097Q3.4517 8.57955 3.45526 8.92756Q3.4517 9.28267 3.1978 9.53125Q2.94389 9.77983 2.60298 9.77983Z" transform="translate(22.373 3.281)" fill="#1F2555" clip-path="url(#clip_path_7)" />
            </g>
          </g>
        </g>
      </g>
    </g>
  </g>
</svg>