<?xml version="1.0" encoding="utf-8"?>
<svg width="64" height="64" viewBox="0 0 64 64" fill="none" xmlns="http://www.w3.org/2000/svg">
  <defs>
    <linearGradient id="gradient_1" gradientUnits="userSpaceOnUse" x1="0" y1="0" x2="35.875" y2="26.549">
      <stop offset="0" stop-color="#FFFFFF" />
      <stop offset="0.52" stop-color="#8791D9" />
      <stop offset="1" stop-color="#5C6ACC" />
    </linearGradient>
    <filter color-interpolation-filters="sRGB" x="-33.875" y="-24.549" width="35.875" height="26.549" id="filter_2">
      <feFlood flood-opacity="0" result="BackgroundImageFix_1" />
      <feColorMatrix type="matrix" values="0 0 0 0 0 0 0 0 0 0 0 0 0 0 0 0 0 0 1 0" in="SourceAlpha" />
      <feOffset dx="2" dy="2" />
      <feGaussianBlur stdDeviation="1" />
      <feColorMatrix type="matrix" values="0 0 0 0 0 0 0 0 0 0 0 0 0 0 0 0 0 0 0.498 0" />
      <feBlend mode="normal" in2="BackgroundImageFix_1" result="Shadow_2" />
      <feBlend mode="normal" in="SourceGraphic" in2="Shadow_2" result="Shape_3" />
    </filter>
    <linearGradient id="gradient_3" gradientUnits="userSpaceOnUse" x1="24.5" y1="0" x2="24.5" y2="7">
      <stop offset="0.406" stop-color="#D6DEEF" />
      <stop offset="0.702" stop-color="#8A93D6" />
    </linearGradient>
    <filter color-interpolation-filters="sRGB" x="-47" y="-5.451" width="49" height="7.451" id="filter_4">
      <feFlood flood-opacity="0" result="BackgroundImageFix_1" />
      <feColorMatrix type="matrix" values="0 0 0 0 0 0 0 0 0 0 0 0 0 0 0 0 0 0 1 0" in="SourceAlpha" />
      <feOffset dx="2" dy="2" />
      <feGaussianBlur stdDeviation="1" />
      <feColorMatrix type="matrix" values="0 0 0 0 0 0 0 0 0 0 0 0 0 0 0 0 0 0 0.498 0" />
      <feBlend mode="normal" in2="BackgroundImageFix_1" result="Shadow_2" />
      <feBlend mode="normal" in="SourceGraphic" in2="Shadow_2" result="Shape_3" />
    </filter>
    <filter color-interpolation-filters="sRGB" x="-47" y="-5.451" width="49" height="7.451" id="filter_5">
      <feFlood flood-opacity="0" result="BackgroundImageFix_1" />
      <feColorMatrix type="matrix" values="0 0 0 0 0 0 0 0 0 0 0 0 0 0 0 0 0 0 1 0" in="SourceAlpha" />
      <feOffset dx="2" dy="2" />
      <feGaussianBlur stdDeviation="1" />
      <feColorMatrix type="matrix" values="0 0 0 0 0 0 0 0 0 0 0 0 0 0 0 0 0 0 0.498 0" />
      <feBlend mode="normal" in2="BackgroundImageFix_1" result="Shadow_2" />
      <feBlend mode="normal" in="SourceGraphic" in2="Shadow_2" result="Shape_3" />
    </filter>
    <filter color-interpolation-filters="sRGB" x="-47" y="-5.451" width="49" height="7.451" id="filter_6">
      <feFlood flood-opacity="0" result="BackgroundImageFix_1" />
      <feColorMatrix type="matrix" values="0 0 0 0 0 0 0 0 0 0 0 0 0 0 0 0 0 0 1 0" in="SourceAlpha" />
      <feOffset dx="2" dy="2" />
      <feGaussianBlur stdDeviation="1" />
      <feColorMatrix type="matrix" values="0 0 0 0 0 0 0 0 0 0 0 0 0 0 0 0 0 0 0.498 0" />
      <feBlend mode="normal" in2="BackgroundImageFix_1" result="Shadow_2" />
      <feBlend mode="normal" in="SourceGraphic" in2="Shadow_2" result="Shape_3" />
    </filter>
  </defs>
  <g>
    <rect width="64" height="64" fill="#FEFEFE" fill-rule="evenodd" />
    <g transform="translate(7.5 16)">
      <g>
        <g>
          <g fill="url(#gradient_1)" fill-rule="evenodd" filter="url(#filter_2)" transform="translate(6.563 5.106)">
            <path d="M0 0L35.875 0L35.875 26.5489L0 26.5489L0 0Z" />
            <path d="M36.375 -0.5L-0.5 -0.5L-0.5 27.0489L36.375 27.0489L36.375 -0.5ZM35.875 0L0 0L0 26.5489L35.875 26.5489L35.875 0Z" fill="#113D7E" fill-rule="evenodd" />
          </g>
          <g fill="url(#gradient_3)" fill-rule="evenodd" filter="url(#filter_4)">
            <path d="M5.34876 0.0020611C3.93041 0.00176666 2.57011 0.393906 1.56708 1.09209C0.563936 1.79027 0.000236451 2.73732 0 3.72488C0.00212806 5.72592 2.27478 7.36809 5.14636 7.44335C5.14636 7.44335 5.14636 7.45106 5.14636 7.45106L43.6535 7.45106L44.131 7.45106C44.131 7.45106 44.131 7.43174 44.131 7.43174C46.8875 7.25932 48.9996 5.65078 49 3.72359C49 1.79687 46.8882 0.18809 44.1317 0.0154288C44.1279 0.0154288 44.1241 0.0154288 44.1203 0.0154288C43.9651 0.00553553 43.8093 0.00041222 43.6535 0C43.5004 0.000588886 43.3475 0.0057122 43.1952 0.0154288C43.1952 0.0154288 5.81599 0.0154288 5.81599 0.0154288C5.66076 0.00553553 5.50505 0.00041222 5.34923 0C5.34923 0 5.34876 0.0020611 5.34876 0.0020611Z" />
            <path d="M5.34876 0.0020611C3.93041 0.00176666 2.57011 0.393906 1.56708 1.09209C0.563936 1.79027 0.000236451 2.73732 0 3.72488C0.00212806 5.72592 2.27478 7.36809 5.14636 7.44335L5.14636 7.45106L44.131 7.45106L44.131 7.43174C46.8875 7.25932 48.9996 5.65078 49 3.72359C49 1.79687 46.8882 0.18809 44.1317 0.0154288L44.1203 0.0154288C43.9651 0.00553553 43.8093 0.00041222 43.6535 0C43.5004 0.000588886 43.3475 0.0057122 43.1952 0.0154288L5.81599 0.0154288C5.66076 0.00553553 5.50505 0.00041222 5.34923 0L5.34876 0.0020611ZM5.41548 1.50058Q5.38198 1.50207 5.34845 1.50206Q3.60422 1.5017 2.42403 2.3232Q1.50018 2.9662 1.5 3.72524Q1.50226 5.84732 5.18566 5.94386Q5.24211 5.94534 5.29829 5.95106L43.891 5.95106Q43.9638 5.93927 44.0373 5.93467Q47.4996 5.7181 47.5 3.72331Q47.5 1.73893 44.0711 1.51462Q44.048 1.51386 44.0249 1.51239Q43.8383 1.50049 43.6495 1.49999Q43.4738 1.5007 43.2908 1.51238Q43.243 1.51543 43.1952 1.51543L5.81599 1.51543Q5.76824 1.51543 5.72058 1.51239Q5.56868 1.50271 5.41548 1.50058Z" fill="#113D7E" fill-rule="evenodd" />
          </g>
          <g fill="url(#gradient_3)" fill-rule="evenodd" filter="url(#filter_5)" transform="translate(0 13.274)">
            <path d="M5.34876 0.00200176C3.93041 0.00170803 2.57011 0.393847 1.56708 1.09203C0.563936 1.79021 0.000236451 2.73726 0 3.72482C0.00212806 5.72586 2.27478 7.36803 5.14636 7.44329C5.14636 7.44329 5.14636 7.451 5.14636 7.451L43.6535 7.451L44.131 7.451C44.131 7.451 44.131 7.43169 44.131 7.43169C46.8875 7.25926 48.9996 5.65078 49 3.72359C49 1.79687 46.8882 0.18809 44.1317 0.0154285C44.1279 0.0154285 44.1241 0.0154285 44.1203 0.0154285C43.9651 0.00553513 43.8093 0.000411987 43.6535 0C43.5004 0.000588417 43.3475 0.00571251 43.1952 0.0154285C43.1952 0.0154285 5.81599 0.0154285 5.81599 0.0154285C5.66076 0.00553513 5.50505 0.000411987 5.34923 0C5.34923 0 5.34876 0.00200176 5.34876 0.00200176Z" />
            <path d="M5.34876 0.00200176C3.93041 0.00170803 2.57011 0.393847 1.56708 1.09203C0.563936 1.79021 0.000236451 2.73726 0 3.72482C0.00212806 5.72586 2.27478 7.36803 5.14636 7.44329L5.14636 7.451L44.131 7.451L44.131 7.43169C46.8875 7.25926 48.9996 5.65078 49 3.72359C49 1.79687 46.8882 0.18809 44.1317 0.0154285L44.1203 0.0154285C43.9651 0.00553513 43.8093 0.000411987 43.6535 0C43.5004 0.000588417 43.3475 0.00571251 43.1952 0.0154285L5.81599 0.0154285C5.66076 0.00553513 5.50505 0.000411987 5.34923 0L5.34876 0.00200176ZM5.41447 1.50056Q5.38148 1.50201 5.34845 1.502Q3.60422 1.50164 2.42403 2.32314Q1.50018 2.96614 1.5 3.72518Q1.50226 5.84727 5.18566 5.9438Q5.24211 5.94528 5.29828 5.951L43.8911 5.951Q43.9638 5.93921 44.0373 5.93461Q47.4996 5.71804 47.5 3.72331Q47.5 1.73897 44.0712 1.51462Q44.0481 1.51387 44.0249 1.51239Q43.8383 1.50049 43.6495 1.49999Q43.4739 1.5007 43.2908 1.51238Q43.243 1.51543 43.1952 1.51543L5.81599 1.51543Q5.76824 1.51543 5.72058 1.51239Q5.56817 1.50268 5.41447 1.50056Z" fill="#113D7E" fill-rule="evenodd" />
          </g>
          <g fill="url(#gradient_3)" fill-rule="evenodd" filter="url(#filter_6)" transform="translate(0 26.549)">
            <path d="M5.34876 0.00200272C3.93041 0.0017662 2.57011 0.393906 1.56708 1.09209C0.563936 1.79027 0.000236451 2.73732 0 3.72488C0.00212806 5.72592 2.27478 7.36809 5.14636 7.44335C5.14636 7.44335 5.14636 7.45106 5.14636 7.45106L43.6535 7.45106L44.131 7.45106C44.131 7.45106 44.131 7.43175 44.131 7.43175C46.8875 7.25932 48.9996 5.65078 49 3.72359C49 1.79687 46.8882 0.188089 44.1317 0.0154285C44.1279 0.0154285 44.1241 0.0154285 44.1203 0.0154285C43.9651 0.00553513 43.8093 0.000411987 43.6535 0C43.5004 0.000589371 43.3475 0.00571251 43.1952 0.0154285C43.1952 0.0154285 5.81599 0.0154285 5.81599 0.0154285C5.66076 0.00553513 5.50505 0.000411987 5.34923 0C5.34923 0 5.34876 0.00200272 5.34876 0.00200272Z" />
            <path d="M5.34876 0.00200272C3.93041 0.0017662 2.57011 0.393906 1.56708 1.09209C0.563936 1.79027 0.000236451 2.73732 0 3.72488C0.00212806 5.72592 2.27478 7.36809 5.14636 7.44335L5.14636 7.45106L44.131 7.45106L44.131 7.43175C46.8875 7.25932 48.9996 5.65078 49 3.72359C49 1.79687 46.8882 0.188089 44.1317 0.0154285L44.1203 0.0154285C43.9651 0.00553513 43.8093 0.000411987 43.6535 0C43.5004 0.000589371 43.3475 0.00571251 43.1952 0.0154285L5.81599 0.0154285C5.66076 0.00553513 5.50505 0.000411987 5.34923 0L5.34876 0.00200272ZM5.41449 1.50056Q5.38152 1.50201 5.34851 1.502Q3.6042 1.50171 2.42403 2.3232Q1.50018 2.9662 1.5 3.72524Q1.50226 5.84733 5.18566 5.94386Q5.24209 5.94534 5.29824 5.95106L43.8911 5.95106Q43.9638 5.93927 44.0373 5.93467Q47.4996 5.7181 47.5 3.72331Q47.5 1.73894 44.0711 1.51462Q44.048 1.51386 44.0249 1.51239Q43.8382 1.50049 43.6495 1.49999Q43.4738 1.5007 43.2908 1.51238Q43.243 1.51543 43.1952 1.51543L5.81599 1.51543Q5.76824 1.51543 5.72058 1.51239Q5.56819 1.50268 5.41449 1.50056Z" fill="#113D7E" fill-rule="evenodd" />
          </g>
        </g>
      </g>
    </g>
  </g>
</svg>