<?xml version="1.0" encoding="utf-8"?>
<svg width="64.907" height="67.25" viewBox="0 0 64.907 67.25" fill="none" xmlns="http://www.w3.org/2000/svg">
  <defs>
    <linearGradient id="gradient_1" gradientUnits="userSpaceOnUse" x1="0" y1="0" x2="35" y2="41">
      <stop offset="0.169" stop-color="#FFFFFF" />
      <stop offset="0.985" stop-color="#5C6ACC" />
    </linearGradient>
    <filter color-interpolation-filters="sRGB" x="-33" y="-39" width="35" height="41" id="filter_2">
      <feFlood flood-opacity="0" result="BackgroundImageFix_1" />
      <feColorMatrix type="matrix" values="0 0 0 0 0 0 0 0 0 0 0 0 0 0 0 0 0 0 1 0" in="SourceAlpha" />
      <feOffset dx="2" dy="2" />
      <feGaussianBlur stdDeviation="1" />
      <feColorMatrix type="matrix" values="0 0 0 0 0 0 0 0 0 0 0 0 0 0 0 0 0 0 0.498 0" />
      <feBlend mode="normal" in2="BackgroundImageFix_1" result="Shadow_2" />
      <feBlend mode="normal" in="SourceGraphic" in2="Shadow_2" result="Shape_3" />
    </filter>
    <filter color-interpolation-filters="sRGB" x="-33" y="-39" width="35" height="41" id="filter_3">
      <feFlood flood-opacity="0" result="BackgroundImageFix_1" />
      <feColorMatrix type="matrix" values="0 0 0 0 0 0 0 0 0 0 0 0 0 0 0 0 0 0 1 0" in="SourceAlpha" />
      <feOffset dx="2" dy="2" />
      <feGaussianBlur stdDeviation="1" />
      <feColorMatrix type="matrix" values="0 0 0 0 0 0 0 0 0 0 0 0 0 0 0 0 0 0 0.498 0" />
      <feBlend mode="normal" in2="BackgroundImageFix_1" result="Shadow_2" />
      <feBlend mode="normal" in="SourceGraphic" in2="Shadow_2" result="Shape_3" />
    </filter>
    <filter color-interpolation-filters="sRGB" x="-33" y="-39" width="35" height="41" id="filter_4">
      <feFlood flood-opacity="0" result="BackgroundImageFix_1" />
      <feColorMatrix type="matrix" values="0 0 0 0 0 0 0 0 0 0 0 0 0 0 0 0 0 0 1 0" in="SourceAlpha" />
      <feOffset dx="2" dy="2" />
      <feGaussianBlur stdDeviation="1" />
      <feColorMatrix type="matrix" values="0 0 0 0 0 0 0 0 0 0 0 0 0 0 0 0 0 0 0.498 0" />
      <feBlend mode="normal" in2="BackgroundImageFix_1" result="Shadow_2" />
      <feBlend mode="normal" in="SourceGraphic" in2="Shadow_2" result="Shape_3" />
    </filter>
    <linearGradient id="gradient_5" gradientUnits="userSpaceOnUse" x1="0" y1="0" x2="5.333" y2="5">
      <stop offset="0.163" stop-color="#FFFFFF" />
      <stop offset="1" stop-color="#7B3A7F" />
    </linearGradient>
    <linearGradient id="gradient_6" gradientUnits="userSpaceOnUse" x1="13.949" y1="5.586" x2="2.153" y2="-0.604">
      <stop offset="0" stop-color="#A9DCDF" />
      <stop offset="1" stop-color="#FFFFFF" />
    </linearGradient>
    <filter color-interpolation-filters="sRGB" x="-18" y="-2" width="20" height="4" id="filter_7">
      <feFlood flood-opacity="0" result="BackgroundImageFix_1" />
      <feColorMatrix type="matrix" values="0 0 0 0 0 0 0 0 0 0 0 0 0 0 0 0 0 0 1 0" in="SourceAlpha" />
      <feOffset dx="2" dy="2" />
      <feGaussianBlur stdDeviation="2" />
      <feColorMatrix type="matrix" values="0 0 0 0 0 0 0 0 0 0 0 0 0 0 0 0 0 0 0.498 0" />
      <feBlend mode="normal" in2="BackgroundImageFix_1" result="Shadow_2" />
      <feBlend mode="normal" in="SourceGraphic" in2="Shadow_2" result="Shape_3" />
    </filter>
    <filter color-interpolation-filters="sRGB" x="-5" y="-27" width="7" height="29" id="filter_8">
      <feFlood flood-opacity="0" result="BackgroundImageFix_1" />
      <feColorMatrix type="matrix" values="0 0 0 0 0 0 0 0 0 0 0 0 0 0 0 0 0 0 1 0" in="SourceAlpha" />
      <feOffset dx="2" dy="2" />
      <feGaussianBlur stdDeviation="2" />
      <feColorMatrix type="matrix" values="0 0 0 0 0 0 0 0 0 0 0 0 0 0 0 0 0 0 0.498 0" />
      <feBlend mode="normal" in2="BackgroundImageFix_1" result="Shadow_2" />
      <feBlend mode="normal" in="SourceGraphic" in2="Shadow_2" result="Shape_3" />
    </filter>
    <linearGradient id="gradient_9" gradientUnits="userSpaceOnUse" x1="-4.5" y1="1" x2="11" y2="11">
      <stop offset="0.262" stop-color="#FFFFFF" />
      <stop offset="0.682" stop-color="#5C6ACC" />
    </linearGradient>
    <filter color-interpolation-filters="sRGB" x="-9" y="-9" width="11" height="11" id="filter_10">
      <feFlood flood-opacity="0" result="BackgroundImageFix_1" />
      <feColorMatrix type="matrix" values="0 0 0 0 0 0 0 0 0 0 0 0 0 0 0 0 0 0 1 0" in="SourceAlpha" />
      <feOffset dx="2" dy="2" />
      <feGaussianBlur stdDeviation="1" />
      <feColorMatrix type="matrix" values="0 0 0 0 0 0 0 0 0 0 0 0 0 0 0 0 0 0 0.498 0" />
      <feBlend mode="normal" in2="BackgroundImageFix_1" result="Shadow_2" />
      <feBlend mode="normal" in="SourceGraphic" in2="Shadow_2" result="Shape_3" />
    </filter>
    <linearGradient id="gradient_11" gradientUnits="userSpaceOnUse" x1="4.663" y1="25.017" x2="16.482" y2="-3.943">
      <stop offset="0" stop-color="#A9DCDF" />
      <stop offset="1" stop-color="#FFFFFF" />
    </linearGradient>
    <filter color-interpolation-filters="sRGB" x="-4" y="-4" width="6" height="6" id="filter_12">
      <feFlood flood-opacity="0" result="BackgroundImageFix_1" />
      <feColorMatrix type="matrix" values="0 0 0 0 0 0 0 0 0 0 0 0 0 0 0 0 0 0 1 0" in="SourceAlpha" />
      <feOffset dx="2" dy="2" />
      <feGaussianBlur stdDeviation="1" />
      <feColorMatrix type="matrix" values="0 0 0 0 0 0 0 0 0 0 0 0 0 0 0 0 0 0 0.498 0" />
      <feBlend mode="normal" in2="BackgroundImageFix_1" result="Shadow_2" />
      <feBlend mode="normal" in="SourceGraphic" in2="Shadow_2" result="Shape_3" />
    </filter>
    <filter color-interpolation-filters="sRGB" x="-4" y="-4" width="6" height="6" id="filter_13">
      <feFlood flood-opacity="0" result="BackgroundImageFix_1" />
      <feColorMatrix type="matrix" values="0 0 0 0 0 0 0 0 0 0 0 0 0 0 0 0 0 0 1 0" in="SourceAlpha" />
      <feOffset dx="2" dy="2" />
      <feGaussianBlur stdDeviation="1" />
      <feColorMatrix type="matrix" values="0 0 0 0 0 0 0 0 0 0 0 0 0 0 0 0 0 0 0.498 0" />
      <feBlend mode="normal" in2="BackgroundImageFix_1" result="Shadow_2" />
      <feBlend mode="normal" in="SourceGraphic" in2="Shadow_2" result="Shape_3" />
    </filter>
    <linearGradient id="gradient_14" gradientUnits="userSpaceOnUse" x1="0" y1="0" x2="6" y2="6">
      <stop offset="0" stop-color="#FFFFFF" />
      <stop offset="0.995" stop-color="#A9DCDF" />
    </linearGradient>
    <filter color-interpolation-filters="sRGB" x="-4" y="-4" width="6" height="6" id="filter_15">
      <feFlood flood-opacity="0" result="BackgroundImageFix_1" />
      <feColorMatrix type="matrix" values="0 0 0 0 0 0 0 0 0 0 0 0 0 0 0 0 0 0 1 0" in="SourceAlpha" />
      <feOffset dx="2" dy="2" />
      <feGaussianBlur stdDeviation="1" />
      <feColorMatrix type="matrix" values="0 0 0 0 0 0 0 0 0 0 0 0 0 0 0 0 0 0 0.498 0" />
      <feBlend mode="normal" in2="BackgroundImageFix_1" result="Shadow_2" />
      <feBlend mode="normal" in="SourceGraphic" in2="Shadow_2" result="Shape_3" />
    </filter>
  </defs>
  <g>
    <rect width="64" height="64" fill="#FEFEFE" fill-rule="evenodd" />
    <g transform="translate(4.75 3)">
      <path d="M1.58318 0C1.16329 0 0.760598 0.163521 0.463693 0.454663C0.166789 0.745805 -8.5597e-06 1.14066 0 1.5524C0 1.5524 0 39.4476 0 39.4476C0 39.8594 0.166803 40.2542 0.463713 40.5453C0.760621 40.8365 1.16331 41 1.5832 41C1.5832 41 33.4168 41 33.4168 41C33.8367 41 34.2394 40.8365 34.5363 40.5453C34.8332 40.2542 35 39.8593 35 39.4476C35 39.4476 35 10.6483 35 10.6483L24.1419 0C24.1419 0 1.58318 0 1.58318 0Z" fill="url(#gradient_1)" fill-rule="evenodd" stroke-width="1.3" stroke="#113D7E" filter="url(#filter_2)" />
      <path d="M1.58318 0C1.16329 0 0.760598 0.163521 0.463693 0.454663C0.166789 0.745805 -8.58307e-06 1.14066 0 1.5524C0 1.5524 0 39.4476 0 39.4476C0 39.8594 0.166803 40.2542 0.463713 40.5453C0.760621 40.8365 1.16331 41 1.5832 41C1.5832 41 33.4168 41 33.4168 41C33.8367 41 34.2394 40.8365 34.5363 40.5453C34.8332 40.2542 35 39.8593 35 39.4476C35 39.4476 35 10.6483 35 10.6483L24.1419 0C24.1419 0 1.58318 0 1.58318 0Z" fill="url(#gradient_1)" fill-rule="evenodd" stroke-width="1.3" stroke="#113D7E" filter="url(#filter_3)" transform="translate(2 2)" />
      <g transform="translate(4 4)">
        <g>
          <path d="M1.58318 0C1.16329 0 0.760598 0.163521 0.463693 0.454663C0.166789 0.745805 -8.5597e-06 1.14066 0 1.5524C0 1.5524 0 39.4476 0 39.4476C0 39.8594 0.166803 40.2542 0.463713 40.5453C0.760621 40.8365 1.16331 41 1.5832 41C1.5832 41 33.4168 41 33.4168 41C33.8367 41 34.2394 40.8365 34.5363 40.5453C34.8332 40.2542 35 39.8593 35 39.4476C35 39.4476 35 10.6483 35 10.6483L24.1419 0C24.1419 0 1.58318 0 1.58318 0Z" fill="url(#gradient_1)" fill-rule="evenodd" stroke-width="1.3" stroke="#113D7E" filter="url(#filter_4)" />
          <g transform="translate(4.5 9.998)">
            <g>
              <g transform="translate(0 18.003)">
                <g>
                  <path d="M6.11111 0C6.66347 0 7.11111 0.44764 7.11111 1L7.11111 2C7.11111 2.55236 6.66347 3 6.11111 3L1 3C0.44764 3 0 2.55236 0 2L0 1C0 0.44764 0.44764 0 1 0L6.11111 0Z" fill="#113D7E" transform="translate(3.556 1)" />
                  <path d="M0.899902 0L4.00041 0L4.43343 0Q4.52206 0 4.60899 0.0172914Q4.69592 0.0345827 4.77781 0.068501Q4.85969 0.102419 4.93339 0.151661Q5.00708 0.200903 5.06976 0.263575Q5.13243 0.326248 5.18167 0.399943Q5.23091 0.473639 5.26483 0.555525Q5.29875 0.63741 5.31604 0.72434Q5.33333 0.81127 5.33333 0.899902L5.33333 4.1001Q5.33333 4.18873 5.31604 4.27566Q5.29875 4.36259 5.26483 4.44448Q5.23091 4.52636 5.18167 4.60006Q5.13243 4.67375 5.06976 4.73642Q5.00708 4.7991 4.93339 4.84834Q4.85969 4.89758 4.77781 4.9315Q4.69592 4.96542 4.60899 4.98271Q4.52206 5 4.43343 5L0.899902 5Q0.81127 5 0.72434 4.98271Q0.63741 4.96542 0.555525 4.9315Q0.473639 4.89758 0.399943 4.84834Q0.326248 4.7991 0.263575 4.73642Q0.200903 4.67375 0.151661 4.60006Q0.102419 4.52636 0.068501 4.44448Q0.0345827 4.36259 0.0172914 4.27566Q0 4.18873 0 4.1001L0 0.899902Q0 0.81127 0.0172914 0.72434Q0.0345827 0.63741 0.068501 0.555525Q0.102419 0.473639 0.151661 0.399943Q0.200903 0.326248 0.263575 0.263575Q0.326248 0.200903 0.399943 0.151661Q0.473639 0.102419 0.555525 0.068501Q0.63741 0.0345827 0.72434 0.0172914Q0.81127 0 0.899902 0L0.899902 0Z" fill="url(#gradient_5)" fill-rule="evenodd" stroke-width="1" stroke="#113D7E" stroke-linecap="round" stroke-linejoin="round" />
                  <path d="M15 0C15.5524 0 16 0.44764 16 1L16 4C16 4.55236 15.5524 5 15 5L1 5C0.44764 5 0 4.55236 0 4L0 1C0 0.44764 0.44764 0 1 0L15 0Z" fill="url(#gradient_6)" stroke-width="1" stroke="#113D7E" transform="translate(10 0)" />
                </g>
              </g>
              <g transform="translate(0 9.002)">
                <g>
                  <path d="M6.11111 0C6.66347 0 7.11111 0.44764 7.11111 1L7.11111 2C7.11111 2.55236 6.66347 3 6.11111 3L1 3C0.44764 3 0 2.55236 0 2L0 1C0 0.44764 0.44764 0 1 0L6.11111 0Z" fill="#113D7E" transform="translate(3.556 1)" />
                  <path d="M0.899902 0L4.00041 0L4.43343 0Q4.52206 0 4.60899 0.0172914Q4.69592 0.0345827 4.77781 0.068501Q4.85969 0.102419 4.93339 0.151661Q5.00708 0.200903 5.06976 0.263575Q5.13243 0.326248 5.18167 0.399943Q5.23091 0.473639 5.26483 0.555525Q5.29875 0.63741 5.31604 0.72434Q5.33333 0.81127 5.33333 0.899902L5.33333 4.1001Q5.33333 4.18873 5.31604 4.27566Q5.29875 4.36259 5.26483 4.44448Q5.23091 4.52636 5.18167 4.60006Q5.13243 4.67375 5.06976 4.73642Q5.00708 4.7991 4.93339 4.84834Q4.85969 4.89758 4.77781 4.9315Q4.69592 4.96542 4.60899 4.98271Q4.52206 5 4.43343 5L0.899902 5Q0.81127 5 0.72434 4.98271Q0.63741 4.96542 0.555525 4.9315Q0.473639 4.89758 0.399943 4.84834Q0.326248 4.7991 0.263575 4.73642Q0.200903 4.67375 0.151661 4.60006Q0.102419 4.52636 0.068501 4.44448Q0.0345827 4.36259 0.0172914 4.27566Q0 4.18873 0 4.1001L0 0.899902Q0 0.81127 0.0172914 0.72434Q0.0345827 0.63741 0.068501 0.555525Q0.102419 0.473639 0.151661 0.399943Q0.200903 0.326248 0.263575 0.263575Q0.326248 0.200903 0.399943 0.151661Q0.473639 0.102419 0.555525 0.068501Q0.63741 0.0345827 0.72434 0.0172914Q0.81127 0 0.899902 0L0.899902 0Z" fill="url(#gradient_5)" fill-rule="evenodd" stroke-width="1" stroke="#113D7E" stroke-linecap="round" stroke-linejoin="round" />
                  <path d="M15 0C15.5524 0 16 0.44764 16 1L16 4C16 4.55236 15.5524 5 15 5L1 5C0.44764 5 0 4.55236 0 4L0 1C0 0.44764 0.44764 0 1 0L15 0Z" fill="url(#gradient_6)" stroke-width="1" stroke="#113D7E" transform="translate(10 0)" />
                </g>
              </g>
              <g>
                <g>
                  <path d="M6.11111 0C6.66347 0 7.11111 0.44764 7.11111 1L7.11111 2C7.11111 2.55236 6.66347 3 6.11111 3L1 3C0.44764 3 0 2.55236 0 2L0 1C0 0.44764 0.44764 0 1 0L6.11111 0Z" fill="#113D7E" transform="translate(3.556 1)" />
                  <path d="M0.899902 0L4.00041 0L4.43343 0Q4.52206 0 4.60899 0.0172914Q4.69592 0.0345827 4.77781 0.068501Q4.85969 0.102419 4.93339 0.151661Q5.00708 0.200903 5.06976 0.263575Q5.13243 0.326248 5.18167 0.399943Q5.23091 0.473639 5.26483 0.555525Q5.29875 0.63741 5.31604 0.72434Q5.33333 0.81127 5.33333 0.899902L5.33333 4.1001Q5.33333 4.18873 5.31604 4.27566Q5.29875 4.36259 5.26483 4.44448Q5.23091 4.52636 5.18167 4.60006Q5.13243 4.67375 5.06976 4.73642Q5.00708 4.7991 4.93339 4.84834Q4.85969 4.89758 4.77781 4.9315Q4.69592 4.96542 4.60899 4.98271Q4.52206 5 4.43343 5L0.899902 5Q0.81127 5 0.72434 4.98271Q0.63741 4.96542 0.555525 4.9315Q0.473639 4.89758 0.399943 4.84834Q0.326248 4.7991 0.263575 4.73642Q0.200903 4.67375 0.151661 4.60006Q0.102419 4.52636 0.068501 4.44448Q0.0345827 4.36259 0.0172914 4.27566Q0 4.18873 0 4.1001L0 0.899902Q0 0.81127 0.0172914 0.72434Q0.0345827 0.63741 0.068501 0.555525Q0.102419 0.473639 0.151661 0.399943Q0.200903 0.326248 0.263575 0.263575Q0.326248 0.200903 0.399943 0.151661Q0.473639 0.102419 0.555525 0.068501Q0.63741 0.0345827 0.72434 0.0172914Q0.81127 0 0.899902 0L0.899902 0Z" fill="url(#gradient_5)" fill-rule="evenodd" stroke-width="1" stroke="#113D7E" stroke-linecap="round" stroke-linejoin="round" />
                  <path d="M15 0C15.5524 0 16 0.44764 16 1L16 4C16 4.55236 15.5524 5 15 5L1 5C0.44764 5 0 4.55236 0 4L0 1C0 0.44764 0.44764 0 1 0L15 0Z" fill="url(#gradient_6)" stroke-width="1" stroke="#113D7E" transform="translate(10 0)" />
                </g>
              </g>
            </g>
          </g>
          <path d="M20 4L17.8535 0L17.8535 1L18 1L0 1" fill="none" stroke-width="2.5" stroke="#113D7E" stroke-linejoin="round" filter="url(#filter_7)" transform="translate(16.5 47)" />
          <path d="M7 11.0885L7 20.6839L0.00012207 20.6839L0.00012207 29L0 0" fill="none" stroke-width="2" stroke="#113D7E" stroke-linejoin="round" filter="url(#filter_8)" transform="translate(40.157 6.77)" />
          <path d="M10.3637 10.3637L0.636328 0.636327C0.284893 0.284893 0 0.4029 0 0.899902C0 2.69485 0 6.70148 0 8.49643C0 8.99343 -0.0185642 9.82897 0.245932 10.2497C0.309307 10.3506 0.384205 10.4448 0.469769 10.5303C0.555347 10.6159 0.649599 10.6908 0.75046 10.7542C1.17128 11.0186 2.0068 11 2.5038 11C4.29871 11 8.30519 11 10.1001 11C10.5971 11 10.7151 10.7151 10.3637 10.3637Z" fill="url(#gradient_9)" fill-rule="evenodd" stroke-width="1.3" stroke="#113D7E" filter="url(#filter_10)" transform="translate(24 0)" />
          <g transform="translate(27.5 33)">
            <path d="M12.2271 0.0265389C11.9153 -0.0501509 11.6972 0.0360796 11.5238 0.3282C11.5238 0.3282 10.604 1.92932 10.604 1.92932C10.4767 2.17305 10.2412 2.25268 10.0541 2.26805C10.0541 2.26805 10.0477 2.26853 10.0477 2.26853C10.0477 2.26853 10.0413 2.26897 10.0413 2.26897C9.58887 2.28169 9.07331 2.3568 8.45088 2.49744C8.32842 2.55281 8.21649 2.52608 8.17239 2.51652C8.04897 2.48469 7.93098 2.40261 7.8616 2.31128C7.8616 2.31128 7.87757 2.32718 7.87757 2.32718C7.87757 2.32718 7.83249 2.26926 7.83249 2.26926C7.83888 2.28198 7.84847 2.29473 7.85808 2.30968C7.85808 2.30968 6.54964 1.101 6.54964 1.101C6.42142 1.03227 6.33382 0.97658 6.24749 0.95558C6.06074 0.90977 5.90162 0.933295 5.75522 1.02207C5.75522 1.02207 4.32349 1.89089 4.32349 1.89089C4.17768 1.97935 4.07952 2.10884 4.03317 2.29589C4.01077 2.38499 4.02038 2.48554 4.02358 2.63708C4.02358 2.63708 4.48562 4.35147 4.48562 4.35147C4.53551 4.45615 4.55468 4.59775 4.52336 4.72382C4.49457 4.84059 4.42551 4.88324 4.36028 4.98346C4.36028 4.98346 4.35069 4.99936 4.35069 4.99936C4.35069 4.99936 4.3411 5.0089 4.3411 5.0089C3.97577 5.4378 3.66915 5.82374 3.44581 6.22363C3.33999 6.42631 3.159 6.60375 2.86534 6.60424C2.86534 6.60424 1.02516 6.67328 1.02516 6.67328C0.69039 6.68918 0.511063 6.84606 0.433659 7.15901C0.433659 7.15901 0.0268014 8.80263 0.0268014 8.80263C-0.0505791 9.11446 0.0363885 9.33281 0.329615 9.50493C0.329615 9.50493 1.92879 10.4198 1.92879 10.4198C2.18299 10.5519 2.25088 10.7768 2.26613 10.9689C2.30674 11.4804 2.38764 12.0051 2.49763 12.5813C2.55103 12.7058 2.51681 12.8168 2.50722 12.8502C2.47843 12.968 2.39786 13.0822 2.30833 13.1522C2.30833 13.1522 1.09669 14.4609 1.09669 14.4609C1.02314 14.5986 0.964954 14.6842 0.942559 14.7746C0.896526 14.9614 0.923385 15.1205 1.01067 15.2674C1.01067 15.2674 1.87488 16.6991 1.87488 16.6991C1.96217 16.8436 2.09136 16.9394 2.27803 16.9852C2.36693 17.0075 2.4638 16.9948 2.61409 16.9948C2.61409 16.9948 4.34096 16.5288 4.34096 16.5288C4.44263 16.4827 4.58237 16.4607 4.70729 16.4913C4.8288 16.5199 4.86876 16.5918 4.96756 16.6555C4.96756 16.6555 4.98035 16.6618 4.98035 16.6618C4.98035 16.6618 4.98993 16.6714 4.98993 16.6714C5.41767 17.035 5.80545 17.3385 6.20567 17.5612C6.41191 17.6684 6.5866 17.853 6.58645 18.1456C6.58645 18.1456 6.65295 19.9813 6.65295 19.9813C6.66893 20.3162 6.82369 20.494 7.13382 20.5701C7.13382 20.5701 8.77752 20.9729 8.77752 20.9729C9.08832 21.0496 9.30804 20.9666 9.48129 20.6719C9.48129 20.6719 10.4004 19.0708 10.4004 19.0708C10.5261 18.8302 10.757 18.7448 10.9491 18.7292C10.9491 18.7292 10.9555 18.7287 10.9555 18.7287C10.9555 18.7287 10.9619 18.7283 10.9619 18.7283C11.4142 18.7155 11.9295 18.6401 12.5517 18.4995C12.6831 18.4397 12.7985 18.4772 12.8327 18.4836C12.9542 18.5122 13.0706 18.5962 13.1403 18.6856C13.1403 18.6856 14.4514 19.8969 14.4514 19.8969C14.5809 19.9666 14.6672 20.0233 14.7529 20.0443C14.9381 20.0897 15.0982 20.0633 15.2457 19.9758C15.2457 19.9758 16.6768 19.1095 16.6768 19.1095C16.8213 19.0223 16.9214 18.889 16.9678 18.7021C16.9902 18.6111 16.9838 18.5131 16.9806 18.3609C16.9806 18.3609 16.5186 16.6486 16.5186 16.6486C16.4684 16.5445 16.4493 16.4014 16.4806 16.2748C16.5094 16.1584 16.5781 16.117 16.643 16.0171C16.643 16.0171 16.6494 16.0075 16.6494 16.0075C16.6494 16.0075 16.6558 16.0012 16.6558 16.0012C16.9723 15.6002 17.2817 15.2096 17.5609 14.768C17.5609 14.768 17.561 14.7674 17.561 14.7674C17.6717 14.565 17.8482 14.3958 18.1362 14.3953C18.1362 14.3953 19.9745 14.3256 19.9745 14.3256C20.3096 14.3065 20.4885 14.1531 20.5655 13.8417C20.5655 13.8417 20.9723 12.1986 20.9723 12.1986C21.0496 11.8868 20.9627 11.6657 20.6707 11.494C20.6707 11.494 19.0742 10.5791 19.0742 10.5791C18.8305 10.4524 18.9321 10.4842 18.8841 10.4247C18.7854 10.3026 18.7511 10.2154 18.7362 10.0299C18.7362 10.0299 18.7351 10.0267 18.7351 10.0267C18.7351 10.0267 18.7346 10.0203 18.7346 10.0203C18.725 9.56637 18.6454 9.04909 18.505 8.42394C18.4535 8.30494 18.4794 8.19802 18.489 8.15411C18.521 8.02906 18.6064 7.90974 18.7007 7.84035C18.7007 7.84035 19.9088 6.53536 19.9088 6.53536C19.9795 6.40364 20.0342 6.31867 20.0562 6.23052C20.1026 6.04374 20.0754 5.88111 19.9891 5.73528C19.9891 5.73528 19.1244 4.30549 19.1244 4.30549C19.0364 4.15975 18.9069 4.06301 18.7217 4.01783C18.6328 3.99555 18.5359 4.00829 18.3856 4.00829C18.3856 4.00829 16.6638 4.47219 16.6638 4.47219C16.6798 4.46583 16.6926 4.45629 16.7051 4.44991C16.7051 4.44991 16.6415 4.47855 16.6415 4.47855C16.6415 4.47855 16.6575 4.47537 16.6575 4.47537C16.5558 4.52118 16.4167 4.54284 16.2919 4.51261C16.1704 4.48397 16.1304 4.41206 16.0316 4.34843C16.0316 4.34843 16.0188 4.34207 16.0188 4.34207C16.0188 4.34207 16.0093 4.33253 16.0093 4.33253C15.5815 3.96901 15.1935 3.66614 14.7933 3.44347C14.5896 3.3375 14.4119 3.15424 14.4121 2.86091C14.4121 2.86091 14.3456 1.02579 14.3456 1.02579C14.3296 0.69048 14.1732 0.51195 13.863 0.435915C13.863 0.435915 12.2271 0.0265389 12.2271 0.0265389ZM18.7093 7.837L18.6869 7.85929C18.6869 7.85929 18.7447 7.8125 18.7447 7.8125C18.732 7.81887 18.7192 7.82841 18.707 7.83797C18.707 7.83797 18.7093 7.837 18.7093 7.837ZM18.512 8.42069C18.5184 8.43659 18.528 8.45252 18.5344 8.46684C18.5344 8.46684 18.5056 8.39588 18.5056 8.39588C18.5075 8.40224 18.5088 8.41178 18.512 8.42134C18.512 8.42134 18.512 8.42069 18.512 8.42069ZM16.5244 16.6511C16.5307 16.6638 16.5371 16.6765 16.5435 16.6861C16.5435 16.6861 16.5179 16.6231 16.5179 16.6231C16.5179 16.6231 16.5244 16.6511 16.5244 16.6511ZM13.1462 18.6881L13.1302 18.6754C13.1302 18.6754 13.1747 18.733 13.1747 18.733C13.1651 18.7171 13.1555 18.7012 13.1427 18.6878C13.1427 18.6878 13.1462 18.6881 13.1462 18.6881ZM12.5575 18.501C12.5447 18.5074 12.5319 18.5137 12.5194 18.5201C12.5206 18.5198 12.5213 18.5198 12.5226 18.5198C12.5226 18.5198 12.5901 18.4943 12.5901 18.4943C12.5805 18.4959 12.5677 18.5007 12.5578 18.5007C12.5578 18.5007 12.5575 18.501 12.5575 18.501ZM4.34178 16.528C4.3258 16.5344 4.30948 16.5439 4.2954 16.5503C4.2954 16.5503 4.35902 16.5217 4.35902 16.5217C4.35902 16.5217 4.34178 16.528 4.34178 16.528ZM2.30923 13.1529L2.31882 13.1434C2.31882 13.1434 2.26159 13.1876 2.26159 13.1876C2.27757 13.1781 2.29357 13.1685 2.30828 13.1548C2.30828 13.1548 2.30923 13.1529 2.30923 13.1529ZM2.49687 12.5819C2.49048 12.566 2.48409 12.5532 2.47448 12.5396C2.4748 12.5413 2.47477 12.5427 2.47516 12.5459C2.47516 12.5459 2.50075 12.615 2.50075 12.615C2.4989 12.6054 2.49756 12.5927 2.49436 12.5831C2.49436 12.5831 2.49687 12.5819 2.49687 12.5819ZM4.48486 4.35018C4.47847 4.33746 4.47208 4.32471 4.46569 4.31391C4.46569 4.31391 4.49128 4.37628 4.49128 4.37628C4.49128 4.37628 4.48486 4.35018 4.48486 4.35018ZM8.44835 2.49815C8.46114 2.49179 8.47395 2.48543 8.48705 2.47907C8.48587 2.47931 8.48522 2.47936 8.48385 2.47941C8.48385 2.47941 8.41637 2.50488 8.41637 2.50488C8.42596 2.50303 8.43877 2.49851 8.44835 2.49851C8.44835 2.49851 8.44835 2.49815 8.44835 2.49815ZM11.3795 6.95809C12.3417 7.19387 13.1001 7.74703 13.6225 8.61024C14.1442 9.47344 14.2816 10.4041 14.0432 11.3674C13.8046 12.3307 13.2486 13.0908 12.3838 13.6148C11.5188 14.1381 10.5885 14.277 9.62625 14.0411C8.66409 13.8053 7.90621 13.2523 7.3838 12.3891C6.86207 11.5258 6.72472 10.5952 6.96316 9.63187C7.20169 8.6686 7.75767 7.9085 8.62255 7.38456C9.48754 6.86123 10.4172 6.7222 11.3795 6.95807C11.3795 6.95807 11.3795 6.95809 11.3795 6.95809Z" fill="url(#gradient_11)" stroke-width="1" stroke="#113D7E" />
          </g>
          <path d="M4.63763 0.478668C5.32544 0.91571 5.72992 1.50665 5.91364 2.32953C6.09729 3.15237 5.99255 3.90338 5.55585 4.5921C5.11938 5.28082 4.49506 5.73874 3.67334 5.92264C2.85162 6.1066 2.09204 5.9584 1.40417 5.52142C0.71637 5.08429 0.259033 4.45914 0.0754395 3.63632C-0.108337 2.81348 0.0493774 2.09662 0.485901 1.4079C0.922424 0.719177 1.54675 0.261292 2.36841 0.0773315C3.19019 -0.106567 3.94977 0.0415955 4.63757 0.478668L4.63763 0.478668Z" fill="url(#gradient_1)" fill-rule="evenodd" stroke-width="0.5" stroke="#113D7E" filter="url(#filter_12)" transform="translate(44.5 12)" />
          <path d="M4.63763 0.478668C5.32544 0.91571 5.72992 1.50665 5.91364 2.32953C6.09729 3.15237 5.99255 3.90338 5.55585 4.5921C5.11938 5.28082 4.49506 5.73874 3.67334 5.92264C2.85162 6.1066 2.09204 5.9584 1.40417 5.52142C0.71637 5.08429 0.259033 4.45914 0.0754395 3.63632C-0.108337 2.81348 0.0493774 2.09662 0.485901 1.4079C0.922424 0.719177 1.54675 0.261292 2.36841 0.0773315C3.19019 -0.106567 3.94977 0.0415955 4.63757 0.478668L4.63763 0.478668Z" fill="url(#gradient_5)" fill-rule="evenodd" stroke-width="0.5" stroke="#113D7E" stroke-linecap="round" stroke-linejoin="round" filter="url(#filter_13)" transform="translate(37 1)" />
          <path d="M4.63763 0.478668C5.32544 0.91571 5.72992 1.50665 5.91364 2.32953C6.09729 3.15237 5.99255 3.90338 5.55585 4.5921C5.11938 5.28082 4.49506 5.73874 3.67334 5.92264C2.85162 6.1066 2.09204 5.9584 1.40417 5.52142C0.71637 5.08429 0.259033 4.45914 0.0754395 3.63632C-0.108337 2.81348 0.0493774 2.09662 0.485901 1.4079C0.922424 0.719177 1.54675 0.261292 2.36841 0.0773315C3.19019 -0.106567 3.94977 0.0415955 4.63757 0.478668L4.63763 0.478668Z" fill="url(#gradient_14)" fill-rule="evenodd" stroke-width="0.5" stroke="#113D7E" stroke-linecap="round" stroke-linejoin="round" filter="url(#filter_15)" transform="translate(12 45)" />
        </g>
      </g>
    </g>
  </g>
</svg>