<?xml version="1.0" encoding="utf-8"?>
<svg width="65" height="64" viewBox="0 0 65 64" fill="none" xmlns="http://www.w3.org/2000/svg">
  <defs>
    <linearGradient id="gradient_1" gradientUnits="userSpaceOnUse" x1="0" y1="0" x2="20.285" y2="21">
      <stop offset="0.169" stop-color="#FFFFFF" />
      <stop offset="0.985" stop-color="#5C6ACC" />
    </linearGradient>
    <filter color-interpolation-filters="sRGB" x="-18.285" y="-19" width="20.285" height="21" id="filter_2">
      <feFlood flood-opacity="0" result="BackgroundImageFix_1" />
      <feColorMatrix type="matrix" values="0 0 0 0 0 0 0 0 0 0 0 0 0 0 0 0 0 0 1 0" in="SourceAlpha" />
      <feOffset dx="2" dy="2" />
      <feGaussianBlur stdDeviation="1" />
      <feColorMatrix type="matrix" values="0 0 0 0 0 0 0 0 0 0 0 0 0 0 0 0 0 0 0.498 0" />
      <feBlend mode="normal" in2="BackgroundImageFix_1" result="Shadow_2" />
      <feBlend mode="normal" in="SourceGraphic" in2="Shadow_2" result="Shape_3" />
    </filter>
    <linearGradient id="gradient_3" gradientUnits="userSpaceOnUse" x1="0" y1="0" x2="20.978" y2="18.824">
      <stop offset="0.163" stop-color="#FFFFFF" />
      <stop offset="1" stop-color="#7B3A7F" />
    </linearGradient>
    <filter color-interpolation-filters="sRGB" x="-18.978" y="-16.824" width="20.978" height="18.824" id="filter_4">
      <feFlood flood-opacity="0" result="BackgroundImageFix_1" />
      <feColorMatrix type="matrix" values="0 0 0 0 0 0 0 0 0 0 0 0 0 0 0 0 0 0 1 0" in="SourceAlpha" />
      <feOffset dx="2" dy="2" />
      <feGaussianBlur stdDeviation="1" />
      <feColorMatrix type="matrix" values="0 0 0 0 0 0 0 0 0 0 0 0 0 0 0 0 0 0 0.498 0" />
      <feBlend mode="normal" in2="BackgroundImageFix_1" result="Shadow_2" />
      <feBlend mode="normal" in="SourceGraphic" in2="Shadow_2" result="Shape_3" />
    </filter>
  </defs>
  <g>
    <rect width="64" height="64" fill="#FEFEFE" fill-rule="evenodd" />
    <g transform="translate(5 35)">
      <g>
        <path d="M4.60593 19.3248C2.2805 17.795 0.91293 15.7266 0.29192 12.8467C-0.32909 9.96675 0.0256081 7.33833 1.50135 4.92773C2.97701 2.5171 5.08781 0.914538 7.86594 0.270771C10.6442 -0.372986 13.2123 0.145268 15.5378 1.67519C17.8633 3.20496 19.4094 5.39297 20.0303 8.27288C20.6515 11.1528 20.1187 13.6617 18.6424 16.0723C17.1667 18.4829 15.056 20.0855 12.2778 20.7292C9.4996 21.373 6.93137 20.8547 4.60593 19.3248L4.60593 19.3248Z" fill="url(#gradient_1)" fill-rule="evenodd" stroke-width="2" stroke="#113D7E" filter="url(#filter_2)" transform="translate(33.715 0)" />
        <path d="M0 18.824L10.631 0L20.9782 18.824L0 18.824Z" fill="url(#gradient_3)" fill-rule="evenodd" stroke-width="2" stroke="#113D7E" stroke-linecap="round" stroke-linejoin="round" filter="url(#filter_4)" transform="translate(0 1.088)" />
        <g transform="translate(17 2.5)">
          <path d="M10.4215 4.383C10.4215 4.383 7.142 1.1035 7.142 1.1035C6.989 0.981 6.9275 0.8275 6.9275 0.613C6.9275 0.613 6.9275 0.613 6.9275 0.613C6.9275 0.2145 7.142 0 7.5405 0C7.5405 0 7.5405 0 7.5405 0C7.6935 0 7.847 0.0614998 7.9695 0.184C7.9695 0.184 7.9695 0.184 7.9695 0.184C7.9695 0.184 12.3835 4.567 12.3835 4.567C12.3835 4.567 12.445 4.659 12.445 4.659C12.537 4.812 12.5675 4.935 12.5675 4.996C12.5675 4.996 12.5675 4.996 12.5675 4.996C12.5675 5.088 12.537 5.241 12.445 5.3945C12.445 5.3945 12.445 5.3945 12.445 5.3945C12.445 5.3945 12.3835 5.4865 12.3835 5.4865C12.3835 5.4865 7.9695 9.8695 7.9695 9.8695C7.847 9.992 7.6935 10.0535 7.5405 10.0535C7.5405 10.0535 7.5405 10.0535 7.5405 10.0535C7.142 10.0535 6.9275 9.839 6.9275 9.41C6.9275 9.41 6.9275 9.41 6.9275 9.41C6.9275 9.1955 6.989 9.042 7.142 8.95C7.142 8.95 7.142 8.95 7.142 8.95C7.142 8.95 10.4215 5.6705 10.4215 5.6705C10.4215 5.6705 0.613 5.6705 0.613 5.6705C0.2145 5.6705 0 5.456 0 4.996C0 4.996 0 4.996 0 4.996C0 4.5975 0.2145 4.383 0.613 4.383C0.613 4.383 0.613 4.383 0.613 4.383C0.613 4.383 10.4215 4.383 10.4215 4.383C10.4215 4.383 10.4215 4.383 10.4215 4.383Z" fill="#000000" fill-rule="evenodd" transform="translate(1.92 2.56)" />
        </g>
      </g>
    </g>
  </g>
</svg>