<?xml version="1.0" encoding="utf-8"?>
<svg width="64" height="64" viewBox="0 0 64 64" fill="none" xmlns="http://www.w3.org/2000/svg">
  <defs>
    <linearGradient id="gradient_1" gradientUnits="userSpaceOnUse" x1="0" y1="0" x2="46" y2="32">
      <stop offset="0" stop-color="#FFFFFF" />
      <stop offset="0.995" stop-color="#A9DCDF" />
    </linearGradient>
    <filter color-interpolation-filters="sRGB" x="-44" y="-30" width="46" height="32" id="filter_2">
      <feFlood flood-opacity="0" result="BackgroundImageFix_1" />
      <feColorMatrix type="matrix" values="0 0 0 0 0 0 0 0 0 0 0 0 0 0 0 0 0 0 1 0" in="SourceAlpha" />
      <feOffset dx="2" dy="2" />
      <feGaussianBlur stdDeviation="1" />
      <feColorMatrix type="matrix" values="0 0 0 0 0 0 0 0 0 0 0 0 0 0 0 0 0 0 0.498 0" />
      <feBlend mode="normal" in2="BackgroundImageFix_1" result="Shadow_2" />
      <feBlend mode="normal" in="SourceGraphic" in2="Shadow_2" result="Shape_3" />
    </filter>
  </defs>
  <g>
    <rect width="64" height="64" fill="#FEFEFE" fill-rule="evenodd" />
    <g transform="translate(9 23)">
      <g>
        <path d="M44 0C45.1047 0 46 0.89528 46 2L46 30C46 31.1047 45.1047 32 44 32L2 32C0.89528 32 0 31.1047 0 30L0 2C0 0.89528 0.89528 0 2 0L44 0Z" fill="url(#gradient_1)" stroke-width="2" stroke="#113D7E" stroke-linecap="round" stroke-linejoin="round" filter="url(#filter_2)" />
        <path d="M46 2.36714L26.8456 14.4942C24.8315 15.7694 22.7933 15.809 20.7312 14.6131L-4.44089e-16 2.58984L0 0.277829L21.7346 12.883C23.0975 13.6734 24.4446 13.6472 25.7757 12.8044L46 -9.53674e-07L46 2.36714Z" fill="#113D7E" fill-rule="evenodd" transform="translate(0 8)" />
      </g>
    </g>
  </g>
</svg>