<?xml version="1.0" encoding="utf-8"?>
<svg width="64.499" height="64" viewBox="0 0 64.499 64" fill="none" xmlns="http://www.w3.org/2000/svg">
  <defs>
    <linearGradient id="gradient_1" gradientUnits="userSpaceOnUse" x1="0" y1="0" x2="50.003" y2="17.971">
      <stop offset="0" stop-color="#FFFFFF" />
      <stop offset="0.995" stop-color="#A9DCDF" />
    </linearGradient>
    <filter color-interpolation-filters="sRGB" x="-48.003" y="-15.971" width="50.003" height="17.971" id="filter_2">
      <feFlood flood-opacity="0" result="BackgroundImageFix_1" />
      <feColorMatrix type="matrix" values="0 0 0 0 0 0 0 0 0 0 0 0 0 0 0 0 0 0 1 0" in="SourceAlpha" />
      <feOffset dx="2" dy="2" />
      <feGaussianBlur stdDeviation="1" />
      <feColorMatrix type="matrix" values="0 0 0 0 0 0 0 0 0 0 0 0 0 0 0 0 0 0 0.498 0" />
      <feBlend mode="normal" in2="BackgroundImageFix_1" result="Shadow_2" />
      <feBlend mode="normal" in="SourceGraphic" in2="Shadow_2" result="Shape_3" />
    </filter>
    <filter color-interpolation-filters="sRGB" x="-48.003" y="-15.971" width="50.003" height="17.971" id="filter_3">
      <feFlood flood-opacity="0" result="BackgroundImageFix_1" />
      <feColorMatrix type="matrix" values="0 0 0 0 0 0 0 0 0 0 0 0 0 0 0 0 0 0 1 0" in="SourceAlpha" />
      <feOffset dx="2" dy="2" />
      <feGaussianBlur stdDeviation="1" />
      <feColorMatrix type="matrix" values="0 0 0 0 0 0 0 0 0 0 0 0 0 0 0 0 0 0 0.498 0" />
      <feBlend mode="normal" in2="BackgroundImageFix_1" result="Shadow_2" />
      <feBlend mode="normal" in="SourceGraphic" in2="Shadow_2" result="Shape_3" />
    </filter>
    <linearGradient id="gradient_4" gradientUnits="userSpaceOnUse" x1="0" y1="0" x2="20.999" y2="21">
      <stop offset="0.169" stop-color="#FFFFFF" />
      <stop offset="0.985" stop-color="#5C6ACC" />
    </linearGradient>
    <filter color-interpolation-filters="sRGB" x="-18.999" y="-19" width="20.999" height="21" id="filter_5">
      <feFlood flood-opacity="0" result="BackgroundImageFix_1" />
      <feColorMatrix type="matrix" values="0 0 0 0 0 0 0 0 0 0 0 0 0 0 0 0 0 0 1 0" in="SourceAlpha" />
      <feOffset dx="2" dy="2" />
      <feGaussianBlur stdDeviation="1" />
      <feColorMatrix type="matrix" values="0 0 0 0 0 0 0 0 0 0 0 0 0 0 0 0 0 0 0.498 0" />
      <feBlend mode="normal" in2="BackgroundImageFix_1" result="Shadow_2" />
      <feBlend mode="normal" in="SourceGraphic" in2="Shadow_2" result="Shape_3" />
    </filter>
  </defs>
  <g>
    <g>
      <g>
        <rect width="64" height="64" fill="#FEFEFE" fill-rule="evenodd" />
        <g transform="translate(7 11)">
          <g>
            <g>
              <path d="M0 0L0.313889 50.76" fill="#1F2555" fill-rule="evenodd" stroke-width="3" stroke="#1F2555" transform="translate(24.844 -3.76)" />
              <path d="M45.0026 0C47.7644 0 50.0026 2.2382 50.0026 5L50.0026 12.9705C50.0026 15.7323 47.7644 17.9705 45.0026 17.9705L5 17.9705C2.2382 17.9705 0 15.7323 0 12.9705L0 5C0 2.2382 2.2382 0 5 0L45.0026 0Z" fill="url(#gradient_1)" stroke-width="2" stroke="#113D7E" stroke-linecap="round" stroke-linejoin="round" filter="url(#filter_2)" transform="translate(0 1.825)" />
              <path d="M46.0026 0C48.2121 0 50.0026 1.79056 50.0026 4L50.0026 13.9705C50.0026 16.1799 48.2121 17.9705 46.0026 17.9705L4 17.9705C1.79056 17.9705 0 16.1799 0 13.9705L0 4C0 1.79056 1.79056 0 4 0L46.0026 0Z" fill="url(#gradient_1)" stroke-width="2" stroke="#113D7E" stroke-linecap="round" stroke-linejoin="round" filter="url(#filter_3)" transform="translate(0 23.445)" />
            </g>
          </g>
        </g>
      </g>
      <g transform="translate(38 37)">
        <g>
          <path d="M12.2271 0.0265343C11.9153 -0.0501555 11.6972 0.036075 11.5238 0.328196C11.5238 0.328196 10.604 1.92931 10.604 1.92931C10.4767 2.17305 10.2412 2.25268 10.0541 2.26804C10.0541 2.26804 10.0477 2.26853 10.0477 2.26853C10.0477 2.26853 10.0414 2.26897 10.0414 2.26897C9.58888 2.28169 9.07332 2.3568 8.45089 2.49743C8.32842 2.55281 8.2165 2.52608 8.17239 2.51651C8.04898 2.48469 7.93098 2.40261 7.8616 2.31128C7.8616 2.31128 7.87758 2.32718 7.87758 2.32718C7.87758 2.32718 7.8325 2.26926 7.8325 2.26926C7.83889 2.28198 7.84848 2.29472 7.85809 2.30968C7.85809 2.30968 6.54965 1.10099 6.54965 1.10099C6.42143 1.03227 6.33383 0.976575 6.2475 0.955576C6.06075 0.909766 5.90163 0.93329 5.75523 1.02207C5.75523 1.02207 4.3235 1.89088 4.3235 1.89088C4.17769 1.97935 4.07952 2.10884 4.03317 2.29589C4.01078 2.38498 4.02039 2.48554 4.02359 2.63707C4.02359 2.63707 4.48563 4.35146 4.48563 4.35146C4.53551 4.45614 4.55469 4.59775 4.52337 4.72382C4.49458 4.84059 4.42552 4.88324 4.36029 4.98345C4.36029 4.98345 4.3507 4.99936 4.3507 4.99936C4.3507 4.99936 4.34111 5.0089 4.34111 5.0089C3.97577 5.43779 3.66916 5.82374 3.44582 6.22363C3.34 6.42631 3.15901 6.60375 2.86535 6.60423C2.86535 6.60423 1.02517 6.67328 1.02517 6.67328C0.690398 6.68918 0.511072 6.84605 0.433667 7.159C0.433667 7.159 0.0268099 8.80263 0.0268099 8.80263C-0.0505705 9.11446 0.0363971 9.3328 0.329623 9.50492C0.329623 9.50492 1.9288 10.4198 1.9288 10.4198C2.183 10.5519 2.25089 10.7768 2.26613 10.9689C2.30675 11.4804 2.38765 12.0051 2.49764 12.5813C2.55104 12.7057 2.51682 12.8168 2.50723 12.8502C2.47844 12.968 2.39787 13.0822 2.30834 13.1522C2.30834 13.1522 1.09669 14.4609 1.09669 14.4609C1.02314 14.5986 0.964962 14.6842 0.942568 14.7746C0.896535 14.9614 0.923394 15.1205 1.01068 15.2674C1.01068 15.2674 1.87489 16.6991 1.87489 16.6991C1.96217 16.8436 2.09137 16.9394 2.27804 16.9852C2.36693 17.0075 2.46381 16.9948 2.6141 16.9948C2.6141 16.9948 4.34096 16.5288 4.34096 16.5288C4.44264 16.4827 4.58238 16.4607 4.7073 16.4913C4.82881 16.5199 4.86877 16.5918 4.96757 16.6555C4.96757 16.6555 4.98035 16.6618 4.98035 16.6618C4.98035 16.6618 4.98994 16.6714 4.98994 16.6714C5.41768 17.035 5.80546 17.3385 6.20568 17.5612C6.41192 17.6684 6.58661 17.853 6.58646 18.1456C6.58646 18.1456 6.65296 19.9813 6.65296 19.9813C6.66894 20.3162 6.8237 20.494 7.13383 20.5701C7.13383 20.5701 8.77753 20.9729 8.77753 20.9729C9.08832 21.0496 9.30805 20.9666 9.4813 20.6719C9.4813 20.6719 10.4004 19.0708 10.4004 19.0708C10.5261 18.8302 10.757 18.7448 10.9491 18.7292C10.9491 18.7292 10.9555 18.7287 10.9555 18.7287C10.9555 18.7287 10.9619 18.7283 10.9619 18.7283C11.4142 18.7155 11.9295 18.6401 12.5517 18.4995C12.6831 18.4397 12.7985 18.4772 12.8327 18.4836C12.9542 18.5122 13.0706 18.5962 13.1403 18.6856C13.1403 18.6856 14.4514 19.8969 14.4514 19.8969C14.5809 19.9666 14.6673 20.0233 14.753 20.0443C14.9381 20.0897 15.0982 20.0633 15.2457 19.9758C15.2457 19.9758 16.6768 19.1095 16.6768 19.1095C16.8213 19.0223 16.9214 18.889 16.9678 18.7021C16.9902 18.6111 16.9838 18.5131 16.9806 18.3609C16.9806 18.3609 16.5187 16.6486 16.5187 16.6486C16.4684 16.5445 16.4493 16.4014 16.4806 16.2748C16.5094 16.1584 16.5781 16.117 16.643 16.0171C16.643 16.0171 16.6494 16.0075 16.6494 16.0075C16.6494 16.0075 16.6558 16.0012 16.6558 16.0012C16.9723 15.6002 17.2817 15.2096 17.5609 14.768C17.5609 14.768 17.561 14.7674 17.561 14.7674C17.6717 14.565 17.8482 14.3958 18.1362 14.3953C18.1362 14.3953 19.9745 14.3256 19.9745 14.3256C20.3096 14.3065 20.4885 14.1531 20.5655 13.8417C20.5655 13.8417 20.9723 12.1986 20.9723 12.1986C21.0497 11.8868 20.9627 11.6657 20.6708 11.494C20.6708 11.494 19.0742 10.5791 19.0742 10.5791C18.8305 10.4524 18.7511 10.2154 18.7362 10.0299C18.7362 10.0299 18.7351 10.0267 18.7351 10.0267C18.7351 10.0267 18.7346 10.0203 18.7346 10.0203C18.725 9.56637 18.6454 9.04908 18.505 8.42394C18.4536 8.30493 18.4794 8.19802 18.489 8.1541C18.521 8.02905 18.6064 7.90973 18.7007 7.84035C18.7007 7.84035 19.9089 6.53536 19.9089 6.53536C19.9795 6.40364 20.0342 6.31867 20.0562 6.23052C20.1026 6.04374 20.0754 5.88111 19.9891 5.73528C19.9891 5.73528 19.1244 4.30548 19.1244 4.30548C19.0364 4.15975 18.9069 4.06301 18.7217 4.01783C18.6328 3.99554 18.5359 4.00829 18.3856 4.00829C18.3856 4.00829 16.6638 4.47219 16.6638 4.47219C16.6798 4.46583 16.6926 4.45629 16.7051 4.4499C16.7051 4.4499 16.6415 4.47855 16.6415 4.47855C16.6415 4.47855 16.6575 4.47537 16.6575 4.47537C16.5558 4.52118 16.4167 4.54283 16.2919 4.51261C16.1704 4.48396 16.1304 4.41206 16.0316 4.34843C16.0316 4.34843 16.0188 4.34207 16.0188 4.34207C16.0188 4.34207 16.0093 4.33253 16.0093 4.33253C15.5815 3.96901 15.1935 3.66613 14.7933 3.44347C14.5897 3.3375 14.4119 3.15424 14.4121 2.8609C14.4121 2.8609 14.3456 1.02578 14.3456 1.02578C14.3296 0.690475 14.1732 0.511945 13.863 0.435911C13.863 0.435911 12.2271 0.0265343 12.2271 0.0265343ZM18.7093 7.83698L18.6869 7.85926C18.6869 7.85926 18.7448 7.81248 18.7448 7.81248C18.732 7.81884 18.7192 7.82838 18.707 7.83795C18.707 7.83795 18.7093 7.83698 18.7093 7.83698ZM18.512 8.42066C18.5184 8.43656 18.528 8.45248 18.5344 8.46681C18.5344 8.46681 18.5056 8.39585 18.5056 8.39585C18.5075 8.40221 18.5088 8.41175 18.512 8.42131C18.512 8.42131 18.512 8.42066 18.512 8.42066ZM16.5244 16.6511C16.5308 16.6638 16.5372 16.6766 16.5436 16.6861C16.5436 16.6861 16.518 16.6231 16.518 16.6231C16.518 16.6231 16.5244 16.6511 16.5244 16.6511ZM13.1462 18.6882L13.1303 18.6754C13.1303 18.6754 13.1747 18.733 13.1747 18.733C13.1651 18.7171 13.1555 18.7012 13.1427 18.6878C13.1427 18.6878 13.1462 18.6882 13.1462 18.6882ZM12.5574 18.501C12.5447 18.5074 12.5318 18.5138 12.5194 18.5201C12.5206 18.5198 12.5212 18.5198 12.5226 18.5198C12.5226 18.5198 12.5901 18.4943 12.5901 18.4943C12.5805 18.4959 12.5677 18.5007 12.5578 18.5007C12.5578 18.5007 12.5574 18.501 12.5574 18.501ZM4.34179 16.5281C4.32582 16.5344 4.30949 16.544 4.29542 16.5503C4.29542 16.5503 4.35904 16.5217 4.35904 16.5217C4.35904 16.5217 4.34179 16.5281 4.34179 16.5281ZM2.30919 13.1529L2.31878 13.1434C2.31878 13.1434 2.26155 13.1876 2.26155 13.1876C2.27753 13.178 2.29353 13.1685 2.30824 13.1548C2.30824 13.1548 2.30919 13.1529 2.30919 13.1529ZM2.49689 12.5819C2.49049 12.566 2.4841 12.5532 2.47449 12.5395C2.47481 12.5413 2.47478 12.5427 2.47517 12.5459C2.47517 12.5459 2.50076 12.615 2.50076 12.615C2.49891 12.6054 2.49757 12.5927 2.49437 12.5831C2.49437 12.5831 2.49689 12.5819 2.49689 12.5819ZM4.48482 4.35017C4.47843 4.33745 4.47204 4.32471 4.46565 4.31391C4.46565 4.31391 4.49124 4.37627 4.49124 4.37627C4.49124 4.37627 4.48482 4.35017 4.48482 4.35017ZM8.44835 2.49816C8.46113 2.4918 8.47394 2.48544 8.48704 2.47908C8.48587 2.47932 8.48521 2.47937 8.48384 2.47942C8.48384 2.47942 8.41637 2.50488 8.41637 2.50488C8.42595 2.50304 8.43876 2.49852 8.44835 2.49852C8.44835 2.49852 8.44835 2.49816 8.44835 2.49816ZM11.3795 6.95811C12.3417 7.19389 13.1001 7.74706 13.6225 8.61026C14.1443 9.47346 14.2816 10.4041 14.0432 11.3675C13.8047 12.3307 13.2487 13.0908 12.3838 13.6148C11.5188 14.1381 10.5886 14.277 9.6263 14.0411C8.66414 13.8053 7.90627 13.2523 7.38385 12.3891C6.86212 11.5259 6.72478 10.5952 6.96321 9.63189C7.20175 8.66862 7.75773 7.90852 8.6226 7.38458C9.48759 6.86125 10.4173 6.72222 11.3795 6.95809C11.3795 6.95809 11.3795 6.95811 11.3795 6.95811Z" fill="url(#gradient_4)" fill-rule="evenodd" stroke-width="1" stroke="#113D7E" filter="url(#filter_5)" />
        </g>
      </g>
    </g>
  </g>
</svg>