<?xml version="1.0" encoding="utf-8"?>
<svg width="66.5" height="64" viewBox="0 0 66.5 64" fill="none" xmlns="http://www.w3.org/2000/svg">
  <defs>
    <linearGradient id="gradient_1" gradientUnits="userSpaceOnUse" x1="-17.063" y1="-15.106" x2="35.875" y2="26.549">
      <stop offset="0.169" stop-color="#FFFFFF" />
      <stop offset="0.985" stop-color="#BAC0E9" />
    </linearGradient>
    <filter color-interpolation-filters="sRGB" x="-33.875" y="-24.549" width="35.875" height="26.549" id="filter_2">
      <feFlood flood-opacity="0" result="BackgroundImageFix_1" />
      <feColorMatrix type="matrix" values="0 0 0 0 0 0 0 0 0 0 0 0 0 0 0 0 0 0 1 0" in="SourceAlpha" />
      <feOffset dx="2" dy="2" />
      <feGaussianBlur stdDeviation="1" />
      <feColorMatrix type="matrix" values="0 0 0 0 0 0 0 0 0 0 0 0 0 0 0 0 0 0 0.498 0" />
      <feBlend mode="normal" in2="BackgroundImageFix_1" result="Shadow_2" />
      <feBlend mode="normal" in="SourceGraphic" in2="Shadow_2" result="Shape_3" />
    </filter>
    <linearGradient id="gradient_3" gradientUnits="userSpaceOnUse" x1="24.5" y1="0" x2="24.5" y2="7">
      <stop offset="0.406" stop-color="#D6DEEF" />
      <stop offset="0.702" stop-color="#99A1DA" />
    </linearGradient>
    <filter color-interpolation-filters="sRGB" x="-47" y="-5.451" width="49" height="7.451" id="filter_4">
      <feFlood flood-opacity="0" result="BackgroundImageFix_1" />
      <feColorMatrix type="matrix" values="0 0 0 0 0 0 0 0 0 0 0 0 0 0 0 0 0 0 1 0" in="SourceAlpha" />
      <feOffset dx="2" dy="2" />
      <feGaussianBlur stdDeviation="1" />
      <feColorMatrix type="matrix" values="0 0 0 0 0 0 0 0 0 0 0 0 0 0 0 0 0 0 0.498 0" />
      <feBlend mode="normal" in2="BackgroundImageFix_1" result="Shadow_2" />
      <feBlend mode="normal" in="SourceGraphic" in2="Shadow_2" result="Shape_3" />
    </filter>
    <filter color-interpolation-filters="sRGB" x="-47" y="-5.451" width="49" height="7.451" id="filter_5">
      <feFlood flood-opacity="0" result="BackgroundImageFix_1" />
      <feColorMatrix type="matrix" values="0 0 0 0 0 0 0 0 0 0 0 0 0 0 0 0 0 0 1 0" in="SourceAlpha" />
      <feOffset dx="2" dy="2" />
      <feGaussianBlur stdDeviation="1" />
      <feColorMatrix type="matrix" values="0 0 0 0 0 0 0 0 0 0 0 0 0 0 0 0 0 0 0.498 0" />
      <feBlend mode="normal" in2="BackgroundImageFix_1" result="Shadow_2" />
      <feBlend mode="normal" in="SourceGraphic" in2="Shadow_2" result="Shape_3" />
    </filter>
    <filter color-interpolation-filters="sRGB" x="-47" y="-5.451" width="49" height="7.451" id="filter_6">
      <feFlood flood-opacity="0" result="BackgroundImageFix_1" />
      <feColorMatrix type="matrix" values="0 0 0 0 0 0 0 0 0 0 0 0 0 0 0 0 0 0 1 0" in="SourceAlpha" />
      <feOffset dx="2" dy="2" />
      <feGaussianBlur stdDeviation="1" />
      <feColorMatrix type="matrix" values="0 0 0 0 0 0 0 0 0 0 0 0 0 0 0 0 0 0 0.498 0" />
      <feBlend mode="normal" in2="BackgroundImageFix_1" result="Shadow_2" />
      <feBlend mode="normal" in="SourceGraphic" in2="Shadow_2" result="Shape_3" />
    </filter>
    <linearGradient id="gradient_7" gradientUnits="userSpaceOnUse" x1="0" y1="0" x2="16.999" y2="21">
      <stop offset="0" stop-color="#FFFFFF" />
      <stop offset="0.995" stop-color="#A9DCDF" />
    </linearGradient>
    <filter color-interpolation-filters="sRGB" x="-14.999" y="-19" width="16.999" height="21" id="filter_8">
      <feFlood flood-opacity="0" result="BackgroundImageFix_1" />
      <feColorMatrix type="matrix" values="0 0 0 0 0 0 0 0 0 0 0 0 0 0 0 0 0 0 1 0" in="SourceAlpha" />
      <feOffset dx="2" dy="2" />
      <feGaussianBlur stdDeviation="1" />
      <feColorMatrix type="matrix" values="0 0 0 0 0 0 0 0 0 0 0 0 0 0 0 0 0 0 0.498 0" />
      <feBlend mode="normal" in2="BackgroundImageFix_1" result="Shadow_2" />
      <feBlend mode="normal" in="SourceGraphic" in2="Shadow_2" result="Shape_3" />
    </filter>
    <filter color-interpolation-filters="sRGB" x="-4" y="-4" width="6" height="6" id="filter_9">
      <feFlood flood-opacity="0" result="BackgroundImageFix_1" />
      <feColorMatrix type="matrix" values="0 0 0 0 0 0 0 0 0 0 0 0 0 0 0 0 0 0 1 0" in="SourceAlpha" />
      <feOffset dx="2" dy="2" />
      <feGaussianBlur stdDeviation="1" />
      <feColorMatrix type="matrix" values="0 0 0 0 0 0 0 0 0 0 0 0 0 0 0 0 0 0 0.498 0" />
      <feBlend mode="normal" in2="BackgroundImageFix_1" result="Shadow_2" />
      <feBlend mode="normal" in="SourceGraphic" in2="Shadow_2" result="Shape_3" />
    </filter>
  </defs>
  <g>
    <g>
      <g>
        <rect width="64" height="64" fill="#FEFEFE" fill-rule="evenodd" />
        <g transform="translate(6.5 16)">
          <g>
            <g>
              <g fill="url(#gradient_1)" fill-rule="evenodd" filter="url(#filter_2)" transform="translate(6.563 5.106)">
                <path d="M0 0L35.875 0L35.875 26.5489L0 26.5489L0 0Z" />
                <path d="M36.875 -1L-1 -1L-1 27.5489L36.875 27.5489L36.875 -1ZM35.875 0L0 0L0 26.5489L35.875 26.5489L35.875 0Z" fill="#113D7E" fill-rule="evenodd" />
              </g>
              <g fill="url(#gradient_3)" fill-rule="evenodd" filter="url(#filter_4)">
                <path d="M5.34876 0.0020611C3.93041 0.00176666 2.57011 0.393906 1.56708 1.09209C0.563936 1.79027 0.000236451 2.73732 0 3.72488C0.00212806 5.72592 2.27478 7.36809 5.14636 7.44335C5.14636 7.44335 5.14636 7.45106 5.14636 7.45106L43.6535 7.45106L44.131 7.45106C44.131 7.45106 44.131 7.43174 44.131 7.43174C46.8875 7.25932 48.9996 5.65078 49 3.72359C49 1.79687 46.8882 0.18809 44.1317 0.0154288C44.1279 0.0154288 44.1241 0.0154288 44.1203 0.0154288C43.9651 0.00553553 43.8093 0.00041222 43.6535 0C43.5004 0.000588886 43.3475 0.0057122 43.1952 0.0154288C43.1952 0.0154288 5.81599 0.0154288 5.81599 0.0154288C5.66076 0.00553553 5.50505 0.00041222 5.34923 0C5.34923 0 5.34876 0.0020611 5.34876 0.0020611Z" />
                <path d="M5.34876 0.0020611C3.93041 0.00176666 2.57011 0.393906 1.56708 1.09209C0.563936 1.79027 0.000236451 2.73732 0 3.72488C0.00212806 5.72592 2.27478 7.36809 5.14636 7.44335L5.14636 7.45106L44.131 7.45106L44.131 7.43174C46.8875 7.25932 48.9996 5.65078 49 3.72359C49 1.79687 46.8882 0.18809 44.1317 0.0154288L44.1203 0.0154288C43.9651 0.00553553 43.8093 0.00041222 43.6535 0C43.5004 0.000588886 43.3475 0.0057122 43.1952 0.0154288L5.81599 0.0154288C5.66076 0.00553553 5.50505 0.00041222 5.34923 0L5.34876 0.0020611ZM5.41548 1.50058Q5.38198 1.50207 5.34845 1.50206Q3.60422 1.5017 2.42403 2.3232Q1.50018 2.9662 1.5 3.72524Q1.50226 5.84732 5.18566 5.94386Q5.24211 5.94534 5.29829 5.95106L43.891 5.95106Q43.9638 5.93927 44.0373 5.93467Q47.4996 5.7181 47.5 3.72331Q47.5 1.73893 44.0711 1.51462Q44.048 1.51386 44.0249 1.51239Q43.8383 1.50049 43.6495 1.49999Q43.4738 1.5007 43.2908 1.51238Q43.243 1.51543 43.1952 1.51543L5.81599 1.51543Q5.76824 1.51543 5.72058 1.51239Q5.56868 1.50271 5.41548 1.50058Z" fill="#113D7E" fill-rule="evenodd" />
              </g>
              <g fill="url(#gradient_3)" fill-rule="evenodd" filter="url(#filter_5)" transform="translate(0 13.274)">
                <path d="M5.34876 0.00200176C3.93041 0.00170803 2.57011 0.393847 1.56708 1.09203C0.563936 1.79021 0.000236451 2.73726 0 3.72482C0.00212806 5.72586 2.27478 7.36803 5.14636 7.44329C5.14636 7.44329 5.14636 7.451 5.14636 7.451L43.6535 7.451L44.131 7.451C44.131 7.451 44.131 7.43169 44.131 7.43169C46.8875 7.25926 48.9996 5.65078 49 3.72359C49 1.79687 46.8882 0.18809 44.1317 0.0154285C44.1279 0.0154285 44.1241 0.0154285 44.1203 0.0154285C43.9651 0.00553513 43.8093 0.000411987 43.6535 0C43.5004 0.000588417 43.3475 0.00571251 43.1952 0.0154285C43.1952 0.0154285 5.81599 0.0154285 5.81599 0.0154285C5.66076 0.00553513 5.50505 0.000411987 5.34923 0C5.34923 0 5.34876 0.00200176 5.34876 0.00200176Z" />
                <path d="M5.34876 0.00200176C3.93041 0.00170803 2.57011 0.393847 1.56708 1.09203C0.563936 1.79021 0.000236451 2.73726 0 3.72482C0.00212806 5.72586 2.27478 7.36803 5.14636 7.44329L5.14636 7.451L44.131 7.451L44.131 7.43169C46.8875 7.25926 48.9996 5.65078 49 3.72359C49 1.79687 46.8882 0.18809 44.1317 0.0154285L44.1203 0.0154285C43.9651 0.00553513 43.8093 0.000411987 43.6535 0C43.5004 0.000588417 43.3475 0.00571251 43.1952 0.0154285L5.81599 0.0154285C5.66076 0.00553513 5.50505 0.000411987 5.34923 0L5.34876 0.00200176ZM5.41447 1.50056Q5.38148 1.50201 5.34845 1.502Q3.60422 1.50164 2.42403 2.32314Q1.50018 2.96614 1.5 3.72518Q1.50226 5.84727 5.18566 5.9438Q5.24211 5.94528 5.29828 5.951L43.8911 5.951Q43.9638 5.93921 44.0373 5.93461Q47.4996 5.71804 47.5 3.72331Q47.5 1.73897 44.0712 1.51462Q44.0481 1.51387 44.0249 1.51239Q43.8383 1.50049 43.6495 1.49999Q43.4739 1.5007 43.2908 1.51238Q43.243 1.51543 43.1952 1.51543L5.81599 1.51543Q5.76824 1.51543 5.72058 1.51239Q5.56817 1.50268 5.41447 1.50056Z" fill="#113D7E" fill-rule="evenodd" />
              </g>
              <g fill="url(#gradient_3)" fill-rule="evenodd" filter="url(#filter_6)" transform="translate(0 26.549)">
                <path d="M5.34876 0.00200272C3.93041 0.0017662 2.57011 0.393906 1.56708 1.09209C0.563936 1.79027 0.000236451 2.73732 0 3.72488C0.00212806 5.72592 2.27478 7.36809 5.14636 7.44335C5.14636 7.44335 5.14636 7.45106 5.14636 7.45106L43.6535 7.45106L44.131 7.45106C44.131 7.45106 44.131 7.43175 44.131 7.43175C46.8875 7.25932 48.9996 5.65078 49 3.72359C49 1.79687 46.8882 0.188089 44.1317 0.0154285C44.1279 0.0154285 44.1241 0.0154285 44.1203 0.0154285C43.9651 0.00553513 43.8093 0.000411987 43.6535 0C43.5004 0.000589371 43.3475 0.00571251 43.1952 0.0154285C43.1952 0.0154285 5.81599 0.0154285 5.81599 0.0154285C5.66076 0.00553513 5.50505 0.000411987 5.34923 0C5.34923 0 5.34876 0.00200272 5.34876 0.00200272Z" />
                <path d="M5.34876 0.00200272C3.93041 0.0017662 2.57011 0.393906 1.56708 1.09209C0.563936 1.79027 0.000236451 2.73732 0 3.72488C0.00212806 5.72592 2.27478 7.36809 5.14636 7.44335L5.14636 7.45106L44.131 7.45106L44.131 7.43175C46.8875 7.25932 48.9996 5.65078 49 3.72359C49 1.79687 46.8882 0.188089 44.1317 0.0154285L44.1203 0.0154285C43.9651 0.00553513 43.8093 0.000411987 43.6535 0C43.5004 0.000589371 43.3475 0.00571251 43.1952 0.0154285L5.81599 0.0154285C5.66076 0.00553513 5.50505 0.000411987 5.34923 0L5.34876 0.00200272ZM5.41449 1.50056Q5.38152 1.50201 5.34851 1.502Q3.6042 1.50171 2.42403 2.3232Q1.50018 2.9662 1.5 3.72524Q1.50226 5.84733 5.18566 5.94386Q5.24209 5.94534 5.29824 5.95106L43.8911 5.95106Q43.9638 5.93927 44.0373 5.93467Q47.4996 5.7181 47.5 3.72331Q47.5 1.73894 44.0711 1.51462Q44.048 1.51386 44.0249 1.51239Q43.8382 1.50049 43.6495 1.49999Q43.4738 1.5007 43.2908 1.51238Q43.243 1.51543 43.1952 1.51543L5.81599 1.51543Q5.76824 1.51543 5.72058 1.51239Q5.56819 1.50268 5.41449 1.50056Z" fill="#113D7E" fill-rule="evenodd" />
              </g>
            </g>
          </g>
        </g>
      </g>
    </g>
    <g transform="translate(8 16)">
      <g transform="translate(36 19)">
        <g fill="#113D7E">
          <path d="M11 0C11.5524 0 12 0.44764 12 1L12 20C12 20.5524 11.5524 21 11 21L1 21C0.44764 21 0 20.5524 0 20L0 1C0 0.44764 0.44764 0 1 0L11 0Z" />
          <path d="M1 -0.5L11 -0.5Q11.0985 -0.5 11.1951 -0.480785Q11.2917 -0.46157 11.3827 -0.423879Q11.4737 -0.386188 11.5556 -0.331469Q11.6375 -0.276751 11.7071 -0.207107Q11.7767 -0.137463 11.8315 -0.0555701Q11.8862 0.0263225 11.9239 0.117317Q11.9616 0.208311 11.9808 0.30491Q12 0.401509 12 0.5L12 1Q12 0.901509 11.9808 0.80491Q11.9616 0.708311 11.9239 0.617317Q11.8862 0.526322 11.8315 0.44443Q11.7767 0.362537 11.7071 0.292893Q11.6375 0.223249 11.5556 0.16853Q11.4737 0.113812 11.3827 0.0761206Q11.2917 0.0384296 11.1951 0.0192148Q11.0985 1.19209e-07 11 1.19209e-07L1 1.19209e-07Q0.901509 1.19209e-07 0.80491 0.0192148Q0.708311 0.0384296 0.617317 0.0761206Q0.526322 0.113812 0.44443 0.16853Q0.362537 0.223249 0.292893 0.292893Q0.223249 0.362537 0.16853 0.44443Q0.113812 0.526322 0.0761206 0.617317Q0.0384296 0.708311 0.0192148 0.80491Q1.19209e-07 0.901509 1.19209e-07 1L1.19209e-07 20Q1.19209e-07 20.0985 0.0192148 20.1951Q0.0384296 20.2917 0.0761206 20.3827Q0.113812 20.4737 0.16853 20.5556Q0.223249 20.6375 0.292893 20.7071Q0.362537 20.7767 0.44443 20.8315Q0.526322 20.8862 0.617317 20.9239Q0.708311 20.9616 0.80491 20.9808Q0.901509 21 1 21L0.5 21Q0.401509 21 0.30491 20.9808Q0.208311 20.9616 0.117317 20.9239Q0.0263225 20.8862 -0.0555701 20.8315Q-0.137463 20.7767 -0.207107 20.7071Q-0.276751 20.6375 -0.33147 20.5556Q-0.386188 20.4737 -0.423879 20.3827Q-0.461571 20.2917 -0.480785 20.1951Q-0.5 20.0985 -0.5 20L-0.5 1Q-0.5 0.92631 -0.492777 0.852974Q-0.485554 0.779639 -0.471178 0.707365Q-0.456802 0.63509 -0.43541 0.564573Q-0.414019 0.494056 -0.385819 0.425975Q-0.357619 0.357894 -0.322882 0.292905Q-0.288144 0.227916 -0.247204 0.166645Q-0.206264 0.105374 -0.159516 0.0484102Q-0.112767 -0.0085532 -0.0606601 -0.0606601Q-0.00855321 -0.112767 0.0484101 -0.159516Q0.105373 -0.206264 0.166645 -0.247204Q0.227916 -0.288144 0.292905 -0.322882Q0.357894 -0.357619 0.425975 -0.385819Q0.494056 -0.414019 0.564573 -0.43541Q0.63509 -0.456802 0.707364 -0.471178Q0.779639 -0.485554 0.852974 -0.492777Q0.92631 -0.5 1 -0.5Z" fill="#FFFFFF" fill-opacity="0.749" fill-rule="evenodd" />
        </g>
        <g>
          <path d="M0.768873 2.02654e-06C0.344268 2.02654e-06 1.12183e-07 0.355974 1.12183e-07 0.795092C1.12183e-07 0.795092 1.12183e-07 20.2046 1.12183e-07 20.2046C-0.000226828 20.6434 0.34389 20.9996 0.76857 20.9998C0.76857 20.9998 16.2305 20.9998 16.2305 20.9998C16.6552 20.9998 16.9995 20.6438 16.9995 20.2047C16.9995 20.2047 16.9995 5.45398 16.9995 5.45398C11.7982 -0.0250243 11.7255 2.02654e-06 11.7255 2.02654e-06C11.7255 2.02654e-06 0.768873 2.02654e-06 0.768873 2.02654e-06Z" fill="url(#gradient_7)" fill-rule="evenodd" stroke-width="1" stroke="#113D7E" stroke-linecap="round" stroke-linejoin="round" filter="url(#filter_8)" />
          <path d="M5.36367 5.36363L0.63633 0.636325C0.284894 0.284892 0 0.4029 0 0.899902C0 1.94754 0 3.64761 0 4.53836C0 4.8625 -0.0122194 5.41533 0.18949 5.66907C0.231022 5.72131 0.278407 5.7687 0.330655 5.81024C0.584372 6.01198 1.13716 6 1.46131 6C2.35212 5.99999 4.05238 5.99997 5.1001 5.99996C5.5971 5.99996 5.71511 5.71506 5.36367 5.36363Z" fill="url(#gradient_7)" fill-rule="evenodd" stroke-width="1" stroke="#113D7E" stroke-linecap="round" stroke-linejoin="round" filter="url(#filter_9)" transform="translate(11 0)" />
        </g>
      </g>
    </g>
  </g>
</svg>