<?xml version="1.0" encoding="utf-8"?>
<svg width="66.567" height="64" viewBox="0 0 66.567 64" fill="none" xmlns="http://www.w3.org/2000/svg">
  <defs>
    <linearGradient id="gradient_1" gradientUnits="userSpaceOnUse" x1="0" y1="0" x2="17" y2="17">
      <stop offset="0" stop-color="#FFFFFF" />
      <stop offset="0.995" stop-color="#A9DCDF" />
    </linearGradient>
    <filter color-interpolation-filters="sRGB" x="-15" y="-15" width="17" height="17" id="filter_2">
      <feFlood flood-opacity="0" result="BackgroundImageFix_1" />
      <feColorMatrix type="matrix" values="0 0 0 0 0 0 0 0 0 0 0 0 0 0 0 0 0 0 1 0" in="SourceAlpha" />
      <feOffset dx="2" dy="2" />
      <feGaussianBlur stdDeviation="1" />
      <feColorMatrix type="matrix" values="0 0 0 0 0 0 0 0 0 0 0 0 0 0 0 0 0 0 0.498 0" />
      <feBlend mode="normal" in2="BackgroundImageFix_1" result="Shadow_2" />
      <feBlend mode="normal" in="SourceGraphic" in2="Shadow_2" result="Shape_3" />
    </filter>
    <linearGradient id="gradient_3" gradientUnits="userSpaceOnUse" x1="-20.495" y1="-5.535" x2="-8.012" y2="1.672">
      <stop offset="0" stop-color="#A9DCDF" />
      <stop offset="1" stop-color="#FFFFFF" />
    </linearGradient>
    <linearGradient id="gradient_4" gradientUnits="userSpaceOnUse" x1="-20.465" y1="-2.561" x2="-7.983" y2="4.646">
      <stop offset="0" stop-color="#A9DCDF" />
      <stop offset="1" stop-color="#FFFFFF" />
    </linearGradient>
    <linearGradient id="gradient_5" gradientUnits="userSpaceOnUse" x1="37.901" y1="38.153" x2="-0.02" y2="-0.446">
      <stop offset="0" stop-color="#A9DCDF" />
      <stop offset="1" stop-color="#FFFFFF" />
    </linearGradient>
    <filter color-interpolation-filters="sRGB" x="-35.705" y="-35.886" width="37.705" height="37.886" id="filter_6">
      <feFlood flood-opacity="0" result="BackgroundImageFix_1" />
      <feColorMatrix type="matrix" values="0 0 0 0 0 0 0 0 0 0 0 0 0 0 0 0 0 0 1 0" in="SourceAlpha" />
      <feOffset dx="2" dy="2" />
      <feGaussianBlur stdDeviation="1" />
      <feColorMatrix type="matrix" values="0 0 0 0 0 0 0 0 0 0 0 0 0 0 0 0 0 0 0.251 0" />
      <feBlend mode="normal" in2="BackgroundImageFix_1" result="Shadow_2" />
      <feBlend mode="normal" in="SourceGraphic" in2="Shadow_2" result="Shape_3" />
    </filter>
    <linearGradient id="gradient_7" gradientUnits="userSpaceOnUse" x1="0" y1="0" x2="19.067" y2="19.021">
      <stop offset="0.169" stop-color="#FFFFFF" />
      <stop offset="0.985" stop-color="#5C6ACC" />
    </linearGradient>
    <filter color-interpolation-filters="sRGB" x="-17.067" y="-17.021" width="19.067" height="19.021" id="filter_8">
      <feFlood flood-opacity="0" result="BackgroundImageFix_1" />
      <feColorMatrix type="matrix" values="0 0 0 0 0 0 0 0 0 0 0 0 0 0 0 0 0 0 1 0" in="SourceAlpha" />
      <feOffset dx="2" dy="2" />
      <feGaussianBlur stdDeviation="1" />
      <feColorMatrix type="matrix" values="0 0 0 0 0 0 0 0 0 0 0 0 0 0 0 0 0 0 0.498 0" />
      <feBlend mode="normal" in2="BackgroundImageFix_1" result="Shadow_2" />
      <feBlend mode="normal" in="SourceGraphic" in2="Shadow_2" result="Shape_3" />
    </filter>
  </defs>
  <g>
    <rect width="64" height="64" fill="#FEFEFE" fill-rule="evenodd" />
    <g transform="translate(5 14)">
      <g transform="translate(0 -0)">
        <g transform="translate(39 25)">
          <path d="M0 8.49999C0 3.80557 3.80559 0 8.50003 0C13.1945 0 17.0001 3.80557 17.0001 8.49999C17.0001 13.1944 13.1945 17 8.50003 17C3.80559 17 0 13.1944 0 8.49999Z" fill="url(#gradient_1)" fill-rule="evenodd" stroke-width="0.5" stroke="#113D7E" stroke-linecap="round" stroke-linejoin="round" filter="url(#filter_2)" />
          <path d="M0 6.37813C0 2.85559 2.8556 0 6.37816 0C9.90072 0 12.7563 2.85559 12.7563 6.37813C12.7563 9.90068 9.90072 12.7563 6.37816 12.7563C2.8556 12.7563 0 9.90068 0 6.37813Z" fill="#FFFFFF" fill-rule="evenodd" stroke-width="1" stroke="#1F2555" stroke-linecap="round" stroke-linejoin="round" transform="translate(2.122 2.122)" />
          <path d="M2.13058 2.01423L0 0L2.13058 2.01423Z" fill="url(#gradient_3)" fill-rule="evenodd" stroke-width="1" stroke="#1F2555" stroke-linecap="round" transform="translate(8.507 8.395)" />
          <path d="M0 0L0.0305243 2.9735L0 0Z" fill="url(#gradient_4)" fill-rule="evenodd" stroke-width="1" stroke="#1F2555" stroke-linecap="round" transform="translate(8.462 5.422)" />
        </g>
        <g>
          <path d="M17.3435 0C16.7713 0 16.4304 0.240748 16.2559 0.824436C16.2559 0.824436 15.3502 4.00012 15.3502 4.00012C15.2345 4.47795 14.8609 4.71691 14.5439 4.8234C14.5439 4.8234 14.5325 4.82718 14.5325 4.82718C14.5325 4.82718 14.5212 4.83096 14.5212 4.83096C13.7436 5.04526 12.884 5.39645 11.8673 5.90609C11.6791 6.05425 11.4738 6.055 11.3929 6.055C11.1666 6.055 10.9264 5.95975 10.7673 5.83011C10.7673 5.83011 10.8051 5.84899 10.8051 5.84899C10.8051 5.84899 10.7023 5.76774 10.7023 5.76774C10.7212 5.78662 10.7427 5.80779 10.7654 5.82671C10.7654 5.82671 7.98386 4.28291 7.98386 4.28291C7.73216 4.21791 7.55704 4.15895 7.39887 4.15895C7.05608 4.15895 6.79119 4.26892 6.57559 4.48435C6.57559 4.48435 4.47051 6.60526 4.47051 6.60526C4.25583 6.82107 4.1417 7.0882 4.1417 7.43304C4.1417 7.59746 4.20067 7.76791 4.2706 8.03049C4.2706 8.03049 5.80424 10.8143 5.80424 10.8143C5.93576 10.9753 6.02913 11.2134 6.02913 11.4456C6.02913 11.6606 5.92821 11.7642 5.85868 11.9662C5.85868 11.9662 5.85113 11.9965 5.85113 11.9965C5.85113 11.9965 5.8398 12.0229 5.8398 12.0229C5.39135 12.9243 5.02614 13.726 4.81097 14.5164C4.71461 14.9139 4.47761 15.2995 3.96961 15.4255C3.96961 15.4255 0.815382 16.3301 0.815382 16.3301C0.243343 16.5021 0 16.85 0 17.4267C0 17.4267 0 20.4578 0 20.4578C0 21.033 0.2449 21.3752 0.824436 21.5499C0.824436 21.5499 3.98316 22.459 3.98316 22.459C4.47931 22.5803 4.69333 22.9423 4.80192 23.2698C5.09105 24.1419 5.45594 25.0195 5.89288 25.9746C6.03876 26.1685 6.02743 26.3757 6.02743 26.4377C6.02743 26.655 5.93709 26.8876 5.81275 27.0475C5.81275 27.0475 4.27685 29.8392 4.27685 29.8392C4.20883 30.1102 4.14456 30.2835 4.14456 30.4502C4.14456 30.7945 4.25794 31.0602 4.47337 31.278C4.47337 31.278 6.58185 33.3989 6.58185 33.3989C6.795 33.6128 7.0589 33.7243 7.40173 33.7243C7.565 33.7243 7.72829 33.6653 7.98669 33.5954C7.98669 33.5954 10.775 32.0493 10.775 32.0493C10.9311 31.9258 11.1636 31.8279 11.3928 31.8279C11.6158 31.8279 11.7152 31.9337 11.9134 32.0029C11.9134 32.0029 11.9399 32.0104 11.9399 32.0104C11.9399 32.0104 11.9663 32.0217 11.9663 32.0217C12.8621 32.4716 13.663 32.834 14.4508 33.0506C14.8537 33.1492 15.2348 33.3953 15.36 33.9044C15.36 33.9044 16.2612 37.0676 16.2612 37.0676C16.4339 37.6427 16.776 37.8864 17.3453 37.8864C17.3453 37.8864 20.3618 37.8864 20.3618 37.8864C20.9322 37.8864 21.2763 37.646 21.4505 37.0631C21.4505 37.0631 22.3551 33.8874 22.3551 33.8874C22.4696 33.4157 22.8324 33.1687 23.1581 33.0596C23.1581 33.0596 23.1694 33.0558 23.1694 33.0558C23.1694 33.0558 23.1807 33.0521 23.1807 33.0521C23.9581 32.8378 24.8172 32.4864 25.8335 31.9769C26.0354 31.8171 26.2506 31.8311 26.3135 31.8311C26.5365 31.8311 26.7736 31.9252 26.9324 32.0514C26.9324 32.0514 29.7196 33.5986 29.7196 33.5986C29.9732 33.6644 30.1474 33.7263 30.3046 33.7263C30.6443 33.7263 30.9106 33.6144 31.1279 33.3975C31.1279 33.3975 33.233 31.2811 33.233 31.2811C33.4457 31.068 33.5618 30.7936 33.5618 30.4489C33.5618 30.2807 33.507 30.114 33.4378 29.8503C33.4378 29.8503 31.9053 27.07 31.9053 27.07C31.7738 26.9102 31.6793 26.67 31.6793 26.4365C31.6793 26.2215 31.7806 26.1205 31.8497 25.9192C31.8497 25.9192 31.8573 25.8966 31.8573 25.8966C31.8573 25.8966 31.8648 25.8777 31.8648 25.8777C32.2409 25.0455 32.6087 24.2346 32.9026 23.348C32.9026 23.348 32.9026 23.3468 32.9026 23.3468C33.0073 22.9477 33.2405 22.5782 33.7384 22.4546C33.7384 22.4546 36.8892 21.55 36.8892 21.55C37.4615 21.3766 37.7046 21.0311 37.7046 20.4569C37.7046 20.4569 37.7046 17.4269 37.7046 17.4269C37.7046 16.8516 37.4593 16.5046 36.8813 16.3303C36.8813 16.3303 33.7271 15.42 33.7271 15.42C33.2514 15.3036 33.0124 14.9254 32.9072 14.6092C32.9072 14.6092 32.9034 14.6016 32.9034 14.6016C32.9034 14.6016 32.8996 14.5903 32.8996 14.5903C32.6857 13.8059 32.3296 12.9396 31.8189 11.9126C31.6786 11.7278 31.6786 11.5305 31.6786 11.4496C31.6786 11.2194 31.7773 10.9747 31.9103 10.8138C31.9103 10.8138 33.4417 8.02997 33.4417 8.02997C33.5079 7.77068 33.5657 7.59997 33.5657 7.43708C33.5657 7.09276 33.4508 6.82101 33.2369 6.60474C33.2369 6.60474 31.1284 4.48727 31.1284 4.48727C30.9141 4.27146 30.6486 4.15846 30.3085 4.15846C30.1452 4.15846 29.9819 4.21742 29.7235 4.28735C29.7235 4.28735 26.9431 5.82777 26.9431 5.82777C26.9658 5.80888 26.9862 5.78997 27.0051 5.77258C27.0051 5.77258 26.9068 5.84931 26.9068 5.84931C26.9068 5.84931 26.9333 5.8342 26.9333 5.8342C26.7772 5.95742 26.5455 6.05453 26.3167 6.05453C26.0937 6.05453 25.9943 5.94871 25.7961 5.87953C25.7961 5.87953 25.7696 5.87198 25.7696 5.87198C25.7696 5.87198 25.7431 5.86064 25.7431 5.86064C24.8476 5.4107 24.0466 5.04942 23.2588 4.83283C22.8608 4.73531 22.4751 4.49269 22.3497 3.98247C22.3497 3.98247 21.4485 0.820341 21.4485 0.820341C21.2758 0.244612 20.9305 0.000403643 20.361 0.000403643C20.361 0.000403643 17.3435 0 17.3435 0ZM31.9107 10.8168L31.8777 10.8633C31.8777 10.8633 31.9777 10.7571 31.9777 10.7571C31.9541 10.776 31.9305 10.7953 31.9103 10.8168C31.9103 10.8168 31.9107 10.8168 31.9107 10.8168ZM31.8174 11.9156C31.8406 11.9383 31.8643 11.9625 31.8922 11.9855C31.8922 11.9855 31.7922 11.8748 31.7922 11.8748C31.8015 11.8862 31.8062 11.9013 31.8155 11.9156C31.8155 11.9156 31.8174 11.9156 31.8174 11.9156ZM31.9081 27.0733C31.929 27.0925 31.95 27.1117 31.9735 27.1271C31.9735 27.1271 31.8735 27.0271 31.8735 27.0271C31.8735 27.0271 31.9081 27.0733 31.9081 27.0733ZM26.9258 32.0574L26.8955 32.0388C26.8955 32.0388 26.9972 32.1388 26.9972 32.1388C26.9745 32.1109 26.9514 32.0839 26.925 32.0583C26.925 32.0583 26.9258 32.0574 26.9258 32.0574ZM25.827 31.9873C25.8081 32.007 25.7884 32.0268 25.7695 32.0539C25.7715 32.0526 25.7733 32.0521 25.7771 32.051C25.7771 32.051 25.8822 31.9539 25.8822 31.9539C25.8633 31.9637 25.8481 31.9785 25.8289 31.9884C25.8289 31.9884 25.827 31.9873 25.827 31.9873ZM10.7684 32.0557C10.7415 32.0804 10.7184 32.1079 10.6973 32.135C10.6973 32.135 10.7973 32.035 10.7973 32.035C10.7973 32.035 10.7684 32.0557 10.7684 32.0557ZM5.82194 27.0491L5.83608 27.0226C5.83608 27.0226 5.73608 27.1243 5.73608 27.1243C5.76437 27.1017 5.79222 27.0756 5.8191 27.0476C5.8191 27.0476 5.82194 27.0491 5.82194 27.0491ZM5.89938 25.9762C5.88034 25.9536 5.85651 25.9332 5.82983 25.9116C5.83147 25.9138 5.83249 25.9192 5.83459 25.9192C5.83459 25.9192 5.92983 26.0277 5.92983 26.0277C5.92031 26.0088 5.91079 25.9936 5.90127 25.9747C5.90127 25.9747 5.89938 25.9762 5.89938 25.9762ZM5.81802 10.8188C5.79708 10.7993 5.77611 10.7795 5.75098 10.762C5.75098 10.762 5.85098 10.862 5.85098 10.862C5.85098 10.862 5.81802 10.8188 5.81802 10.8188ZM11.864 5.92349C11.8829 5.90377 11.9036 5.88402 11.9229 5.85693C11.921 5.85821 11.9192 5.8587 11.9154 5.85979C11.9154 5.85979 11.8103 5.95693 11.8103 5.95693C11.8292 5.94708 11.8443 5.93229 11.8625 5.9224C11.8625 5.9224 11.864 5.92349 11.864 5.92349ZM18.8455 12.4129C20.6114 12.4129 22.1605 13.0513 23.4341 14.3294C24.7064 15.6079 25.3426 17.1674 25.3426 18.9439C25.3426 20.7203 24.706 22.2789 23.4341 23.5583C22.1615 24.8369 20.6115 25.4748 18.8455 25.4748C17.0798 25.4748 15.5318 24.8365 14.2582 23.5583C12.9858 22.2799 12.3496 20.7204 12.3496 18.9439C12.3496 17.1674 12.9862 15.6089 14.2582 14.3294C15.5307 13.0509 17.0797 12.4129 18.8455 12.4129C18.8455 12.4129 18.8455 12.4129 18.8455 12.4129Z" fill="url(#gradient_5)" stroke-width="1.8" stroke="#113D7E" filter="url(#filter_6)" transform="translate(0 3)" />
          <path d="M18.3419 4.8762C18.2237 4.60068 18.0364 4.48724 17.7204 4.5232C17.7204 4.5232 16.0049 4.74393 16.0049 4.74393C15.7509 4.78701 15.5587 4.65662 15.4418 4.5266C15.4418 4.5266 15.4377 4.51904 15.4377 4.51904C15.4377 4.51904 15.4335 4.51149 15.4335 4.51149C15.1694 4.18193 14.8229 3.84054 14.3673 3.45669C14.257 3.39622 14.214 3.29832 14.1962 3.26014C14.1504 3.15016 14.1455 3.01599 14.175 2.91242C14.175 2.91242 14.1721 2.93508 14.1721 2.93508C14.1721 2.93508 14.1899 2.86893 14.1899 2.86893C14.185 2.88026 14.1804 2.8916 14.174 2.91089C14.174 2.91089 14.3416 1.25316 14.3416 1.25316C14.3208 1.11899 14.3133 1.02225 14.2803 0.945891C14.2094 0.781096 14.1023 0.675645 13.9535 0.616705C13.9535 0.616705 12.4976 0.0423305 12.4976 0.0423305C12.3491 -0.0154847 12.1973 -0.0162632 12.0313 0.0536629C11.952 0.0876888 11.8823 0.151559 11.7706 0.239623C11.7706 0.239623 10.7482 1.55331 10.7482 1.55331C10.698 1.64968 10.6027 1.74417 10.4908 1.79218C10.3873 1.83679 10.3164 1.81107 10.2048 1.81866C10.2048 1.81866 10.1878 1.81906 10.1878 1.81906C10.1878 1.81906 10.1757 1.81707 10.1757 1.81707C9.64917 1.78682 9.18786 1.77777 8.76297 1.83973C8.55169 1.87754 8.31705 1.84144 8.152 1.62165C8.152 1.62165 7.06447 0.290806 7.06447 0.290806C6.86415 0.0504333 6.64589 0.00582477 6.36803 0.125636C6.36803 0.125636 4.90945 0.752463 4.90945 0.752463C4.63263 0.87115 4.51821 1.05936 4.55451 1.37514C4.55451 1.37514 4.77032 3.08315 4.77032 3.08315C4.81458 3.34697 4.68456 3.52482 4.54929 3.64484C4.18951 3.96422 3.84259 4.32138 3.47338 4.72923C3.41023 4.8392 3.30807 4.87663 3.27765 4.88871C3.17344 4.9337 3.04252 4.9386 2.93975 4.91138C2.93975 4.91138 1.27868 4.74961 1.27868 4.74961C1.13419 4.77228 1.03747 4.77608 0.957108 4.81273C0.79142 4.88416 0.687553 4.99414 0.62677 5.14229C0.62677 5.14229 0.042244 6.59549 0.042244 6.59549C-0.0165215 6.74215 -0.0155411 6.89255 0.0551033 7.05746C0.0883522 7.13607 0.152538 7.20147 0.237171 7.31294C0.237171 7.31294 1.55844 8.3341 1.55844 8.3341C1.651 8.38211 1.74507 8.47545 1.79271 8.5858C1.83973 8.69238 1.80859 8.76268 1.81652 8.87228C1.81652 8.87228 1.81883 8.88361 1.81883 8.88361C1.81883 8.88361 1.8169 8.89495 1.8169 8.89495C1.78552 9.419 1.77699 9.87933 1.83578 10.3033C1.87169 10.5172 1.83201 10.7519 1.61303 10.9173C1.61303 10.9173 0.277195 12.0052 0.277195 12.0052C0.0357285 12.2063 -0.0102081 12.4224 0.10741 12.6962C0.10741 12.6962 0.731354 14.1477 0.731354 14.1477C0.849003 14.4221 1.03476 14.5391 1.35265 14.5015C1.35265 14.5015 3.06778 14.28 3.06778 14.28C3.31833 14.2377 3.51239 14.3609 3.63235 14.4947C3.63235 14.4947 3.63651 14.5022 3.63651 14.5022C3.63651 14.5022 3.64066 14.5098 3.64066 14.5098C3.90493 14.8394 4.25122 15.1803 4.70682 15.5638C4.82623 15.6273 4.86248 15.735 4.87698 15.7641C4.92401 15.8707 4.92675 16.0045 4.8989 16.1073C4.8989 16.1073 4.73081 17.7684 4.73081 17.7684C4.7516 17.9041 4.75803 18.0005 4.79033 18.0761C4.86049 18.2397 4.97038 18.3437 5.11888 18.4041C5.11888 18.4041 6.57262 18.9793 6.57262 18.9793C6.71957 19.0368 6.87516 19.0368 7.04117 18.9642C7.12182 18.9302 7.1916 18.8694 7.30363 18.7805C7.30363 18.7805 8.32455 17.4681 8.32455 17.4681C8.37403 17.3717 8.47052 17.2764 8.58274 17.2284C8.68609 17.1838 8.75573 17.2096 8.86701 17.2058C8.86701 17.2058 8.87722 17.2061 8.87722 17.2061C8.87722 17.2061 8.88477 17.2082 8.88477 17.2082C9.36295 17.2157 9.82933 17.2271 10.3168 17.1855C10.3168 17.1855 10.3173 17.1853 10.3173 17.1853C10.531 17.1551 10.757 17.1883 10.9193 17.4034C10.9193 17.4034 12.0062 18.7325 12.0062 18.7325C12.2091 18.9714 12.4246 19.0175 12.7008 18.8988C12.7008 18.8988 14.159 18.2721 14.159 18.2721C14.4358 18.1534 14.5522 17.9637 14.5164 17.6491C14.5164 17.6491 14.302 15.943 14.302 15.943C14.2597 15.6898 14.3922 15.4969 14.5226 15.3808C14.5226 15.3808 14.5242 15.3783 14.5242 15.3783C14.5242 15.3783 14.5291 15.3707 14.5291 15.3707C14.8633 15.1069 15.2055 14.7549 15.5941 14.2968C15.6542 14.191 15.7487 14.1502 15.787 14.132C15.8985 14.0852 16.0359 14.081 16.1409 14.1094C16.1409 14.1094 17.7972 14.2704 17.7972 14.2704C17.9355 14.2477 18.0298 14.2401 18.1082 14.2076C18.2739 14.1366 18.3803 14.0243 18.4409 13.8773C18.4409 13.8773 19.0237 12.4248 19.0237 12.4248C19.0832 12.2767 19.0827 12.1258 19.0123 11.9624C18.9791 11.8837 18.9149 11.8187 18.8303 11.7069C18.8303 11.7069 17.5148 10.6865 17.5148 10.6865C17.5284 10.694 17.5424 10.6978 17.5537 10.7091C17.5537 10.7091 17.4955 10.6789 17.4955 10.6789C17.4955 10.6789 17.5068 10.6864 17.5068 10.6864C17.4143 10.6388 17.3208 10.5455 17.2732 10.4351C17.2262 10.3285 17.2573 10.2582 17.2494 10.1486C17.2494 10.1486 17.2471 10.1335 17.2471 10.1335C17.2471 10.1335 17.249 10.1222 17.249 10.1222C17.28 9.59816 17.2883 9.13791 17.2298 8.71412C17.1942 8.50247 17.2314 8.26659 17.451 8.10082C17.451 8.10082 18.7864 7.01326 18.7864 7.01326C19.0282 6.81144 19.0737 6.59431 18.9559 6.32037C18.9559 6.32037 18.3419 4.8762 18.3419 4.8762ZM16.1614 14.1367L16.1187 14.1168C16.1187 14.1168 16.2187 14.2168 16.2187 14.2168C16.2011 14.1668 16.1797 14.1668 16.1593 14.1418C16.1593 14.1418 16.1614 14.1367 16.1614 14.1367ZM15.6375 14.3149C15.6161 14.3333 15.5967 14.364 15.5784 14.3842C15.5784 14.3842 15.6784 14.2842 15.6784 14.2842C15.6687 14.2965 15.6508 14.3026 15.6366 14.321C15.6366 14.321 15.6375 14.3149 15.6375 14.3149ZM8.35594 17.496C8.34103 17.5169 8.31919 17.5377 8.30884 17.5586C8.30884 17.5586 8.40884 17.4586 8.40884 17.4586C8.40884 17.4586 8.35594 17.496 8.35594 17.496ZM4.97983 16.1262L4.9811 16.0975C4.9811 16.0975 4.8811 16.1975 4.8811 16.1975C4.92069 16.1688 4.95201 16.1457 4.9687 16.1222C4.9687 16.1222 4.97983 16.1262 4.97983 16.1262ZM4.73314 15.5989C4.71262 15.578 4.69142 15.5676 4.6709 15.5572C4.67242 15.5592 4.673 15.5606 4.67437 15.5633C4.67437 15.5633 4.7709 15.6572 4.7709 15.6572C4.75998 15.6363 4.74073 15.6259 4.73172 15.5947C4.73172 15.5947 4.73314 15.5989 4.73314 15.5989ZM1.58939 8.39249C1.56602 8.36752 1.53944 8.33005 1.51563 8.31757C1.51563 8.31757 1.61562 8.41757 1.61562 8.41757C1.61562 8.41757 1.58939 8.39249 1.58939 8.39249ZM2.96716 4.99028L2.9855 5.00112C2.9855 5.00112 2.8855 4.90112 2.8855 4.90112C2.91075 4.94112 2.93368 4.98112 2.96213 5.00112C2.96213 5.00112 2.96716 4.99028 2.96716 4.99028ZM3.50363 4.75568C3.5227 4.73845 3.53906 4.71543 3.54995 4.69421C3.54732 4.69605 3.54461 4.69724 3.53906 4.7057C3.53906 4.7057 3.44995 4.79421 3.44995 4.79421C3.46542 4.78273 3.48539 4.77124 3.49725 4.75976C3.49725 4.75976 3.50363 4.75568 3.50363 4.75568ZM10.7828 1.58683C10.798 1.566 10.8204 1.54517 10.8334 1.52429C10.8334 1.52429 10.7334 1.62429 10.7334 1.62429C10.7334 1.62429 10.7828 1.58683 10.7828 1.58683ZM14.3811 3.49847C14.4016 3.51933 14.4228 3.52976 14.444 3.54019C14.4426 3.53812 14.4419 3.53684 14.4405 3.53413C14.4405 3.53413 14.344 3.44019 14.344 3.44019C14.3555 3.46105 14.3741 3.47148 14.3825 3.50277C14.3825 3.50277 14.3811 3.49847 14.3811 3.49847ZM12.6795 8.16614C13.0448 9.01581 13.0579 9.8933 12.7064 10.7705C12.3543 11.6471 11.7354 12.2758 10.8806 12.6432C10.0257 13.0106 9.14407 13.0266 8.26528 12.6772C7.38698 12.3291 6.75929 11.7153 6.39409 10.8656C6.02888 10.0159 6.01594 9.13894 6.36761 8.26176C6.71967 7.38508 7.3386 6.7564 8.19345 6.38901C9.04834 6.02165 9.9299 6.00564 10.8087 6.35499C11.687 6.70309 12.3145 7.31633 12.6797 8.16609C12.6797 8.16609 12.6795 8.16614 12.6795 8.16614Z" fill="url(#gradient_7)" fill-rule="evenodd" stroke-width="1" stroke="#113D7E" filter="url(#filter_8)" transform="translate(37 0)" />
        </g>
      </g>
    </g>
  </g>
</svg>