<?xml version="1.0" encoding="utf-8"?>
<svg width="71.11" height="64" viewBox="0 0 71.11 64" fill="none" xmlns="http://www.w3.org/2000/svg">
  <defs>
    <linearGradient id="gradient_1" gradientUnits="userSpaceOnUse" x1="22.619" y1="33.175" x2="-0.945" y2="-0.501">
      <stop offset="0" stop-color="#A9DCDF" />
      <stop offset="1" stop-color="#FFFFFF" />
    </linearGradient>
    <linearGradient id="gradient_2" gradientUnits="userSpaceOnUse" x1="12.733" y1="33.179" x2="16.98" y2="0.701">
      <stop offset="0" stop-color="#A9DCDF" />
      <stop offset="1" stop-color="#FFFFFF" />
    </linearGradient>
  </defs>
  <g transform="translate(3 0)">
    <rect width="64" height="64" fill="#FEFEFE" fill-rule="evenodd" />
    <g transform="translate(3 15)">
      <g transform="translate(34.098 0)">
        <g>
          <g>
            <g transform="matrix(1 0.024 -0.024 1 0.84 0)">
              <path d="M6.97662 0.509704C4.73843 1.06893 2.634 2.08654 1.32176 4.15387C-2.52179 10.2091 3.36709 12.5873 2.10675 16.2626C2.10675 16.2626 2.09607 16.3026 2.09607 16.3026C2.09607 16.3026 2.08538 16.3427 2.08538 16.3427C1.46796 19.0222 0.79168 22.8734 1.05074 26.2344C1.46264 31.5783 4.23754 35.4976 12.1187 32.548C12.1187 32.548 12.2036 32.5217 12.2036 32.5217C12.2036 32.5217 12.2746 32.456 12.2746 32.456C14.6408 30.2655 15.2845 26.7877 16.6051 24.2438C18.1992 21.1728 21.1695 18.5594 22.4769 15.1266C23.115 13.4513 23.6114 11.3607 23.0489 9.47589C21.7875 5.2493 19.0991 1.96137 15.054 0.653417C12.3952 -0.206258 9.73463 -0.179275 6.9766 0.509808C6.9766 0.509808 6.97662 0.509704 6.97662 0.509704Z" fill="#FFFFFF" fill-rule="evenodd" transform="matrix(1 0 0 1 0.147 0.761)" />
              <path d="M8.24288 0.25968C7.78392 0.339207 7.32806 0.437994 6.8917 0.547095C3.56141 1.32133 1.88507 2.41299 0.622335 5.40177C0.380648 6.06017 -0.134551 8.48001 0.0328289 9.23349C0.0736853 9.41747 0.179289 9.75085 0.517067 9.83054C0.973317 9.9382 1.23024 9.41286 1.44013 8.9682C1.96441 7.72243 2.25803 6.6224 3.14659 5.74608C3.14659 5.74608 3.17015 5.72142 3.17015 5.72142C3.17015 5.72142 3.19339 5.68893 3.19339 5.68893C4.64021 3.82432 7.4835 3.2262 10.0986 2.92045C15.6182 2.38447 21.1361 6.30935 21.3294 10.8499C21.3294 10.8499 21.3307 10.8817 21.3307 10.8817C21.3307 10.8817 21.3319 10.9134 21.3319 10.9134C21.5921 13.3177 20.8639 15.8048 19.2361 17.9056C17.2981 20.5495 15.0297 23.2394 13.978 26.4082C12.9809 28.8271 12.2445 31.4056 9.70446 32.5131C7.8017 33.2842 5.58757 32.4266 4.09228 31.2378C3.06552 30.498 2.99265 28.8485 2.38117 27.4363C2.05286 26.6782 1.3369 26.7311 1.21592 27.6148C1.08359 28.5814 1.55525 32.2486 2.35565 33.2452C3.84225 35.0965 4.6161 35.0112 6.06903 35.3887C8.98565 36.276 12.3507 35.0103 13.9796 32.7406C16.3581 29.7571 16.5752 26.0262 18.8714 23.2163C21.0453 20.2848 23.8544 17.1643 24.1014 13.2446C24.3969 10.3784 23.882 7.28091 21.8167 4.92376C18.8024 1.20071 13.2503 -0.736486 8.24281 0.259607C8.24281 0.259607 8.24288 0.25968 8.24288 0.25968Z" fill="#FFFFFF" fill-rule="evenodd" transform="scale(1 1)" />
            </g>
            <path d="M6.62979 0.0739002C5.29678 0.266891 3.9896 0.83322 2.98547 1.67756C1.1655 3.10414 0.0456846 5.68802 0.991526 8.03662C1.38384 9.21703 2.3704 10.0128 2.90571 10.8549C3.24103 11.3558 3.04107 12.0301 2.54987 12.6571C2.54987 12.6571 2.53134 12.681 2.53134 12.681C2.53134 12.681 2.51281 12.705 2.51281 12.705C1.91828 13.6314 0.65255 14.4185 0.205967 15.7774C-0.410484 17.4189 0.395979 19.4462 2.10175 19.7945C3.51207 20.1486 5.04551 19.7127 6.09577 18.7386C8.16003 16.8124 8.77296 13.7362 7.88112 11.1411C7.46854 9.81833 6.49017 8.82321 5.6295 7.97345C5.6295 7.97345 5.654 7.99744 5.654 7.99744C4.8276 7.06989 4.15203 6.16719 4.39015 5.32997C4.86782 4.23446 6.15043 3.20926 7.59887 3.29761C9.62582 3.45036 10.9345 5.27819 10.9671 6.83836C10.9671 6.83836 10.9671 6.86234 10.9671 6.86234C10.9671 6.86234 10.9671 6.87819 10.9671 6.87819C11.0297 7.8107 10.5909 8.7541 10.01 9.76001C10.01 9.76001 10.0037 9.77586 10.0037 9.77586C10.0037 9.77586 9.99147 9.79171 9.99147 9.79171C9.79675 10.1748 8.9912 11.7208 9.8749 12.348C10.1118 12.5161 10.3917 12.5207 10.6541 12.4592C10.6541 12.4592 10.7154 12.4433 10.7154 12.4433C10.7154 12.4433 10.7706 12.4116 10.7706 12.4116C13.2048 11.0559 14.2584 8.14601 13.9364 5.55239C13.7362 3.46412 12.4338 1.63125 10.605 0.717602C9.37906 0.0538125 7.96642 -0.119037 6.62937 0.0745511C6.62937 0.0745511 6.62979 0.0739002 6.62979 0.0739002ZM0.285923 15.8119C0.314244 15.7897 0.255217 15.7667 0.285923 15.7453C0.285923 15.7453 0.193848 15.8453 0.193848 15.8453C0.211092 15.83 0.269399 15.8265 0.285923 15.8121C0.285923 15.8121 0.285923 15.8119 0.285923 15.8119ZM1.06348 8.06197C1.04494 8.03636 0.984353 8.03053 0.967041 8.00491C0.967041 8.00491 1.06348 8.10491 1.06348 8.10491C1.05112 8.09029 1.07584 8.0764 1.06348 8.06175C1.06348 8.06175 1.06348 8.06197 1.06348 8.06197Z" fill="#FFFFFF" transform="translate(3.819 5.955)" />
          </g>
        </g>
        <g transform="translate(0.515 0.691)">
          <g>
            <g transform="matrix(1 0.024 -0.024 1 0.808 0)">
              <path d="M1.19766 3.90699C2.40756 2.00089 4.35965 1.04308 6.55023 0.495742C9.24601 -0.177802 11.8321 -0.196435 14.4011 0.634167C18.2764 1.88722 20.8256 5.01137 22.0206 9.01571C22.5058 10.6417 22.0807 12.5135 21.467 14.1246C20.2058 17.4361 17.2651 20.0102 15.6283 23.1634C14.2708 25.7786 13.7017 29.1003 11.4213 31.2113C-1.25323 35.9548 0.527683 22.4981 2.05382 15.8749C3.53335 11.5606 -2.44822 9.65075 1.19763 3.907C1.19763 3.907 1.19766 3.90699 1.19766 3.90699Z" fill="url(#gradient_1)" fill-rule="evenodd" transform="matrix(1 0 0 1 0.159 0.767)" />
              <path d="M6.47338 0.536028C3.21996 1.29239 1.72833 2.29622 0.573811 5.02673C0.27272 5.84689 -0.479685 9.91428 0.448582 7.95499C0.951415 6.76018 1.30223 5.50075 2.29642 4.52027C3.88574 2.472 6.88262 1.86892 9.52486 1.56009C15.2218 1.00688 21.1181 5.07525 21.3343 10.1541C21.6219 12.8121 20.8083 15.4914 19.0964 17.7002C17.1496 20.3561 14.9586 22.9424 13.9388 26.015C12.9615 28.3754 12.15 31.2711 9.35281 32.4906C7.29005 33.3265 4.88166 32.3937 3.32377 31.1544C2.08816 30.2641 1.93573 28.3258 1.39712 27.0819C0.90869 25.9539 1.37671 31.0579 2.19355 32.075C3.55499 33.7704 4.09393 33.6386 5.65505 34.0447C8.42174 34.8863 11.561 33.6813 13.08 31.5659C15.3861 28.6731 15.6059 24.9365 17.9582 22.0588C20.1503 19.103 22.8179 16.115 23.0492 12.4546C23.3259 9.77114 22.853 6.92129 20.933 4.72939C18.0503 1.16884 12.6991 -0.719567 7.79895 0.25504C7.35281 0.332352 6.91058 0.426781 6.47336 0.536028C6.47336 0.536028 6.47338 0.536028 6.47338 0.536028Z" fill="#1F2555" fill-rule="evenodd" transform="scale(1 1)" />
            </g>
            <path d="M1.67481 18.4448C0.24878 18.1533 -0.29883 16.549 0.156495 15.3748C0.535403 14.194 1.73438 13.4926 2.39454 12.4639C3.00319 11.687 3.3655 10.6054 2.77931 9.73007C2.20069 8.81924 1.26807 8.11057 0.93604 7.06476C0.140626 5.12009 1.073 2.88794 2.73659 1.58386C4.62917 -0.00674438 7.61918 -0.556366 9.87774 0.666626C11.5833 1.51895 12.7215 3.17914 12.8924 4.96201C13.1768 7.25415 12.2589 9.86761 10.0364 11.1052C8.99565 11.349 9.67583 9.94373 9.90874 9.48551C10.504 8.45462 11.0518 7.33878 10.9715 6.14185C10.93 4.15543 9.35308 2.10016 7.1077 1.931C5.45974 1.83041 3.93825 2.97208 3.3633 4.34811C2.94289 5.66656 3.93532 6.87708 4.78689 7.83292C5.6431 8.67813 6.50955 9.57208 6.86551 10.7132C7.65336 13.0064 7.13138 15.7634 5.26492 17.5048C4.33669 18.3658 2.9529 18.7657 1.67506 18.4448C1.67506 18.4448 1.67481 18.4448 1.67481 18.4448Z" fill="#1F2555" fill-rule="evenodd" transform="translate(3.829 5.94)" />
          </g>
        </g>
      </g>
      <g transform="translate(0 2.79)">
        <path d="M18.1457 1.34566e-05C17.0226 0.00257022 16.0674 0.827085 15.9134 1.94294C15.9134 1.94294 13.9843 16.0877 13.9843 16.0877C13.9843 16.0877 12.8888 7.17229 12.8888 7.17229C12.5812 4.69813 9.04889 4.49281 8.45868 6.91736C8.45868 6.91736 6.28839 15.9017 6.28839 15.9017C5.8222 15.4675 5.36409 14.9587 4.70374 15.0266C4.70374 15.0266 2.01677 15.3023 2.01677 15.3023C0.775856 15.4284 -0.113843 16.5301 0.0118418 17.7688C0.137796 19.0091 1.2322 19.9071 2.47834 19.7806C2.47834 19.7806 3.60826 19.6635 3.60826 19.6635C3.60826 19.6635 5.15847 22.8121 5.15847 22.8121C6.09128 24.7048 8.87175 24.3942 9.36814 22.3436C9.36814 22.3436 9.91932 20.0493 9.91932 20.0493C9.91932 20.0493 11.6211 33.9047 11.6211 33.9047C11.9403 36.5128 15.7401 36.5346 16.0926 33.9322C16.0926 33.9322 18.1871 18.6162 18.1871 18.6162C18.1871 18.6162 19.0207 24.5277 19.0207 24.5277C19.3636 26.9395 22.7608 27.1663 23.4233 24.8239C23.4233 24.8239 23.7954 23.508 23.7954 23.508C23.7954 23.508 25.1802 30.694 25.1802 30.694C25.6748 33.2057 29.2954 33.0863 29.6241 30.5424C29.6241 30.5424 30.761 21.3446 30.761 21.3446C30.761 21.3446 30.9677 22.2471 30.9677 22.2471C31.4629 24.4295 34.4741 24.649 35.2738 22.5572C35.2738 22.5572 36.2177 20.0906 36.2177 20.0906C36.7082 20.5975 37.1631 21.2358 37.9057 21.1241C37.9057 21.1241 40.7443 20.6969 40.7443 20.6969C41.9814 20.5126 42.8318 19.3637 42.6459 18.127C42.4592 16.8914 41.3187 16.0483 40.0829 16.2323C40.0829 16.2323 39.1045 16.377 39.1045 16.377C39.1045 16.377 38.1537 13.5522 38.1537 13.5522C37.4787 11.5475 34.66 11.4958 33.9096 13.4695C33.9096 13.4695 33.71 13.9863 33.71 13.9863C33.71 13.9863 32.3044 7.79233 32.3044 7.79233C31.7439 5.35375 28.1891 5.53467 27.8743 8.01968C27.8743 8.01968 26.9097 15.8052 26.9097 15.8052C26.9097 15.8052 26.4343 13.3248 26.4343 13.3248C25.9869 10.9769 22.6958 10.8308 22.0454 13.132C22.0454 13.132 21.997 13.318 21.997 13.318C21.997 13.318 20.3848 1.93603 20.3848 1.93603C20.2264 0.819052 19.2671 -0.00216652 18.1456 0C18.1456 0 18.1457 1.34566e-05 18.1457 1.34566e-05Z" fill="#FFFFFF" fill-rule="evenodd" />
        <path d="M17.1522 0C16.527 0.00139952 15.9984 0.463137 15.913 1.08244C15.913 1.08244 12.9317 22.8772 12.9317 22.8772C12.9317 22.8772 10.8997 6.2978 10.8997 6.2978C10.825 5.69711 10.3318 5.23551 9.72754 5.20069C9.12322 5.16588 8.58028 5.56778 8.43715 6.15593C8.43715 6.15593 5.77828 17.1612 5.77828 17.1612C5.77828 17.1612 5.06497 15.7153 5.06497 15.7153C4.83309 15.2454 4.33347 14.9692 3.81221 15.0229C3.81221 15.0229 1.12707 15.2963 1.12707 15.2963C0.43831 15.3663 -0.0633538 15.9813 0.006513 16.6701C0.0764875 17.3589 0.691564 17.8606 1.38038 17.7907C1.38038 17.7907 3.2009 17.6039 3.2009 17.6039C3.2009 17.6039 5.06002 21.3728 5.06002 21.3728C5.29336 21.8461 5.79809 22.1227 6.32257 22.0647C6.84706 22.0067 7.27907 21.6264 7.4033 21.1135C7.4033 21.1135 9.25085 13.4614 9.25085 13.4614C9.25085 13.4614 11.6179 32.7827 11.6179 32.7827C11.6946 33.4085 12.224 33.88 12.8544 33.8841C13.4849 33.8881 14.0203 33.4233 14.1049 32.7986C14.1049 32.7986 17.1748 10.3525 17.1748 10.3525C17.1748 10.3525 19.0181 23.3906 19.0181 23.3906C19.1016 23.9771 19.5843 24.4251 20.1754 24.4648C20.7665 24.5044 21.3047 24.125 21.4659 23.5549C21.4659 23.5549 22.9896 18.1747 22.9896 18.1747C22.9896 18.1747 25.1643 29.5042 25.1643 29.5042C25.2831 30.1072 25.8215 30.5352 26.4358 30.515C27.0501 30.4947 27.5591 30.0321 27.638 29.4226C27.638 29.4226 29.4804 14.5617 29.4804 14.5617C29.4804 14.5617 30.9483 21.0304 30.9483 21.0304C31.0706 21.5692 31.5311 21.9644 32.0821 22.0036C32.6332 22.0428 33.145 21.7167 33.3423 21.2006C33.3423 21.2006 34.949 16.9895 34.949 16.9895C34.949 16.9895 35.3866 18.2932 35.3866 18.2932C35.5802 18.8701 36.16 19.2247 36.7617 19.1342C36.7617 19.1342 39.6019 18.7092 39.6019 18.7092C39.931 18.6601 40.2272 18.4822 40.425 18.2147C40.6229 17.9471 40.7063 17.6119 40.6569 17.2828C40.5537 16.5991 39.9164 16.1281 39.2326 16.23C39.2326 16.23 37.4297 16.4979 37.4297 16.4979C37.4297 16.4979 36.2107 12.8756 36.2107 12.8756C36.0418 12.3738 35.576 12.0323 35.0466 12.0221C34.5174 12.0119 34.0387 12.3352 33.8505 12.8301C33.8505 12.8301 32.477 16.4352 32.477 16.4352C32.477 16.4352 30.3388 7.02388 30.3388 7.02388C30.2027 6.43152 29.6613 6.02213 29.0542 6.05248C28.4472 6.08284 27.9494 6.54422 27.873 7.14721C27.873 7.14721 26.1271 21.2286 26.1271 21.2286C26.1271 21.2286 24.4547 12.5125 24.4547 12.5125C24.3459 11.9413 23.8586 11.5198 23.2777 11.4945C22.6968 11.4692 22.1747 11.8465 22.0165 12.4061C22.0165 12.4061 20.6703 17.1609 20.6703 17.1609C20.6703 17.1609 18.3962 1.07765 18.3962 1.07765C18.3083 0.458562 17.7777 -0.00113034 17.1524 9.41753e-05C17.1524 9.41753e-05 17.1522 0 17.1522 0Z" fill="url(#gradient_2)" fill-rule="evenodd" stroke-width="1" stroke="#1F2555" stroke-linecap="round" stroke-linejoin="round" transform="translate(0.993 0.991)" />
      </g>
    </g>
  </g>
</svg>