<?xml version="1.0" encoding="utf-8"?>
<svg width="65.724" height="70.113" viewBox="0 0 65.724 70.113" fill="none" xmlns="http://www.w3.org/2000/svg">
  <defs>
    <linearGradient id="gradient_1" gradientUnits="userSpaceOnUse" x1="0" y1="0" x2="46" y2="32">
      <stop offset="0" stop-color="#FFFFFF" />
      <stop offset="0.995" stop-color="#A9DCDF" />
    </linearGradient>
    <filter color-interpolation-filters="sRGB" x="-44" y="-30" width="46" height="32" id="filter_2">
      <feFlood flood-opacity="0" result="BackgroundImageFix_1" />
      <feColorMatrix type="matrix" values="0 0 0 0 0 0 0 0 0 0 0 0 0 0 0 0 0 0 1 0" in="SourceAlpha" />
      <feOffset dx="2" dy="2" />
      <feGaussianBlur stdDeviation="1" />
      <feColorMatrix type="matrix" values="0 0 0 0 0 0 0 0 0 0 0 0 0 0 0 0 0 0 0.498 0" />
      <feBlend mode="normal" in2="BackgroundImageFix_1" result="Shadow_2" />
      <feBlend mode="normal" in="SourceGraphic" in2="Shadow_2" result="Shape_3" />
    </filter>
    <linearGradient id="gradient_3" gradientUnits="userSpaceOnUse" x1="13.642" y1="18.802" x2="-0.57" y2="-0.284">
      <stop offset="0" stop-color="#A9DCDF" />
      <stop offset="1" stop-color="#FFFFFF" />
    </linearGradient>
    <linearGradient id="gradient_4" gradientUnits="userSpaceOnUse" x1="8.315" y1="21.667" x2="11.088" y2="0.458">
      <stop offset="0" stop-color="#A9DCDF" />
      <stop offset="1" stop-color="#FFFFFF" />
    </linearGradient>
  </defs>
  <g>
    <rect width="64" height="64" fill="#FEFEFE" fill-rule="evenodd" />
    <g transform="translate(8 17)">
      <g>
        <path d="M44 0C45.1047 0 46 0.89528 46 2L46 30C46 31.1047 45.1047 32 44 32L2 32C0.89528 32 0 31.1047 0 30L0 2C0 0.89528 0.89528 0 2 0L44 0Z" fill="url(#gradient_1)" stroke-width="2" stroke="#113D7E" stroke-linecap="round" stroke-linejoin="round" filter="url(#filter_2)" />
        <path d="M46 2.36714L26.8456 14.4942C24.8315 15.7694 22.7933 15.809 20.7312 14.6131L-4.44089e-16 2.58984L0 0.277829L21.7346 12.883C23.0975 13.6734 24.4446 13.6472 25.7757 12.8044L46 -9.53674e-07L46 2.36714Z" fill="#113D7E" fill-rule="evenodd" transform="translate(0 8)" />
      </g>
    </g>
    <g transform="translate(21 36)">
      <g>
        <g transform="translate(23.173 1.08)">
          <g>
            <g>
              <g transform="matrix(1 0.024 -0.024 1 0.489 0)">
                <path d="M4.39129 0.294768C3.02101 0.616497 1.68658 1.21278 0.851281 2.44936C-1.5512 6.00607 1.96439 7.54924 1.29781 9.37581C1.29781 9.37581 1.28076 9.41231 1.28076 9.41231C1.28076 9.41231 1.27148 9.45312 1.27148 9.45312C0.896126 10.9839 0.480335 13.2069 0.640784 15.163C0.905491 18.3903 2.73609 20.6984 7.60775 18.9851C7.60775 18.9851 7.69535 18.9555 7.69535 18.9555C7.69535 18.9555 7.77032 18.8904 7.77032 18.8904C9.23422 17.6169 9.65425 15.5847 10.4349 14.1715C11.3781 12.4641 13.1851 10.9668 13.9934 8.97234C14.3887 7.99705 14.7163 6.72592 14.344 5.55351C13.5548 3.0686 11.8716 1.14128 9.35923 0.3779C7.71713 -0.121025 6.08138 -0.102043 4.39127 0.294774C4.39127 0.294774 4.39129 0.294768 4.39129 0.294768Z" fill="#FFFFFF" fill-rule="evenodd" transform="matrix(1 0 0 1 0.063 0.432)" />
                <path d="M5.14039 0.14882C4.85809 0.194793 4.58109 0.254648 4.31827 0.316422C2.27679 0.762415 1.18443 1.41472 0.390124 3.18009C0.390124 3.18009 0.383303 3.19375 0.383303 3.19375C0.383303 3.19375 0.376669 3.21194 0.376669 3.21194C-0.465536 5.36783 0.225585 7.57525 1.25987 5.52378C1.25987 5.52378 1.2667 5.51012 1.2667 5.51012C1.2667 5.51012 1.27352 5.49645 1.27352 5.49645C1.59891 4.76989 1.75264 4.20777 2.24329 3.75307C2.24329 3.75307 2.27172 3.72523 2.27172 3.72523C2.27172 3.72523 2.29646 3.6975 2.29646 3.6975C3.108 2.71467 4.75806 2.37648 6.32367 2.20444C9.57658 1.90761 12.7383 4.07435 12.8451 6.431C12.8451 6.431 12.8464 6.46248 12.8464 6.46248C12.8464 6.46248 12.8514 6.48936 12.8514 6.48936C12.9965 7.7498 12.5866 9.08282 11.6408 10.23C10.4758 11.7236 9.07663 13.2964 8.42869 15.1311C8.42869 15.1311 8.44877 15.081 8.44877 15.081C7.82864 16.4884 7.42789 17.8535 5.98932 18.443C4.9103 18.8539 3.65619 18.3935 2.80222 17.7551C2.80222 17.7551 2.79066 17.7464 2.79066 17.7464C2.79066 17.7464 2.7793 17.7422 2.7793 17.7422C2.24952 17.3835 2.23715 16.5659 1.83713 15.6977C1.54031 15.0536 0.832637 15.0894 0.719014 15.8693C0.627242 16.4992 0.926895 18.6721 1.47258 19.3106C2.4228 20.4226 2.99273 20.3963 3.82266 20.5988C5.64008 21.1184 7.74908 20.3792 8.80114 19.0155C10.2564 17.2905 10.3947 15.1849 11.7341 13.6451C11.7341 13.6451 11.7449 13.6358 11.7449 13.6358C11.7449 13.6358 11.7519 13.6266 11.7519 13.6266C13.0535 11.9774 14.8025 10.1566 14.9655 7.80237C15.1461 6.11527 14.8168 4.27663 13.5078 2.86366C11.6322 0.692438 8.20344 -0.423748 5.1404 0.148862C5.1404 0.148862 5.14039 0.14882 5.14039 0.14882ZM14.9708 7.82206C14.9475 7.84515 15.0225 7.86973 14.9988 7.89321C14.9988 7.89321 15.0653 7.79321 15.0653 7.79321C15.0586 7.80403 14.9764 7.8114 14.9653 7.82221C14.9653 7.82221 14.9708 7.82206 14.9708 7.82206ZM8.82681 19.047C8.80986 19.0658 8.81163 19.088 8.79468 19.1061C8.79468 19.1061 8.89468 19.0061 8.89468 19.0061C8.87861 19.0256 8.84294 19.0276 8.82688 19.0471C8.82688 19.0471 8.82681 19.047 8.82681 19.047Z" fill="#FFFFFF" transform="scale(1 1)" />
              </g>
              <path d="M4.20027 0.0440471C3.36773 0.157313 2.54014 0.495116 1.90971 0.993373C0.745777 1.85064 -0.00985813 3.45605 0.621972 4.94815C0.883372 5.67107 1.50101 6.15753 1.8061 6.60834C1.90089 6.74138 1.84851 6.95677 1.60258 7.25173C1.60258 7.25173 1.58401 7.2743 1.58401 7.2743C1.58401 7.2743 1.56545 7.3013 1.56545 7.3013C1.23601 7.78362 0.449036 8.26637 0.14819 9.10097C-0.296813 10.2162 0.295231 11.5285 1.45813 11.76C2.36223 11.9689 3.35092 11.7115 4.03362 11.1166C5.3635 9.95059 5.76694 8.0792 5.18445 6.48695C4.91133 5.66419 4.27718 5.05821 3.75609 4.5748C3.75609 4.5748 3.78199 4.60179 3.78199 4.60179C3.29708 4.0904 3.02492 3.69318 3.09371 3.41401C3.34457 2.90553 4.00887 2.37482 4.7922 2.41969C5.92124 2.49963 6.59697 3.44831 6.6128 4.16087C6.6128 4.16087 6.6128 4.17884 6.6128 4.17884C6.6128 4.17884 6.61659 4.20142 6.61659 4.20142C6.64677 4.62343 6.42424 5.08113 6.08003 5.64115C6.08003 5.64115 6.07264 5.65912 6.07264 5.65912C6.07264 5.65912 6.06146 5.67272 6.06146 5.67272C5.94076 5.89584 5.32982 7.0245 6.06885 7.51738C6.27557 7.65524 6.50901 7.64733 6.69052 7.60735C6.69052 7.60735 6.75342 7.59376 6.75342 7.59376C6.75342 7.59376 6.80893 7.56227 6.80893 7.56227C8.36343 6.74879 9.05511 4.99332 8.84786 3.38253C8.71031 2.08154 7.86113 0.967309 6.70902 0.426574C5.92824 0.0293369 5.03685 -0.0696845 4.20014 0.0441437C4.20014 0.0441437 4.20027 0.0440471 4.20027 0.0440471ZM8.85074 3.42903C8.85657 3.44741 8.9427 3.45046 8.94766 3.46884C8.94766 3.46884 8.89795 3.36884 8.89795 3.36884C8.90604 3.38925 8.84078 3.40761 8.84825 3.42903C8.84825 3.42903 8.85074 3.42903 8.85074 3.42903ZM1.50722 11.7607C1.48579 11.7508 1.46845 11.8202 1.44702 11.8103C1.44702 11.8103 1.54702 11.8598 1.54702 11.8598C1.52559 11.8516 1.52865 11.7706 1.50722 11.7632C1.50722 11.7632 1.50722 11.7607 1.50722 11.7607ZM0.225141 9.12848C0.240735 9.11159 0.209546 9.0952 0.225141 9.07831C0.225141 9.07831 0.129639 9.17831 0.129639 9.17831C0.148152 9.15425 0.204676 9.15219 0.225141 9.12813C0.225141 9.12813 0.225141 9.12848 0.225141 9.12848ZM0.695243 4.9705C0.674085 4.94726 0.619552 4.94017 0.599854 4.91666C0.599854 4.91666 0.695243 5.01666 0.695243 5.01666C0.678152 5.0013 0.711527 4.98593 0.695243 4.9705C0.695243 4.9705 0.695243 4.9705 0.695243 4.9705Z" fill="#FFFFFF" transform="translate(2.319 3.379)" />
            </g>
          </g>
          <g transform="translate(0.515 0.673)">
            <g>
              <g transform="matrix(1 0.024 -0.024 1 0.458 0)">
                <path d="M0.722323 2.21429C1.45203 1.13401 2.62937 0.591166 3.95054 0.280962C5.5764 -0.100769 7.13613 -0.11133 8.68548 0.359415C11.0227 1.06959 12.5602 2.8402 13.2809 5.10966C13.5736 6.03119 13.3172 7.09203 12.9471 8.00513C12.1864 9.88195 10.4128 11.3408 9.42567 13.1279C8.6069 14.61 8.26369 16.4926 6.88837 17.689C-0.755838 20.3774 0.318253 12.7509 1.23869 8.99714C2.13101 6.55198 -1.47656 5.46957 0.722309 2.2143C0.722309 2.2143 0.722323 2.21429 0.722323 2.21429Z" fill="url(#gradient_3)" fill-rule="evenodd" transform="matrix(1 0 0 1 0.096 0.435)" />
                <path d="M3.90419 0.303795C1.94201 0.732464 1.04238 1.30138 0.346073 2.8489C0.164481 3.31373 -0.289305 5.61893 0.270546 4.5085C0.573812 3.83134 0.785393 3.11755 1.385 2.56186C2.34355 1.40101 4.151 1.05922 5.74458 0.884181C9.18047 0.570649 12.7366 2.8764 12.867 5.75485C13.0405 7.26127 12.5498 8.77976 11.5173 10.0316C10.3432 11.5369 9.02173 13.0026 8.40671 14.744C7.81729 16.0818 7.32782 17.723 5.64081 18.4141C4.39673 18.8878 2.9442 18.3592 2.00461 17.6568C1.2594 17.1522 1.16747 16.0537 0.842624 15.3487C0.548044 14.7094 0.83031 17.6021 1.32296 18.1785C2.14406 19.1394 2.46911 19.0647 3.41064 19.2948C5.07927 19.7718 6.97262 19.0889 7.88874 17.89C9.2796 16.2505 9.41211 14.1328 10.8309 12.5018C12.1529 10.8266 13.7618 9.1332 13.9013 7.05867C14.0682 5.53781 13.783 3.92265 12.625 2.68038C10.8864 0.66244 7.65903 -0.407815 4.70366 0.144544C4.43459 0.188361 4.16787 0.241878 3.90417 0.303795C3.90417 0.303795 3.90419 0.303795 3.90419 0.303795Z" fill="#1F2555" fill-rule="evenodd" transform="scale(1 1)" />
              </g>
              <path d="M1.01027 10.4531C0.150149 10.2879 -0.180179 9.37869 0.0944841 8.71329C0.322759 8.04413 1.04616 7.64661 1.44436 7.0636C1.81156 6.62329 2.02982 6.01038 1.6763 5.51428C1.32742 4.99808 0.764906 4.59647 0.564463 4.00378C0.0847182 2.90167 0.647228 1.63666 1.65066 0.897614C2.79204 -0.0038147 4.59554 -0.315308 5.95787 0.377808C6.98645 0.86084 7.67299 1.8017 7.77601 2.8121C7.94765 4.11112 7.39393 5.59223 6.05357 6.29361C5.42588 6.43176 5.83604 5.63535 5.97642 5.37567C6.33556 4.79144 6.66589 4.15906 6.61755 3.48074C6.5924 2.35498 5.64121 1.19022 4.28694 1.09433C3.29303 1.03735 2.37529 1.68436 2.0286 2.46417C1.77518 3.2114 2.37358 3.8974 2.88726 4.43912C3.40362 4.91812 3.92634 5.42474 4.14094 6.07144C4.61605 7.37106 4.30134 8.93353 3.17559 9.92041C2.61577 10.4083 1.78104 10.635 1.01027 10.4532C1.01027 10.4532 1.01027 10.4531 1.01027 10.4531Z" fill="#1F2555" fill-rule="evenodd" transform="translate(2.344 3.366)" />
            </g>
          </g>
        </g>
        <g>
          <path d="M12.1932 0C11.287 0.00205626 10.5224 0.669244 10.398 1.57021C10.398 1.57021 9.49821 8.1525 9.49821 8.1525C9.49821 8.1525 9.11128 4.98958 9.11128 4.98958C8.86334 2.99517 6.01033 2.82778 5.53444 4.78263C5.53444 4.78263 4.20718 10.2716 4.20718 10.2716C3.91045 10.1277 3.72785 9.77732 3.38384 9.81271C3.38384 9.81271 1.63366 9.99269 1.63366 9.99269C0.631747 10.0945 -0.0919519 10.9816 0.00949045 11.9813C0.111073 12.9826 0.995442 13.7122 2.00262 13.61C2.00262 13.61 2.49753 13.5605 2.49753 13.5605C2.49753 13.5605 3.40637 15.3962 3.40637 15.3962C4.13007 16.8646 6.16355 16.6114 6.68177 15.1263C6.68177 15.1263 7.5906 22.5274 7.5906 22.5274C7.84797 24.6292 10.915 24.6468 11.1989 22.55C11.1989 22.55 12.2292 15.0094 12.2292 15.0094C12.2292 15.0094 12.4271 16.4131 12.4271 16.4131C12.687 18.2401 15.0085 18.3503 15.7475 16.8135C15.7475 16.8135 16.4494 20.4579 16.4494 20.4579C16.8487 22.4856 19.7742 22.3866 20.0397 20.3319C20.0397 20.3319 20.6606 15.3198 20.6606 15.3198C21.411 16.4894 23.1447 16.6682 23.7066 15.1983C23.7066 15.1983 24.2015 13.9026 24.2015 13.9026C24.5441 14.0975 24.7319 14.5459 25.1508 14.4829C25.1508 14.4829 27.009 14.204 27.009 14.204C28.0082 14.0551 28.6888 13.1333 28.5387 12.1344C28.388 11.136 27.4676 10.4559 26.4691 10.6047C26.4691 10.6047 26.1226 10.6587 26.1226 10.6587C26.1226 10.6587 25.5917 9.08395 25.5917 9.08395C25.1076 7.64631 23.3848 7.66733 22.5548 8.76001C22.5548 8.76001 21.7854 5.35863 21.7854 5.35863C21.3338 3.39373 18.4578 3.54025 18.2041 5.5431C18.2041 5.5431 17.7947 8.84549 17.7947 8.84549C17.3468 7.45429 15.8344 7.41146 14.9737 8.41807C14.9737 8.41807 14.0019 1.56133 14.0019 1.56133C13.8738 0.659182 13.0977 -0.00163447 12.1932 0.000114237C12.1932 0.000114237 12.1932 0 12.1932 0Z" fill="#FFFFFF" fill-rule="evenodd" />
          <path d="M11.2007 0C10.7925 0.000913918 10.4473 0.302438 10.3915 0.706854C10.3915 0.706854 8.44467 14.9393 8.44467 14.9393C8.44467 14.9393 7.11769 4.11259 7.11769 4.11259C7.06894 3.72033 6.7469 3.41889 6.35227 3.39616C5.95764 3.37342 5.60309 3.63587 5.50963 4.01994C5.50963 4.01994 3.77333 11.2066 3.77333 11.2066C3.77333 11.2066 3.30753 10.2624 3.30753 10.2624C3.1561 9.95555 2.82984 9.7752 2.48945 9.81022C2.48945 9.81022 0.736002 9.98879 0.736002 9.98879C0.286225 10.0345 -0.0413713 10.4361 0.00425315 10.8859C0.0499479 11.3357 0.451605 11.6633 0.901417 11.6177C0.901417 11.6177 2.09025 11.4957 2.09025 11.4957C2.09025 11.4957 3.30429 13.9569 3.30429 13.9569C3.45667 14.266 3.78627 14.4466 4.12877 14.4087C4.47126 14.3708 4.75338 14.1225 4.8345 13.7876C4.8345 13.7876 6.04099 8.79059 6.04099 8.79059C6.04099 8.79059 7.58673 21.4077 7.58673 21.4077C7.63679 21.8164 7.98252 22.1243 8.39419 22.127C8.8059 22.1296 9.15554 21.8261 9.21079 21.4181C9.21079 21.4181 11.2155 6.7604 11.2155 6.7604C11.2155 6.7604 12.4192 15.2745 12.4192 15.2745C12.4737 15.6575 12.7889 15.9501 13.175 15.976C13.5609 16.0019 13.9124 15.7541 14.0177 15.3818C14.0177 15.3818 15.0127 11.8685 15.0127 11.8685C15.0127 11.8685 16.4328 19.2668 16.4328 19.2668C16.5104 19.6606 16.862 19.9401 17.2631 19.9269C17.6642 19.9136 17.9967 19.6116 18.0482 19.2135C18.0482 19.2135 19.2513 9.50908 19.2513 9.50908C19.2513 9.50908 20.2098 13.7333 20.2098 13.7333C20.2897 14.0851 20.5904 14.3432 20.9503 14.3688C21.3101 14.3944 21.6443 14.1814 21.7732 13.8444C21.7732 13.8444 22.8224 11.0945 22.8224 11.0945C22.8224 11.0945 23.1081 11.9459 23.1081 11.9459C23.2346 12.3226 23.6132 12.5541 24.0061 12.495C24.0061 12.495 25.8608 12.2175 25.8608 12.2175C26.0757 12.1854 26.2691 12.0693 26.3983 11.8945C26.5276 11.7198 26.582 11.5009 26.5497 11.286C26.4823 10.8396 26.0662 10.532 25.6196 10.5985C25.6196 10.5985 24.4424 10.7735 24.4424 10.7735C24.4424 10.7735 23.6463 8.408 23.6463 8.408C23.536 8.08037 23.2318 7.85733 22.8861 7.85066C22.5405 7.844 22.2279 8.05514 22.105 8.37828C22.105 8.37828 21.2081 10.7325 21.2081 10.7325C21.2081 10.7325 19.8118 4.58673 19.8118 4.58673C19.7229 4.19991 19.3694 3.93257 18.973 3.95239C18.5766 3.97222 18.2515 4.2735 18.2016 4.66727C18.2016 4.66727 17.0615 13.8627 17.0615 13.8627C17.0615 13.8627 15.9694 8.17092 15.9694 8.17092C15.8984 7.79791 15.5801 7.52269 15.2008 7.50614C14.8214 7.48959 14.4805 7.73603 14.3772 8.10144C14.3772 8.10144 13.4981 11.2064 13.4981 11.2064C13.4981 11.2064 12.0131 0.703726 12.0131 0.703726C11.9557 0.29945 11.6092 -0.000738144 11.2009 6.1512e-05C11.2009 6.1512e-05 11.2007 0 11.2007 0Z" fill="url(#gradient_4)" fill-rule="evenodd" stroke-width="1" stroke="#1F2555" stroke-linecap="round" stroke-linejoin="round" transform="translate(0.997 0.993)" />
        </g>
      </g>
    </g>
  </g>
</svg>