<?xml version="1.0" encoding="utf-8"?>
<svg width="64" height="64" viewBox="0 0 64 64" fill="none" xmlns="http://www.w3.org/2000/svg">
  <defs>
    <filter color-interpolation-filters="sRGB" x="-32.946" y="-47.271" width="34.946" height="49.271" id="filter_1">
      <feFlood flood-opacity="0" result="BackgroundImageFix_1" />
      <feColorMatrix type="matrix" values="0 0 0 0 0 0 0 0 0 0 0 0 0 0 0 0 0 0 1 0" in="SourceAlpha" />
      <feOffset dx="2" dy="2" />
      <feGaussianBlur stdDeviation="1" />
      <feColorMatrix type="matrix" values="0 0 0 0 0 0 0 0 0 0 0 0 0 0 0 0 0 0 0.498 0" />
      <feBlend mode="normal" in2="BackgroundImageFix_1" result="Shadow_2" />
      <feBlend mode="normal" in="SourceGraphic" in2="Shadow_2" result="Shape_3" />
    </filter>
    <linearGradient id="gradient_2" gradientUnits="userSpaceOnUse" x1="0" y1="0" x2="34.945" y2="6.691">
      <stop offset="0" stop-color="#FFFFFF" />
      <stop offset="0.995" stop-color="#A9DCDF" />
    </linearGradient>
    <linearGradient id="gradient_3" gradientUnits="userSpaceOnUse" x1="0" y1="0" x2="32.673" y2="40.69">
      <stop offset="0.03" stop-color="#FFFFFF" />
      <stop offset="1" stop-color="#E5E5E5" />
    </linearGradient>
    <filter color-interpolation-filters="sRGB" x="-32.945" y="-40.58" width="34.945" height="42.58" id="filter_4">
      <feFlood flood-opacity="0" result="BackgroundImageFix_1" />
      <feColorMatrix type="matrix" values="0 0 0 0 0 0 0 0 0 0 0 0 0 0 0 0 0 0 1 0" in="SourceAlpha" />
      <feOffset dx="2" dy="2" />
      <feGaussianBlur stdDeviation="1" />
      <feColorMatrix type="matrix" values="0 0 0 0 0 0 0 0 0 0 0 0 0 0 0 0 0 0 0.498 0" />
      <feBlend mode="normal" in2="BackgroundImageFix_1" result="Shadow_2" />
      <feBlend mode="normal" in="SourceGraphic" in2="Shadow_2" result="Shape_3" />
    </filter>
    <filter color-interpolation-filters="sRGB" x="-32.945" y="-40.58" width="34.945" height="42.58" id="filter_5">
      <feFlood flood-opacity="0" result="BackgroundImageFix_1" />
      <feColorMatrix type="matrix" values="0 0 0 0 0 0 0 0 0 0 0 0 0 0 0 0 0 0 1 0" in="SourceAlpha" />
      <feOffset dx="2" dy="2" />
      <feGaussianBlur stdDeviation="1" />
      <feColorMatrix type="matrix" values="0 0 0 0 0 0 0 0 0 0 0 0 0 0 0 0 0 0 0.498 0" />
      <feBlend mode="normal" in2="BackgroundImageFix_1" result="Shadow_2" />
      <feBlend mode="normal" in="SourceGraphic" in2="Shadow_2" result="Shape_3" />
    </filter>
  </defs>
  <g>
    <rect width="64" height="64" fill="#FEFEFE" fill-rule="evenodd" />
    <g transform="translate(12.027 5.364)">
      <g>
        <g>
          <g transform="translate(0 4)">
            <rect width="34.946" height="49.271" filter="url(#filter_1)" />
            <g>
              <g>
                <path d="M2.26367 0C1.01361 0 0 0.995117 0 2.22266L0 6.69141L34.9454 6.69141L34.9454 2.22266C34.9454 0.995117 33.9318 0 32.6816 0L2.26367 0Z" fill="url(#gradient_2)" fill-rule="evenodd" stroke-width="1" stroke="#1F2555" stroke-linecap="round" stroke-linejoin="round" transform="translate(0 0)" />
                <path d="M0 0L0 40.3575C0 41.585 1.01361 42.5801 2.26367 42.5801L32.6816 42.5801C33.9318 42.5801 34.9454 41.585 34.9454 40.3575L34.9454 0L0 0Z" fill="url(#gradient_3)" fill-rule="evenodd" stroke-width="1" stroke="#1F2555" stroke-linecap="round" stroke-linejoin="round" filter="url(#filter_4)" transform="translate(0 6.691)" />
              </g>
              <g transform="translate(4.473 15)">
                <g>
                  <path d="M16 0C16.5524 0 17 0.447639 17 1L17 3.35486C17 3.90722 16.5524 4.35486 16 4.35486L1 4.35486C0.44764 4.35486 0 3.90722 0 3.35486L0 1C0 0.447639 0.44764 0 1 0L16 0Z" fill="#FFFFFF" stroke-width="0.5" stroke="#1F2555" stroke-linecap="round" stroke-linejoin="round" transform="translate(9 19)" />
                  <path d="M16 0C16.5524 0 17 0.44764 17 1L17 3.35489C17 3.90725 16.5524 4.35489 16 4.35489L1 4.35489C0.44764 4.35489 0 3.90725 0 3.35489L0 1C0 0.44764 0.44764 0 1 0L16 0Z" fill="#FFFFFF" stroke-width="0.5" stroke="#1F2555" stroke-linecap="round" stroke-linejoin="round" transform="translate(9 10)" />
                  <g transform="matrix(1 0 0 -1 2 24.995)">
                    <g transform="matrix(1 0 0 -1 0 6.414)">
                      <path d="M0.404652 4.09357Q0.387713 3.55906 0.611683 3.27392Q0.835653 2.98878 1.21772 2.98878Q1.39652 2.98878 1.55744 3.06124Q1.71836 3.1337 1.92351 3.31626Q2.03267 3.41037 2.10795 3.46119Q2.18324 3.512 2.28111 3.512Q2.41474 3.512 2.50131 3.40755Q2.58789 3.30309 2.58224 3.07536L3.19581 3.07536Q3.21651 3.60987 2.9869 3.89595Q2.75728 4.18203 2.38274 4.18203Q2.19641 4.18203 2.03361 4.10392Q1.87081 4.02582 1.67319 3.85266Q1.5565 3.74915 1.48686 3.70304Q1.41722 3.65692 1.32124 3.65692Q1.18949 3.65692 1.10197 3.75762Q1.01445 3.85831 1.0201 4.09357L0.404652 4.09357Z" fill="#000000" />
                    </g>
                    <g transform="matrix(1 0 0 -1 0 15.705)">
                      <path d="M0.404652 4.09357Q0.387713 3.55906 0.611683 3.27392Q0.835653 2.98878 1.21772 2.98878Q1.39652 2.98878 1.55744 3.06124Q1.71836 3.1337 1.92351 3.31626Q2.03267 3.41037 2.10795 3.46119Q2.18324 3.512 2.28111 3.512Q2.41474 3.512 2.50131 3.40755Q2.58789 3.30309 2.58224 3.07536L3.19581 3.07536Q3.21651 3.60987 2.9869 3.89595Q2.75728 4.18203 2.38274 4.18203Q2.19641 4.18203 2.03361 4.10392Q1.87081 4.02582 1.67319 3.85266Q1.5565 3.74915 1.48686 3.70304Q1.41722 3.65692 1.32124 3.65692Q1.18949 3.65692 1.10197 3.75762Q1.01445 3.85831 1.0201 4.09357L0.404652 4.09357Z" fill="#000000" />
                    </g>
                    <g transform="matrix(1 0 0 -1 0 24.995)">
                      <path d="M0.404652 4.09357Q0.387713 3.55906 0.611683 3.27392Q0.835653 2.98878 1.21772 2.98878Q1.39652 2.98878 1.55744 3.06124Q1.71836 3.1337 1.92351 3.31626Q2.03267 3.41037 2.10795 3.46119Q2.18324 3.512 2.28111 3.512Q2.41474 3.512 2.50131 3.40755Q2.58789 3.30309 2.58224 3.07536L3.19581 3.07536Q3.21651 3.60987 2.9869 3.89595Q2.75728 4.18203 2.38274 4.18203Q2.19641 4.18203 2.03361 4.10392Q1.87081 4.02582 1.67319 3.85266Q1.5565 3.74915 1.48686 3.70304Q1.41722 3.65692 1.32124 3.65692Q1.18949 3.65692 1.10197 3.75762Q1.01445 3.85831 1.0201 4.09357L0.404652 4.09357Z" fill="#000000" />
                    </g>
                  </g>
                  <g transform="matrix(1 0 0 -1 0 24.995)">
                    <g transform="matrix(1 0 0 -1 0 6.414)">
                      <path d="M0.404652 4.09357Q0.387713 3.55906 0.611683 3.27392Q0.835653 2.98878 1.21772 2.98878Q1.39652 2.98878 1.55744 3.06124Q1.71836 3.1337 1.92351 3.31626Q2.03267 3.41037 2.10795 3.46119Q2.18324 3.512 2.28111 3.512Q2.41474 3.512 2.50131 3.40755Q2.58789 3.30309 2.58224 3.07536L3.19581 3.07536Q3.21651 3.60987 2.9869 3.89595Q2.75728 4.18203 2.38274 4.18203Q2.19641 4.18203 2.03361 4.10392Q1.87081 4.02582 1.67319 3.85266Q1.5565 3.74915 1.48686 3.70304Q1.41722 3.65692 1.32124 3.65692Q1.18949 3.65692 1.10197 3.75762Q1.01445 3.85831 1.0201 4.09357L0.404652 4.09357Z" fill="#000000" />
                    </g>
                    <g transform="matrix(1 0 0 -1 0 15.705)">
                      <path d="M0.404652 4.09357Q0.387713 3.55906 0.611683 3.27392Q0.835653 2.98878 1.21772 2.98878Q1.39652 2.98878 1.55744 3.06124Q1.71836 3.1337 1.92351 3.31626Q2.03267 3.41037 2.10795 3.46119Q2.18324 3.512 2.28111 3.512Q2.41474 3.512 2.50131 3.40755Q2.58789 3.30309 2.58224 3.07536L3.19581 3.07536Q3.21651 3.60987 2.9869 3.89595Q2.75728 4.18203 2.38274 4.18203Q2.19641 4.18203 2.03361 4.10392Q1.87081 4.02582 1.67319 3.85266Q1.5565 3.74915 1.48686 3.70304Q1.41722 3.65692 1.32124 3.65692Q1.18949 3.65692 1.10197 3.75762Q1.01445 3.85831 1.0201 4.09357L0.404652 4.09357Z" fill="#000000" />
                    </g>
                    <g transform="matrix(1 0 0 -1 0 24.995)">
                      <path d="M0.404652 4.09357Q0.387713 3.55906 0.611683 3.27392Q0.835653 2.98878 1.21772 2.98878Q1.39652 2.98878 1.55744 3.06124Q1.71836 3.1337 1.92351 3.31626Q2.03267 3.41037 2.10795 3.46119Q2.18324 3.512 2.28111 3.512Q2.41474 3.512 2.50131 3.40755Q2.58789 3.30309 2.58224 3.07536L3.19581 3.07536Q3.21651 3.60987 2.9869 3.89595Q2.75728 4.18203 2.38274 4.18203Q2.19641 4.18203 2.03361 4.10392Q1.87081 4.02582 1.67319 3.85266Q1.5565 3.74915 1.48686 3.70304Q1.41722 3.65692 1.32124 3.65692Q1.18949 3.65692 1.10197 3.75762Q1.01445 3.85831 1.0201 4.09357L0.404652 4.09357Z" fill="#000000" />
                    </g>
                  </g>
                </g>
                <path d="M16 0C16.5524 0 17 0.44764 17 1L17 3.35489C17 3.90725 16.5524 4.35489 16 4.35489L1 4.35489C0.44764 4.35489 0 3.90725 0 3.35489L0 1C0 0.44764 0.44764 0 1 0L16 0Z" fill="#FFFFFF" stroke-width="0.5" stroke="#1F2555" stroke-linecap="round" stroke-linejoin="round" transform="translate(9 1)" />
              </g>
            </g>
          </g>
          <g transform="translate(5 0)">
            <g>
              <g>
                <path d="M2.26367 0C1.01361 0 0 0.995117 0 2.22266L0 6.69141L34.9454 6.69141L34.9454 2.22266C34.9454 0.995117 33.9318 0 32.6816 0L2.26367 0Z" fill="url(#gradient_2)" fill-rule="evenodd" stroke-width="1" stroke="#1F2555" stroke-linecap="round" stroke-linejoin="round" transform="translate(0 0)" />
                <path d="M0 0L0 40.3575C0 41.585 1.01361 42.5801 2.26367 42.5801L32.6816 42.5801C33.9318 42.5801 34.9454 41.585 34.9454 40.3575L34.9454 0L0 0Z" fill="url(#gradient_3)" fill-rule="evenodd" stroke-width="1" stroke="#1F2555" stroke-linecap="round" stroke-linejoin="round" filter="url(#filter_5)" transform="translate(0 6.691)" />
              </g>
              <g transform="translate(4.473 15)">
                <g>
                  <path d="M16 0C16.5524 0 17 0.447639 17 1L17 3.35486C17 3.90722 16.5524 4.35486 16 4.35486L1 4.35486C0.44764 4.35486 0 3.90722 0 3.35486L0 1C0 0.447639 0.44764 0 1 0L16 0Z" fill="#FFFFFF" stroke-width="0.5" stroke="#1F2555" stroke-linecap="round" stroke-linejoin="round" transform="translate(9 19)" />
                  <path d="M16 0C16.5524 0 17 0.44764 17 1L17 3.35489C17 3.90725 16.5524 4.35489 16 4.35489L1 4.35489C0.44764 4.35489 0 3.90725 0 3.35489L0 1C0 0.44764 0.44764 0 1 0L16 0Z" fill="#FFFFFF" stroke-width="0.5" stroke="#1F2555" stroke-linecap="round" stroke-linejoin="round" transform="translate(9 10)" />
                  <g transform="matrix(1 0 0 -1 2 24.995)">
                    <g transform="matrix(1 0 0 -1 0 6.414)">
                      <path d="M0.404652 4.09357Q0.387713 3.55906 0.611683 3.27392Q0.835653 2.98878 1.21772 2.98878Q1.39652 2.98878 1.55744 3.06124Q1.71836 3.1337 1.92351 3.31626Q2.03267 3.41037 2.10795 3.46119Q2.18324 3.512 2.28111 3.512Q2.41474 3.512 2.50131 3.40755Q2.58789 3.30309 2.58224 3.07536L3.19581 3.07536Q3.21651 3.60987 2.9869 3.89595Q2.75728 4.18203 2.38274 4.18203Q2.19641 4.18203 2.03361 4.10392Q1.87081 4.02582 1.67319 3.85266Q1.5565 3.74915 1.48686 3.70304Q1.41722 3.65692 1.32124 3.65692Q1.18949 3.65692 1.10197 3.75762Q1.01445 3.85831 1.0201 4.09357L0.404652 4.09357Z" fill="#000000" />
                    </g>
                    <g transform="matrix(1 0 0 -1 0 15.705)">
                      <path d="M0.404652 4.09357Q0.387713 3.55906 0.611683 3.27392Q0.835653 2.98878 1.21772 2.98878Q1.39652 2.98878 1.55744 3.06124Q1.71836 3.1337 1.92351 3.31626Q2.03267 3.41037 2.10795 3.46119Q2.18324 3.512 2.28111 3.512Q2.41474 3.512 2.50131 3.40755Q2.58789 3.30309 2.58224 3.07536L3.19581 3.07536Q3.21651 3.60987 2.9869 3.89595Q2.75728 4.18203 2.38274 4.18203Q2.19641 4.18203 2.03361 4.10392Q1.87081 4.02582 1.67319 3.85266Q1.5565 3.74915 1.48686 3.70304Q1.41722 3.65692 1.32124 3.65692Q1.18949 3.65692 1.10197 3.75762Q1.01445 3.85831 1.0201 4.09357L0.404652 4.09357Z" fill="#000000" />
                    </g>
                    <g transform="matrix(1 0 0 -1 0 24.995)">
                      <path d="M0.404652 4.09357Q0.387713 3.55906 0.611683 3.27392Q0.835653 2.98878 1.21772 2.98878Q1.39652 2.98878 1.55744 3.06124Q1.71836 3.1337 1.92351 3.31626Q2.03267 3.41037 2.10795 3.46119Q2.18324 3.512 2.28111 3.512Q2.41474 3.512 2.50131 3.40755Q2.58789 3.30309 2.58224 3.07536L3.19581 3.07536Q3.21651 3.60987 2.9869 3.89595Q2.75728 4.18203 2.38274 4.18203Q2.19641 4.18203 2.03361 4.10392Q1.87081 4.02582 1.67319 3.85266Q1.5565 3.74915 1.48686 3.70304Q1.41722 3.65692 1.32124 3.65692Q1.18949 3.65692 1.10197 3.75762Q1.01445 3.85831 1.0201 4.09357L0.404652 4.09357Z" fill="#000000" />
                    </g>
                  </g>
                  <g transform="matrix(1 0 0 -1 0 24.995)">
                    <g transform="matrix(1 0 0 -1 0 6.414)">
                      <path d="M0.404652 4.09357Q0.387713 3.55906 0.611683 3.27392Q0.835653 2.98878 1.21772 2.98878Q1.39652 2.98878 1.55744 3.06124Q1.71836 3.1337 1.92351 3.31626Q2.03267 3.41037 2.10795 3.46119Q2.18324 3.512 2.28111 3.512Q2.41474 3.512 2.50131 3.40755Q2.58789 3.30309 2.58224 3.07536L3.19581 3.07536Q3.21651 3.60987 2.9869 3.89595Q2.75728 4.18203 2.38274 4.18203Q2.19641 4.18203 2.03361 4.10392Q1.87081 4.02582 1.67319 3.85266Q1.5565 3.74915 1.48686 3.70304Q1.41722 3.65692 1.32124 3.65692Q1.18949 3.65692 1.10197 3.75762Q1.01445 3.85831 1.0201 4.09357L0.404652 4.09357Z" fill="#000000" />
                    </g>
                    <g transform="matrix(1 0 0 -1 0 15.705)">
                      <path d="M0.404652 4.09357Q0.387713 3.55906 0.611683 3.27392Q0.835653 2.98878 1.21772 2.98878Q1.39652 2.98878 1.55744 3.06124Q1.71836 3.1337 1.92351 3.31626Q2.03267 3.41037 2.10795 3.46119Q2.18324 3.512 2.28111 3.512Q2.41474 3.512 2.50131 3.40755Q2.58789 3.30309 2.58224 3.07536L3.19581 3.07536Q3.21651 3.60987 2.9869 3.89595Q2.75728 4.18203 2.38274 4.18203Q2.19641 4.18203 2.03361 4.10392Q1.87081 4.02582 1.67319 3.85266Q1.5565 3.74915 1.48686 3.70304Q1.41722 3.65692 1.32124 3.65692Q1.18949 3.65692 1.10197 3.75762Q1.01445 3.85831 1.0201 4.09357L0.404652 4.09357Z" fill="#000000" />
                    </g>
                    <g transform="matrix(1 0 0 -1 0 24.995)">
                      <path d="M0.404652 4.09357Q0.387713 3.55906 0.611683 3.27392Q0.835653 2.98878 1.21772 2.98878Q1.39652 2.98878 1.55744 3.06124Q1.71836 3.1337 1.92351 3.31626Q2.03267 3.41037 2.10795 3.46119Q2.18324 3.512 2.28111 3.512Q2.41474 3.512 2.50131 3.40755Q2.58789 3.30309 2.58224 3.07536L3.19581 3.07536Q3.21651 3.60987 2.9869 3.89595Q2.75728 4.18203 2.38274 4.18203Q2.19641 4.18203 2.03361 4.10392Q1.87081 4.02582 1.67319 3.85266Q1.5565 3.74915 1.48686 3.70304Q1.41722 3.65692 1.32124 3.65692Q1.18949 3.65692 1.10197 3.75762Q1.01445 3.85831 1.0201 4.09357L0.404652 4.09357Z" fill="#000000" />
                    </g>
                  </g>
                </g>
                <path d="M16 0C16.5524 0 17 0.44764 17 1L17 3.35489C17 3.90725 16.5524 4.35489 16 4.35489L1 4.35489C0.44764 4.35489 0 3.90725 0 3.35489L0 1C0 0.44764 0.44764 0 1 0L16 0Z" fill="#FFFFFF" stroke-width="0.5" stroke="#1F2555" stroke-linecap="round" stroke-linejoin="round" transform="translate(9 1)" />
              </g>
            </g>
          </g>
        </g>
      </g>
    </g>
  </g>
</svg>