<?xml version="1.0" encoding="utf-8"?>
<svg width="64" height="64" viewBox="0 0 64 64" fill="none" xmlns="http://www.w3.org/2000/svg">
  <defs>
    <filter color-interpolation-filters="sRGB" x="-8" y="-34" width="10" height="36" id="filter_1">
      <feFlood flood-opacity="0" result="BackgroundImageFix_1" />
      <feColorMatrix type="matrix" values="0 0 0 0 0 0 0 0 0 0 0 0 0 0 0 0 0 0 1 0" in="SourceAlpha" />
      <feOffset dx="2" dy="2" />
      <feGaussianBlur stdDeviation="1" />
      <feColorMatrix type="matrix" values="0 0 0 0 0 0 0 0 0 0 0 0 0 0 0 0 0 0 0.498 0" />
      <feBlend mode="normal" in2="BackgroundImageFix_1" result="Shadow_2" />
      <feBlend mode="normal" in="SourceGraphic" in2="Shadow_2" result="Shape_3" />
    </filter>
    <filter color-interpolation-filters="sRGB" x="-32.946" y="-47.271" width="34.946" height="49.271" id="filter_2">
      <feFlood flood-opacity="0" result="BackgroundImageFix_1" />
      <feColorMatrix type="matrix" values="0 0 0 0 0 0 0 0 0 0 0 0 0 0 0 0 0 0 1 0" in="SourceAlpha" />
      <feOffset dx="2" dy="2" />
      <feGaussianBlur stdDeviation="1" />
      <feColorMatrix type="matrix" values="0 0 0 0 0 0 0 0 0 0 0 0 0 0 0 0 0 0 0.498 0" />
      <feBlend mode="normal" in2="BackgroundImageFix_1" result="Shadow_2" />
      <feBlend mode="normal" in="SourceGraphic" in2="Shadow_2" result="Shape_3" />
    </filter>
    <linearGradient id="gradient_3" gradientUnits="userSpaceOnUse" x1="0" y1="0" x2="34.945" y2="6.691">
      <stop offset="0" stop-color="#FFFFFF" />
      <stop offset="0.995" stop-color="#A9DCDF" />
    </linearGradient>
    <linearGradient id="gradient_4" gradientUnits="userSpaceOnUse" x1="0" y1="0" x2="32.673" y2="40.69">
      <stop offset="0.03" stop-color="#FFFFFF" />
      <stop offset="1" stop-color="#E5E5E5" />
    </linearGradient>
    <linearGradient id="gradient_5" gradientUnits="userSpaceOnUse" x1="0" y1="0" x2="16.021" y2="8.827">
      <stop offset="0" stop-color="#FFFFFF" />
      <stop offset="0.995" stop-color="#A9DCDF" />
    </linearGradient>
    <filter color-interpolation-filters="sRGB" x="-14.021" y="-6.827" width="16.021" height="8.827" id="filter_6">
      <feFlood flood-opacity="0" result="BackgroundImageFix_1" />
      <feColorMatrix type="matrix" values="0 0 0 0 0 0 0 0 0 0 0 0 0 0 0 0 0 0 1 0" in="SourceAlpha" />
      <feOffset dx="2" dy="2" />
      <feGaussianBlur stdDeviation="1" />
      <feColorMatrix type="matrix" values="0 0 0 0 0 0 0 0 0 0 0 0 0 0 0 0 0 0 0.498 0" />
      <feBlend mode="normal" in2="BackgroundImageFix_1" result="Shadow_2" />
      <feBlend mode="normal" in="SourceGraphic" in2="Shadow_2" result="Shape_3" />
    </filter>
    <linearGradient id="gradient_7" gradientUnits="userSpaceOnUse" x1="0" y1="0" x2="16.021" y2="8.827">
      <stop offset="0" stop-color="#FFFFFF" />
      <stop offset="1" stop-color="#7B3A7F" />
    </linearGradient>
    <filter color-interpolation-filters="sRGB" x="-14.021" y="-6.827" width="16.021" height="8.827" id="filter_8">
      <feFlood flood-opacity="0" result="BackgroundImageFix_1" />
      <feColorMatrix type="matrix" values="0 0 0 0 0 0 0 0 0 0 0 0 0 0 0 0 0 0 1 0" in="SourceAlpha" />
      <feOffset dx="2" dy="2" />
      <feGaussianBlur stdDeviation="1" />
      <feColorMatrix type="matrix" values="0 0 0 0 0 0 0 0 0 0 0 0 0 0 0 0 0 0 0.498 0" />
      <feBlend mode="normal" in2="BackgroundImageFix_1" result="Shadow_2" />
      <feBlend mode="normal" in="SourceGraphic" in2="Shadow_2" result="Shape_3" />
    </filter>
    <linearGradient id="gradient_9" gradientUnits="userSpaceOnUse" x1="0" y1="0" x2="16.021" y2="8.827">
      <stop offset="0" stop-color="#FFFFFF" />
      <stop offset="0.985" stop-color="#5C6ACC" />
    </linearGradient>
    <filter color-interpolation-filters="sRGB" x="-14.021" y="-6.827" width="16.021" height="8.827" id="filter_10">
      <feFlood flood-opacity="0" result="BackgroundImageFix_1" />
      <feColorMatrix type="matrix" values="0 0 0 0 0 0 0 0 0 0 0 0 0 0 0 0 0 0 1 0" in="SourceAlpha" />
      <feOffset dx="2" dy="2" />
      <feGaussianBlur stdDeviation="1" />
      <feColorMatrix type="matrix" values="0 0 0 0 0 0 0 0 0 0 0 0 0 0 0 0 0 0 0.498 0" />
      <feBlend mode="normal" in2="BackgroundImageFix_1" result="Shadow_2" />
      <feBlend mode="normal" in="SourceGraphic" in2="Shadow_2" result="Shape_3" />
    </filter>
    <filter color-interpolation-filters="sRGB" x="-40.836" y="-40.58" width="42.836" height="42.58" id="filter_11">
      <feFlood flood-opacity="0" result="BackgroundImageFix_1" />
      <feColorMatrix type="matrix" values="0 0 0 0 0 0 0 0 0 0 0 0 0 0 0 0 0 0 1 0" in="SourceAlpha" />
      <feOffset dx="2" dy="2" />
      <feGaussianBlur stdDeviation="1" />
      <feColorMatrix type="matrix" values="0 0 0 0 0 0 0 0 0 0 0 0 0 0 0 0 0 0 0.498 0" />
      <feBlend mode="normal" in2="BackgroundImageFix_1" result="Shadow_2" />
      <feBlend mode="normal" in="SourceGraphic" in2="Shadow_2" result="Shape_3" />
    </filter>
  </defs>
  <g>
    <rect width="64" height="64" fill="#FEFEFE" fill-rule="evenodd" />
    <g transform="translate(11 7)">
      <path d="M7 0C8.65708 0 10 1.34292 10 3L10 33C10 34.6571 8.65708 36 7 36L3 36C1.34292 36 0 34.6571 0 33L0 3C0 1.34292 1.34292 0 3 0L7 0Z" fill="#448AFF" filter="url(#filter_1)" transform="translate(31.709 8.886)" />
      <g>
        <g>
          <rect width="34.946" height="49.271" filter="url(#filter_2)" />
          <g>
            <g>
              <g>
                <path d="M2.26367 0C1.01361 0 0 0.995117 0 2.22266L0 6.69141L34.9454 6.69141L34.9454 2.22266C34.9454 0.995117 33.9318 0 32.6816 0L2.26367 0Z" fill="url(#gradient_3)" fill-rule="evenodd" stroke-width="1" stroke="#1F2555" stroke-linecap="round" stroke-linejoin="round" transform="translate(0 0)" />
                <path d="M0 0L0 40.3575C0 41.585 1.01361 42.5801 2.26367 42.5801L32.6816 42.5801C33.9318 42.5801 34.9454 41.585 34.9454 40.3575L34.9454 0L0 0Z" fill="url(#gradient_4)" fill-rule="evenodd" stroke-width="1" stroke="#1F2555" stroke-linecap="round" stroke-linejoin="round" transform="translate(0 6.691)" />
              </g>
              <g transform="translate(4.473 15)">
                <g>
                  <path d="M16 0C16.5524 0 17 0.447639 17 1L17 3.35486C17 3.90722 16.5524 4.35486 16 4.35486L1 4.35486C0.44764 4.35486 0 3.90722 0 3.35486L0 1C0 0.447639 0.44764 0 1 0L16 0Z" fill="#FFFFFF" stroke-width="0.5" stroke="#1F2555" stroke-linecap="round" stroke-linejoin="round" transform="translate(9 19)" />
                  <path d="M16 0C16.5524 0 17 0.44764 17 1L17 3.35489C17 3.90725 16.5524 4.35489 16 4.35489L1 4.35489C0.44764 4.35489 0 3.90725 0 3.35489L0 1C0 0.44764 0.44764 0 1 0L16 0Z" fill="#FFFFFF" stroke-width="0.5" stroke="#1F2555" stroke-linecap="round" stroke-linejoin="round" transform="translate(9 10)" />
                  <g transform="matrix(1 0 0 -1 2 24.995)">
                    <g transform="matrix(1 0 0 -1 0 6.414)">
                      <path d="M0.404652 4.09357Q0.387713 3.55906 0.611683 3.27392Q0.835653 2.98878 1.21772 2.98878Q1.39652 2.98878 1.55744 3.06124Q1.71836 3.1337 1.92351 3.31626Q2.03267 3.41037 2.10795 3.46119Q2.18324 3.512 2.28111 3.512Q2.41474 3.512 2.50131 3.40755Q2.58789 3.30309 2.58224 3.07536L3.19581 3.07536Q3.21651 3.60987 2.9869 3.89595Q2.75728 4.18203 2.38274 4.18203Q2.19641 4.18203 2.03361 4.10392Q1.87081 4.02582 1.67319 3.85266Q1.5565 3.74915 1.48686 3.70304Q1.41722 3.65692 1.32124 3.65692Q1.18949 3.65692 1.10197 3.75762Q1.01445 3.85831 1.0201 4.09357L0.404652 4.09357Z" fill="#000000" />
                    </g>
                    <g transform="matrix(1 0 0 -1 0 15.705)">
                      <path d="M0.404652 4.09357Q0.387713 3.55906 0.611683 3.27392Q0.835653 2.98878 1.21772 2.98878Q1.39652 2.98878 1.55744 3.06124Q1.71836 3.1337 1.92351 3.31626Q2.03267 3.41037 2.10795 3.46119Q2.18324 3.512 2.28111 3.512Q2.41474 3.512 2.50131 3.40755Q2.58789 3.30309 2.58224 3.07536L3.19581 3.07536Q3.21651 3.60987 2.9869 3.89595Q2.75728 4.18203 2.38274 4.18203Q2.19641 4.18203 2.03361 4.10392Q1.87081 4.02582 1.67319 3.85266Q1.5565 3.74915 1.48686 3.70304Q1.41722 3.65692 1.32124 3.65692Q1.18949 3.65692 1.10197 3.75762Q1.01445 3.85831 1.0201 4.09357L0.404652 4.09357Z" fill="#000000" />
                    </g>
                    <g transform="matrix(1 0 0 -1 0 24.995)">
                      <path d="M0.404652 4.09357Q0.387713 3.55906 0.611683 3.27392Q0.835653 2.98878 1.21772 2.98878Q1.39652 2.98878 1.55744 3.06124Q1.71836 3.1337 1.92351 3.31626Q2.03267 3.41037 2.10795 3.46119Q2.18324 3.512 2.28111 3.512Q2.41474 3.512 2.50131 3.40755Q2.58789 3.30309 2.58224 3.07536L3.19581 3.07536Q3.21651 3.60987 2.9869 3.89595Q2.75728 4.18203 2.38274 4.18203Q2.19641 4.18203 2.03361 4.10392Q1.87081 4.02582 1.67319 3.85266Q1.5565 3.74915 1.48686 3.70304Q1.41722 3.65692 1.32124 3.65692Q1.18949 3.65692 1.10197 3.75762Q1.01445 3.85831 1.0201 4.09357L0.404652 4.09357Z" fill="#000000" />
                    </g>
                  </g>
                  <g transform="matrix(1 0 0 -1 0 24.995)">
                    <g transform="matrix(1 0 0 -1 0 6.414)">
                      <path d="M0.404652 4.09357Q0.387713 3.55906 0.611683 3.27392Q0.835653 2.98878 1.21772 2.98878Q1.39652 2.98878 1.55744 3.06124Q1.71836 3.1337 1.92351 3.31626Q2.03267 3.41037 2.10795 3.46119Q2.18324 3.512 2.28111 3.512Q2.41474 3.512 2.50131 3.40755Q2.58789 3.30309 2.58224 3.07536L3.19581 3.07536Q3.21651 3.60987 2.9869 3.89595Q2.75728 4.18203 2.38274 4.18203Q2.19641 4.18203 2.03361 4.10392Q1.87081 4.02582 1.67319 3.85266Q1.5565 3.74915 1.48686 3.70304Q1.41722 3.65692 1.32124 3.65692Q1.18949 3.65692 1.10197 3.75762Q1.01445 3.85831 1.0201 4.09357L0.404652 4.09357Z" fill="#000000" />
                    </g>
                    <g transform="matrix(1 0 0 -1 0 15.705)">
                      <path d="M0.404652 4.09357Q0.387713 3.55906 0.611683 3.27392Q0.835653 2.98878 1.21772 2.98878Q1.39652 2.98878 1.55744 3.06124Q1.71836 3.1337 1.92351 3.31626Q2.03267 3.41037 2.10795 3.46119Q2.18324 3.512 2.28111 3.512Q2.41474 3.512 2.50131 3.40755Q2.58789 3.30309 2.58224 3.07536L3.19581 3.07536Q3.21651 3.60987 2.9869 3.89595Q2.75728 4.18203 2.38274 4.18203Q2.19641 4.18203 2.03361 4.10392Q1.87081 4.02582 1.67319 3.85266Q1.5565 3.74915 1.48686 3.70304Q1.41722 3.65692 1.32124 3.65692Q1.18949 3.65692 1.10197 3.75762Q1.01445 3.85831 1.0201 4.09357L0.404652 4.09357Z" fill="#000000" />
                    </g>
                    <g transform="matrix(1 0 0 -1 0 24.995)">
                      <path d="M0.404652 4.09357Q0.387713 3.55906 0.611683 3.27392Q0.835653 2.98878 1.21772 2.98878Q1.39652 2.98878 1.55744 3.06124Q1.71836 3.1337 1.92351 3.31626Q2.03267 3.41037 2.10795 3.46119Q2.18324 3.512 2.28111 3.512Q2.41474 3.512 2.50131 3.40755Q2.58789 3.30309 2.58224 3.07536L3.19581 3.07536Q3.21651 3.60987 2.9869 3.89595Q2.75728 4.18203 2.38274 4.18203Q2.19641 4.18203 2.03361 4.10392Q1.87081 4.02582 1.67319 3.85266Q1.5565 3.74915 1.48686 3.70304Q1.41722 3.65692 1.32124 3.65692Q1.18949 3.65692 1.10197 3.75762Q1.01445 3.85831 1.0201 4.09357L0.404652 4.09357Z" fill="#000000" />
                    </g>
                  </g>
                </g>
                <path d="M16 0C16.5524 0 17 0.44764 17 1L17 3.35489C17 3.90725 16.5524 4.35489 16 4.35489L1 4.35489C0.44764 4.35489 0 3.90725 0 3.35489L0 1C0 0.44764 0.44764 0 1 0L16 0Z" fill="#FFFFFF" stroke-width="0.5" stroke="#1F2555" stroke-linecap="round" stroke-linejoin="round" transform="translate(9 1)" />
              </g>
            </g>
          </g>
        </g>
      </g>
      <g transform="translate(0 0.136)">
        <g>
          <g transform="matrix(-1 0 0 1 42 18)">
            <path d="M1.70886 0C0.765015 3.05176e-05 0 0.790405 0 1.76535L0 7.06137C0 8.03625 0.765015 8.82666 1.70874 8.82669L14.3123 8.82669C15.2561 8.82666 16.0211 8.03629 16.0211 7.06137L16.0211 1.76535C16.0211 0.790405 15.2561 3.05176e-05 14.3123 0L1.70886 0Z" fill="url(#gradient_5)" fill-rule="evenodd" stroke-width="1" stroke="#1F2555" stroke-linecap="round" stroke-linejoin="round" filter="url(#filter_6)" transform="translate(0 9)" />
            <path d="M1.70886 0C0.765015 3.05176e-05 0 0.790375 0 1.76532L0 7.06134C0 8.03625 0.765015 8.82663 1.70874 8.82666L14.3123 8.82666C15.2561 8.82663 16.0211 8.03629 16.0211 7.06134L16.0211 1.76532C16.0211 0.790375 15.2561 3.05176e-05 14.3123 0L1.70886 0Z" fill="url(#gradient_7)" fill-rule="evenodd" stroke-width="1" stroke="#1F2555" stroke-linecap="round" stroke-linejoin="round" filter="url(#filter_8)" transform="translate(0 18)" />
            <path d="M1.70886 3.05176e-05C0.765015 3.05176e-05 0 0.790405 0 1.76535L0 7.06137C0 8.03625 0.765015 8.82666 1.70874 8.82669L14.3123 8.82669C15.2561 8.82666 16.0211 8.03629 16.0211 7.06137L16.0211 1.76535C16.0211 0.790405 15.2561 3.05176e-05 14.3123 0L1.70886 3.05176e-05Z" fill="url(#gradient_9)" fill-rule="evenodd" stroke-width="1" stroke="#1F2555" filter="url(#filter_10)" />
          </g>
          <g>
            <g>
              <path d="M0 0L0 40.3574C0 41.585 1.01361 42.5801 2.26367 42.5801L2.6817 42.5801L32.338 42.5801L32.6819 42.5801C33.932 42.5801 34.9456 41.585 34.9456 40.3574L34.9456 12.1328L40.8889 12.1328C41.9647 12.1313 42.8361 11.2521 42.8362 10.168L42.8362 4.27344C42.8362 3.18954 41.965 2.31024 40.8892 2.30859L34.9458 2.30859L34.9458 0L0 0Z" fill="url(#gradient_4)" fill-rule="evenodd" stroke-width="1" stroke="#1F2555" stroke-linecap="round" stroke-linejoin="round" filter="url(#filter_11)" transform="translate(0 6.42)" />
              <path d="M2.26367 0C1.01361 0 0 0.995117 0 2.22266L0 6.69141L34.9454 6.69141L34.9454 2.22266C34.9454 0.995117 33.9318 0 32.6816 0L2.26367 0Z" fill="url(#gradient_3)" fill-rule="evenodd" stroke-width="1" stroke="#1F2555" stroke-linecap="round" stroke-linejoin="round" transform="translate(0 0)" />
            </g>
            <g transform="translate(5 15)">
              <g>
                <path d="M16 0C16.5524 0 17 0.447639 17 1L17 3.35486C17 3.90722 16.5524 4.35486 16 4.35486L1 4.35486C0.44764 4.35486 0 3.90722 0 3.35486L0 1C0 0.447639 0.44764 0 1 0L16 0Z" fill="#FFFFFF" stroke-width="0.5" stroke="#1F2555" stroke-linecap="round" stroke-linejoin="round" transform="translate(9 19)" />
                <path d="M16 0C16.5524 0 17 0.44764 17 1L17 3.35489C17 3.90725 16.5524 4.35489 16 4.35489L1 4.35489C0.44764 4.35489 0 3.90725 0 3.35489L0 1C0 0.44764 0.44764 0 1 0L16 0Z" fill="#FFFFFF" stroke-width="0.5" stroke="#1F2555" stroke-linecap="round" stroke-linejoin="round" transform="translate(9 10)" />
                <g transform="matrix(1 0 0 -1 2 24.995)">
                  <g transform="matrix(1 0 0 -1 0 6.414)">
                    <path d="M0.404652 4.09357Q0.387713 3.55906 0.611683 3.27392Q0.835653 2.98878 1.21772 2.98878Q1.39652 2.98878 1.55744 3.06124Q1.71836 3.1337 1.92351 3.31626Q2.03267 3.41037 2.10795 3.46119Q2.18324 3.512 2.28111 3.512Q2.41474 3.512 2.50131 3.40755Q2.58789 3.30309 2.58224 3.07536L3.19581 3.07536Q3.21651 3.60987 2.9869 3.89595Q2.75728 4.18203 2.38274 4.18203Q2.19641 4.18203 2.03361 4.10392Q1.87081 4.02582 1.67319 3.85266Q1.5565 3.74915 1.48686 3.70304Q1.41722 3.65692 1.32124 3.65692Q1.18949 3.65692 1.10197 3.75762Q1.01445 3.85831 1.0201 4.09357L0.404652 4.09357Z" fill="#000000" />
                  </g>
                  <g transform="matrix(1 0 0 -1 0 15.705)">
                    <path d="M0.404652 4.09357Q0.387713 3.55906 0.611683 3.27392Q0.835653 2.98878 1.21772 2.98878Q1.39652 2.98878 1.55744 3.06124Q1.71836 3.1337 1.92351 3.31626Q2.03267 3.41037 2.10795 3.46119Q2.18324 3.512 2.28111 3.512Q2.41474 3.512 2.50131 3.40755Q2.58789 3.30309 2.58224 3.07536L3.19581 3.07536Q3.21651 3.60987 2.9869 3.89595Q2.75728 4.18203 2.38274 4.18203Q2.19641 4.18203 2.03361 4.10392Q1.87081 4.02582 1.67319 3.85266Q1.5565 3.74915 1.48686 3.70304Q1.41722 3.65692 1.32124 3.65692Q1.18949 3.65692 1.10197 3.75762Q1.01445 3.85831 1.0201 4.09357L0.404652 4.09357Z" fill="#000000" />
                  </g>
                  <g transform="matrix(1 0 0 -1 0 24.995)">
                    <path d="M0.404652 4.09357Q0.387713 3.55906 0.611683 3.27392Q0.835653 2.98878 1.21772 2.98878Q1.39652 2.98878 1.55744 3.06124Q1.71836 3.1337 1.92351 3.31626Q2.03267 3.41037 2.10795 3.46119Q2.18324 3.512 2.28111 3.512Q2.41474 3.512 2.50131 3.40755Q2.58789 3.30309 2.58224 3.07536L3.19581 3.07536Q3.21651 3.60987 2.9869 3.89595Q2.75728 4.18203 2.38274 4.18203Q2.19641 4.18203 2.03361 4.10392Q1.87081 4.02582 1.67319 3.85266Q1.5565 3.74915 1.48686 3.70304Q1.41722 3.65692 1.32124 3.65692Q1.18949 3.65692 1.10197 3.75762Q1.01445 3.85831 1.0201 4.09357L0.404652 4.09357Z" fill="#000000" />
                  </g>
                </g>
                <g transform="matrix(1 0 0 -1 0 24.995)">
                  <g transform="matrix(1 0 0 -1 0 6.414)">
                    <path d="M0.404652 4.09357Q0.387713 3.55906 0.611683 3.27392Q0.835653 2.98878 1.21772 2.98878Q1.39652 2.98878 1.55744 3.06124Q1.71836 3.1337 1.92351 3.31626Q2.03267 3.41037 2.10795 3.46119Q2.18324 3.512 2.28111 3.512Q2.41474 3.512 2.50131 3.40755Q2.58789 3.30309 2.58224 3.07536L3.19581 3.07536Q3.21651 3.60987 2.9869 3.89595Q2.75728 4.18203 2.38274 4.18203Q2.19641 4.18203 2.03361 4.10392Q1.87081 4.02582 1.67319 3.85266Q1.5565 3.74915 1.48686 3.70304Q1.41722 3.65692 1.32124 3.65692Q1.18949 3.65692 1.10197 3.75762Q1.01445 3.85831 1.0201 4.09357L0.404652 4.09357Z" fill="#000000" />
                  </g>
                  <g transform="matrix(1 0 0 -1 0 15.705)">
                    <path d="M0.404652 4.09357Q0.387713 3.55906 0.611683 3.27392Q0.835653 2.98878 1.21772 2.98878Q1.39652 2.98878 1.55744 3.06124Q1.71836 3.1337 1.92351 3.31626Q2.03267 3.41037 2.10795 3.46119Q2.18324 3.512 2.28111 3.512Q2.41474 3.512 2.50131 3.40755Q2.58789 3.30309 2.58224 3.07536L3.19581 3.07536Q3.21651 3.60987 2.9869 3.89595Q2.75728 4.18203 2.38274 4.18203Q2.19641 4.18203 2.03361 4.10392Q1.87081 4.02582 1.67319 3.85266Q1.5565 3.74915 1.48686 3.70304Q1.41722 3.65692 1.32124 3.65692Q1.18949 3.65692 1.10197 3.75762Q1.01445 3.85831 1.0201 4.09357L0.404652 4.09357Z" fill="#000000" />
                  </g>
                  <g transform="matrix(1 0 0 -1 0 24.995)">
                    <path d="M0.404652 4.09357Q0.387713 3.55906 0.611683 3.27392Q0.835653 2.98878 1.21772 2.98878Q1.39652 2.98878 1.55744 3.06124Q1.71836 3.1337 1.92351 3.31626Q2.03267 3.41037 2.10795 3.46119Q2.18324 3.512 2.28111 3.512Q2.41474 3.512 2.50131 3.40755Q2.58789 3.30309 2.58224 3.07536L3.19581 3.07536Q3.21651 3.60987 2.9869 3.89595Q2.75728 4.18203 2.38274 4.18203Q2.19641 4.18203 2.03361 4.10392Q1.87081 4.02582 1.67319 3.85266Q1.5565 3.74915 1.48686 3.70304Q1.41722 3.65692 1.32124 3.65692Q1.18949 3.65692 1.10197 3.75762Q1.01445 3.85831 1.0201 4.09357L0.404652 4.09357Z" fill="#000000" />
                  </g>
                </g>
              </g>
              <path d="M16 0C16.5524 0 17 0.44764 17 1L17 3.35489C17 3.90725 16.5524 4.35489 16 4.35489L1 4.35489C0.44764 4.35489 0 3.90725 0 3.35489L0 1C0 0.44764 0.44764 0 1 0L16 0Z" fill="#FFFFFF" stroke-width="0.5" stroke="#1F2555" stroke-linecap="round" stroke-linejoin="round" transform="translate(9 1)" />
            </g>
          </g>
        </g>
      </g>
    </g>
  </g>
</svg>