<?xml version="1.0" encoding="utf-8"?>
<svg width="66.785" height="64" viewBox="0 0 66.785 64" fill="none" xmlns="http://www.w3.org/2000/svg">
  <defs>
    <linearGradient id="gradient_1" gradientUnits="userSpaceOnUse" x1="0" y1="0" x2="27.199" y2="34.186">
      <stop offset="0" stop-color="#FFFFFF" />
      <stop offset="0.995" stop-color="#A9DCDF" />
    </linearGradient>
    <linearGradient id="gradient_2" gradientUnits="userSpaceOnUse" x1="0" y1="0" x2="11.622" y2="10.691">
      <stop offset="0.169" stop-color="#FFFFFF" />
      <stop offset="0.985" stop-color="#5C6ACC" />
    </linearGradient>
    <linearGradient id="gradient_3" gradientUnits="userSpaceOnUse" x1="0" y1="0" x2="9.827" y2="10">
      <stop offset="0" stop-color="#FFFFFF" />
      <stop offset="0.995" stop-color="#A9DCDF" />
    </linearGradient>
    <filter color-interpolation-filters="sRGB" x="-7.827" y="-8" width="9.827" height="10" id="filter_4">
      <feFlood flood-opacity="0" result="BackgroundImageFix_1" />
      <feColorMatrix type="matrix" values="0 0 0 0 0 0 0 0 0 0 0 0 0 0 0 0 0 0 1 0" in="SourceAlpha" />
      <feOffset dx="0" dy="4" />
      <feGaussianBlur stdDeviation="2" />
      <feColorMatrix type="matrix" values="0 0 0 0 0 0 0 0 0 0 0 0 0 0 0 0 0 0 0.251 0" />
      <feBlend mode="normal" in2="BackgroundImageFix_1" result="Shadow_2" />
      <feBlend mode="normal" in="SourceGraphic" in2="Shadow_2" result="Shape_3" />
    </filter>
    <linearGradient id="gradient_5" gradientUnits="userSpaceOnUse" x1="-0" y1="0" x2="10.657" y2="11.31">
      <stop offset="0" stop-color="#FFFFFF" />
      <stop offset="1" stop-color="#7B3A7F" />
    </linearGradient>
    <filter color-interpolation-filters="sRGB" x="-8.657" y="-9.31" width="10.657" height="11.31" id="filter_6">
      <feFlood flood-opacity="0" result="BackgroundImageFix_1" />
      <feColorMatrix type="matrix" values="0 0 0 0 0 0 0 0 0 0 0 0 0 0 0 0 0 0 1 0" in="SourceAlpha" />
      <feOffset dx="0" dy="4" />
      <feGaussianBlur stdDeviation="2" />
      <feColorMatrix type="matrix" values="0 0 0 0 0 0 0 0 0 0 0 0 0 0 0 0 0 0 0.251 0" />
      <feBlend mode="normal" in2="BackgroundImageFix_1" result="Shadow_2" />
      <feBlend mode="normal" in="SourceGraphic" in2="Shadow_2" result="Shape_3" />
    </filter>
    <filter color-interpolation-filters="sRGB" x="-16.813" y="-33.708" width="18.813" height="35.708" id="filter_7">
      <feFlood flood-opacity="0" result="BackgroundImageFix_1" />
      <feColorMatrix type="matrix" values="0 0 0 0 0 0 0 0 0 0 0 0 0 0 0 0 0 0 1 0" in="SourceAlpha" />
      <feOffset dx="0" dy="4" />
      <feGaussianBlur stdDeviation="2" />
      <feColorMatrix type="matrix" values="0 0 0 0 0 0 0 0 0 0 0 0 0 0 0 0 0 0 0.251 0" />
      <feBlend mode="normal" in2="BackgroundImageFix_1" result="Shadow_2" />
      <feBlend mode="normal" in="SourceGraphic" in2="Shadow_2" result="Shape_3" />
    </filter>
  </defs>
  <g>
    <rect width="64" height="64" />
    <g transform="translate(2.5 10)">
      <g>
        <g transform="translate(0 4.5)">
          <g>
            <g>
              <path d="M17.6005 0C18.4844 0 19.2005 0.728716 19.2005 1.62791C19.2005 1.62791 19.2005 32.5581 19.2005 32.5581C19.2005 33.4574 18.4844 34.186 17.6005 34.186C17.6005 34.186 1.60005 34.186 1.60005 34.186C0.716244 34.186 0 33.4574 0 32.5581C0 32.5581 0 1.62791 0 1.62791C0 0.728716 0.716244 0 1.60005 0C1.60005 0 17.6005 0 17.6005 0Z" fill="#113D7E" fill-rule="evenodd" transform="translate(0.8 0.814)" />
              <path d="M18.4005 0C18.5056 0 18.6096 0.0104267 18.7127 0.0312802C18.8157 0.0521337 18.9158 0.083013 19.0129 0.123918C19.1099 0.164823 19.2021 0.214968 19.2895 0.274353C19.3769 0.333737 19.4577 0.40122 19.5319 0.476803C19.6062 0.552385 19.6725 0.634615 19.731 0.723491C19.7893 0.812366 19.8386 0.906181 19.8788 1.00493C19.919 1.10369 19.9494 1.20548 19.9698 1.31032C19.9903 1.41515 20.0006 1.52102 20.0006 1.62791C20.0006 1.62791 20.0006 2.44186 20.0006 2.44186C20.0006 2.33497 19.9903 2.22911 19.9698 2.12427C19.9494 2.01944 19.919 1.91764 19.8788 1.81889C19.8386 1.72013 19.7893 1.62632 19.731 1.53744C19.6725 1.44857 19.6062 1.36634 19.5319 1.29076C19.4577 1.21517 19.3769 1.14769 19.2895 1.0883C19.2021 1.02892 19.1099 0.978776 19.0129 0.937871C18.9158 0.896966 18.8157 0.866087 18.7127 0.845233C18.6096 0.82438 18.5056 0.813954 18.4005 0.813954C18.4005 0.813954 2.40007 0.813954 2.40007 0.813954C2.29501 0.813954 2.19096 0.82438 2.08792 0.845233C1.98487 0.866087 1.88482 0.896966 1.78776 0.937871C1.69069 0.978776 1.59848 1.02892 1.51113 1.0883C1.42378 1.14769 1.34295 1.21517 1.26866 1.29076C1.19438 1.36634 1.12805 1.44857 1.06968 1.53744C1.01131 1.62632 0.962025 1.72013 0.921819 1.81889C0.881614 1.91764 0.851264 2.01944 0.830767 2.12427C0.810271 2.22911 0.800023 2.33497 0.800023 2.44186C0.800023 2.44186 0.800023 33.3721 0.800023 33.3721C0.800023 33.479 0.810271 33.5849 0.830767 33.6897C0.851264 33.7945 0.881614 33.8963 0.921819 33.9951C0.962025 34.0939 1.01131 34.1877 1.06968 34.2766C1.12805 34.3654 1.19438 34.4477 1.26866 34.5232C1.34295 34.5987 1.42378 34.6662 1.51113 34.7257C1.59848 34.7851 1.69069 34.8352 1.78776 34.8761C1.88482 34.917 1.98487 34.9479 2.08792 34.9687C2.19096 34.9896 2.29501 35 2.40007 35C2.40007 35 1.60005 35 1.60005 35C1.49499 35 1.39093 34.9896 1.28789 34.9687C1.18485 34.9479 1.0848 34.917 0.987735 34.8761C0.890672 34.8352 0.798463 34.7851 0.711108 34.7257C0.623753 34.6662 0.542931 34.5987 0.468642 34.5232C0.394353 34.4477 0.328024 34.3654 0.269656 34.2766C0.211288 34.1877 0.162002 34.0939 0.121797 33.9951C0.0815911 33.8963 0.0512404 33.7945 0.0307449 33.6897C0.0102483 33.5849 0 33.479 0 33.3721C0 33.3721 0 2.44186 0 2.44186C0 2.36189 0.00385238 2.28211 0.0115571 2.20252C0.0192619 2.12293 0.0307817 2.04391 0.0461165 1.96548C0.0614513 1.88704 0.0805282 1.80956 0.103347 1.73303C0.126165 1.6565 0.152614 1.58129 0.182695 1.5074C0.212776 1.43351 0.246343 1.36131 0.283397 1.29078C0.320452 1.22024 0.360815 1.15173 0.404485 1.08524C0.448156 1.01874 0.494924 0.954582 0.54479 0.892761C0.594657 0.83094 0.647382 0.771755 0.702964 0.715205C0.758546 0.658654 0.816719 0.605012 0.877481 0.554276C0.938243 0.503542 1.0013 0.455959 1.06666 0.411528C1.13202 0.367097 1.19936 0.326032 1.26868 0.288332C1.33801 0.250633 1.40898 0.216481 1.4816 0.185876C1.55422 0.155271 1.62815 0.128362 1.70337 0.105147C1.77859 0.0819304 1.85474 0.0625214 1.93184 0.0469195C2.00893 0.0313177 2.08659 0.0195973 2.16482 0.0117584C2.24305 0.00391946 2.32146 0 2.40007 0C2.40007 0 18.4005 0 18.4005 0Z" fill="#FFFFFF" fill-rule="evenodd" />
            </g>
            <g transform="translate(0.8 0.814)">
              <g>
                <path d="M1.23023 7.29114e-06C0.550844 7.29114e-06 1.79498e-07 0.579497 1.79498e-07 1.29433C1.79498e-07 1.29433 1.79498e-07 32.8912 1.79498e-07 32.8912C-0.000362935 33.6055 0.55024 34.1854 1.22975 34.1857C1.22975 34.1857 25.9695 34.1857 25.9695 34.1857C26.6491 34.1857 27.2 33.6062 27.2 32.8914C27.2 32.8914 27.2 8.87857 27.2 8.87857C18.8777 -0.0407332 18.7613 7.29114e-06 18.7613 7.29114e-06C18.7613 7.29114e-06 1.23023 7.29114e-06 1.23023 7.29114e-06Z" fill="url(#gradient_1)" fill-rule="evenodd" transform="matrix(1 0 0 1 0 0)" />
                <path d="M1.23023 3.33869e-06C0.550845 3.33869e-06 3.58466e-07 0.579493 3.58466e-07 1.29434C3.58466e-07 1.29434 3.58466e-07 32.8912 3.58466e-07 32.8912C-0.000362577 33.6055 0.55024 34.1854 1.22975 34.1857C1.22975 34.1857 25.9695 34.1857 25.9695 34.1857C26.6491 34.1857 27.2 33.6062 27.2 32.8914C27.2 32.8914 27.2 8.87857 27.2 8.87857C18.8777 -0.0407371 18.7613 3.33869e-06 18.7613 3.33869e-06C18.7613 3.33869e-06 1.23023 3.33869e-06 1.23023 3.33869e-06ZM25.5999 9.52837C22.3711 6.07025 20.0777 3.63973 18.7197 2.23683C18.4826 1.99184 18.2843 1.78886 18.125 1.62791C18.125 1.62791 1.60001 1.62791 1.60001 1.62791C1.60001 1.62791 1.60001 32.5578 1.60001 32.5578C1.60001 32.5578 25.5999 32.5578 25.5999 32.5578C25.5999 32.5578 25.5999 9.52837 25.5999 9.52837ZM18.5273 1.62789C18.7662 1.66139 19.0179 1.63183 19.2824 1.5392C19.1136 1.59833 18.94 1.62789 18.7614 1.62789C18.7614 1.62789 18.5273 1.62789 18.5273 1.62789Z" fill="#113D7E" fill-rule="evenodd" transform="translate(0 0)" />
              </g>
              <path d="M1.01838 0.329387C0.456072 -0.242714 0.000228882 -0.0506073 0.000228882 0.758466C0.000228882 2.46392 0.000228882 5.23148 0.000228882 6.68154C0.000228882 7.20921 -0.0193233 8.10916 0.303421 8.52223C0.369875 8.60727 0.445692 8.68442 0.529291 8.75204C0.935251 9.08045 1.81974 9.06095 2.33839 9.06095C3.76373 9.06094 6.48422 9.0609 8.16062 9.06089C8.95584 9.06089 9.14467 8.5971 8.58235 8.025C8.58235 8.025 1.01838 0.329387 1.01838 0.329387Z" fill="none" stroke-width="0.5" stroke="#113D7E" stroke-linejoin="round" transform="translate(17.6 0.706)" />
            </g>
          </g>
        </g>
        <g transform="translate(27 0)">
          <g>
            <g transform="translate(19.378 0)">
              <path d="M0 10.6911C0 10.6911 5.88951 0 5.88951 0L11.6217 10.6911C11.6217 10.6911 0 10.6911 0 10.6911Z" fill="url(#gradient_2)" fill-rule="evenodd" transform="translate(1 1)" />
              <path d="M7.59398 0C7.59398 0 0.816689 12.3026 0.816689 12.3026L0 13.7851L14.9851 13.7851C14.9851 13.7851 7.59398 0 7.59398 0ZM2.83427 12.7851C2.83427 12.7851 1.69258 12.7851 1.69258 12.7851L2.24346 11.7851L7.00707 3.13789L7.58208 2.09408L8.1452 3.14435L12.7781 11.7851L13.3143 12.7851C13.3143 12.7851 2.83427 12.7851 2.83427 12.7851Z" fill="#113D7E" fill-rule="evenodd" />
            </g>
            <rect width="9.827" height="10" fill="url(#gradient_3)" fill-rule="evenodd" stroke-width="0.5" stroke="#1F2555" stroke-linecap="round" stroke-linejoin="round" filter="url(#filter_4)" transform="translate(21.193 17.589)" />
            <path d="M2.41981 10.4081C1.19811 9.5842 0.479698 8.47019 0.153427 6.91907C-0.172846 5.36795 0.0132256 3.95231 0.788855 2.65397C1.56408 1.35562 2.67305 0.49251 4.13257 0.145824C5.59208 -0.20096 6.94125 0.0784416 8.16295 0.90217C9.38465 1.7261 10.1969 2.90456 10.5231 4.45568C10.8495 6.00675 10.5694 7.35809 9.79401 8.65639C9.01868 9.95473 7.90981 10.8178 6.4503 11.1646C4.99068 11.5112 3.64152 11.2319 2.41991 10.4081C2.41991 10.4081 2.41981 10.4081 2.41981 10.4081Z" fill="url(#gradient_5)" fill-rule="evenodd" stroke-width="0.5" stroke="#1F2555" stroke-linecap="round" stroke-linejoin="round" filter="url(#filter_6)" transform="translate(20.378 31.69)" />
            <path d="M14.2801 0C14.2801 0 14.2801 5.10306 14.2801 5.10306L18.8127 2.58555C18.8127 2.58555 14.2801 0 14.2801 0ZM14.0605 1.93755C13.8609 1.94069 13.6553 1.94696 13.4412 1.95324C13.4412 1.95324 11.9128 1.95324 11.9128 1.95324L7.78236 1.95324C7.78236 1.95324 7.74565 1.95324 7.74565 1.95324C7.73649 1.95355 7.72415 1.95395 7.7139 1.95486C7.69539 1.95542 7.6745 1.95739 7.65499 1.958C7.64584 1.96018 7.63649 1.96114 7.62415 1.96428C7.60564 1.97056 7.58654 1.97683 7.56843 1.98625C7.56843 1.98625 7.54067 1.99567 7.54067 1.99567C7.52216 2.00195 7.50524 2.01445 7.48833 2.02386C7.47908 2.03014 7.46982 2.03333 7.46057 2.0427C7.44514 2.0552 7.42922 2.06776 7.4143 2.0831C7.40514 2.08937 7.39888 2.09565 7.38972 2.10507C7.3743 2.11757 7.36196 2.13767 7.34992 2.15524C7.34375 2.16152 7.33758 2.16779 7.33141 2.1803C7.31907 2.19913 7.30992 2.21791 7.29967 2.23705C7.2934 2.24647 7.29042 2.25583 7.28425 2.26525C7.27499 2.28722 7.26882 2.30762 7.25957 2.32858C7.25648 2.338 7.2534 2.35055 7.25031 2.35992C7.24415 2.38189 7.24116 2.40103 7.23808 2.42295C7.23609 2.43236 7.23499 2.44487 7.23181 2.45519C7.22962 2.47717 7.22872 2.49848 7.22872 2.52015C7.22872 2.52015 7.22872 2.56055 7.22872 2.56055L7.22872 17.2427C7.22872 17.2427 7.22713 17.2411 7.22713 17.2411C7.22544 17.241 7.22405 17.2411 7.22096 17.2411C7.22096 17.2411 7.21937 17.2411 7.21937 17.2411C7.21778 17.2411 7.21768 17.241 7.2131 17.2411C7.21141 17.241 7.21002 17.241 7.20693 17.2411C7.20534 17.241 7.20385 17.2411 7.20076 17.2411C7.20076 17.2411 7.19917 17.2411 7.19917 17.2411C7.19748 17.2405 7.19599 17.2401 7.1929 17.2395C7.19121 17.2395 7.18982 17.2395 7.18673 17.2395C7.18504 17.2395 7.18484 17.2395 7.18046 17.2395C7.18046 17.2395 7.17887 17.2395 7.17887 17.2395L7.1727 17.2395L7.16962 17.2395L0.00248759 17.2395L0 18.4245L7.19101 18.4245C7.19101 18.4245 7.1941 18.4245 7.1941 18.4245C7.19728 18.4245 7.20037 18.4245 7.20037 18.4245C7.20037 18.4245 7.20196 18.4245 7.20196 18.4245C7.20504 18.4245 7.20813 18.4245 7.20813 18.4245C7.21121 18.4245 7.2144 18.4245 7.2144 18.4245C7.21748 18.4239 7.22057 18.4235 7.22057 18.4229C7.22057 18.4229 7.22216 18.4229 7.22216 18.4229C7.22524 18.4229 7.22833 18.4229 7.22833 18.4229C7.23151 18.4229 7.23151 18.4229 7.23459 18.4229C7.23768 18.4229 7.24076 18.4229 7.24076 18.4229C7.24076 18.4229 7.24236 18.4229 7.24236 18.4229C7.24544 18.4229 7.24862 18.4229 7.24862 18.4229C7.24862 18.4229 7.25022 18.4213 7.25022 18.4213L7.25022 33.1035C7.25022 33.1035 7.25022 33.1424 7.25022 33.1424C7.25022 33.1644 7.25121 33.1869 7.2533 33.2089C7.25639 33.2183 7.25639 33.2308 7.25947 33.2402C7.26256 33.2621 7.26564 33.2831 7.27181 33.3051C7.27489 33.3145 7.27798 33.327 7.28096 33.3364C7.29022 33.3583 7.29639 33.3759 7.30564 33.3979C7.31181 33.4073 7.31489 33.4167 7.32106 33.4261C7.33032 33.4449 7.33957 33.4625 7.35281 33.4813C7.35907 33.4938 7.36514 33.5001 7.37141 33.5063C7.38365 33.5251 7.39599 33.5424 7.41111 33.5549C7.42037 33.5644 7.42654 33.5706 7.43579 33.5769C7.45121 33.5926 7.46664 33.6051 7.48206 33.6173C7.49121 33.6267 7.50057 33.6298 7.50972 33.6361C7.52833 33.6455 7.54544 33.6581 7.56405 33.6643C7.56405 33.6643 7.59171 33.6738 7.59171 33.6738C7.61022 33.6832 7.62903 33.6894 7.64753 33.6957C7.65977 33.6989 7.66903 33.6989 7.67927 33.702C7.69778 33.7028 7.71808 33.7048 7.73649 33.7051C7.74574 33.7061 7.75808 33.7065 7.76833 33.7068C7.76833 33.7068 7.80495 33.7068 7.80495 33.7068L14.1166 33.7068L14.1166 32.5436L8.31918 32.5436L8.31918 18.4317L14.1166 18.4317L14.1166 17.2263C14.1166 17.2263 8.31281 17.2263 8.31281 17.2263C8.30963 17.2138 8.30356 17.1981 8.30048 17.1859C8.30048 17.1859 8.30048 3.11611 8.30048 3.11611C8.30048 3.11611 13.3353 3.11611 13.3353 3.11611C13.6077 3.11753 13.8658 3.11475 14.117 3.10983C14.117 3.10983 14.117 1.93532 14.117 1.93532C14.0985 1.93562 14.0816 1.93497 14.0628 1.93532C14.0628 1.93532 14.0605 1.93755 14.0605 1.93755ZM14.2801 15.2622C14.2801 15.2622 14.2801 20.3636 14.2801 20.3636L18.8127 17.8477C18.8127 17.8477 14.2801 15.2622 14.2801 15.2622ZM14.2801 30.607C14.2801 30.607 14.2801 35.7084 14.2801 35.7084L18.8127 33.1926C18.8127 33.1926 14.2801 30.607 14.2801 30.607Z" fill="#1F2555" fill-rule="evenodd" stroke-width="1" stroke="#1F2555" filter="url(#filter_7)" transform="translate(0 3.488)" />
          </g>
        </g>
      </g>
    </g>
  </g>
</svg>