<?xml version="1.0" encoding="utf-8"?>
<svg width="66.5" height="64" viewBox="0 0 66.5 64" fill="none" xmlns="http://www.w3.org/2000/svg">
  <defs>
    <linearGradient id="gradient_1" gradientUnits="userSpaceOnUse" x1="26" y1="35.455" x2="26" y2="-10">
      <stop offset="0.226" stop-color="#A9DCDF" />
      <stop offset="0.598" stop-color="#FFFFFF" />
      <stop offset="0.769" stop-color="#A9DCDF" />
    </linearGradient>
    <filter color-interpolation-filters="sRGB" x="-55" y="-28" width="57" height="30" id="filter_2">
      <feFlood flood-opacity="0" result="BackgroundImageFix_1" />
      <feColorMatrix type="matrix" values="0 0 0 0 0 0 0 0 0 0 0 0 0 0 0 0 0 0 1 0" in="SourceAlpha" />
      <feOffset dx="2" dy="2" />
      <feGaussianBlur stdDeviation="1" />
      <feColorMatrix type="matrix" values="0 0 0 0 0 0 0 0 0 0 0 0 0 0 0 0 0 0 0.498 0" />
      <feBlend mode="normal" in2="BackgroundImageFix_1" result="Shadow_2" />
      <feBlend mode="normal" in="SourceGraphic" in2="Shadow_2" result="Shape_3" />
    </filter>
    <radialGradient id="gradient_3" gradientUnits="userSpaceOnUse" cx="0" cy="0" r="1" gradientTransform="matrix(-57 39 -38.727 -56.602 -1 4)">
      <stop offset="0" stop-color="#FFFFFF" />
      <stop offset="0.334" stop-color="#A9DCDF" />
      <stop offset="0.933" stop-color="#FFFFFF" />
    </radialGradient>
    <linearGradient id="gradient_4" gradientUnits="userSpaceOnUse" x1="22.589" y1="22.978" x2="-0.496" y2="-0.142">
      <stop offset="0" stop-color="#A9DCDF" />
      <stop offset="1" stop-color="#FFFFFF" />
    </linearGradient>
    <filter color-interpolation-filters="sRGB" x="-20" y="-20" width="22" height="22" id="filter_5">
      <feFlood flood-opacity="0" result="BackgroundImageFix_1" />
      <feColorMatrix type="matrix" values="0 0 0 0 0 0 0 0 0 0 0 0 0 0 0 0 0 0 1 0" in="SourceAlpha" />
      <feOffset dx="2" dy="2" />
      <feGaussianBlur stdDeviation="1" />
      <feColorMatrix type="matrix" values="0 0 0 0 0 0 0 0 0 0 0 0 0 0 0 0 0 0 0.498 0" />
      <feBlend mode="normal" in2="BackgroundImageFix_1" result="Shadow_2" />
      <feBlend mode="normal" in="SourceGraphic" in2="Shadow_2" result="Shape_3" />
    </filter>
  </defs>
  <g>
    <rect width="64" height="64" fill="#FEFEFE" fill-rule="evenodd" />
    <g transform="translate(3 21)">
      <g>
        <g>
          <path d="M7 0C3.134 0 0 6.71573 0 15.0001C0 23.2844 3.134 30 7 30L7.01356 30L49.2202 29.8013C49.3509 29.8247 49.4819 29.8141 49.613 29.8035C49.6864 29.7975 49.7599 29.7916 49.8333 29.7916C53.7914 29.7912 57 23.1313 57 14.916C56.9988 6.76987 53.8412 0.140861 49.9167 0.0456689L49.9167 0L7 0L7 0Z" fill="url(#gradient_1)" fill-rule="evenodd" stroke-width="2" stroke="#113D7E" stroke-linecap="round" stroke-linejoin="round" filter="url(#filter_2)" />
          <path d="M0 15C0 6.71571 3.134 0 7 0C10.866 0 14 6.71571 14 15C14 23.2843 10.866 30 7 30C3.13401 30 0 23.2843 0 15Z" fill="url(#gradient_3)" fill-rule="evenodd" stroke-width="2" stroke="#113D7E" stroke-linecap="round" stroke-linejoin="round" />
        </g>
      </g>
      <g transform="translate(36 15)">
        <g>
          <path d="M0 11C0 4.92487 4.92487 0 11 0C17.0751 0 22 4.92487 22 11C22 17.0751 17.0751 22 11 22C4.92487 22 0 17.0751 0 11Z" fill="url(#gradient_4)" fill-rule="evenodd" stroke-width="1" stroke="#1F2555" stroke-linecap="round" stroke-linejoin="round" filter="url(#filter_5)" />
          <g transform="translate(2.746 2.746)">
            <g fill="#FFFFFF" fill-rule="evenodd">
              <path d="M0 8.25407C0 3.69547 3.69547 0 8.25407 0C12.8127 0 16.5081 3.69547 16.5081 8.25407C16.5081 12.8127 12.8127 16.5081 8.25407 16.5081C3.69547 16.5081 0 12.8127 0 8.25407Z" />
              <path d="M8.25407 0C3.69547 0 0 3.69547 0 8.25407C0 12.8127 3.69547 16.5081 8.25407 16.5081C12.8127 16.5081 16.5081 12.8127 16.5081 8.25407C16.5081 3.69547 12.8127 0 8.25407 0ZM2.77112 13.737Q0.5 11.4659 0.5 8.25406Q0.5 5.04223 2.77112 2.77111Q5.04223 0.5 8.25407 0.5Q11.4659 0.5 13.737 2.77111Q16.0081 5.04223 16.0081 8.25407Q16.0081 11.4659 13.737 13.737Q11.4659 16.0081 8.25407 16.0081Q5.04223 16.0081 2.77112 13.737Z" fill="#1F2555" fill-rule="evenodd" />
            </g>
            <path d="M0.0601196 0.333012C0.203615 0.0388031 0.558441 -0.0833759 0.852647 0.0601177C1.14685 0.203611 1.26903 0.558439 1.12553 0.852648C0.982037 1.14686 0.62721 1.26904 0.333005 1.12554C0.0387993 0.982048 -0.0833759 0.62722 0.0601196 0.333012Z" fill="#1F2555" fill-rule="evenodd" stroke-width="0.29" stroke="#1F2555" stroke-linecap="round" stroke-linejoin="round" transform="translate(7.289 9.976)" />
            <path d="M3.33362 0L0 3.33361" fill="none" stroke-width="0.794" stroke="#1F2555" stroke-linecap="round" transform="translate(8.142 6.703)" />
            <path d="M0.454622 8.66454C-0.816259 5.49333 0.665689 1.8864 3.79906 0.524671C6.93232 -0.837059 10.5805 0.54029 12.0321 3.63298" fill="none" stroke-width="0.5" stroke="#FC4850" stroke-linejoin="round" transform="translate(1.83 2.078)" />
            <path d="M0 0L7.75089 0" fill="none" stroke-width="0.721" stroke="#1F2555" stroke-linecap="round" transform="translate(4.099 13.283)" />
          </g>
        </g>
      </g>
    </g>
  </g>
</svg>