<?xml version="1.0" encoding="utf-8"?>
<svg width="69.5" height="64" viewBox="0 0 69.5 64" fill="none" xmlns="http://www.w3.org/2000/svg">
  <defs>
    <linearGradient id="gradient_1" gradientUnits="userSpaceOnUse" x1="0" y1="0" x2="42" y2="30">
      <stop offset="0" stop-color="#FFFFFF" />
      <stop offset="0.942" stop-color="#BAC0E9" />
      <stop offset="1" stop-color="#BAC0E9" />
    </linearGradient>
    <filter color-interpolation-filters="sRGB" x="-40" y="-28" width="42" height="30" id="filter_2">
      <feFlood flood-opacity="0" result="BackgroundImageFix_1" />
      <feColorMatrix type="matrix" values="0 0 0 0 0 0 0 0 0 0 0 0 0 0 0 0 0 0 1 0" in="SourceAlpha" />
      <feOffset dx="2" dy="2" />
      <feGaussianBlur stdDeviation="1" />
      <feColorMatrix type="matrix" values="0 0 0 0 0 0 0 0 0 0 0 0 0 0 0 0 0 0 0.498 0" />
      <feBlend mode="normal" in2="BackgroundImageFix_1" result="Shadow_2" />
      <feBlend mode="normal" in="SourceGraphic" in2="Shadow_2" result="Shape_3" />
    </filter>
    <linearGradient id="gradient_3" gradientUnits="userSpaceOnUse" x1="0" y1="0" x2="6" y2="6">
      <stop offset="0.169" stop-color="#FFFFFF" />
      <stop offset="0.985" stop-color="#BAC0E9" />
    </linearGradient>
    <filter color-interpolation-filters="sRGB" x="-4" y="-4" width="6" height="6" id="filter_4">
      <feFlood flood-opacity="0" result="BackgroundImageFix_1" />
      <feColorMatrix type="matrix" values="0 0 0 0 0 0 0 0 0 0 0 0 0 0 0 0 0 0 1 0" in="SourceAlpha" />
      <feOffset dx="2" dy="2" />
      <feGaussianBlur stdDeviation="1" />
      <feColorMatrix type="matrix" values="0 0 0 0 0 0 0 0 0 0 0 0 0 0 0 0 0 0 0.498 0" />
      <feBlend mode="normal" in2="BackgroundImageFix_1" result="Shadow_2" />
      <feBlend mode="normal" in="SourceGraphic" in2="Shadow_2" result="Shape_3" />
    </filter>
    <linearGradient id="gradient_5" gradientUnits="userSpaceOnUse" x1="0" y1="0" x2="6" y2="6">
      <stop offset="0" stop-color="#FFFFFF" />
      <stop offset="0.995" stop-color="#A9DCDF" />
    </linearGradient>
    <filter color-interpolation-filters="sRGB" x="-4" y="-4" width="6" height="6" id="filter_6">
      <feFlood flood-opacity="0" result="BackgroundImageFix_1" />
      <feColorMatrix type="matrix" values="0 0 0 0 0 0 0 0 0 0 0 0 0 0 0 0 0 0 1 0" in="SourceAlpha" />
      <feOffset dx="2" dy="2" />
      <feGaussianBlur stdDeviation="1" />
      <feColorMatrix type="matrix" values="0 0 0 0 0 0 0 0 0 0 0 0 0 0 0 0 0 0 0.498 0" />
      <feBlend mode="normal" in2="BackgroundImageFix_1" result="Shadow_2" />
      <feBlend mode="normal" in="SourceGraphic" in2="Shadow_2" result="Shape_3" />
    </filter>
    <linearGradient id="gradient_7" gradientUnits="userSpaceOnUse" x1="0" y1="0" x2="6" y2="6">
      <stop offset="0.163" stop-color="#FFFFFF" />
      <stop offset="1" stop-color="#7B3A7F" />
    </linearGradient>
    <filter color-interpolation-filters="sRGB" x="-4" y="-4" width="6" height="6" id="filter_8">
      <feFlood flood-opacity="0" result="BackgroundImageFix_1" />
      <feColorMatrix type="matrix" values="0 0 0 0 0 0 0 0 0 0 0 0 0 0 0 0 0 0 1 0" in="SourceAlpha" />
      <feOffset dx="2" dy="2" />
      <feGaussianBlur stdDeviation="1" />
      <feColorMatrix type="matrix" values="0 0 0 0 0 0 0 0 0 0 0 0 0 0 0 0 0 0 0.498 0" />
      <feBlend mode="normal" in2="BackgroundImageFix_1" result="Shadow_2" />
      <feBlend mode="normal" in="SourceGraphic" in2="Shadow_2" result="Shape_3" />
    </filter>
  </defs>
  <g transform="translate(2.5 0)">
    <rect width="64" height="64" />
    <g transform="translate(3 17)">
      <g>
        <path d="M4.82361 12.5804C4.53203 11.672 4.375 10.7066 4.375 9.70588C4.375 4.34547 8.88014 0 14.4375 0C17.9704 0 21.0781 1.75617 22.8734 4.41284C24.0157 3.84829 25.3126 3.52942 26.6875 3.52942C31.2784 3.52942 35 7.0848 35 11.4706C35 11.5586 34.9985 11.6463 34.9955 11.7337C39.0158 12.7217 42 16.3771 42 20.7353C42 25.7329 38.076 29.8063 33.1654 29.9933C33.1109 29.9977 33.0557 30 33 30L9.875 30C9.80095 30 9.72783 29.996 9.65587 29.9882C9.50073 29.996 9.34458 30 9.18751 30C4.11338 30 0 25.852 0 20.7353C0 17.2112 1.95119 14.1467 4.82361 12.5804Z" fill="url(#gradient_1)" fill-rule="evenodd" stroke-width="2" stroke="#113D7E" filter="url(#filter_2)" transform="translate(16 0)" />
        <g transform="translate(0 4)">
          <g>
            <g transform="matrix(-0 1 -1 -0 17.7 3)">
              <path d="M8.5 12.1L8.5 5.61786L9.53674e-07 5.61786L0 0L9.53674e-07 12.1" fill="none" stroke-width="2" stroke="#113D7E" stroke-linejoin="round" transform="matrix(1 0 -0 1 8.5 0)" />
              <path d="M-3.43903e-13 12.1L-1.59669e-13 5.61786L8.5 5.61786L8.5 2.41585e-13L8.5 12.1" fill="none" stroke-width="2" stroke="#113D7E" stroke-linejoin="round" transform="scale(1 1)" />
            </g>
            <g fill="url(#gradient_3)" fill-rule="evenodd" filter="url(#filter_4)" transform="matrix(-0 1 -1 -0 6 0)">
              <path d="M1.36237 5.52134C0.674561 5.08428 0.2701 4.49333 0.0863571 3.67048C-0.097309 2.84763 0.00746488 2.09663 0.444154 1.4079C0.880592 0.719166 1.50495 0.261257 2.32668 0.077353C3.14838 -0.106594 3.90798 0.0416064 4.59581 0.478582C5.28364 0.915702 5.74095 1.54086 5.92457 2.36369C6.10831 3.18653 5.95061 3.90339 5.51412 4.5921C5.07758 5.28082 4.45328 5.73872 3.63158 5.92267C2.8098 6.10657 2.0502 5.95841 1.36244 5.52134L1.36237 5.52134Z" />
              <path d="M1.36237 5.52134C0.674561 5.08428 0.2701 4.49333 0.0863571 3.67048C-0.097309 2.84763 0.00746488 2.09663 0.444154 1.4079C0.880592 0.719166 1.50495 0.261257 2.32668 0.077353C3.14838 -0.106594 3.90798 0.0416064 4.59581 0.478582C5.28364 0.915702 5.74095 1.54086 5.92457 2.36369C6.10831 3.18653 5.95061 3.90339 5.51412 4.5921C5.07758 5.28082 4.45328 5.73872 3.63158 5.92267C2.8098 6.10657 2.0502 5.95841 1.36244 5.52134L1.36237 5.52134Z" fill="none" stroke-width="0.5" stroke="#113D7E" />
              <path d="M1.36237 5.52134C0.674561 5.08428 0.2701 4.49333 0.0863571 3.67048C-0.097309 2.84763 0.00746488 2.09663 0.444154 1.4079C0.880592 0.719166 1.50495 0.261257 2.32668 0.077353C3.14838 -0.106594 3.90798 0.0416064 4.59581 0.478582C5.28364 0.915702 5.74095 1.54086 5.92457 2.36369C6.10831 3.18653 5.95061 3.90339 5.51412 4.5921C5.07758 5.28082 4.45328 5.73872 3.63158 5.92267C2.8098 6.10657 2.0502 5.95841 1.36244 5.52134L1.36237 5.52134Z" fill="none" stroke-width="1" stroke="#5C6ACC" />
            </g>
            <path d="M1.36237 5.52134C0.674561 5.08428 0.270101 4.49333 0.0863571 3.67048C-0.0973091 2.84763 0.00746441 2.09663 0.444154 1.4079C0.880592 0.719166 1.50495 0.261257 2.32668 0.0773535C3.14838 -0.106594 3.90798 0.0416059 4.59581 0.478582C5.28364 0.915702 5.74095 1.54086 5.92457 2.36369C6.10831 3.18653 5.95061 3.90339 5.51412 4.5921C5.07758 5.28082 4.45328 5.73872 3.63158 5.92267C2.8098 6.10657 2.0502 5.95841 1.36244 5.52134L1.36237 5.52134Z" fill="url(#gradient_5)" fill-rule="evenodd" stroke-width="0.5" stroke="#113D7E" stroke-linecap="round" stroke-linejoin="round" filter="url(#filter_6)" transform="matrix(-0 1 -1 -0 6 8.5)" />
            <path d="M1.36238 5.52134C0.674561 5.08428 0.2701 4.49333 0.0863571 3.67048C-0.0973091 2.84763 0.00746536 2.09663 0.444155 1.4079C0.880592 0.719166 1.50495 0.261257 2.32668 0.0773525C3.14838 -0.106594 3.90798 0.041605 4.59581 0.47858C5.28364 0.915701 5.74095 1.54086 5.92457 2.36369C6.10831 3.18653 5.95061 3.90339 5.51412 4.5921C5.07758 5.28082 4.45328 5.73871 3.63158 5.92267C2.8098 6.10657 2.0502 5.95841 1.36244 5.52134L1.36238 5.52134Z" fill="url(#gradient_7)" fill-rule="evenodd" stroke-width="0.5" stroke="#113D7E" stroke-linecap="round" stroke-linejoin="round" filter="url(#filter_8)" transform="matrix(-0 1 -1 -0 6 17)" />
          </g>
        </g>
      </g>
    </g>
  </g>
</svg>