<?xml version="1.0" encoding="utf-8"?>
<svg width="66.5" height="64.742" viewBox="0 0 66.5 64.742" fill="none" xmlns="http://www.w3.org/2000/svg">
  <defs>
    <linearGradient id="gradient_1" gradientUnits="userSpaceOnUse" x1="0" y1="0" x2="49" y2="48">
      <stop offset="0" stop-color="#FFFFFF" />
      <stop offset="0.995" stop-color="#A9DCDF" />
    </linearGradient>
    <filter color-interpolation-filters="sRGB" x="-47" y="-46" width="49" height="48" id="filter_2">
      <feFlood flood-opacity="0" result="BackgroundImageFix_1" />
      <feColorMatrix type="matrix" values="0 0 0 0 0 0 0 0 0 0 0 0 0 0 0 0 0 0 1 0" in="SourceAlpha" />
      <feOffset dx="2" dy="2" />
      <feGaussianBlur stdDeviation="1" />
      <feColorMatrix type="matrix" values="0 0 0 0 0 0 0 0 0 0 0 0 0 0 0 0 0 0 0.498 0" />
      <feBlend mode="normal" in2="BackgroundImageFix_1" result="Shadow_2" />
      <feBlend mode="normal" in="SourceGraphic" in2="Shadow_2" result="Shape_3" />
    </filter>
    <linearGradient id="gradient_3" gradientUnits="userSpaceOnUse" x1="0" y1="0" x2="33" y2="34">
      <stop offset="0.169" stop-color="#FFFFFF" />
      <stop offset="0.985" stop-color="#5C6ACC" />
    </linearGradient>
    <filter color-interpolation-filters="sRGB" x="-31" y="-32" width="33" height="34" id="filter_4">
      <feFlood flood-opacity="0" result="BackgroundImageFix_1" />
      <feColorMatrix type="matrix" values="0 0 0 0 0 0 0 0 0 0 0 0 0 0 0 0 0 0 1 0" in="SourceAlpha" />
      <feOffset dx="2" dy="2" />
      <feGaussianBlur stdDeviation="1" />
      <feColorMatrix type="matrix" values="0 0 0 0 0 0 0 0 0 0 0 0 0 0 0 0 0 0 0.498 0" />
      <feBlend mode="normal" in2="BackgroundImageFix_1" result="Shadow_2" />
      <feBlend mode="normal" in="SourceGraphic" in2="Shadow_2" result="Shape_3" />
    </filter>
    <linearGradient id="gradient_5" gradientUnits="userSpaceOnUse" x1="0" y1="0" x2="17" y2="18">
      <stop offset="0.163" stop-color="#FFFFFF" />
      <stop offset="1" stop-color="#7B3A7F" />
    </linearGradient>
  </defs>
  <g>
    <g>
      <g>
        <rect width="64" height="64" fill="#FEFEFE" fill-rule="evenodd" />
        <g transform="translate(3.5 4.742)">
          <g>
            <path d="M11.1259 44.171C5.50849 40.6743 2.20526 35.9464 0.705154 29.3637C-0.794759 22.7811 0.0612888 16.7733 3.6264 11.2634C7.19113 5.75333 12.2899 2.09021 19.0008 0.618878C25.7118 -0.852263 31.9149 0.331809 37.5324 3.82903C43.1498 7.3257 46.8843 12.3269 48.3845 18.9095C49.8844 25.4922 48.5963 31.2267 45.0319 36.7366C41.4673 42.2467 36.3684 45.9096 29.6576 47.3811C22.9465 48.8524 16.7432 47.6682 11.1259 44.1712C11.1259 44.1712 11.1259 44.171 11.1259 44.171Z" fill="url(#gradient_1)" fill-rule="evenodd" stroke-width="2" stroke="#113D7E" stroke-linecap="round" stroke-linejoin="round" filter="url(#filter_2)" transform="translate(8 6)" />
            <path d="M7.49307 31.2876C3.71009 28.811 1.48556 25.4622 0.474972 20.7994C-0.535194 16.1366 0.0410614 11.8809 2.44285 7.9781C4.84326 4.07527 8.27721 1.48046 12.7967 0.438329C17.3161 -0.604038 21.4939 0.235764 25.2769 2.71196C29.06 5.18897 31.5752 8.73154 32.5852 13.3943C33.5957 18.057 32.7284 22.1192 30.3277 26.0219C27.9267 29.9247 24.493 32.5194 19.9737 33.5618C15.4539 34.6039 11.2761 33.7643 7.49345 31.2876L7.49307 31.2876Z" fill="url(#gradient_3)" fill-rule="evenodd" stroke-width="2" stroke="#113D7E" filter="url(#filter_4)" transform="translate(16 12)" />
            <path d="M3.86007 16.564C1.91126 15.2529 0.765289 13.48 0.244682 11.0114C-0.275705 8.5429 0.0211525 6.28989 1.25844 4.2237C2.49501 2.1575 4.26402 0.783772 6.59225 0.232056C8.92041 -0.319784 11.0726 0.124815 13.0215 1.43574C14.9703 2.7471 16.266 4.62258 16.7863 7.09108C17.3069 9.55958 16.8601 11.7102 15.6233 13.7763C14.3865 15.8425 12.6176 17.2161 10.2895 17.768C7.9611 18.3197 5.80892 17.8752 3.86026 16.564L3.86007 16.564Z" fill="url(#gradient_5)" fill-rule="evenodd" fill-opacity="0.6" transform="translate(24 21)" />
            <path d="M47.7989 48.8461C53.9334 43.7537 56.9433 37.3869 56.9433 29.6323C56.9433 29.6323 56.9433 29.6323 56.9433 29.6323C56.9433 22.8029 54.5131 16.9005 49.6511 12.0384C44.7891 7.1765 38.8867 4.7464 32.0574 4.7464C32.0574 4.7464 32.0574 4.7464 32.0574 4.7464C26.965 4.7464 22.3353 6.13602 18.2832 8.91358C18.2832 8.91358 18.2832 8.91358 18.2832 8.91358C17.9356 9.02457 17.8209 9.37597 17.8209 9.83817C17.8209 9.83817 17.8209 9.83817 17.8209 9.83817C17.8209 10.6482 18.1686 10.9959 18.9786 10.9959C18.9786 10.9959 18.9786 10.9959 18.9786 10.9959C19.0896 10.9959 19.3263 10.8849 19.6739 10.7641C19.6739 10.7641 19.6739 10.7641 19.6739 10.7641C23.6088 8.21698 27.7759 6.94436 32.2905 6.94436C32.2905 6.94436 32.2905 6.94436 32.2905 6.94436C38.6573 6.94436 43.9818 9.14402 48.4946 13.6587C52.8921 18.1733 55.0918 23.498 55.0918 29.8627C55.0918 29.8627 55.0918 29.8627 55.0918 29.8627C55.0918 36.1126 52.8921 41.4372 48.4946 45.9517C43.98 50.4663 38.6554 52.666 32.2905 52.666C25.9255 52.666 20.599 50.4663 16.2014 45.9517C11.6869 41.437 9.48724 36.1124 9.48724 29.8627C9.48724 29.8627 9.48724 29.8627 9.48724 29.8627C9.48724 24.5382 11.1073 19.7934 14.4644 15.6262C14.4644 15.6262 14.4644 15.6262 14.4644 15.6262C14.4644 15.6262 17.9368 18.751 17.9368 18.751C15.5067 21.8758 14.3492 25.4653 14.3492 29.5153C14.3492 29.5153 14.3492 29.5153 14.3492 29.5153C14.3492 34.4925 16.0863 38.6595 19.5586 42.0166C22.9157 45.4889 27.0829 47.226 32.06 47.226C32.06 47.226 32.06 47.226 32.06 47.226C36.922 47.226 41.0892 45.4889 44.5615 42.0166C48.034 38.6595 49.7708 34.4923 49.7708 29.5153C49.7708 29.5153 49.7708 29.5153 49.7708 29.5153C49.7708 24.6532 48.0339 20.4862 44.5615 17.0139C41.0892 13.5416 36.922 11.8046 32.06 11.8046C32.06 11.8046 32.06 11.8046 32.06 11.8046C29.3978 11.8046 26.6203 12.4999 23.8429 13.7719C23.8429 13.7719 23.8429 13.7719 23.8429 13.7719C23.4952 14.1195 23.3806 14.4672 23.3806 14.8137C23.3806 14.8137 23.3806 14.8137 23.3806 14.8137C23.3806 15.6237 23.7282 15.9714 24.5382 15.9714C24.5382 15.9714 24.5382 15.9714 24.5382 15.9714C24.77 15.9714 25.0005 15.9714 25.1164 15.8604C25.1164 15.8604 25.1164 15.8604 25.1164 15.8604C27.084 14.8186 29.3987 14.2403 31.9459 14.2403C31.9459 14.2403 31.9459 14.2403 31.9459 14.2403C31.9459 14.2403 32.1777 14.2403 32.1777 14.2403C36.46 14.2403 40.1646 15.7453 43.1742 18.7549C46.184 21.7646 47.6889 25.4692 47.6889 29.7516C47.6889 34.0339 46.184 37.7385 43.1742 40.7482C40.1646 43.873 36.46 45.3779 32.1777 45.3779C27.8953 45.3779 24.1908 43.873 21.1811 40.7482C18.0562 37.7385 16.5514 34.0339 16.5514 29.7516C16.5514 29.7516 16.5514 29.7516 16.5514 29.7516C16.5514 26.3944 17.5932 23.2694 19.7915 20.375C19.7915 20.375 19.7915 20.375 19.7915 20.375C19.7915 20.375 23.2638 23.4998 23.2638 23.4998C21.991 25.4672 21.2964 27.5517 21.2964 29.6344C21.2964 29.6344 21.2964 29.6344 21.2964 29.6344C21.2964 29.6344 21.2964 29.8661 21.2964 29.8661C21.2964 32.8758 22.3382 35.4229 24.5365 37.5056C26.7361 39.7052 29.2814 40.7457 32.291 40.7457C35.3008 40.7457 37.8479 39.7039 40.0456 37.5056C42.1283 35.4229 43.1705 32.8758 43.1705 29.8661C43.1705 26.8564 42.1288 24.3093 40.0456 22.1115C37.8459 20.0289 35.3007 18.9867 32.291 18.9867C32.291 18.9867 32.291 18.9867 32.291 18.9867C31.3664 18.9867 30.671 18.9867 30.3235 19.0977C30.3235 19.0977 30.3235 19.0977 30.3235 19.0977C29.7453 19.2087 29.3989 19.676 29.3989 20.2554C29.3989 20.2554 29.3989 20.2554 29.3989 20.2554C29.3989 21.0654 29.7466 21.528 30.5566 21.528C30.5566 21.528 30.5566 21.528 30.5566 21.528C30.6676 21.528 30.6676 21.528 30.7884 21.417C30.7884 21.417 30.7884 21.417 30.7884 21.417C30.7884 21.417 31.946 21.417 31.946 21.417C34.2609 21.417 36.2283 22.227 37.8484 23.8469C39.4684 25.467 40.2785 27.4345 40.2785 29.6342C40.2785 29.6342 40.2785 29.6342 40.2785 29.6342C40.2785 31.9491 39.4686 33.9165 37.8484 35.5365C36.2283 37.1564 34.2609 37.9666 31.946 37.9666C31.946 37.9666 31.946 37.9666 31.946 37.9666C29.7463 37.9666 27.7789 37.1566 26.1588 35.5365C24.5388 33.9165 23.7287 31.9491 23.7287 29.6342C23.7287 29.6342 23.7287 29.6342 23.7287 29.6342C23.7287 27.8971 24.1922 26.394 25.1185 25.1195C25.1185 25.1195 25.1185 25.1195 25.1185 25.1195C25.1185 25.1195 28.706 28.3597 28.706 28.3597C28.595 28.5914 28.4742 29.055 28.4742 29.7493C28.4742 29.7493 28.4742 29.7493 28.4742 29.7493C28.4742 30.7911 28.8219 31.6017 29.5173 32.2964C30.2125 32.9917 31.0221 33.3382 32.0643 33.3382C33.1061 33.3382 33.9165 32.9906 34.6113 32.2964C35.3066 31.6011 35.6531 30.7915 35.6531 29.7493C35.6531 28.7075 35.3054 27.8971 34.6113 27.0871C33.916 26.3918 33.1063 26.0453 32.0643 26.0453C32.0643 26.0453 32.0643 26.0453 32.0643 26.0453C31.602 26.0453 31.0225 26.1562 30.2119 26.5077C30.2119 26.5077 30.2119 26.5077 30.2119 26.5077L12.7333 10.9966L13.4286 6.71429L6.71429 0L4.97722 4.97722L0 6.71448L6.71429 13.4288C6.71429 13.4288 10.9966 12.7335 10.9966 12.7335C11.1076 12.7335 11.1076 12.7335 11.1076 12.8445C11.1076 12.8445 11.1076 12.8445 11.1076 12.8445C11.1076 12.8445 12.6124 14.1171 12.6124 14.1171C8.90793 18.6317 7.05563 23.7241 7.05563 29.6283C7.05563 29.6283 7.05563 29.6283 7.05563 29.6283C7.05563 37.3829 10.0654 43.7498 16.0848 48.727C16.0848 48.727 16.0848 48.727 16.0848 48.727C21.6562 53.5268 26.4425 54.457 31.9398 54.5157C31.9398 54.5157 31.9398 54.5157 31.9398 54.5157C37.1492 54.5157 41.779 53.011 46.0613 50.1183C46.0613 50.1183 46.0613 50.1183 46.0613 50.1183C42.5253 48.3825 42.6232 53.3419 47.7991 48.8466C47.7991 48.8466 47.7989 48.8461 47.7989 48.8461ZM10.8761 7.52375L10.4138 10.4183L7.5192 10.8807L4.39429 7.75589L6.94149 6.94586L7.75143 4.39874L10.8763 7.52356L10.8761 7.52375Z" fill="#113D7E" />
          </g>
        </g>
      </g>
    </g>
  </g>
</svg>