<?xml version="1.0" encoding="utf-8"?>
<svg width="92" height="90.516" viewBox="0 0 92 90.516" fill="none" xmlns="http://www.w3.org/2000/svg">
  <defs>
    <linearGradient id="gradient_1" gradientUnits="userSpaceOnUse" x1="0" y1="0" x2="58" y2="37.5">
      <stop offset="0" stop-color="#FFFFFF" />
      <stop offset="0.995" stop-color="#A9DCDF" />
    </linearGradient>
    <filter color-interpolation-filters="sRGB" x="-56" y="-35.5" width="58" height="37.5" id="filter_2">
      <feFlood flood-opacity="0" result="BackgroundImageFix_1" />
      <feColorMatrix type="matrix" values="0 0 0 0 0 0 0 0 0 0 0 0 0 0 0 0 0 0 1 0" in="SourceAlpha" />
      <feOffset dx="2" dy="2" />
      <feGaussianBlur stdDeviation="1" />
      <feColorMatrix type="matrix" values="0 0 0 0 0 0 0 0 0 0 0 0 0 0 0 0 0 0 0.498 0" />
      <feBlend mode="normal" in2="BackgroundImageFix_1" result="Shadow_2" />
      <feBlend mode="normal" in="SourceGraphic" in2="Shadow_2" result="Shape_3" />
    </filter>
    <filter color-interpolation-filters="sRGB" x="-19.491" y="-19.053" width="21.491" height="21.053" id="filter_3">
      <feFlood flood-opacity="0" result="BackgroundImageFix_1" />
      <feColorMatrix type="matrix" values="0 0 0 0 0 0 0 0 0 0 0 0 0 0 0 0 0 0 1 0" in="SourceAlpha" />
      <feOffset dx="2" dy="2" />
      <feGaussianBlur stdDeviation="1" />
      <feColorMatrix type="matrix" values="0 0 0 0 0 0 0 0 0 0 0 0 0 0 0 0 0 0 0.498 0" />
      <feBlend mode="normal" in2="BackgroundImageFix_1" result="Shadow_2" />
      <feBlend mode="normal" in="SourceGraphic" in2="Shadow_2" result="Shape_3" />
    </filter>
    <linearGradient id="gradient_4" gradientUnits="userSpaceOnUse" x1="0" y1="0" x2="14.474" y2="14.912">
      <stop offset="0.169" stop-color="#FFFFFF" />
      <stop offset="0.985" stop-color="#5C6ACC" />
    </linearGradient>
    <filter color-interpolation-filters="sRGB" x="-12.474" y="-12.912" width="14.474" height="14.912" id="filter_5">
      <feFlood flood-opacity="0" result="BackgroundImageFix_1" />
      <feColorMatrix type="matrix" values="0 0 0 0 0 0 0 0 0 0 0 0 0 0 0 0 0 0 1 0" in="SourceAlpha" />
      <feOffset dx="2" dy="2" />
      <feGaussianBlur stdDeviation="1" />
      <feColorMatrix type="matrix" values="0 0 0 0 0 0 0 0 0 0 0 0 0 0 0 0 0 0 0.498 0" />
      <feBlend mode="normal" in2="BackgroundImageFix_1" result="Shadow_2" />
      <feBlend mode="normal" in="SourceGraphic" in2="Shadow_2" result="Shape_3" />
    </filter>
    <linearGradient id="gradient_6" gradientUnits="userSpaceOnUse" x1="0" y1="0" x2="7.456" y2="7.895">
      <stop offset="0.163" stop-color="#FFFFFF" />
      <stop offset="1" stop-color="#7B3A7F" />
    </linearGradient>
  </defs>
  <g>
    <g>
      <g>
        <rect width="64" height="64" fill="#FEFEFE" fill-rule="evenodd" />
        <g transform="translate(3 15)">
          <path d="M0 0L12 19L0 37.5L43.5 37.5L58 19L43.5 0L0 0Z" fill="url(#gradient_1)" fill-rule="evenodd" stroke-width="2" stroke="#113D7E" stroke-linecap="round" stroke-linejoin="round" filter="url(#filter_2)" />
        </g>
      </g>
      <g>
        <g>
          <g transform="translate(35 36)">
            <g>
              <g>
                <g>
                  <path d="M4.87978 19.3732C2.41602 17.8396 0.967232 15.7659 0.309292 12.8788C-0.348565 9.99166 0.0268946 7.35667 1.59054 4.94005C3.15402 2.52336 5.39031 0.916722 8.33369 0.271402C11.2771 -0.373835 13.9978 0.145494 16.4616 1.67936C18.9254 3.21299 20.5633 5.40648 21.2213 8.29362C21.8791 11.1808 21.3142 13.6959 19.7508 16.1125C18.1874 18.5292 15.9511 20.1358 13.0077 20.7812C10.0643 21.4265 7.3435 20.9071 4.87978 19.3733C4.87978 19.3733 4.87978 19.3732 4.87978 19.3732Z" fill="url(#gradient_1)" fill-rule="evenodd" stroke-width="2" stroke="#113D7E" stroke-linecap="round" stroke-linejoin="round" filter="url(#filter_3)" transform="translate(3.509 2.632)" />
                  <path d="M3.28643 13.7226C1.62723 12.6364 0.651561 11.1676 0.208321 9.12253C-0.234734 7.07745 0.0180092 5.21092 1.07143 3.49916C2.12424 1.7874 3.63036 0.64932 5.6126 0.192246C7.59478 -0.264932 9.42714 0.103402 11.0864 1.18945C12.7456 2.27586 13.8488 3.82962 14.2917 5.87467C14.735 7.91972 14.3545 9.70139 13.3016 11.4131C12.2486 13.1249 10.7426 14.2629 8.76039 14.7201C6.77802 15.1772 4.94567 14.8089 3.2866 13.7226L3.28643 13.7226Z" fill="url(#gradient_4)" fill-rule="evenodd" stroke-width="2" stroke="#113D7E" filter="url(#filter_5)" transform="translate(7.018 5.263)" />
                  <path d="M1.69301 7.26492C0.838272 6.68985 0.335652 5.91228 0.107317 4.82957C-0.120924 3.74689 0.00927734 2.75872 0.551947 1.8525C1.0943 0.946268 1.87018 0.343758 2.89134 0.101777C3.91246 -0.140259 4.8564 0.0547419 5.71116 0.629709C6.56592 1.20487 7.13422 2.02744 7.36241 3.11012C7.59074 4.19279 7.39477 5.13603 6.85234 6.04224C6.30986 6.94845 5.53405 7.55094 4.51293 7.79299C3.49171 8.03496 2.54777 7.84001 1.6931 7.26492L1.69301 7.26492Z" fill="url(#gradient_6)" fill-rule="evenodd" fill-opacity="0.6" transform="translate(10.526 9.211)" />
                  <path d="M20.9646 21.4239C23.6552 19.1904 24.9753 16.3979 24.9753 12.9967C24.9753 12.9967 24.9753 12.9967 24.9753 12.9967C24.9753 10.0013 23.9094 7.41255 21.777 5.28004C19.6445 3.14761 17.0557 2.08177 14.0604 2.08177C14.0604 2.08177 14.0604 2.08177 14.0604 2.08177C11.8268 2.08177 9.79626 2.69126 8.01903 3.90949C8.01903 3.90949 8.01903 3.90949 8.01903 3.90949C7.86656 3.95817 7.81627 4.1123 7.81627 4.31502C7.81627 4.31502 7.81627 4.31502 7.81627 4.31502C7.81627 4.6703 7.96874 4.82278 8.32402 4.82278C8.32402 4.82278 8.32402 4.82278 8.32402 4.82278C8.3727 4.82278 8.4765 4.7741 8.62897 4.72113C8.62897 4.72113 8.62897 4.72113 8.62897 4.72113C10.3548 3.60397 12.1825 3.0458 14.1626 3.0458C14.1626 3.0458 14.1626 3.0458 14.1626 3.0458C16.9551 3.0458 19.2904 4.01057 21.2697 5.99069C23.1985 7.9708 24.1632 10.3062 24.1632 13.0978C24.1632 13.0978 24.1632 13.0978 24.1632 13.0978C24.1632 15.839 23.1985 18.1744 21.2697 20.1544C19.2896 22.1345 16.9543 23.0993 14.1626 23.0993C11.3709 23.0993 9.03471 22.1345 7.10595 20.1544C5.12587 18.1743 4.1611 15.8389 4.1611 13.0978C4.1611 13.0978 4.1611 13.0978 4.1611 13.0978C4.1611 10.7625 4.87167 8.68137 6.34407 6.85364C6.34407 6.85364 6.34407 6.85364 6.34407 6.85364C6.34407 6.85364 7.86709 8.22419 7.86709 8.22419C6.80125 9.59473 6.29357 11.1691 6.29357 12.9454C6.29357 12.9454 6.29357 12.9454 6.29357 12.9454C6.29357 15.1284 7.05546 16.956 8.5784 18.4285C10.0508 19.9514 11.8786 20.7133 14.0615 20.7133C14.0615 20.7133 14.0615 20.7133 14.0615 20.7133C16.194 20.7133 18.0217 19.9514 19.5447 18.4285C21.0677 16.956 21.8295 15.1283 21.8295 12.9454C21.8295 12.9454 21.8295 12.9454 21.8295 12.9454C21.8295 10.8129 21.0677 8.98524 19.5447 7.46231C18.0217 5.93937 16.194 5.17748 14.0615 5.17748C14.0615 5.17748 14.0615 5.17748 14.0615 5.17748C12.8939 5.17748 11.6757 5.48243 10.4575 6.04036C10.4575 6.04036 10.4575 6.04036 10.4575 6.04036C10.305 6.19283 10.2547 6.34531 10.2547 6.49729C10.2547 6.49729 10.2547 6.49729 10.2547 6.49729C10.2547 6.85257 10.4072 7.00504 10.7625 7.00504C10.7625 7.00504 10.7625 7.00504 10.7625 7.00504C10.8641 7.00504 10.9652 7.00504 11.0161 6.95636C11.0161 6.95636 11.0161 6.95636 11.0161 6.95636C11.879 6.49943 12.8943 6.2458 14.0115 6.2458C14.0115 6.2458 14.0115 6.2458 14.0115 6.2458C14.0115 6.2458 14.1131 6.2458 14.1131 6.2458C15.9914 6.2458 17.6162 6.90587 18.9362 8.22592C20.2563 9.54597 20.9164 11.1708 20.9164 13.049C20.9164 14.9273 20.2563 16.5521 18.9362 17.8721C17.6162 19.2427 15.9914 19.9028 14.1131 19.9028C12.2349 19.9028 10.6101 19.2427 9.29003 17.8721C7.91944 16.5521 7.25946 14.9273 7.25946 13.049C7.25946 13.049 7.25946 13.049 7.25946 13.049C7.25946 11.5766 7.71639 10.206 8.68054 8.93648C8.68054 8.93648 8.68054 8.93648 8.68054 8.93648C8.68054 8.93648 10.2035 10.307 10.2035 10.307C9.64527 11.1699 9.34061 12.0842 9.34061 12.9976C9.34061 12.9976 9.34061 12.9976 9.34061 12.9976C9.34061 12.9976 9.34061 13.0993 9.34061 13.0993C9.34061 14.4193 9.79754 15.5365 10.7617 16.4499C11.7265 17.4147 12.8428 17.8711 14.1629 17.8711C15.4829 17.8711 16.6001 17.4141 17.564 16.4499C18.4775 15.5365 18.9346 14.4193 18.9346 13.0993C18.9346 11.7792 18.4777 10.6621 17.564 9.69812C16.5992 8.78467 15.4829 8.32757 14.1629 8.32757C14.1629 8.32757 14.1629 8.32757 14.1629 8.32757C13.7573 8.32757 13.4523 8.32757 13.2999 8.37625C13.2999 8.37625 13.2999 8.37625 13.2999 8.37625C13.0463 8.42493 12.8944 8.62988 12.8944 8.88401C12.8944 8.88401 12.8944 8.88401 12.8944 8.88401C12.8944 9.23929 13.0468 9.44218 13.4021 9.44218C13.4021 9.44218 13.4021 9.44218 13.4021 9.44218C13.4508 9.44218 13.4508 9.44218 13.5038 9.3935C13.5038 9.3935 13.5038 9.3935 13.5038 9.3935C13.5038 9.3935 14.0115 9.3935 14.0115 9.3935C15.0268 9.3935 15.8898 9.74878 16.6003 10.4593C17.3108 11.1698 17.6662 12.0328 17.6662 12.9975C17.6662 12.9975 17.6662 12.9975 17.6662 12.9975C17.6662 14.0129 17.3109 14.8758 16.6003 15.5863C15.8898 16.2968 15.0268 16.6522 14.0115 16.6522C14.0115 16.6522 14.0115 16.6522 14.0115 16.6522C13.0467 16.6522 12.1838 16.2969 11.4732 15.5863C10.7627 14.8758 10.4074 14.0129 10.4074 12.9975C10.4074 12.9975 10.4074 12.9975 10.4074 12.9975C10.4074 12.2357 10.6107 11.5764 11.017 11.0174C11.017 11.0174 11.017 11.0174 11.017 11.0174C11.017 11.0174 12.5905 12.4385 12.5905 12.4385C12.5418 12.5402 12.4888 12.7435 12.4888 13.048C12.4888 13.048 12.4888 13.048 12.4888 13.048C12.4888 13.505 12.6413 13.8605 12.9463 14.1652C13.2512 14.4702 13.6063 14.6221 14.0634 14.6221C14.5203 14.6221 14.8758 14.4697 15.1805 14.1652C15.4855 13.8603 15.6374 13.5051 15.6374 13.048C15.6374 12.5911 15.485 12.2357 15.1805 11.8804C14.8756 11.5754 14.5204 11.4235 14.0634 11.4235C14.0634 11.4235 14.0634 11.4235 14.0634 11.4235C13.8606 11.4235 13.6065 11.4721 13.2509 11.6263C13.2509 11.6263 13.2509 11.6263 13.2509 11.6263L5.58483 4.82311L5.88978 2.94489L2.94489 0L2.18301 2.18301L0 2.94497L2.94489 5.88986C2.94489 5.88986 4.82311 5.58491 4.82311 5.58491C4.87179 5.58491 4.87179 5.58491 4.87179 5.63359C4.87179 5.63359 4.87179 5.63359 4.87179 5.63359C4.87179 5.63359 5.53182 6.19176 5.53182 6.19176C3.90702 8.17188 3.0946 10.4054 3.0946 12.995C3.0946 12.995 3.0946 12.995 3.0946 12.995C3.0946 16.3961 4.41469 19.1886 7.0548 21.3717C7.0548 21.3717 7.0548 21.3717 7.0548 21.3717C9.49841 23.4769 11.5977 23.8849 14.0088 23.9106C14.0088 23.9106 14.0088 23.9106 14.0088 23.9106C16.2936 23.9106 18.3243 23.2506 20.2025 21.9819C20.2025 21.9819 20.2025 21.9819 20.2025 21.9819C18.6516 21.2206 18.6945 23.3957 20.9647 21.4241C20.9647 21.4241 20.9646 21.4239 20.9646 21.4239ZM4.77024 3.29992L4.56748 4.56947L3.29792 4.77228L1.92733 3.40173L3.04454 3.04645L3.39978 1.92929L4.77033 3.29984L4.77024 3.29992Z" fill="#113D7E" />
                </g>
              </g>
            </g>
          </g>
        </g>
      </g>
    </g>
  </g>
</svg>