<svg xmlns="http://www.w3.org/2000/svg" width="64" height="66.157" viewBox="0 0 16.933 17.504" xmlns:v="https://vecta.io/nano"><defs><linearGradient id="A" x1="-42.308" y1="192.733" x2="-74.212" y2="162.444" gradientUnits="userSpaceOnUse"><stop offset="0" stop-color="#a9dcdf"/><stop offset="1" stop-color="#fff"/></linearGradient></defs><path d="M-74.308 160.733h32v32h-32z" fill="url(#A)" transform="matrix(.398372 0 0 .280658 31.52764 -39.47137)"/><path d="M14.335 5.08h-2.921v-.808a1.28 1.28 0 0 0-.391-.939c-.261-.261-.574-.391-.965-.391H6.876c-.391 0-.704.13-.965.391a1.28 1.28 0 0 0-.391.939v.808H2.6c-.235 0-.417.078-.574.235s-.235.339-.235.574v8.527c0 .235.078.417.235.574s.339.235.574.235h11.735c.235 0 .417-.078.574-.235s.235-.339.235-.574V5.889c0-.235-.078-.417-.235-.574s-.339-.235-.574-.235zm-8.267 0v-.808c0-.235.078-.417.235-.574s.339-.235.574-.235h3.182c.235 0 .417.078.574.235s.235.339.235.574v.808H6.069zm8.658 3.442l-.104 5.893c0 .183-.104.287-.287.287H2.6c-.183 0-.287-.104-.287-.287V8.575c1.382.782 2.947 1.408 4.668 1.904l.157 1.017c0 .13.052.261.157.365s.235.157.365.157h1.617c.13 0 .261-.052.365-.157s.157-.235.157-.365v-.991c1.799-.496 3.442-1.147 4.929-1.982zm-7.067 2.973v-.887c.235.052.496.078.808.078.287 0 .574-.026.835-.078l-.026.887H7.659zm6.963-5.607v2.086l-.13.078c-2.79 1.382-4.798 2.086-6.024 2.086s-3.234-.704-6.024-2.086l-.13-.078V5.889c0-.183.104-.287.287-.287h11.735c.183 0 .287.104.287.287z" fill="#1f2555"/></svg>