<svg xmlns="http://www.w3.org/2000/svg" xmlns:xlink="http://www.w3.org/1999/xlink" width="64" height="64" viewBox="0 0 16.933 16.933" xmlns:v="https://vecta.io/nano"><defs><linearGradient id="A" gradientUnits="userSpaceOnUse"><stop offset="0" stop-color="#a9dcdf"/><stop offset="1" stop-color="#fff"/></linearGradient><linearGradient xlink:href="#A" id="B" gradientTransform="matrix(1.0575983,0,0,-1.0575983,-14.307167,371.8502)" x1="138.469" y1="174.312" x2="132.159" y2="180.8"/><linearGradient xlink:href="#A" id="C" gradientTransform="matrix(0.45262884,0,0,-0.45262884,67.563461,264.30015)" x1="138.524" y1="174.009" x2="132.243" y2="180.431"/><linearGradient id="D" x1="128.817" y1="193.191" x2="128.817" y2="187.189" gradientUnits="userSpaceOnUse"><stop offset="0" stop-color="#a9dcdf"/><stop offset=".5" stop-color="#fff"/><stop offset="1" stop-color="#a9dcdf"/></linearGradient></defs><g transform="translate(-120.347 -178.512)"><path d="M127.867 184.615v3.107h-4.257v4.956h10.407v-4.956h-4.257v-3.107zm-6.326 2.295v6.579h1.874v-6.579zm12.672 0v6.579h1.874v-6.579z" fill="url(#D)" stroke="#1f2555" stroke-width=".529" stroke-linejoin="round" paint-order="stroke fill markers"/><text xml:space="preserve" x="126.57" y="190.623" font-size="1.411" font-family="sans-serif" fill="#5c6acc" stroke="#5c6acc"><tspan x="126.57" y="190.623" stroke-width=".053">01010</tspan></text><g stroke="#1f2555" stroke-linejoin="round"><path d="M128.808 187.797c-.184 0-.331-.167-.331-.375v-.235a3.412 3.412 0 0 1-.785-.172 3.412 3.412 0 0 1-1.457-.993 3.412 3.412 0 0 1-.002-.002 3.412 3.412 0 0 1-.303-.411 3.412 3.412 0 0 1-.027-.047 3.412 3.412 0 0 1-.004-.005 3.412 3.412 0 0 1-.096-.167 3.412 3.412 0 0 1-.089-.182 3.412 3.412 0 0 1-.022-.047 3.412 3.412 0 0 1-.002-.006 3.412 3.412 0 0 1 .48-3.54l-.165-.165c-.147-.147-.16-.369-.03-.499s.353-.116.499.03l.163.164a3.412 3.412 0 0 1 4.353.009l.173-.173c.147-.147.37-.16.499-.03s.116.352-.031.499l-.175.175a3.412 3.412 0 0 1 .306.445 3.412 3.412 0 0 1 .002.005 3.412 3.412 0 0 1 .044.077 3.412 3.412 0 0 1 .278.666 3.412 3.412 0 0 1 .077.31 3.412 3.412 0 0 1 .014.078 3.412 3.412 0 0 1 .012.073 3.412 3.412 0 0 1 .001.006 3.412 3.412 0 0 1 .008.058 3.412 3.412 0 0 1 .009.058 3.412 3.412 0 0 1 .007.063 3.412 3.412 0 0 1 .011.139 3.412 3.412 0 0 1 .005.08 3.412 3.412 0 0 1 .002.079 3.412 3.412 0 0 1 0 .077 3.412 3.412 0 0 1-.002.087 3.412 3.412 0 0 1-.005.088 3.412 3.412 0 0 1-.007.088 3.412 3.412 0 0 1-.01.088 3.412 3.412 0 0 1-.012.087 3.412 3.412 0 0 1-.007.049 3.412 3.412 0 0 1-.011.072 3.412 3.412 0 0 1-.015.078 3.412 3.412 0 0 1-.017.078 3.412 3.412 0 0 1-.018.078 3.412 3.412 0 0 1-.02.077 3.412 3.412 0 0 1-.05.166 3.412 3.412 0 0 1-.06.165 3.412 3.412 0 0 1-.033.081 3.412 3.412 0 0 1-.004.006 3.412 3.412 0 0 1-.07.154 3.412 3.412 0 0 1-.046.094 3.412 3.412 0 0 1-.077.139 3.412 3.412 0 0 1 0 .001 3.412 3.412 0 0 1-.193.293 3.412 3.412 0 0 1-.163.207 3.412 3.412 0 0 1-.117.131 3.412 3.412 0 0 1-.005.006 3.412 3.412 0 0 1-.874.661 3.412 3.412 0 0 1-.001 0 3.412 3.412 0 0 1-.711.279 3.412 3.412 0 0 1-.001 0 3.412 3.412 0 0 1-.248.056 3.412 3.412 0 0 1-.001 0 3.412 3.412 0 0 1-.251.038 3.412 3.412 0 0 1-.001 0 3.412 3.412 0 0 1-.061.005v.233c0 .207-.148.375-.332.375zm-.331-1.639v-2.237l-1.577-1.577a2.407 2.407 0 0 0-.108.155 2.407 2.407 0 0 0-.111.194 2.407 2.407 0 0 0-.085.184 2.407 2.407 0 0 0-.075.209 2.407 2.407 0 0 0-.054.208 2.407 2.407 0 0 0-.033.193 2.407 2.407 0 0 0-.018.219 2.407 2.407 0 0 0-.002.054 2.407 2.407 0 0 0 .004.142 2.407 2.407 0 0 0 .019.204 2.407 2.407 0 0 0 .034.2 2.407 2.407 0 0 0 .053.201 2.407 2.407 0 0 0 .075.208 2.407 2.407 0 0 0 .094.2 2.407 2.407 0 0 0 .045.085 2.407 2.407 0 0 0 .002.005 2.407 2.407 0 0 0 1.738 1.153zm.663 0a2.407 2.407 0 0 0 1.886-3.32 2.407 2.407 0 0 0-.03-.068 2.407 2.407 0 0 0-.016-.034 2.407 2.407 0 0 0-.242-.393l-1.598 1.599zm-.321-2.832l1.45-1.45a2.407 2.407 0 0 0-.156-.108 2.407 2.407 0 0 0-.179-.103 2.407 2.407 0 0 0-.194-.091 2.407 2.407 0 0 0-.195-.071 2.407 2.407 0 0 0-.203-.055 2.407 2.407 0 0 0-.204-.037 2.407 2.407 0 0 0-.214-.019 2.407 2.407 0 0 0-.105-.002 2.407 2.407 0 0 0-.215.009 2.407 2.407 0 0 0-.221.031 2.407 2.407 0 0 0-.212.049 2.407 2.407 0 0 0-.209.069 2.407 2.407 0 0 0-.2.087 2.407 2.407 0 0 0-.193.105 2.407 2.407 0 0 0-.188.127 2.407 2.407 0 0 0-.012.01z" fill="url(#B)" stroke-width=".223"/><path d="M128.814 185.269a1.46 1.46 0 1 1 0-2.92 1.46 1.46 0 0 1 0 2.92z" fill="url(#C)" stroke-width=".197"/></g></g></svg>