<svg xmlns="http://www.w3.org/2000/svg" width="96" height="96" viewBox="0 0 25.4 25.4" xmlns:v="https://vecta.io/nano"><defs><linearGradient id="A" x1="-42.308" y1="192.733" x2="-74.212" y2="162.444" gradientUnits="userSpaceOnUse"><stop offset="0" stop-color="#a9dcdf"/><stop offset="1" stop-color="#fff"/></linearGradient><linearGradient id="B" x1="-109.649" y1="-29.085" x2="-122.028" y2="-30.453" gradientUnits="userSpaceOnUse"><stop offset="0" stop-color="#fff"/><stop offset="1" stop-color="#a9dcdf"/></linearGradient></defs><g transform="translate(-278.134 -35.784)"><g transform="translate(214.657 -15.093)"><path transform="matrix(-.887172 -.46144 .887172 -.46144 0 0)" d="M-122.602-36.737h12.047v12.047h-12.047z" fill="url(#B)" stroke="#1f2555" stroke-width="1.111" stroke-linejoin="round" paint-order="stroke fill markers"/><text xml:space="preserve" x="71.379" y="73.35" transform="scale(1.0307096 .97020542)" font-size="8.89" font-family="sans-serif" fill="#1f2555" stroke="#1f2555"><tspan x="71.379" y="73.35" stroke-linejoin="round" stroke-width=".307">?</tspan></text></g><path d="M-74.308 160.733h32v32h-32z" fill="url(#A)" transform="matrix(.184816 0 0 .133332 306.21528 32.17649)"/><path d="M298.403 53.563v4.355h-5.927v-4.355zm-.296 3.152h-1.63v.974h1.63zm-3.704 0h-1.63v.974h1.63zm1.852 0h-1.63v.974h1.63zm1.852-1.146h-1.63v.974h1.63zm-3.704 0h-1.63v.974h1.63zm1.852 0h-1.63v.974h1.63zm1.852-1.146h-1.63v.974h1.63zm-3.704 0h-1.63v.974h1.63zm1.852 0h-1.63v.974h1.63z" fill="#1f2555"/></g></svg>