<svg xmlns="http://www.w3.org/2000/svg" width="96" height="96" viewBox="0 0 25.4 25.4" xmlns:v="https://vecta.io/nano"><defs><clipPath id="A"><path d="M-62.222 164.655c-.996 0-1.803.807-1.803 1.803.001.819.553 1.534 1.345 1.742v4.057a.4.4 0 0 0 .004.042h-5.448-.033c-.246 0-.446.2-.445.447v.032 5.299c-.865.149-1.496.9-1.496 1.777 0 .996.808 1.804 1.804 1.803s1.803-.807 1.803-1.803c0-.758-.475-1.436-1.188-1.695v-4.936h4.987v4.874c-.818.189-1.398.917-1.398 1.757 0 .996.807 1.803 1.803 1.803s1.804-.807 1.804-1.803c0-.79-.515-1.488-1.27-1.722v-4.909h4.987v4.896c-.778.218-1.315.927-1.316 1.735 0 .996.807 1.803 1.803 1.803s1.803-.807 1.803-1.803c0-.828-.563-1.549-1.366-1.75v-5.327-.032l-.002-.027-.003-.05c-.002-.009-.003-.017-.006-.026l-.017-.049-.008-.025c-.006-.016-.014-.031-.022-.046-.006-.008-.008-.016-.014-.023-.011-.014-.02-.028-.032-.04l-.017-.02a.32.32 0 0 0-.039-.035c-.006-.006-.011-.012-.02-.017-.014-.01-.029-.019-.045-.027-.008-.004-.014-.009-.022-.013-.017-.008-.032-.014-.049-.02l-.025-.009-.05-.011-.025-.004a.45.45 0 0 0-.052-.003h-.032-5.44l.002-.001v-.005-.013l.002-.013v-.007-4.057c.788-.211 1.336-.925 1.336-1.741 0-.996-.807-1.803-1.803-1.803z" fill="#ceebed" fill-opacity="1" stroke="#1f2555" stroke-width="1.102" stroke-dasharray="none" stroke-opacity="1" paint-order="stroke fill markers"/></clipPath><linearGradient id="B" x1="-42.308" y1="192.733" x2="-74.212" y2="162.444" gradientUnits="userSpaceOnUse"><stop offset="0" stop-color="#a9dcdf"/><stop offset="1" stop-color="#fff"/></linearGradient><linearGradient id="C" x1="-109.649" y1="-29.085" x2="-122.028" y2="-30.453" gradientUnits="userSpaceOnUse"><stop offset="0" stop-color="#fff"/><stop offset="1" stop-color="#a9dcdf"/></linearGradient></defs><g transform="translate(-304.592 -35.784)"><g transform="translate(241.115 -15.093)"><path transform="matrix(-.887172 -.46144 .887172 -.46144 0 0)" d="M-122.602-36.737h12.047v12.047h-12.047z" fill="url(#C)" stroke="#1f2555" stroke-width="1.111" stroke-linejoin="round" paint-order="stroke fill markers"/><text xml:space="preserve" x="71.379" y="73.35" transform="scale(1.0307096 .97020542)" font-size="8.89" font-family="sans-serif" fill="#1f2555" stroke="#1f2555"><tspan x="71.379" y="73.35" stroke-linejoin="round" stroke-width=".307">?</tspan></text></g><g transform="matrix(1.120109 0 0 1.04381 227.74355 -48.815522)"><path d="M84.188 95.659c-.357 0-.646.289-.646.646 0 .294.198.55.482.625v1.455l-1.952.015h-.012a.16.16 0 0 0-.16.16v.011 1.9c-.31.054-.536.323-.536.637 0 .357.29.647.647.646s.646-.289.646-.646c0-.272-.17-.515-.426-.608v-1.77h1.788v1.748c-.293.068-.501.329-.501.63 0 .357.289.646.646.646s.647-.289.647-.646c0-.283-.185-.534-.455-.618v-1.76h1.788v1.755c-.279.078-.472.333-.472.622 0 .357.289.646.646.646s.646-.289.646-.646c0-.297-.202-.555-.49-.627v-1.91-.011l-.002-.028-.008-.027c-.005-.014-.008-.02-.011-.025l-.016-.023c-.01-.012-.015-.016-.02-.02-.012-.01-.017-.013-.023-.016-.014-.007-.02-.01-.026-.012-.015-.005-.021-.006-.027-.007-.015-.002-.021-.003-.027-.003h-.011-1.951.001v-.002-.005-.005-.003-1.455c.282-.076.479-.332.479-.624 0-.357-.289-.646-.646-.646z" fill="#ceebed" stroke="#1f2555" paint-order="stroke fill markers" stroke-width=".612"/><g transform="matrix(.358568 0 0 .358568 106.49856 36.619222)" clip-path="url(#A)"><path d="M-74.308 160.733h32v32h-32z" fill="url(#B)"/></g></g></g></svg>