<svg xmlns="http://www.w3.org/2000/svg" xmlns:xlink="http://www.w3.org/1999/xlink" width="64" height="64" viewBox="0 0 16.933 16.933" xmlns:v="https://vecta.io/nano"><defs><linearGradient id="A" gradientUnits="userSpaceOnUse"><stop offset="0" stop-color="#a9dcdf"/><stop offset="1" stop-color="#fff"/></linearGradient><linearGradient xlink:href="#A" id="B" x1="140.098" y1="175.933" x2="134.142" y2="169.967"/><linearGradient xlink:href="#A" id="C" x1="135.072" y1="172.126" x2="139.063" y2="174.43"/><linearGradient xlink:href="#A" id="D" x1="134.803" y1="172.842" x2="139.412" y2="172.842"/><linearGradient id="E" x1="120.054" y1="182.329" x2="120.054" y2="176.327" gradientUnits="userSpaceOnUse"><stop offset="0" stop-color="#a9dcdf"/><stop offset=".5" stop-color="#fff"/><stop offset="1" stop-color="#a9dcdf"/></linearGradient></defs><g transform="translate(-141.241 -178.335)"><g transform="translate(29.656 10.685)"><path d="M119.104 173.753v3.107h-4.257v4.956h10.407v-4.956h-4.257v-3.107zm-6.326 2.295v6.579h1.874v-6.579zm12.672 0v6.579h1.874v-6.579z" fill="url(#E)" stroke="#1f2555" stroke-width=".529" stroke-linejoin="round" paint-order="stroke fill markers"/><text xml:space="preserve" x="117.807" y="179.761" font-size="1.411" font-family="sans-serif" fill="#5c6acc" stroke="#5c6acc"><tspan x="117.807" y="179.761" stroke-width=".053">01010</tspan></text></g><g transform="matrix(1.202063 0 0 1.202063 -15.105162 -24.322386)" stroke="#1f2555"><g stroke-linejoin="round"><circle cx="137.108" cy="172.842" r="2.838" fill="url(#B)" stroke-width=".238"/><circle cx="137.108" cy="172.842" r="2.13" fill="#fff" stroke-width=".185"/><path d="M-131.357-176.75a1.63 1.63 0 0 1-3.018 1.225" transform="rotate(178.599)" fill="none" stroke-width=".159"/></g><path d="M138.63 172.679l-1.504.606" fill="url(#C)" stroke-width=".175" stroke-linecap="round"/><circle cx="137.108" cy="173.337" r=".153" fill="#1f2555" stroke-width=".29" stroke-linejoin="round"/><path d="M136.139 173.942h1.938" fill="url(#D)" stroke-width=".159" stroke-linecap="round"/></g></g></svg>