<svg xmlns="http://www.w3.org/2000/svg" width="96" height="96" viewBox="0 0 25.4 25.4" xmlns:v="https://vecta.io/nano"><defs><linearGradient id="A" gradientTransform="matrix(-0.30511627,-1.4255215,1.364947,-0.31865693,458.6394,266.07742)" x1="157.288" y1="-46.524" x2="163.306" y2="-46.524" gradientUnits="userSpaceOnUse"><stop offset="0" stop-color="#a9dcdf"/><stop offset="1" stop-color="#fff"/></linearGradient><linearGradient id="B" x1="335.084" y1="56.944" x2="329.083" y2="52.086" gradientUnits="userSpaceOnUse"><stop offset="0" stop-color="#abdee5"/><stop offset="1" stop-color="#fff"/></linearGradient><marker id="C" refX="0" refY="0" orient="auto-start-reverse" markerWidth="5" markerHeight="6" viewBox="0 0 5 6" overflow="visible"><path d="M1 0l-3 3h-2l3-3-3-3h2z" fill="context-stroke" fill-rule="evenodd" stroke="none"/></marker></defs><g transform="translate(-325.487 -34.396)" stroke="#1f2555"><g stroke-width=".661"><path d="M343.922 56.104c-.968-.642-1.537-1.509-1.796-2.717s-.111-2.31.503-3.321 1.493-1.683 2.649-1.953 2.225-.053 3.193.589 1.611 1.559 1.87 2.767.037 2.26-.578 3.271-1.493 1.683-2.649 1.953-2.225.053-3.193-.589z" fill="url(#A)"/><path d="M326.139 56.819l4.425-7.894 4.307 7.894z" fill="url(#B)"/></g><path d="M334.343 52.403h5.904" fill="none" stroke-width=".794" stroke-miterlimit="4.4" marker-end="url(#C)"/></g></svg>