<svg xmlns="http://www.w3.org/2000/svg" xmlns:xlink="http://www.w3.org/1999/xlink" width="64" height="64" viewBox="0 0 16.933 16.933" xmlns:v="https://vecta.io/nano"><defs><linearGradient id="A" gradientUnits="userSpaceOnUse"><stop offset="0" stop-color="#a9dcdf"/><stop offset="1" stop-color="#fff"/></linearGradient><linearGradient xlink:href="#A" id="B" x1="367.717" y1="175.906" x2="361.761" y2="169.94"/><linearGradient xlink:href="#A" id="C" x1="357.886" y1="170.932" x2="362.054" y2="173.339"/><linearGradient xlink:href="#A" id="D" x1="357.88" y1="170.932" x2="362.048" y2="173.339"/><linearGradient id="E" x1="168.656" y1="193.014" x2="168.656" y2="187.012" gradientUnits="userSpaceOnUse"><stop offset="0" stop-color="#a9dcdf"/><stop offset=".5" stop-color="#fff"/><stop offset="1" stop-color="#a9dcdf"/></linearGradient></defs><g transform="translate(-160.186 -178.335)"><path d="M167.706 184.438v3.107h-4.257v4.956h10.407v-4.956H169.6v-3.107zm-6.326 2.295v6.579h1.874v-6.579zm12.672 0v6.579h1.874v-6.579z" fill="url(#E)" stroke="#1f2555" stroke-width=".529" stroke-linejoin="round" paint-order="stroke fill markers"/><text xml:space="preserve" x="166.41" y="190.446" font-size="1.411" font-family="sans-serif" fill="#5c6acc" stroke="#5c6acc"><tspan x="166.41" y="190.446" stroke-width=".053">01010</tspan></text><g transform="matrix(1.202063 0 0 1.202063 -269.77149 -24.289645)" stroke="#1f2555"><g stroke-linejoin="round"><circle cx="364.727" cy="172.815" r="2.838" fill="url(#B)" stroke-width=".238"/><circle cx="364.727" cy="172.815" r="2.13" fill="#fff" stroke-width=".185"/></g><g stroke-width=".243" stroke-linecap="round"><path d="M365.441 173.453l-.711-.673" fill="url(#C)"/><path d="M364.714 171.787l.01.993" fill="url(#D)"/></g></g></g></svg>