<svg xmlns="http://www.w3.org/2000/svg" width="64" height="64" viewBox="0 0 16.933 16.933" xmlns:v="https://vecta.io/nano"><defs><linearGradient id="A" x1="300.472" y1="184.838" x2="311.721" y2="192.717" gradientUnits="userSpaceOnUse"><stop offset="0" stop-color="#fff"/><stop offset="1" stop-color="#a9dcdf"/></linearGradient></defs><path d="M312.024 186.117l-5.692 3.413c-.1.025-.175.051-.25.051h0c-.05 0-.15-.025-.275-.051h0l-5.603-3.452m.436-1.655h10.965c.3 0 .544.243.544.544v7.307c0 .144-.057.282-.159.384s-.24.159-.384.159H300.64c-.144 0-.282-.057-.384-.159s-.159-.24-.159-.384v-7.307c0-.3.243-.544.544-.544z" fill="url(#A)" stroke="#1f2555" stroke-width=".397" stroke-linecap="round" transform="translate(-297.656 -178.466)"/></svg>