<svg xmlns="http://www.w3.org/2000/svg" xmlns:xlink="http://www.w3.org/1999/xlink" width="64" height="64" viewBox="0 0 16.933 16.933" xmlns:v="https://vecta.io/nano"><defs><linearGradient id="A" gradientUnits="userSpaceOnUse"><stop offset="0" stop-color="#a9dcdf"/><stop offset="1" stop-color="#fff"/></linearGradient><clipPath id="B"><path d="M-44.029 175.263l-2.429-.694a.7.7 0 0 1-.405-.405c-.173-.636-.462-1.33-.868-2.139-.057-.058-.057-.116-.057-.173 0-.116.057-.231.116-.288l1.214-2.197c.057-.231.116-.405.116-.578 0-.347-.116-.636-.347-.868l-1.619-1.619c-.231-.231-.521-.347-.868-.347-.173 0-.347.058-.578.116l-2.197 1.214c-.057.058-.173.116-.289.116-.057 0-.116-.058-.288-.116-.694-.347-1.33-.636-1.966-.809-.231-.058-.405-.173-.462-.405l-.694-2.429c-.173-.578-.578-.868-1.157-.868h-2.313c-.578 0-.983.288-1.156.868l-.694 2.429c-.057.231-.231.347-.405.405-.636.173-1.33.462-2.139.868-.057.058-.116.058-.173.058a.44.44 0 0 1-.289-.116l-2.197-1.214c-.231-.058-.405-.116-.578-.116-.347 0-.636.116-.868.347l-1.619 1.619c-.231.231-.347.521-.347.868 0 .173.057.347.116.578l1.214 2.197c.057.058.116.173.116.288 0 .058-.057.116-.116.288-.347.694-.636 1.33-.809 1.966-.057.231-.173.405-.405.462l-2.429.694c-.578.173-.868.578-.868 1.156v2.313c0 .578.289.983.868 1.156l2.429.694c.231.058.347.231.405.405.231.694.521 1.388.868 2.139.057.058.057.116.057.173 0 .116-.057.231-.116.288l-1.214 2.197c-.057.231-.116.405-.116.578 0 .347.116.636.347.868l1.619 1.619c.231.231.521.347.868.347.173 0 .347-.058.578-.116l2.197-1.214c.057-.058.173-.116.289-.116.057 0 .116.058.289.116.694.347 1.33.636 1.966.809.231.058.405.173.462.405l.694 2.429c.173.578.578.868 1.157.868h2.313c.578 0 .983-.288 1.156-.868l.694-2.429c.057-.231.231-.347.405-.405.636-.173 1.33-.462 2.139-.868.057-.058.116-.058.173-.058.116 0 .231.058.289.116l2.197 1.214c.231.058.405.116.578.116.347 0 .636-.116.868-.347l1.619-1.619c.231-.231.347-.521.347-.868 0-.173-.057-.347-.116-.578l-1.214-2.197c-.057-.058-.116-.173-.116-.288 0-.058.057-.116.116-.289l.809-1.966c.057-.231.173-.405.405-.462l2.429-.694c.578-.173.868-.578.868-1.156v-2.313c0-.578-.288-.983-.868-1.156zm-10.178 6.072c-1.04 1.04-2.313 1.561-3.759 1.561s-2.718-.521-3.759-1.561-1.561-2.313-1.561-3.759.521-2.718 1.561-3.759 2.313-1.561 3.759-1.561 2.718.521 3.759 1.561 1.561 2.313 1.561 3.759-.521 2.718-1.561 3.759z" stroke-width="1.207"/></clipPath><linearGradient id="C" x1="-42.308" y1="192.733" x2="-74.212" y2="162.444" gradientUnits="userSpaceOnUse"><stop offset="0" stop-color="#a9dcdf"/><stop offset="1" stop-color="#fff"/></linearGradient><linearGradient xlink:href="#A" id="D" x1="338.115" y1="-30.009" x2="323.981" y2="-35.169"/><linearGradient xlink:href="#A" id="E" x1="338.115" y1="-23.659" x2="323.981" y2="-28.819"/></defs><g transform="translate(-312.347 -100.013)"><g transform="translate(-9.688 142.168)"><g transform="translate(-.646 -4.316)" stroke="#1f2555"><path d="M331.114-22.452l.066-13.841" fill="none" stroke-width=".661" stroke-linecap="round"/><g stroke-width=".397" stroke-linejoin="round" stroke-miterlimit="4.4"><path d="M324.092-35.085h14.11v5.058h-14.11z" fill="url(#D)" paint-order="normal"/><path d="M324.092-28.735h14.11v5.058h-14.11z" fill="url(#E)" paint-order="normal"/></g></g><path d="M324.767-36.795l.859.902 1.641-1.865.196.207-1.831 2.059-1.067-1.096.202-.207z" fill="#1f2555"/><text xml:space="preserve" x="329.153" y="-28.446" transform="scale(.98581297 1.0143912)" font-size="2.844" font-family="sans-serif" fill="#1f2555"><tspan x="329.153" y="-28.446">...</tspan></text></g><g transform="matrix(.496672 0 0 .496672 413.969313 68.742041)"><g transform="matrix(.435058 0 0 .435058 -151.78071 13.347067)" clip-path="url(#B)"><path d="M-74.308 160.733h32v32h-32z" fill="url(#C)"/></g><path d="M-171.049 89.616l-1.037-.296c-.099-.024-.148-.099-.173-.173-.074-.271-.197-.568-.37-.913-.024-.024-.024-.05-.024-.074 0-.05.024-.099.05-.123l.518-.938c.024-.099.05-.173.05-.247 0-.148-.05-.271-.148-.37l-.691-.691c-.099-.099-.222-.148-.37-.148-.074 0-.148.024-.247.05l-.938.518c-.024.024-.074.05-.123.05-.024 0-.05-.024-.123-.05-.296-.148-.568-.271-.839-.346-.099-.024-.173-.074-.197-.173l-.297-1.037c-.074-.247-.247-.37-.494-.37h-.988c-.247 0-.42.123-.494.37l-.297 1.037c-.024.099-.099.148-.173.173-.271.074-.568.197-.913.37-.024.024-.05.024-.074.024-.05 0-.099-.024-.123-.05l-.938-.518c-.099-.024-.173-.05-.247-.05-.148 0-.271.05-.37.148l-.691.691c-.099.099-.148.222-.148.37 0 .074.024.148.05.247l.518.938c.024.024.05.074.05.123 0 .024-.024.05-.05.123-.148.296-.271.568-.346.839-.024.099-.074.173-.173.197l-1.037.297c-.247.074-.37.247-.37.494v.988c0 .247.123.42.37.494l1.037.296c.099.024.148.098.173.173.099.296.222.592.37.913.024.024.024.05.024.074 0 .05-.024.099-.05.123l-.518.938c-.024.099-.05.173-.05.247 0 .148.05.271.148.37l.691.691c.099.099.222.148.37.148.074 0 .148-.024.247-.05l.938-.518c.024-.024.074-.05.123-.05.024 0 .05.024.123.05.296.148.568.271.839.346.099.024.173.074.197.173l.296 1.037c.074.247.247.37.494.37h.988c.247 0 .42-.123.494-.37l.296-1.037c.024-.099.099-.148.173-.173.271-.074.568-.197.913-.37.024-.024.05-.024.074-.024.05 0 .099.024.123.05l.938.518c.099.024.173.05.247.05.148 0 .271-.05.37-.148l.691-.691c.099-.099.148-.222.148-.37 0-.074-.024-.148-.05-.247l-.518-.938a.19.19 0 0 1-.05-.123c0-.024.024-.05.05-.123l.346-.839c.024-.099.074-.173.173-.197l1.037-.296c.247-.074.37-.247.37-.494v-.988c0-.247-.123-.42-.37-.494zm-.124.494v.988l-1.062.296c-.247.074-.42.247-.494.518-.074.247-.197.518-.346.815-.05.074-.074.173-.074.321 0 .173.024.296.099.37l.518.938-.716.716-.938-.518c-.074-.074-.197-.099-.37-.099-.148 0-.271.024-.346.099l-.765.296c-.297.099-.469.271-.543.518l-.297 1.037h-.988l-.297-1.037a.7.7 0 0 0-.518-.494c-.247-.074-.518-.198-.815-.346-.074-.05-.173-.074-.321-.074-.173 0-.297.024-.37.099l-.938.518-.716-.716.518-.938c.074-.074.099-.197.099-.37 0-.148-.024-.271-.099-.346l-.296-.765c-.099-.297-.271-.469-.518-.543l-1.062-.296v-.988l1.062-.297c.247-.074.42-.247.494-.518.074-.247.197-.518.346-.815.05-.074.074-.197.074-.321 0-.173-.024-.296-.099-.37l-.518-.938.716-.716.938.518c.074.074.197.099.37.099.148 0 .271-.024.346-.099l.765-.296c.297-.099.469-.271.543-.518l.297-1.062h.988l.297 1.062a.7.7 0 0 0 .518.494c.247.074.518.197.815.346.074.05.173.074.321.074.173 0 .297-.024.37-.099l.938-.518.716.716-.518.938c-.074.074-.099.197-.099.37 0 .148.024.271.099.346l.296.765c.099.297.271.469.518.543l1.062.296zm-3.851-1.481c-.568-.543-1.21-.815-1.975-.815s-1.407.271-1.95.815a2.63 2.63 0 0 0-.839 1.975 2.63 2.63 0 0 0 .839 1.975c.543.543 1.185.815 1.95.815s1.407-.271 1.975-.815a2.7 2.7 0 0 0 .815-1.975 2.7 2.7 0 0 0-.815-1.975zm-.37 3.58a2.2 2.2 0 0 1-1.605.667 2.2 2.2 0 0 1-2.271-2.271A2.2 2.2 0 0 1-177 88.332a2.2 2.2 0 0 1 2.271 2.271 2.2 2.2 0 0 1-.667 1.605z"/></g></g></svg>