<svg xmlns="http://www.w3.org/2000/svg" xmlns:xlink="http://www.w3.org/1999/xlink" width="64" height="64" viewBox="0 0 16.933 16.933" xmlns:v="https://vecta.io/nano"><defs><linearGradient id="A" gradientUnits="userSpaceOnUse"><stop offset="0" stop-color="#a9dcdf"/><stop offset="1" stop-color="#fff"/></linearGradient><linearGradient xlink:href="#A" id="B" x1="101.624" y1="127.704" x2="91.59" y2="117.491"/><linearGradient xlink:href="#A" id="C" x1="91.642" y1="130.148" x2="86.8" y2="121.978"/><linearGradient xlink:href="#A" id="D" gradientTransform="matrix(0.11958499,0.27824093,-0.27824811,0.11958191,151.07128,102.03773)" x1="-16.792" y1="217.899" x2="-34.144" y2="200.236"/></defs><g transform="translate(-85.145 -114.394)" stroke="#1f2555" stroke-width=".37"><path d="M96.185 117.61c-.151 0-.242.064-.288.218l-.24.84c-.031.126-.129.19-.213.218l-.003.001-.003.001a3.91 3.91 0 0 0-.702.284c-.05.039-.104.039-.126.039-.06 0-.123-.025-.166-.059l.01.005-.027-.022.017.016-.736-.408c-.067-.017-.113-.033-.155-.033-.091 0-.161.029-.218.086l-.557.561c-.057.057-.087.128-.087.219 0 .043.016.089.034.158l.406.737c.035.043.059.106.059.167s-.027.084-.045.138l-.002.008-.003.007a3.7 3.7 0 0 0-.272.66c-.025.105-.088.207-.223.241l-.835.239c-.151.046-.216.138-.216.29v.802c0 .152.065.243.218.289l.836.241c.131.032.188.128.217.215a7.07 7.07 0 0 0 .289.716c.039.051.036.106.036.123 0 .058-.024.119-.057.161l-.406.739c-.018.072-.035.118-.035.162 0 .091.03.161.087.219l.558.561a.29.29 0 0 0 .217.086c.043 0 .086-.016.155-.034l.738-.409c.041-.033.103-.059.163-.059s.085.028.138.046l.007.002.007.003c.237.119.449.215.657.272.107.026.207.091.241.226l.238.837c.046.152.136.217.287.217h.798c.151 0 .242-.064.288-.218l.239-.84c.03-.125.126-.19.212-.219l.003-.001.003-.001a3.91 3.91 0 0 0 .702-.284c.053-.042.11-.039.127-.039.059 0 .122.025.164.058l.737.409c.067.017.113.034.155.034.09 0 .16-.03.218-.087l.557-.56c.056-.056.087-.129.087-.22 0-.044-.014-.089-.033-.158l-.405-.736c-.035-.042-.06-.106-.06-.168s.027-.084.045-.137l.002-.006.002-.005.275-.669h0c.028-.106.089-.203.221-.236l.834-.239c.151-.046.216-.137.216-.289v-.802c0-.152-.065-.244-.218-.29l-.835-.241c-.126-.031-.189-.131-.217-.215l-.001-.002-.001-.003c-.057-.208-.151-.437-.286-.708-.037-.049-.037-.101-.037-.123a.28.28 0 0 1 .061-.168l.405-.737c.017-.069.033-.114.033-.157 0-.091-.03-.163-.087-.22l-.558-.56a.29.29 0 0 0-.217-.087c-.043 0-.086.016-.155.034l-.736.408.016-.015-.026.02.007-.004c-.041.033-.103.058-.163.058s-.085-.028-.138-.046l-.007-.002-.007-.003c-.237-.119-.449-.215-.657-.272-.105-.026-.207-.09-.241-.225l-.238-.837c-.046-.152-.137-.217-.288-.217zm3.852 2.862l-.007.012.021-.028-.014.016zm-.024.291l.016.019-.022-.029zm.023 4.01l-.007-.012zm-1.316 1.318l-.008-.004.027.022c-.006-.006-.012-.012-.019-.017zm-.291-.02c-.005.004-.01.008-.015.013l.03-.02zm-3.985.019c-.007.005-.013.011-.019.016l.026-.02zm-1.313-1.323l.003-.007-.021.027a.21.21 0 0 0 .018-.02zm.021-.284a.12.12 0 0 0-.015-.017l.021.031zm-.023-4.011l.006.011zm1.605-1.299c.005-.004.01-.008.016-.013l-.03.02zm1.847 1.721a1.66 1.66 0 0 1 1.214.507c.337.338.505.751.505 1.221a1.68 1.68 0 0 1-.505 1.221 1.66 1.66 0 0 1-1.214.507 1.66 1.66 0 0 1-1.214-.507c-.337-.338-.505-.751-.505-1.221s.168-.882.505-1.221a1.66 1.66 0 0 1 1.214-.507z" fill="url(#B)"/><path d="M89.74 122.783c-.097-.024-.166.003-.22.095l-.288.503c-.04.077-.113.102-.172.106h-.002-.002a2.6 2.6 0 0 0-.497.072c-.038.017-.073.009-.087.006-.039-.01-.076-.036-.097-.064l.005.005-.014-.018-.401-.367c-.04-.022-.067-.039-.094-.046-.058-.014-.108-.007-.154.021l-.448.273c-.046.028-.076.069-.091.127-.007.028-.004.06-.003.107l.144.539c.016.033.022.077.012.117s-.031.05-.051.082l-.003.005-.003.003c-.114.135-.21.256-.28.382-.033.064-.09.119-.182.12l-.576.022c-.105.005-.161.054-.185.153l-.127.517c-.024.098.003.167.095.221l.5.288c.079.041.101.112.106.173.013.161.038.326.072.507.017.039.006.074.003.085-.009.037-.034.073-.062.095l-.379.411c-.023.043-.041.07-.048.099-.014.059-.006.109.021.155l.27.45c.027.045.068.076.126.09.028.007.058.003.105.003l.54-.146c.032-.014.076-.021.115-.012s.05.032.081.052l.004.002.003.003c.134.114.255.21.38.28.064.034.119.092.119.184l.021.577c.005.105.053.161.15.185l.514.127c.097.024.166-.002.22-.095l.287-.503c.039-.076.112-.102.172-.107h.002.002a2.6 2.6 0 0 0 .497-.072c.041-.019.077-.007.088-.005.038.009.074.035.096.064l.41.381c.04.022.067.04.094.046.058.014.108.006.154-.022l.448-.272c.045-.027.076-.069.091-.128.007-.029.005-.059.004-.107l-.144-.538c-.016-.033-.022-.078-.012-.117s.031-.05.051-.081l.002-.003.002-.002.283-.388h0c.035-.064.09-.117.18-.117l.575-.022c.105-.006.161-.054.185-.152l.127-.516c.024-.098-.003-.167-.094-.221l-.499-.288c-.076-.04-.101-.114-.106-.173v-.001-.002a2.59 2.59 0 0 0-.072-.502c-.016-.037-.008-.071-.005-.085.01-.039.037-.077.066-.099l.378-.41c.022-.041.039-.068.046-.096a.2.2 0 0 0-.021-.156l-.27-.449c-.028-.046-.068-.076-.126-.09-.028-.007-.058-.003-.105-.003l-.538.146-.007.002.005-.001c-.032.014-.075.021-.114.012s-.05-.032-.081-.052l-.004-.002-.003-.003c-.134-.114-.255-.209-.38-.279-.064-.033-.119-.091-.119-.183l-.021-.577c-.005-.105-.054-.161-.151-.185zm2.027 2.455l-.007.007.018-.015zm-.062.183l-.002-.008zm-.622 2.587l-.002-.009zm-1.056.64l-.005-.004.014.018zm-.184-.059l.01-.002zm-2.569-.62l.005-.002zm-.636-1.061l.003-.003-.018.014zm.059-.179l.001.01zm.622-2.587l.002.008zm1.24-.582l-.01.002zm.917 1.402a1.1 1.1 0 0 1 .701.519 1.11 1.11 0 0 1 .132.867c-.075.303-.248.542-.519.706a1.1 1.1 0 0 1-.862.134 1.1 1.1 0 0 1-.701-.519 1.11 1.11 0 0 1-.132-.867c.075-.303.248-.542.519-.706a1.1 1.1 0 0 1 .862-.134z" fill="url(#C)"/><path d="M92.166 118.717c-.031-.073-.081-.103-.164-.093l-.454.058c-.067.011-.118-.023-.149-.058l-.001-.002-.001-.002c-.07-.087-.162-.178-.282-.279-.029-.016-.041-.042-.045-.052-.012-.029-.013-.065-.006-.092l-.001.006.005-.017.04-.428c-.005-.035-.007-.061-.016-.081-.019-.044-.047-.072-.086-.087l-.385-.152c-.039-.015-.079-.016-.123.003-.021.009-.039.026-.069.049l-.271.348c-.013.025-.038.05-.068.063s-.046.005-.076.007h-.004-.003c-.139-.008-.261-.01-.374.006-.056.01-.118 0-.162-.058l-.288-.352a.14.14 0 0 0-.184-.044l-.386.166a.14.14 0 0 0-.094.165l.057.452c.012.07-.023.117-.058.149a3.7 3.7 0 0 0-.285.287c-.017.029-.044.039-.052.042-.028.012-.062.013-.089.006l-.439-.043c-.038.006-.064.007-.085.017-.044.019-.071.048-.087.087l-.155.384c-.016.039-.015.079.003.122.009.021.026.038.048.068l.35.27c.024.013.049.037.062.067s.004.047.006.076v.003.003a1.91 1.91 0 0 0 .005.373c.01.057-.001.119-.059.162l-.353.288c-.064.053-.076.11-.045.183l.165.384c.031.073.08.104.164.094l.454-.059c.066-.011.118.021.149.057l.001.002.001.002a2.05 2.05 0 0 0 .282.279c.032.017.041.045.045.053.012.028.013.064.006.091l-.044.44c.005.036.007.061.016.081.019.043.048.071.087.087l.385.152c.039.015.08.015.124-.004.021-.009.04-.025.069-.049l.27-.347c.013-.025.039-.051.068-.063s.046-.005.075-.006h.003.002l.379-.006h0c.057-.008.116.001.159.058l.288.352a.14.14 0 0 0 .184.044l.386-.166a.14.14 0 0 0 .095-.165l-.057-.451c-.011-.067.024-.118.058-.149v-.001l.001-.002c.088-.07.179-.163.282-.284.016-.028.041-.039.051-.044.03-.012.066-.013.094-.006l.438.043c.037-.006.062-.008.082-.017.044-.019.072-.049.088-.087l.154-.384c.016-.039.016-.079-.003-.122-.009-.021-.026-.038-.048-.068l-.348-.27-.005-.002.003.002c-.024-.013-.049-.037-.062-.067s-.004-.047-.006-.076v-.004-.003c.008-.139.01-.26-.005-.373-.009-.056 0-.118.059-.162l.353-.288a.14.14 0 0 0 .045-.183zm-.58 2.446l-.008-.001.018.004zm-.145.049l.004-.005zm-1.925.84l.005-.005zm-.906-.361v-.005l-.005.017zm-.051-.144l.006.006zm-.833-1.913l.004.002zm.365-.905l.003.001-.017-.005zm.141-.049l-.006.007zm1.925-.84l-.004.005zm.957.504l-.006-.006zm-.446 1.245a.87.87 0 0 1 .007.689.88.88 0 0 1-.483.496c-.226.097-.459.101-.692.009a.87.87 0 0 1-.495-.479.87.87 0 0 1-.007-.689.88.88 0 0 1 .483-.496c.226-.097.459-.101.692-.009a.87.87 0 0 1 .495.479z" fill="url(#D)"/></g></svg>