<svg xmlns="http://www.w3.org/2000/svg" width="64" height="64" viewBox="0 0 16.933 16.933" xmlns:v="https://vecta.io/nano"><defs><linearGradient id="A" x1="74.453" y1="62.501" x2="66.951" y2="50.208" gradientUnits="userSpaceOnUse"><stop offset="0" stop-color="#a9dcdf"/><stop offset="1" stop-color="#fff"/></linearGradient><linearGradient id="B" x1="175.642" y1="48.925" x2="176.846" y2="39.718" gradientUnits="userSpaceOnUse"><stop offset="0" stop-color="#a9dcdf"/><stop offset="1" stop-color="#fff"/></linearGradient></defs><g transform="translate(-278.705 -178.226)"><g transform="matrix(1.657982 0 0 1.764524 335.7866 140.3151)"><g fill="#fff" transform="matrix(.501282 0 0 .609488 -18.974522 6.26841)"><g transform="matrix(.999392 .023488 -.034858 .673418 -84.083455 -5.989406)"><path d="M69.302 50.327c-.713.204-1.383.576-1.8 1.33-1.224 2.21.651 3.078.25 4.42l-.003.015-.003.015c-.197.978-.412 2.384-.329 3.611.131 1.951 1.015 3.381 3.524 2.305l.027-.01.023-.024c.753-.8.958-2.069 1.379-2.998.508-1.121 1.453-2.075 1.87-3.328.203-.612.361-1.375.182-2.063-.402-1.543-1.258-2.743-2.545-3.22-.847-.314-1.694-.304-2.572-.052z"/><path d="M69.658 49.958l-.43.105c-1.06.283-1.594.681-1.996 1.772-.077.24-.241 1.124-.188 1.399.013.067.047.189.154.218.145.039.227-.152.294-.315.167-.455.26-.856.543-1.176l.007-.009.007-.012c.461-.681 1.366-.899 2.199-1.011 1.757-.196 3.514 1.237 3.576 2.895v.012.012a3.92 3.92 0 0 1-.667 2.552c-.617.965-1.339 1.947-1.674 3.104-.317.883-.552 1.824-1.361 2.228-.606.281-1.311-.032-1.787-.466-.327-.27-.35-.872-.545-1.388-.105-.277-.332-.257-.371.065-.042.353.108 1.691.363 2.055.473.676.72.645 1.182.782.929.324 2-.138 2.519-.967.757-1.089.826-2.451 1.557-3.477.692-1.07 1.587-2.209 1.665-3.64.094-1.046-.07-2.177-.727-3.037-.96-1.359-2.727-2.066-4.322-1.703z"/></g><path d="M-15.639 30.646c-.424.047-.84.187-1.16.395-.579.351-.936.987-.635 1.564.125.29.439.486.609.693.107.123.043.289-.113.443l-.006.006-.006.006c-.189.228-.592.422-.734.756-.196.404.06.903.604.988a1.7 1.7 0 0 0 1.271-.26c.657-.474.852-1.231.568-1.869-.131-.325-.443-.57-.717-.779l.008.006c-.263-.228-.478-.45-.402-.656.152-.27.56-.522 1.021-.5.645.038 1.062.487 1.072.871v.006.004c.02.229-.12.462-.305.709l-.002.004-.004.004c-.062.094-.318.475-.037.629.075.041.165.042.248.027l.02-.004.018-.008c.775-.334 1.11-1.049 1.008-1.687-.064-.514-.478-.965-1.061-1.189-.39-.163-.84-.206-1.266-.158zm-2.045 3.863l-.004.004zm.25-1.904v.006z"/></g><g transform="matrix(.501282 0 0 .609488 -18.974235 6.267814)"><path d="M67.633 51.817c.385-.696 1.007-1.045 1.704-1.245.858-.246 1.682-.253 2.5.051 1.234.457 2.045 1.598 2.426 3.06.154.594.019 1.277-.176 1.865-.402 1.209-1.338 2.148-1.859 3.299-.432.955-.613 2.167-1.339 2.938-4.035 1.732-3.468-3.181-2.982-5.598.471-1.575-1.433-2.272-.273-4.369z" fill="url(#A)" transform="matrix(.999392 .023488 -.034858 .673418 -84.083455 -5.989406)"/><path d="M-16.617 29.515c-1.045.162-1.532.397-1.934 1.06-.106.199-.397 1.194-.077.719.175-.29.303-.597.632-.831.532-.492 1.493-.617 2.338-.674 1.82-.093 3.644.951 3.648 2.201.058.656-.235 1.308-.808 1.838-.653.638-1.383 1.258-1.747 2.005-.341.573-.636 1.279-1.542 1.558-.667.19-1.421-.057-1.901-.374-.382-.228-.406-.706-.561-1.015-.141-.281-.057.977.19 1.233.412.427.585.399 1.076.51.87.228 1.884-.045 2.394-.554.771-.694.888-1.611 1.673-2.301.735-.71 1.622-1.425 1.742-2.323.122-.658.008-1.362-.575-1.915-.872-.897-2.551-1.401-4.122-1.198l-.425.059zm-.433 5.819c-.454-.072-.628-.466-.483-.755.121-.29.502-.463.712-.716.194-.191.309-.457.122-.673-.184-.224-.481-.398-.587-.656-.253-.478.044-1.028.573-1.348.602-.391 1.554-.527 2.273-.226.543.21.905.618.96 1.057.091.564-.202 1.207-.909 1.511-.331.06-.115-.286-.041-.398.19-.254.364-.528.338-.823-.013-.489-.515-.994-1.23-1.036-.525-.025-1.009.256-1.192.595-.134.324.182.622.453.857.273.208.548.428.662.709.251.564.085 1.242-.51 1.671-.296.212-.736.31-1.143.231z" fill="#1f2555"/></g></g><path d="M284.344 183.478c-.297.001-.55.219-.591.514l-.51 3.742-.29-2.359c-.081-.655-1.016-.709-1.172-.067l-.574 2.377c-.123-.115-.245-.249-.419-.232l-.711.073c-.328.033-.564.325-.53.653s.323.566.653.532l.299-.031.41.833a.6.6 0 0 0 1.114-.124l.146-.607.45 3.666c.084.69 1.09.696 1.183.007l.554-4.052.221 1.564a.6.6 0 0 0 1.165.078l.098-.348.366 1.901a.6.6 0 0 0 1.176-.04l.301-2.434.055.239a.6.6 0 0 0 1.139.082l.25-.653c.13.134.25.303.447.273l.751-.113c.327-.049.552-.353.503-.68s-.351-.55-.678-.501l-.259.038-.252-.747a.6.6 0 0 0-1.123-.022l-.053.137-.372-1.639a.6.6 0 0 0-1.172.06l-.255 2.06-.126-.656a.6.6 0 0 0-1.161-.051l-.013.049-.427-3.011c-.042-.296-.296-.513-.592-.512z" fill="#fff"/><path d="M176.894 39.519c-.177 0-.327.131-.351.307l-.845 6.178-.576-4.7c-.021-.17-.161-.301-.332-.311s-.325.104-.366.271l-.754 3.12-.202-.41c-.066-.133-.207-.212-.355-.196l-.761.078c-.195.02-.337.194-.318.389s.194.337.389.318l.516-.053.527 1.068c.066.134.209.213.358.196s.271-.124.306-.27l.524-2.169.671 5.477c.022.177.172.311.351.312s.33-.131.354-.308l.87-6.363.523 3.696c.024.166.161.293.328.305s.32-.096.366-.258l.432-1.525.616 3.212c.034.171.186.292.36.287s.318-.137.341-.31l.522-4.213.416 1.834c.035.153.165.265.321.276s.301-.081.357-.228l.455-1.194.124.37c.055.164.219.264.39.238l.805-.12c.093-.014.177-.064.233-.14s.08-.171.066-.264c-.029-.194-.21-.327-.404-.298l-.511.076-.346-1.027c-.048-.142-.18-.239-.33-.242s-.286.089-.339.229l-.389 1.022-.606-2.668c-.039-.168-.192-.284-.364-.275s-.313.139-.335.31l-.495 3.992-.474-2.471c-.031-.162-.169-.281-.334-.289s-.313.1-.358.258l-.382 1.348-.645-4.559c-.025-.176-.175-.306-.353-.305z" fill="url(#B)" stroke="#1f2555" stroke-width=".282" stroke-linejoin="round" transform="matrix(.933338 0 0 .933338 119.24201 146.85548)"/></g></svg>