<svg xmlns="http://www.w3.org/2000/svg" xmlns:xlink="http://www.w3.org/1999/xlink" width="64" height="64" viewBox="0 0 16.933 16.933" xmlns:v="https://vecta.io/nano"><style><![CDATA[.B{stroke:#1f2555}.C{stroke-linejoin:bevel}.D{stroke-width:.397}.E{stroke-linejoin:round}.F{font-size:1.411px}.G{font-family:sans-serif}.H{stroke-width:.259}]]></style><defs><linearGradient id="A" xlink:href="#J"><stop offset="0" stop-color="#abdee5"/><stop offset="1" stop-color="#fff"/></linearGradient><linearGradient xlink:href="#A" id="B" x1="277.677" y1="-77.258" x2="274.866" y2="-78.7"/><linearGradient id="C" x1="284.178" y1="-63.273" x2="267.008" y2="-86.324" xlink:href="#J"><stop offset="0" stop-color="#7a3b7f"/><stop offset="1" stop-color="#fff"/></linearGradient><linearGradient id="D" x1="280.39" y1="-68.231" x2="267.289" y2="-88.709" xlink:href="#J"><stop offset="0" stop-color="#5c6acc"/><stop offset="1" stop-color="#fff"/></linearGradient><linearGradient id="E" gradientTransform="matrix(0,1.1113236,1.1317286,0,168.38753,-167.56136)" x1="75.266" y1="87.371" x2="86.215" y2="95.04" xlink:href="#J"><stop offset="0" stop-color="#fff"/><stop offset="1" stop-color="#a9dcdf"/></linearGradient><linearGradient id="F" x1="267.299" y1="-83.973" x2="275.593" y2="-71.864" xlink:href="#J"><stop offset="0" stop-color="#fff"/><stop offset="1" stop-color="#e8eaee"/></linearGradient><linearGradient xlink:href="#A" id="G" x1="272.104" y1="-59.376" x2="265.97" y2="-62.339"/><path id="H" d="M274.176-79.237a.452.467 0 0 0-.452.467v1.401a.452.467 0 0 0 .452.467h3.335a.452.467 0 0 0 .452-.467v-1.401a.452.467 0 0 0-.452-.467z"/><path id="I" d="M131.469 110.805h4.186v1.152h-4.186z"/><linearGradient id="J" gradientUnits="userSpaceOnUse"/></defs><g transform="translate(-261.395 63.109)" class="B"><g transform="translate(6.08 -.313)"><g transform="translate(-9.027 24.341)" class="D"><g class="C"><use xlink:href="#H" fill="url(#B)"/><use xlink:href="#H" y="4.687" fill="url(#C)"/><use xlink:href="#H" y="2.402" fill="url(#D)"/></g><g transform="translate(.331 .21)"><path d="M267.41-84.323c-.331 0-.599.263-.599.588v1.182h9.246v-1.182c0-.325-.268-.588-.599-.588z" fill="url(#E)"/><path d="M266.811-82.654v10.678c0 .325.268.588.599.588h.111 7.847.091c.331 0 .599-.263.599-.588v-7.468h1.573a.516.52 0 0 0 .515-.52v-1.56a.516.52 0 0 0-.515-.52h-1.573v-.611z" fill="url(#F)" class="E"/></g></g><g transform="matrix(1.047469 0 0 1 123.75925 -166.3166)" fill="#cbbbe9"><g fill="#fff" stroke-width=".155" class="E"><use xlink:href="#I"/><use xlink:href="#I" y="2.459"/><use xlink:href="#I" y="4.917"/></g><text xml:space="preserve" x="129.643" y="111.837" class="F G"><tspan x="129.643" y="111.837" class="C H">~</tspan></text><text xml:space="preserve" x="129.643" y="114.295" class="F G"><tspan x="129.643" y="114.295" class="C H">~</tspan></text><text xml:space="preserve" x="129.643" y="116.753" class="F G"><tspan x="129.643" y="116.753" class="C H">~</tspan></text></g></g><path d="M266.862-62.134a.51.51 0 0 0-.51.51v.669h-.654a.51.51 0 0 0-.51.51v.768a.51.51 0 0 0 .51.509h6.103a.51.51 0 0 0 .51-.509v-.768a.51.51 0 0 0-.51-.51h-.701v-.669a.51.51 0 0 0-.51-.51z" fill="url(#G)" paint-order="normal" class="D E"/></g></svg>