<svg xmlns="http://www.w3.org/2000/svg" width="64" height="64" viewBox="0 0 16.933 16.933" xmlns:v="https://vecta.io/nano"><defs><linearGradient id="A" gradientTransform="matrix(0,1.2099672,1.3434226,0,167.90595,-133.6909)" x1="75.266" y1="87.371" x2="86.215" y2="95.04" gradientUnits="userSpaceOnUse"><stop offset="0" stop-color="#fff"/><stop offset="1" stop-color="#a9dcdf"/></linearGradient><linearGradient id="B" x1="293.581" y1="-42.191" x2="287.447" y2="-45.154" gradientUnits="userSpaceOnUse"><stop offset="0" stop-color="#abdee5"/><stop offset="1" stop-color="#fff"/></linearGradient></defs><g transform="translate(-238.108 -136.309)"><g transform="translate(-73.606 194.965)"><g transform="translate(27.921 -13.281)" stroke="#1f2555" stroke-width=".397"><path d="M284.74-42.423v12.913c0 .354.318.64.711.64h9.554c.393 0 .711-.287.711-.64v-12.913c0-.354-.318-.64-.711-.64h-9.554c-.393 0-.711.287-.711.64z" fill="url(#A)"/><path d="M288.34-44.949a.51.51 0 0 0-.51.51v.669h-.654a.51.51 0 0 0-.51.51v.768a.51.51 0 0 0 .51.509h6.103a.51.51 0 0 0 .51-.509v-.768a.51.51 0 0 0-.51-.51h-.701v-.669a.51.51 0 0 0-.51-.51z" fill="url(#B)" stroke-linejoin="round" paint-order="normal"/></g><path d="M313.898-51.775h14.11v5.285h-14.11z" fill="#fff" stroke="#1f2555" stroke-width=".265" stroke-linejoin="round" stroke-miterlimit="4.4" paint-order="normal"/><text xml:space="preserve" x="383.418" y="-21.602" transform="matrix(.774264 0 0 1.291549 23.76 -16.992)" font-size="9.03" font-family="sans-serif" fill="#000" stroke="#fff"><tspan x="383.418" y="-21.602" stroke-width=".185">I</tspan></text></g><g transform="matrix(.819751 0 0 .819751 42.547384 9.417524)"><g fill="#fff"><path d="M243.67 164.46h6.493v4.882h-6.493z" paint-order="stroke fill markers"/><path d="M243.535 164.142h6.168v5.237h-6.168z" paint-order="stroke fill markers"/></g><path d="M248.389 164.03h1.297c.063 0 .126.023.176.068s.076.102.076.158v4.63c0 .056-.025.113-.076.158s-.113.068-.176.068h-5.942c-.063 0-.126-.023-.176-.068s-.076-.102-.076-.158v-4.63c0-.056.025-.113.076-.158s.113-.068.176-.068h1.297v-.463h.252v.463h2.845v-.463h.252v.463zm-4.645 4.856h5.942v-3.467h-5.942v3.467zm0-3.704h5.942v-.926h-5.942v.926zm3.349.926h.516v.463h-.516v-.463zm1.297 0h.516v.463h-.516v-.463zm-3.865 1.163h.516v.463h-.516v-.463zm1.297 0h.516v.463h-.516v-.463zm1.284 0h.516v.463h-.516v-.463zm-2.581-1.152h.516v.463h-.516v-.463zm1.297 0h.516v.463h-.516v-.463z" fill="#1f2555"/><ellipse cx="248.592" cy="167.962" rx="1.71" ry="1.616" fill="#fff" paint-order="stroke fill markers"/><path d="M249.723 166.893c-.313-.295-.688-.443-1.131-.443s-.819.148-1.131.443-.469.65-.469 1.069.156.774.469 1.069.688.443 1.131.443.819-.148 1.131-.443.469-.65.469-1.069-.156-.774-.469-1.069zm-1.131 2.457c-.406 0-.756-.136-1.044-.408s-.431-.597-.431-.98.144-.709.431-.986c.288-.272.638-.408 1.044-.408s.756.136 1.044.408c.288.278.431.602.431.986-.006.384-.15.715-.438.98-.288.272-.631.408-1.038.408zm.063-1.412l.494.467c.012.006.019.024.019.041 0 .041-.019.059-.062.059-.019 0-.031-.006-.044-.018l-.513-.484c-.012-.012-.019-.024-.019-.041v-.726c0-.041.019-.059.063-.059s.063.018.063.059v.703z" fill="#1f2555"/></g></g></svg>