<svg xmlns="http://www.w3.org/2000/svg" xmlns:xlink="http://www.w3.org/1999/xlink" width="64" height="64" viewBox="0 0 16.933 16.933" xmlns:v="https://vecta.io/nano"><defs><linearGradient id="A" gradientTransform="matrix(0,1.2099672,1.3434226,0,167.90595,-133.6909)" x1="75.266" y1="87.371" x2="86.215" y2="95.04" gradientUnits="userSpaceOnUse"><stop offset="0" stop-color="#fff"/><stop offset="1" stop-color="#a9dcdf"/></linearGradient><linearGradient id="B" x1="293.581" y1="-42.191" x2="287.447" y2="-45.154" gradientUnits="userSpaceOnUse"><stop offset="0" stop-color="#abdee5"/><stop offset="1" stop-color="#fff"/></linearGradient><path id="C" d="M299.428 146.08h.229c.066 0 .118.022.162.066s.066.096.066.155v1.519c0 .066-.022.118-.066.162s-.096.066-.162.066h-2.116c-.066 0-.118-.022-.162-.066s-.066-.096-.066-.162v-1.519c0-.059.022-.111.066-.155s.096-.066.162-.066h.229v-.678c0-.229.081-.42.236-.59.162-.162.361-.243.59-.243s.428.081.59.243.243.361.243.59v.678zm-1.511-.678v.678h1.364v-.678c0-.184-.066-.347-.206-.479-.14-.14-.295-.206-.479-.206s-.339.066-.479.206c-.133.133-.199.295-.199.479zm1.814 2.418v-1.519c0-.052-.022-.074-.074-.074h-2.116c-.052 0-.074.022-.074.074v1.519c0 .052.022.074.074.074h2.116c.052 0 .074-.022.074-.074zm-1.239-.789c.029-.029.066-.044.103-.044s.074.015.103.044a.15.15 0 0 1 .044.111v.302c0 .037-.015.074-.044.103s-.066.044-.103.044-.074-.015-.103-.044-.044-.066-.044-.103v-.302a.15.15 0 0 1 .044-.111z"/></defs><g transform="translate(-293.694 -136.741)"><g transform="translate(-18.02 195.398)"><g transform="translate(27.921 -13.281)" stroke="#1f2555" stroke-width=".397"><path d="M284.74-42.423v12.913c0 .354.318.64.711.64h9.554c.393 0 .711-.287.711-.64v-12.913c0-.354-.318-.64-.711-.64h-9.554c-.393 0-.711.287-.711.64z" fill="url(#A)"/><path d="M288.34-44.949a.51.51 0 0 0-.51.51v.669h-.654a.51.51 0 0 0-.51.51v.768a.51.51 0 0 0 .51.509h6.103a.51.51 0 0 0 .51-.509v-.768a.51.51 0 0 0-.51-.51h-.701v-.669a.51.51 0 0 0-.51-.51z" fill="url(#B)" stroke-linejoin="round" paint-order="normal"/></g><path d="M313.898-51.775h14.11v5.285h-14.11z" fill="#fff" stroke="#1f2555" stroke-width=".265" stroke-linejoin="round" stroke-miterlimit="4.4" paint-order="normal"/><text xml:space="preserve" x="383.418" y="-21.602" transform="matrix(.774264 0 0 1.291549 23.76 -16.992)" font-size="9.03" font-family="sans-serif" fill="#000" stroke="#fff"><tspan x="383.418" y="-21.602" stroke-width=".185">I</tspan></text></g><use xlink:href="#C"/><use xlink:href="#C" x="2.962"/></g></svg>