<svg xmlns="http://www.w3.org/2000/svg" xmlns:xlink="http://www.w3.org/1999/xlink" width="64" height="64" viewBox="0 0 16.933 16.933" xmlns:v="https://vecta.io/nano"><style><![CDATA[.B{stroke:#1f2555}.C{font-size:1.411px}.D{font-family:sans-serif}.E{stroke-linejoin:bevel}.F{stroke-width:.259}.G{stroke-width:.397}.H{stroke-linejoin:round}.I{stroke-miterlimit:4.4}.J{stroke-width:.155}]]></style><defs><linearGradient id="A" x1="331.521" y1="-101.777" x2="325.387" y2="-104.741" gradientUnits="userSpaceOnUse"><stop offset="0" stop-color="#abdee5"/><stop offset="1" stop-color="#fff"/></linearGradient><linearGradient id="B" gradientTransform="matrix(0,1.1113236,1.1317286,0,155.68515,-167.4668)" x1="75.266" y1="87.371" x2="86.215" y2="95.04" gradientUnits="userSpaceOnUse"><stop offset="0" stop-color="#fff"/><stop offset="1" stop-color="#a9dcdf"/></linearGradient><linearGradient id="C" x1="254.14" y1="-84.304" x2="263.37" y2="-71.301" gradientUnits="userSpaceOnUse"><stop offset="0" stop-color="#fff"/><stop offset="1" stop-color="#e8eaee"/></linearGradient><path id="D" d="M254.707-84.228c-.331 0-.599.263-.599.588v1.182h9.246v-1.182c0-.325-.268-.588-.599-.588z"/><path id="E" d="M254.108-82.5v10.678c0 .325.268.588.599.588h8.048c.331 0 .599-.263.599-.588V-82.5z"/><path id="F" d="M131.469 110.805h4.186v1.152h-4.186z"/></defs><g transform="translate(-319.094 104.999)" class="B"><g transform="translate(64.285 -25.224)"><g transform="translate(4.015 7.929)" class="G"><use xlink:href="#D" fill="url(#B)"/><use xlink:href="#E" fill="url(#C)" paint-order="normal" class="I"/></g><g transform="matrix(1.047469 0 0 1 123.75925 -182.77733)" fill="#cbbbe9"><g fill="#fff" class="H J"><use xlink:href="#F"/><use xlink:href="#F" y="2.459"/><use xlink:href="#F" y="4.917"/></g><text xml:space="preserve" x="129.643" y="111.837" class="C D"><tspan x="129.643" y="111.837" class="E F">~</tspan></text><text xml:space="preserve" x="129.643" y="114.295" class="C D"><tspan x="129.643" y="114.295" class="E F">~</tspan></text><text xml:space="preserve" x="129.643" y="116.753" class="C D"><tspan x="129.643" y="116.753" class="E F">~</tspan></text></g></g><g transform="translate(65.344 -26.282)"><g transform="translate(4.015 7.929)" class="G"><use xlink:href="#D" fill="url(#B)"/><use xlink:href="#E" fill="url(#C)" paint-order="normal" class="I"/></g><g transform="matrix(1.047469 0 0 1 123.75925 -182.77733)" fill="#cbbbe9"><g fill="#fff" class="H J"><use xlink:href="#F"/><use xlink:href="#F" y="2.459"/><use xlink:href="#F" y="4.917"/></g><text xml:space="preserve" x="129.643" y="111.837" class="C D"><tspan x="129.643" y="111.837" class="E F">~</tspan></text><text xml:space="preserve" x="129.643" y="114.295" class="C D"><tspan x="129.643" y="114.295" class="E F">~</tspan></text><text xml:space="preserve" x="129.643" y="116.753" class="C D"><tspan x="129.643" y="116.753" class="E F">~</tspan></text></g></g><path d="M326.279-104.535a.51.51 0 0 0-.51.51v.669h-.654a.51.51 0 0 0-.51.51v.768a.51.51 0 0 0 .51.509h6.103a.51.51 0 0 0 .51-.509v-.768a.51.51 0 0 0-.51-.51h-.701v-.669a.51.51 0 0 0-.51-.51z" fill="url(#A)" paint-order="normal" class="G H"/></g></svg>