<svg xmlns="http://www.w3.org/2000/svg" width="64" height="64" viewBox="0 0 16.933 16.933" xmlns:v="https://vecta.io/nano"><defs><linearGradient id="A" gradientTransform="matrix(0,1.2099672,1.3434226,0,167.90595,-133.6909)" x1="75.266" y1="87.371" x2="86.215" y2="95.04" gradientUnits="userSpaceOnUse"><stop offset="0" stop-color="#fff"/><stop offset="1" stop-color="#a9dcdf"/></linearGradient><linearGradient id="B" x1="293.581" y1="-42.191" x2="287.447" y2="-45.154" gradientUnits="userSpaceOnUse"><stop offset="0" stop-color="#abdee5"/><stop offset="1" stop-color="#fff"/></linearGradient></defs><g transform="translate(-256.761 -136.309)"><g transform="translate(-54.953 194.965)"><g transform="translate(27.921 -13.281)" stroke="#1f2555" stroke-width=".397"><path d="M284.74-42.423v12.913c0 .354.318.64.711.64h9.554c.393 0 .711-.287.711-.64v-12.913c0-.354-.318-.64-.711-.64h-9.554c-.393 0-.711.287-.711.64z" fill="url(#A)"/><path d="M288.34-44.949a.51.51 0 0 0-.51.51v.669h-.654a.51.51 0 0 0-.51.51v.768a.51.51 0 0 0 .51.509h6.103a.51.51 0 0 0 .51-.509v-.768a.51.51 0 0 0-.51-.51h-.701v-.669a.51.51 0 0 0-.51-.51z" fill="url(#B)" stroke-linejoin="round" paint-order="normal"/></g><path d="M313.898-51.775h14.11v5.285h-14.11z" fill="#fff" stroke="#1f2555" stroke-width=".265" stroke-linejoin="round" stroke-miterlimit="4.4" paint-order="normal"/><text xml:space="preserve" x="383.418" y="-21.602" transform="matrix(.774264 0 0 1.291549 23.76 -16.992)" font-size="9.03" font-family="sans-serif" fill="#000" stroke="#fff"><tspan x="383.418" y="-21.602" stroke-width=".185">I</tspan></text></g><g transform="matrix(.261292 0 0 .243085 318.05625 119.38199)"><ellipse cx="-206.97" cy="108.946" rx="8.746" ry="8.748" fill="#fff" paint-order="stroke fill markers"/><path d="M-201.185 103.161c-1.598-1.598-3.516-2.397-5.785-2.397s-4.187.799-5.785 2.397-2.397 3.516-2.397 5.785.799 4.187 2.397 5.785 3.516 2.397 5.785 2.397 4.187-.799 5.785-2.397 2.397-3.516 2.397-5.785-.799-4.187-2.397-5.785zm-5.785 13.297c-2.078 0-3.868-.735-5.338-2.206s-2.206-3.228-2.206-5.306.735-3.835 2.206-5.338c1.47-1.47 3.26-2.206 5.338-2.206s3.868.735 5.338 2.206c1.47 1.502 2.206 3.26 2.206 5.338-.032 2.078-.767 3.868-2.237 5.306-1.47 1.47-3.228 2.206-5.306 2.206zm.32-7.64l2.525 2.525c.064.032.096.128.096.224a.27.27 0 0 1-.32.32.29.29 0 0 1-.224-.096l-2.621-2.621a.29.29 0 0 1-.096-.224v-3.931a.27.27 0 0 1 .32-.32.27.27 0 0 1 .32.32v3.804z" fill="#1f2555"/></g></g></svg>