<svg xmlns="http://www.w3.org/2000/svg" width="64" height="64" viewBox="0 0 16.933 16.933" xmlns:v="https://vecta.io/nano"><defs><linearGradient id="A" gradientTransform="matrix(0,1.2099672,1.3434226,0,167.90595,-133.6909)" x1="75.266" y1="87.371" x2="86.215" y2="95.04" gradientUnits="userSpaceOnUse"><stop offset="0" stop-color="#fff"/><stop offset="1" stop-color="#a9dcdf"/></linearGradient><linearGradient id="B" x1="293.581" y1="-42.191" x2="287.447" y2="-45.154" gradientUnits="userSpaceOnUse"><stop offset="0" stop-color="#abdee5"/><stop offset="1" stop-color="#fff"/></linearGradient></defs><g transform="translate(-219.521 -136.309)"><g transform="translate(-92.193 194.965)"><g transform="translate(27.921 -13.281)" stroke="#1f2555" stroke-width=".397"><path d="M284.74-42.423v12.913c0 .354.318.64.711.64h9.554c.393 0 .711-.287.711-.64v-12.913c0-.354-.318-.64-.711-.64h-9.554c-.393 0-.711.287-.711.64z" fill="url(#A)"/><path d="M288.34-44.949a.51.51 0 0 0-.51.51v.669h-.654a.51.51 0 0 0-.51.51v.768a.51.51 0 0 0 .51.509h6.103a.51.51 0 0 0 .51-.509v-.768a.51.51 0 0 0-.51-.51h-.701v-.669a.51.51 0 0 0-.51-.51z" fill="url(#B)" stroke-linejoin="round" paint-order="normal"/></g><path d="M313.898-51.775h14.11v5.285h-14.11z" fill="#fff" stroke="#1f2555" stroke-width=".265" stroke-linejoin="round" stroke-miterlimit="4.4" paint-order="normal"/><text xml:space="preserve" x="383.418" y="-21.602" transform="matrix(.774264 0 0 1.291549 23.76 -16.992)" font-size="9.03" font-family="sans-serif" fill="#000" stroke="#fff"><tspan x="383.418" y="-21.602" stroke-width=".185">I</tspan></text></g><path d="M227.53 143.913h1.045c.051 0 .101.018.142.055s.061.082.061.127v3.732c0 .046-.02.091-.061.127s-.091.055-.142.055h-4.789c-.051 0-.101-.018-.142-.055s-.061-.082-.061-.127v-3.732c0-.046.02-.091.061-.127s.091-.055.142-.055h1.045v-.373h.203v.373h2.293v-.373h.203v.373zm-3.744 3.914h4.789v-2.794h-4.789v2.794zm0-2.985h4.789v-.746h-4.789v.746zm2.699.746h.416v.373h-.416v-.373zm1.045 0h.416v.373h-.416v-.373zm-3.115.938h.416v.373h-.416v-.373zm1.045 0h.416v.373h-.416v-.373zm1.035 0h.416v.373h-.416v-.373zm-2.08-.928h.416v.373h-.416v-.373zm1.045 0h.416v.373h-.416v-.373z" fill="#1f2555"/></g></svg>