<svg xmlns="http://www.w3.org/2000/svg" width="64" height="64" viewBox="0 0 16.933 16.933" xmlns:v="https://vecta.io/nano"><defs><linearGradient id="A" gradientTransform="matrix(0,1.2099672,1.3434226,0,167.90595,-133.6909)" x1="75.266" y1="87.371" x2="86.215" y2="95.04" gradientUnits="userSpaceOnUse"><stop offset="0" stop-color="#fff"/><stop offset="1" stop-color="#a9dcdf"/></linearGradient><linearGradient id="B" x1="293.581" y1="-42.191" x2="287.447" y2="-45.154" gradientUnits="userSpaceOnUse"><stop offset="0" stop-color="#abdee5"/><stop offset="1" stop-color="#fff"/></linearGradient></defs><g transform="translate(-275.107 -136.741)"><g transform="translate(-36.607 195.398)"><g transform="translate(27.921 -13.281)" stroke="#1f2555" stroke-width=".397"><path d="M284.74-42.423v12.913c0 .354.318.64.711.64h9.554c.393 0 .711-.287.711-.64v-12.913c0-.354-.318-.64-.711-.64h-9.554c-.393 0-.711.287-.711.64z" fill="url(#A)"/><path d="M288.34-44.949a.51.51 0 0 0-.51.51v.669h-.654a.51.51 0 0 0-.51.51v.768a.51.51 0 0 0 .51.509h6.103a.51.51 0 0 0 .51-.509v-.768a.51.51 0 0 0-.51-.51h-.701v-.669a.51.51 0 0 0-.51-.51z" fill="url(#B)" stroke-linejoin="round" paint-order="normal"/></g><path d="M313.898-51.775h14.11v5.285h-14.11z" fill="#fff" stroke="#1f2555" stroke-width=".265" stroke-linejoin="round" stroke-miterlimit="4.4" paint-order="normal"/><text xml:space="preserve" x="383.418" y="-21.602" transform="matrix(.774264 0 0 1.291549 23.76 -16.992)" font-size="9.03" font-family="sans-serif" fill="#000" stroke="#fff"><tspan x="383.418" y="-21.602" stroke-width=".185">I</tspan></text></g><path d="M280.587 145.367c-.211-.239-.465-.358-.767-.358s-.556.12-.767.358a1.26 1.26 0 0 0-.317.868 1.26 1.26 0 0 0 .317.868c.211.239.465.358.767.358s.556-.12.767-.358a1.26 1.26 0 0 0 .317-.868 1.26 1.26 0 0 0-.317-.868zm-.106 1.617a.85.85 0 0 1-.662.311.85.85 0 0 1-.662-.311c-.183-.207-.275-.454-.275-.749s.092-.542.275-.749a.84.84 0 0 1 .662-.311c.26 0 .486.104.669.311.176.207.267.454.267.749s-.092.542-.275.749zm-.732-2.381v-.326c0-.056.021-.08.07-.08s.07.024.07.08v.326c0 .056-.021.08-.07.08s-.07-.024-.07-.08zm.141 3.265v.326c0 .056-.021.08-.07.08s-.07-.024-.07-.08v-.326c0-.056.021-.08.07-.08s.07.024.07.08zm-1.513-1.712c.049 0 .07.024.07.08s-.021.08-.07.08h-.289c-.049 0-.07-.024-.07-.08s.021-.08.07-.08h.289zm3.175 0c.049 0 .07.024.07.08s-.021.08-.07.08h-.289c-.049 0-.07-.024-.07-.08s.021-.08.07-.08h.289zm-2.802-1.019l-.204-.231c-.014-.008-.021-.032-.021-.056 0-.056.021-.08.07-.08.028 0 .042.008.049.024l.204.231c.014.016.021.032.021.056 0 .056-.021.08-.07.08a.06.06 0 0 1-.049-.024zm2.14 2.198l.204.223c.014.016.021.04.021.064 0 .056-.021.08-.07.08-.028 0-.042-.008-.049-.024l-.204-.231c-.014-.016-.021-.032-.021-.056 0-.056.021-.08.07-.08a.06.06 0 0 1 .049.024zm-2.041 0c.014.008.021.024.021.056 0 .024-.007.04-.021.056l-.204.231c-.007.016-.021.024-.049.024-.049 0-.07-.024-.07-.08 0-.024.007-.048.021-.064l.204-.223a.06.06 0 0 1 .049-.024c.021 0 .042.008.049.024zm2.196-2.564a.06.06 0 0 1 .049.024c.014.016.021.032.021.056s-.007.048-.021.056l-.204.231a.06.06 0 0 1-.049.024c-.049 0-.07-.024-.07-.08 0-.024.007-.04.021-.056l.204-.231c.007-.016.021-.024.049-.024zm2.086.643h0a1.18 1.18 0 0 1 .098-.48h0c-.288.068-.522.234-.706.486a1.42 1.42 0 0 0-.283.879h0c0 .381.12.707.359.977s.527.406.864.406h0a1.1 1.1 0 0 0 .848-.387 1.42 1.42 0 0 0 .375-.934h0c-.168.129-.353.191-.554.191h0c-.277 0-.511-.111-.706-.332a1.18 1.18 0 0 1-.293-.805zm.337 2.146h-.006a1.01 1.01 0 0 1-.788-.369c-.217-.246-.326-.541-.326-.891h0a1.38 1.38 0 0 1 .19-.707 1.15 1.15 0 0 1 .5-.461h0a2.1 2.1 0 0 0-.022.283h0c0 .35.109.646.326.891s.478.369.788.369h0a.98.98 0 0 0 .424-.092h0a1.25 1.25 0 0 1-.397.701 1 1 0 0 1-.69.277h0z"/></g></svg>