<svg xmlns="http://www.w3.org/2000/svg" xmlns:xlink="http://www.w3.org/1999/xlink" width="64" height="64" viewBox="0 0 16.933 16.933" xmlns:v="https://vecta.io/nano"><style><![CDATA[.B{stroke:#1f2555}.C{font-size:1.411px}.D{font-family:sans-serif}.E{stroke-linejoin:bevel}.F{stroke-width:.259}.G{stroke-width:.397}.H{stroke-linejoin:round}]]></style><defs><linearGradient id="A" gradientTransform="matrix(0,1.1113236,1.1317286,0,155.68515,-167.4668)" x1="75.266" y1="87.371" x2="86.215" y2="95.04" gradientUnits="userSpaceOnUse"><stop offset="0" stop-color="#fff"/><stop offset="1" stop-color="#a9dcdf"/></linearGradient><linearGradient id="B" x1="254.14" y1="-84.304" x2="263.37" y2="-71.301" gradientUnits="userSpaceOnUse"><stop offset="0" stop-color="#fff"/><stop offset="1" stop-color="#e8eaee"/></linearGradient><linearGradient id="C" x1="271.683" y1="-77.852" x2="265.549" y2="-80.816" gradientUnits="userSpaceOnUse"><stop offset="0" stop-color="#abdee5"/><stop offset="1" stop-color="#fff"/></linearGradient><path id="D" d="M131.469 110.805h4.186v1.152h-4.186z"/></defs><g transform="translate(-259.862 81.555)" class="B"><g transform="translate(5.583 -2.263)"><g transform="translate(4.015 7.929)" class="G"><path d="M254.707-84.228c-.331 0-.599.263-.599.588v1.182h9.246v-1.182c0-.325-.268-.588-.599-.588z" fill="url(#A)"/><path d="M254.108-82.5v10.678c0 .325.268.588.599.588h8.048c.331 0 .599-.263.599-.588V-82.5z" fill="url(#B)" stroke-miterlimit="4.4" paint-order="normal"/></g><g transform="matrix(1.047469 0 0 1 123.75925 -182.77733)" fill="#cbbbe9"><g fill="#fff" stroke-width=".155" class="H"><use xlink:href="#D"/><use xlink:href="#D" y="2.459"/><use xlink:href="#D" y="4.917"/></g><text xml:space="preserve" x="129.643" y="111.837" class="C D"><tspan x="129.643" y="111.837" class="E F">~</tspan></text><text xml:space="preserve" x="129.643" y="114.295" class="C D"><tspan x="129.643" y="114.295" class="E F">~</tspan></text><text xml:space="preserve" x="129.643" y="116.753" class="C D"><tspan x="129.643" y="116.753" class="E F">~</tspan></text></g></g><path d="M266.442-80.61a.51.51 0 0 0-.51.51v.669h-.654a.51.51 0 0 0-.51.51v.768a.51.51 0 0 0 .51.509h6.103a.51.51 0 0 0 .51-.509v-.768a.51.51 0 0 0-.51-.51h-.701v-.669a.51.51 0 0 0-.51-.51z" fill="url(#C)" paint-order="normal" class="G H"/></g></svg>