<svg xmlns="http://www.w3.org/2000/svg" xmlns:xlink="http://www.w3.org/1999/xlink" width="64" height="64" viewBox="0 0 16.933 16.933" xmlns:v="https://vecta.io/nano"><style><![CDATA[.B{stroke:#1f2555}.C{stroke-linejoin:bevel}.D{font-size:1.411px}.E{font-family:sans-serif}.F{stroke-width:.259}.G{stroke-width:.397}.H{stroke-linejoin:round}]]></style><defs><linearGradient id="A" x1="277.677" y1="-77.258" x2="274.866" y2="-78.7" xlink:href="#H"><stop offset="0" stop-color="#abdee5"/><stop offset="1" stop-color="#fff"/></linearGradient><linearGradient id="B" x1="284.178" y1="-63.273" x2="267.008" y2="-86.324" xlink:href="#H"><stop offset="0" stop-color="#7a3b7f"/><stop offset="1" stop-color="#fff"/></linearGradient><linearGradient id="C" x1="280.39" y1="-68.231" x2="267.289" y2="-88.709" xlink:href="#H"><stop offset="0" stop-color="#5c6acc"/><stop offset="1" stop-color="#fff"/></linearGradient><linearGradient id="D" gradientTransform="matrix(0,1.1113236,1.1317286,0,168.38753,-167.56136)" x1="75.266" y1="87.371" x2="86.215" y2="95.04" xlink:href="#H"><stop offset="0" stop-color="#fff"/><stop offset="1" stop-color="#a9dcdf"/></linearGradient><linearGradient id="E" x1="267.299" y1="-83.973" x2="275.593" y2="-71.864" xlink:href="#H"><stop offset="0" stop-color="#fff"/><stop offset="1" stop-color="#e8eaee"/></linearGradient><path id="F" d="M274.176-79.237a.452.467 0 0 0-.452.467v1.401a.452.467 0 0 0 .452.467h3.335a.452.467 0 0 0 .452-.467v-1.401a.452.467 0 0 0-.452-.467z"/><path id="G" d="M131.469 110.805h4.186v1.152h-4.186z"/><linearGradient id="H" gradientUnits="userSpaceOnUse"/></defs><g transform="translate(-255.315 61.771)" class="B"><g transform="translate(-9.027 24.341)" class="G"><g class="C"><use xlink:href="#F" fill="url(#A)"/><use xlink:href="#F" y="4.687" fill="url(#B)"/><use xlink:href="#F" y="2.402" fill="url(#C)"/></g><g transform="translate(.331 .21)"><path d="M267.41-84.323c-.331 0-.599.263-.599.588v1.182h9.246v-1.182c0-.325-.268-.588-.599-.588z" fill="url(#D)"/><path d="M266.811-82.654v10.678c0 .325.268.588.599.588h.111 7.847.091c.331 0 .599-.263.599-.588v-7.468h1.573a.516.52 0 0 0 .515-.52v-1.56a.516.52 0 0 0-.515-.52h-1.573v-.611z" fill="url(#E)" class="H"/></g></g><g transform="matrix(1.047469 0 0 1 123.75925 -166.3166)" fill="#cbbbe9"><g fill="#fff" stroke-width=".155" class="H"><use xlink:href="#G"/><use xlink:href="#G" y="2.459"/><use xlink:href="#G" y="4.917"/></g><text xml:space="preserve" x="129.643" y="111.837" class="D E"><tspan x="129.643" y="111.837" class="C F">~</tspan></text><text xml:space="preserve" x="129.643" y="114.295" class="D E"><tspan x="129.643" y="114.295" class="C F">~</tspan></text><text xml:space="preserve" x="129.643" y="116.753" class="D E"><tspan x="129.643" y="116.753" class="C F">~</tspan></text></g></g></svg>