<svg xmlns="http://www.w3.org/2000/svg" xmlns:xlink="http://www.w3.org/1999/xlink" width="64" height="64" viewBox="0 0 16.933 16.933" xmlns:v="https://vecta.io/nano"><defs><linearGradient id="A" gradientUnits="userSpaceOnUse"><stop offset="0" stop-color="#a9dcdf"/><stop offset="1" stop-color="#fff"/></linearGradient><linearGradient xlink:href="#A" id="B" gradientTransform="matrix(0,0.27480041,0.32446819,0,145.93396,-8.100183)" x1="142.627" y1="149.925" x2="101.135" y2="135.321"/><linearGradient id="C" x1="19.092" y1="177.567" x2="32.444" y2="177.567" gradientUnits="userSpaceOnUse"><stop offset="0" stop-color="#fff"/><stop offset="1" stop-color="#a9dcdf"/></linearGradient><linearGradient id="D" x1="74.453" y1="62.501" x2="66.951" y2="50.208" gradientUnits="userSpaceOnUse"><stop offset="0" stop-color="#a9dcdf"/><stop offset="1" stop-color="#fff"/></linearGradient><linearGradient xlink:href="#A" id="E" x1="175.642" y1="48.925" x2="176.846" y2="39.718"/><path id="F" d="M67.633 51.817c.385-.696 1.007-1.045 1.704-1.245.858-.246 1.682-.253 2.5.051 1.234.457 2.045 1.598 2.426 3.06.154.594.019 1.277-.176 1.865-.402 1.209-1.338 2.148-1.859 3.299-.432.955-.613 2.167-1.339 2.938-4.035 1.732-3.468-3.181-2.982-5.598.471-1.575-1.433-2.272-.273-4.369z"/><path id="G" d="M-17.05 35.334c-.454-.072-.628-.466-.483-.755.121-.29.502-.463.712-.716.194-.191.309-.457.122-.673-.184-.224-.481-.398-.587-.656-.253-.478.044-1.028.573-1.348.602-.391 1.554-.527 2.273-.226.543.21.905.618.96 1.057.091.564-.202 1.207-.909 1.511-.331.06-.115-.286-.041-.398.19-.254.364-.528.338-.823-.013-.489-.515-.994-1.23-1.036-.525-.025-1.009.256-1.192.595-.134.324.182.622.453.857.273.208.548.428.662.709.251.564.085 1.242-.51 1.671-.296.212-.736.31-1.143.231z"/></defs><g transform="translate(-308.808 52.353)"><g transform="matrix(.605298 0 0 .635267 204.68634 -58.531789)" stroke="#1f2555" stroke-linejoin="round" stroke-width=".655"><path d="M177.582 19.243h17.266v.02c1.579.041 2.849 2.927 2.85 6.473 0 3.576-1.291 6.475-2.883 6.475-.082 0-.165.02-.247.004l-16.981.087" fill="url(#B)" stroke-linecap="round"/><ellipse cx="25.768" cy="177.567" rx="6.53" ry="2.883" transform="matrix(0 1 1 0 0 0)" fill="url(#C)"/></g><g transform="translate(336.605 -59.768)"><g transform="translate(13.765 -5.908)"><g fill="#fff" transform="matrix(.501282 0 0 .609488 -18.974522 6.26841)"><g transform="matrix(.999392 .023488 -.034858 .673418 -84.083455 -5.989406)"><use xlink:href="#F"/><path d="M69.262 50.307c-1.036.276-1.511.643-1.878 1.639-.096.299-.335 1.784-.04 1.069.16-.436.272-.896.588-1.254.506-.748 1.46-.968 2.301-1.081 1.814-.202 3.691 1.283 3.76 3.137.092.97-.167 1.948-.713 2.755-.62.97-1.317 1.914-1.642 3.035-.311.862-.57 1.919-1.46 2.364-.657.305-1.424-.035-1.92-.488-.393-.325-.442-1.033-.613-1.487-.156-.412-.007 1.451.254 1.823.433.619.605.571 1.102.719.881.307 1.88-.133 2.364-.905.734-1.056.804-2.42 1.553-3.47.698-1.079 1.547-2.17 1.621-3.506.088-.98-.062-2.02-.674-2.82-.918-1.3-2.622-1.989-4.182-1.633l-.422.103z"/></g><use xlink:href="#G"/></g><g transform="matrix(.501282 0 0 .609488 -18.974235 6.267814)"><use xlink:href="#F" fill="url(#D)" transform="matrix(.999392 .023488 -.034858 .673418 -84.083455 -5.989406)"/><g fill="#1f2555"><path d="M-16.617 29.515c-1.045.162-1.532.397-1.934 1.06-.106.199-.397 1.194-.077.719.175-.29.303-.597.632-.831.532-.492 1.493-.617 2.338-.674 1.82-.093 3.644.951 3.648 2.201.058.656-.235 1.308-.808 1.838-.653.638-1.383 1.258-1.747 2.005-.341.573-.636 1.279-1.542 1.558-.667.19-1.421-.057-1.901-.374-.382-.228-.406-.706-.561-1.015-.141-.281-.057.977.19 1.233.412.427.585.399 1.076.51.87.228 1.884-.045 2.394-.554.771-.694.888-1.611 1.673-2.301.735-.71 1.622-1.425 1.742-2.323.122-.658.008-1.362-.575-1.915-.872-.897-2.551-1.401-4.122-1.198l-.425.059z"/><use xlink:href="#G"/></g></g></g><path d="M-17.684 18.039c-.108 0-.199.08-.214.187l-.515 3.766-.351-2.865c-.013-.104-.098-.184-.203-.19s-.198.063-.223.165l-.459 1.901-.123-.25c-.04-.081-.126-.129-.216-.12l-.464.047c-.119.012-.206.118-.194.237s.118.206.237.194l.315-.032.321.651c.04.082.128.13.218.12s.165-.076.187-.164l.319-1.322.409 3.338c.013.108.105.19.214.19s.201-.08.216-.188l.53-3.878.318 2.253c.014.101.098.179.2.186s.195-.059.223-.157l.263-.93.376 1.957c.021.104.114.178.22.175s.194-.083.208-.189l.318-2.568.254 1.118c.021.093.101.161.196.168s.184-.05.218-.139l.278-.728.076.225c.033.1.134.161.238.145l.491-.073c.057-.008.108-.039.142-.085s.049-.104.04-.161c-.018-.118-.128-.2-.246-.182l-.311.046-.211-.626c-.029-.087-.11-.146-.201-.147s-.174.054-.207.14l-.237.623-.369-1.626c-.024-.102-.117-.173-.222-.168s-.191.085-.204.189l-.302 2.433-.289-1.506c-.019-.099-.103-.172-.203-.176s-.191.061-.218.158l-.233.822-.393-2.779c-.015-.107-.107-.186-.215-.186z" fill="#fff"/><path d="M176.894 39.519c-.177 0-.327.131-.351.307l-.845 6.178-.576-4.7c-.021-.17-.161-.301-.332-.311s-.325.104-.366.271l-.754 3.12-.202-.41c-.066-.133-.207-.212-.355-.196l-.761.078c-.195.02-.337.194-.318.389s.194.337.389.318l.516-.053.527 1.068c.066.134.209.213.358.196s.271-.124.306-.27l.524-2.169.671 5.477c.022.177.172.311.351.312s.33-.131.354-.308l.87-6.363.523 3.696c.024.166.161.293.328.305s.32-.096.366-.258l.432-1.525.616 3.212c.034.171.186.292.36.287s.318-.137.341-.31l.522-4.213.416 1.834c.035.153.165.265.321.276s.301-.081.357-.228l.455-1.194.124.37c.055.164.219.264.39.238l.805-.12c.093-.014.177-.064.233-.14s.08-.171.066-.264c-.029-.194-.21-.327-.404-.298l-.511.076-.346-1.027c-.048-.142-.18-.239-.33-.242s-.286.089-.339.229l-.389 1.022-.606-2.668c-.039-.168-.192-.284-.364-.275s-.313.139-.335.31l-.495 3.992-.474-2.471c-.031-.162-.169-.281-.334-.289s-.313.1-.358.258l-.382 1.348-.645-4.559c-.025-.176-.175-.306-.353-.305z" fill="url(#E)" stroke="#1f2555" stroke-width=".282" stroke-linejoin="round" transform="matrix(.609488 0 0 .609488 -125.49908 -6.048644)"/></g></g></svg>