<svg xmlns="http://www.w3.org/2000/svg" xmlns:xlink="http://www.w3.org/1999/xlink" width="64" height="64" viewBox="0 0 16.933 16.933" xmlns:v="https://vecta.io/nano"><defs><linearGradient id="A" gradientUnits="userSpaceOnUse"><stop offset="0" stop-color="#a9dcdf"/><stop offset="1" stop-color="#fff"/></linearGradient><linearGradient xlink:href="#A" id="B" x1="120.508" y1="177.907" x2="119.652" y2="174.079"/><linearGradient xlink:href="#A" id="C" x1="338.115" y1="-30.009" x2="323.981" y2="-35.169"/><linearGradient xlink:href="#A" id="D" x1="338.115" y1="-23.659" x2="323.981" y2="-28.819"/></defs><g transform="translate(-312.208 -63.451)"><g transform="translate(-9.827 105.607)"><g transform="translate(-.646 -4.316)" stroke="#1f2555"><path d="M331.114-22.452l.066-13.841" fill="none" stroke-width=".661" stroke-linecap="round"/><g stroke-width=".397" stroke-linejoin="round" stroke-miterlimit="4.4"><path d="M324.092-35.085h14.11v5.058h-14.11z" fill="url(#C)" paint-order="normal"/><path d="M324.092-28.735h14.11v5.058h-14.11z" fill="url(#D)" paint-order="normal"/></g></g><path d="M324.767-36.795l.859.902 1.641-1.865.196.207-1.831 2.059-1.067-1.096.202-.207z" fill="#1f2555"/><text xml:space="preserve" x="329.153" y="-28.446" transform="scale(.98581297 1.0143912)" font-size="2.844" font-family="sans-serif" fill="#1f2555"><tspan x="329.153" y="-28.446">...</tspan></text></g><path d="M119.006 177.647c-.451-.286-.716-.673-.837-1.212s-.052-1.031.235-1.482.696-.751 1.234-.871 1.037-.024 1.488.263.751.696.871 1.234.017 1.008-.269 1.459-.696.751-1.234.871-1.037.024-1.488-.263z" fill="url(#B)" transform="matrix(1.235602 0 0 1.235602 177.38511 -141.216)"/><path d="M327.318 78.251c.615-.51.916-1.148.916-1.926h0a2.41 2.41 0 0 0-.731-1.763c-.487-.487-1.079-.731-1.763-.731h0c-.51 0-.974.139-1.38.418h0c-.035.011-.046.046-.046.093h0c0 .081.035.116.116.116h0c.011 0 .035-.011.07-.023h0c.394-.255.812-.383 1.264-.383h0c.638 0 1.172.22 1.624.673a2.23 2.23 0 0 1 .661 1.624h0c0 .626-.22 1.16-.661 1.612-.452.452-.986.673-1.624.673s-1.172-.22-1.612-.673a2.19 2.19 0 0 1-.673-1.612h0c0-.534.162-1.009.499-1.427h0l.348.313c-.244.313-.36.673-.36 1.079h0a1.67 1.67 0 0 0 1.775 1.775h0c.487 0 .905-.174 1.253-.522a1.67 1.67 0 0 0 .522-1.253h0c0-.487-.174-.905-.522-1.253s-.766-.522-1.253-.522h0c-.267 0-.545.07-.824.197h0c-.035.035-.046.07-.046.104h0c0 .081.035.116.116.116h0c.023 0 .046 0 .058-.011h0c.197-.104.429-.162.684-.162h0 .023c.429 0 .8.151 1.102.452s.452.673.452 1.102-.151.8-.452 1.102c-.302.313-.673.464-1.102.464s-.8-.151-1.102-.464c-.313-.302-.464-.673-.464-1.102h0c0-.336.104-.65.325-.94h0l.348.313c-.128.197-.197.406-.197.615h0v.023a1.01 1.01 0 0 0 .325.766 1.05 1.05 0 0 0 .777.325 1.05 1.05 0 0 0 .777-.325 1.04 1.04 0 0 0 .313-.766c0-.302-.104-.557-.313-.777-.22-.209-.476-.313-.777-.313h0c-.093 0-.162 0-.197.011h0c-.058.011-.093.058-.093.116h0c0 .081.035.128.116.128h0c.011 0 .011 0 .023-.011h0 .116c.232 0 .429.081.592.244a.8.8 0 0 1 .244.58h0c0 .232-.081.429-.244.592s-.36.244-.592.244h0a.8.8 0 0 1-.58-.244c-.162-.162-.244-.36-.244-.592h0a.75.75 0 0 1 .139-.452h0l.36.325c-.011.023-.023.07-.023.139h0a.34.34 0 0 0 .36.36.34.34 0 0 0 .36-.36c0-.104-.035-.186-.104-.267a.34.34 0 0 0-.255-.104h0c-.046 0-.104.011-.186.046h0l-1.752-1.555.07-.429-.673-.673-.174.499-.499.174.673.673.429-.07.011.011.151.128c-.371.452-.557.963-.557 1.555h0a2.37 2.37 0 0 0 .905 1.914h0c.558.481 1.038.574 1.589.58h0c.522 0 .986-.151 1.415-.441h0c-.354-.174-.345.323.174-.127zm-3.701-4.141l-.046.29-.29.046-.313-.313.255-.081.081-.255.313.313z" fill="#1f2555"/></g></svg>