<svg xmlns="http://www.w3.org/2000/svg" width="64" height="64" viewBox="0 0 16.933 16.933" xmlns:v="https://vecta.io/nano"><defs><linearGradient id="A" x1="669.882" y1="-41.987" x2="651.339" y2="-124.941" gradientUnits="userSpaceOnUse"><stop offset="0" stop-color="#a9dcdf"/><stop offset="1" stop-color="#fff"/></linearGradient><linearGradient id="B" x1="-42.308" y1="192.733" x2="-74.212" y2="162.444" gradientUnits="userSpaceOnUse"><stop offset="0" stop-color="#a9dcdf"/><stop offset="1" stop-color="#fff"/></linearGradient></defs><g transform="matrix(.057015 0 0 .057015 -24.34903 17.838414)"><path d="M-74.308 160.733h32v32h-32z" fill="url(#B)" transform="matrix(6.987201 0 0 4.922557 968.60952 -1012.763)"/><path d="M667.057-231.351H615.83v-14.176c0-6.402-2.281-11.893-6.864-16.467s-10.065-6.864-16.922-6.864h-55.801c-6.864 0-12.348 2.285-16.922 6.864s-6.864 10.065-6.864 16.467v14.176h-51.228c-4.118 0-7.319 1.372-10.065 4.118s-4.119 5.946-4.119 10.065v149.565c0 4.118 1.372 7.319 4.119 10.065s5.946 4.118 10.065 4.118H667.05c4.118 0 7.319-1.372 10.065-4.118s4.118-5.947 4.118-10.065v-149.565c0-4.119-1.372-7.319-4.118-10.065s-5.946-4.118-10.065-4.118zm-144.991 0v-14.176c0-4.118 1.372-7.319 4.118-10.065s5.947-4.118 10.065-4.118h55.802c4.118 0 7.319 1.372 10.065 4.118s4.118 5.947 4.118 10.065v14.176h-84.161zm151.848 60.375l-1.826 103.366c0 3.202-1.826 5.029-5.029 5.029H461.238c-3.202 0-5.029-1.826-5.029-5.029v-102.455c24.241 13.721 51.683 24.696 81.87 33.388l2.747 17.839c0 2.285.917 4.574 2.747 6.401s4.119 2.747 6.402 2.747h28.36c2.281 0 4.574-.917 6.402-2.747s2.747-4.118 2.747-6.401v-17.377c31.56-8.692 60.375-20.122 86.444-34.761zm-123.951 52.138v-15.549c4.118.917 8.692 1.372 14.176 1.372 5.029 0 10.065-.454 14.639-1.372l-.454 15.549h-28.36zm122.123-98.337v36.589l-2.281 1.372c-48.937 24.241-84.161 36.589-105.656 36.589s-56.719-12.348-105.657-36.589l-2.281-1.372v-36.589c0-3.202 1.826-5.029 5.029-5.029h205.822c3.202 0 5.029 1.826 5.029 5.029z" fill="#1f2555"/><path d="M637.33-47.613c-9.775-6.203-15.522-14.59-18.132-26.267s-1.121-22.335 5.083-32.11 15.075-16.273 26.752-18.883 22.471-.509 32.246 5.695 16.273 15.075 18.883 26.752.368 21.85-5.834 31.625-15.075 16.273-26.752 18.883-22.472.509-32.246-5.695z" fill="url(#A)"/><path d="M688.002-48.213c10.784-8.951 16.074-20.144 16.074-33.775h0c0-12.005-4.272-22.381-12.819-30.928s-18.922-12.818-30.927-12.818h0c-8.952 0-17.09 2.443-24.213 7.325h0c-.61.195-.812.812-.812 1.626h0c0 1.424.61 2.035 2.035 2.035h0c.195 0 .61-.195 1.222-.407h0c6.917-4.477 14.242-6.714 22.178-6.714h0c11.192 0 20.552 3.867 28.484 11.803 7.73 7.936 11.597 17.296 11.597 28.484h0c0 10.986-3.867 20.346-11.597 28.282-7.936 7.936-17.296 11.803-28.484 11.803s-20.552-3.867-28.282-11.803c-7.936-7.936-11.803-17.296-11.803-28.282h0c0-9.36 2.848-17.701 8.749-25.026h0l6.104 5.493c-4.272 5.493-6.306 11.803-6.306 18.922h0c0 8.749 3.054 16.074 9.157 21.976 5.901 6.104 13.227 9.157 21.976 9.157h0c8.547 0 15.872-3.054 21.976-9.157 6.104-5.901 9.157-13.227 9.157-21.976h0c0-8.547-3.053-15.872-9.157-21.976s-13.429-9.157-21.976-9.157h0c-4.68 0-9.562 1.222-14.445 3.458h0c-.61.61-.812 1.222-.812 1.831h0c0 1.424.612 2.035 2.035 2.035h0c.407 0 .812 0 1.017-.195h0c3.459-1.831 7.528-2.848 12.005-2.848h0 .407c7.528 0 14.04 2.645 19.33 7.936s7.936 11.803 7.936 19.33-2.645 14.04-7.936 19.33c-5.291 5.493-11.803 8.138-19.33 8.138s-14.04-2.645-19.33-8.138c-5.493-5.291-8.138-11.803-8.138-19.33h0c0-5.901 1.831-11.395 5.695-16.483h0l6.104 5.493c-2.237 3.458-3.458 7.123-3.458 10.784h0v.407c0 5.291 1.831 9.768 5.696 13.429 3.867 3.867 8.341 5.696 13.632 5.696s9.768-1.831 13.631-5.696c3.661-3.661 5.493-8.138 5.493-13.429s-1.831-9.768-5.493-13.631c-3.867-3.661-8.341-5.493-13.631-5.493h0c-1.626 0-2.848 0-3.459.195h0c-1.017.195-1.626 1.016-1.626 2.035h0c0 1.424.61 2.237 2.035 2.237h0c.195 0 .195 0 .407-.195h0 2.035c4.069 0 7.528 1.424 10.376 4.272s4.272 6.306 4.272 10.173h0c0 4.069-1.424 7.528-4.272 10.376s-6.306 4.272-10.376 4.272h0c-3.867 0-7.325-1.424-10.173-4.272s-4.272-6.306-4.272-10.376h0c0-3.053.814-5.696 2.443-7.936h0l6.306 5.696c-.195.407-.407 1.222-.407 2.443h0c0 1.831.61 3.256 1.834 4.478s2.645 1.831 4.477 1.831 3.256-.612 4.477-1.831 1.831-2.645 1.831-4.478-.61-3.256-1.831-4.68c-1.222-1.222-2.645-1.831-4.477-1.831h0c-.812 0-1.831.195-3.256.812h0l-30.725-27.266 1.222-7.528-11.803-11.803-3.053 8.749-8.749 3.054 11.803 11.803 7.528-1.222c.195 0 .195 0 .195.195h0l2.645 2.237c-6.512 7.936-9.768 16.888-9.768 27.266h0c0 13.632 5.291 24.823 15.872 33.573h0c9.794 8.437 18.207 10.073 27.871 10.176h0c9.157 0 17.296-2.645 24.824-7.73h0c-6.216-3.051-6.044 5.667 3.055-2.235zm-64.905-72.638l-.812 5.088-5.088.812-5.493-5.493 4.478-1.424 1.424-4.477 5.493 5.493z" fill="#1f2555"/></g></svg>