<svg xmlns="http://www.w3.org/2000/svg" width="64" height="64" viewBox="0 0 16.933 16.933" xmlns:v="https://vecta.io/nano"><defs><linearGradient id="A" x1="120.508" y1="177.907" x2="119.652" y2="174.079" gradientUnits="userSpaceOnUse"><stop offset="0" stop-color="#a9dcdf"/><stop offset="1" stop-color="#fff"/></linearGradient></defs><path d="M119.006 177.647c-.451-.286-.716-.673-.837-1.212s-.052-1.031.235-1.482.696-.751 1.234-.871 1.037-.024 1.488.263.751.696.871 1.234.017 1.008-.269 1.459-.696.751-1.234.871-1.037.024-1.488-.263z" fill="url(#A)" transform="matrix(3.26191 0 0 3.26191 -382.232724 -564.583626)"/><path d="M13.58 14.796C15.203 13.448 16 11.764 16 9.712h0c0-1.807-.643-3.369-1.929-4.655s-2.848-1.929-4.655-1.929h0c-1.347 0-2.572.368-3.644 1.103h0c-.092.029-.122.122-.122.245h0c0 .214.092.306.306.306h0c.029 0 .092-.029.184-.061h0c1.041-.674 2.144-1.011 3.338-1.011h0c1.685 0 3.093.582 4.287 1.776 1.164 1.194 1.746 2.603 1.746 4.287h0c0 1.654-.582 3.062-1.746 4.257a5.8 5.8 0 0 1-4.287 1.776c-1.684 0-3.093-.582-4.257-1.776a5.78 5.78 0 0 1-1.776-4.257h0c0-1.409.429-2.664 1.317-3.767h0l.919.827c-.643.827-.949 1.776-.949 2.848h0c0 1.317.46 2.419 1.378 3.308.888.919 1.991 1.378 3.308 1.378h0a4.51 4.51 0 0 0 3.308-1.378c.919-.888 1.378-1.991 1.378-3.308h0c0-1.286-.46-2.389-1.378-3.308a4.51 4.51 0 0 0-3.308-1.378h0c-.704 0-1.439.184-2.174.521h0c-.092.092-.122.184-.122.276h0c0 .214.092.306.306.306h0c.061 0 .122 0 .153-.029h0c.521-.276 1.133-.429 1.807-.429h0 .061c1.133 0 2.113.398 2.909 1.194s1.195 1.777 1.195 2.91-.398 2.113-1.195 2.91c-.796.827-1.776 1.225-2.909 1.225s-2.113-.398-2.91-1.225c-.827-.796-1.225-1.777-1.225-2.91h0c0-.888.276-1.715.857-2.481h0l.919.827c-.337.521-.521 1.072-.521 1.623h0v.061c0 .796.276 1.47.857 2.021.582.582 1.255.857 2.052.857s1.47-.276 2.052-.857c.551-.551.827-1.225.827-2.021s-.276-1.47-.827-2.052c-.582-.551-1.255-.827-2.052-.827h0c-.245 0-.429 0-.521.029h0c-.153.029-.245.153-.245.306h0c0 .214.092.337.306.337h0c.029 0 .029 0 .061-.029h0 .306c.612 0 1.133.214 1.562.643s.643.949.643 1.531h0c0 .612-.214 1.133-.643 1.562s-.949.643-1.562.643h0c-.582 0-1.103-.214-1.531-.643s-.643-.949-.643-1.562h0c0-.46.123-.857.368-1.194h0l.949.857c-.029.061-.061.184-.061.368h0a.9.9 0 0 0 .276.674.9.9 0 0 0 .674.276.9.9 0 0 0 .674-.276.9.9 0 0 0 .276-.674c0-.276-.092-.49-.276-.704a.9.9 0 0 0-.674-.276h0c-.122 0-.276.029-.49.122h0L4.302 4.781l.184-1.133L2.71 1.872l-.46 1.317-1.317.46L2.71 5.425l1.133-.184c.029 0 .029 0 .029.029h0l.398.337C3.29 6.801 2.8 8.149 2.8 9.711h0c0 2.052.796 3.736 2.389 5.053h0c1.474 1.27 2.74 1.516 4.195 1.532h0c1.378 0 2.603-.398 3.736-1.163h0c-.936-.459-.91.853.46-.336zM3.811 3.863l-.122.766-.766.122-.827-.827.674-.214.214-.674.827.827z" fill="#1f2555"/></svg>